%TF.GenerationSoftware,KiCad,Pcbnew,7.0.2*%
%TF.CreationDate,2024-01-21T15:04:14+01:00*%
%TF.ProjectId,ESP32CAM,45535033-3243-4414-9d2e-6b696361645f,rev?*%
%TF.SameCoordinates,Original*%
%TF.FileFunction,Copper,L1,Top*%
%TF.FilePolarity,Positive*%
%FSLAX46Y46*%
G04 Gerber Fmt 4.6, Leading zero omitted, Abs format (unit mm)*
G04 Created by KiCad (PCBNEW 7.0.2) date 2024-01-21 15:04:14*
%MOMM*%
%LPD*%
G01*
G04 APERTURE LIST*
G04 Aperture macros list*
%AMRoundRect*
0 Rectangle with rounded corners*
0 $1 Rounding radius*
0 $2 $3 $4 $5 $6 $7 $8 $9 X,Y pos of 4 corners*
0 Add a 4 corners polygon primitive as box body*
4,1,4,$2,$3,$4,$5,$6,$7,$8,$9,$2,$3,0*
0 Add four circle primitives for the rounded corners*
1,1,$1+$1,$2,$3*
1,1,$1+$1,$4,$5*
1,1,$1+$1,$6,$7*
1,1,$1+$1,$8,$9*
0 Add four rect primitives between the rounded corners*
20,1,$1+$1,$2,$3,$4,$5,0*
20,1,$1+$1,$4,$5,$6,$7,0*
20,1,$1+$1,$6,$7,$8,$9,0*
20,1,$1+$1,$8,$9,$2,$3,0*%
G04 Aperture macros list end*
%TA.AperFunction,SMDPad,CuDef*%
%ADD10R,1.150000X0.600000*%
%TD*%
%TA.AperFunction,SMDPad,CuDef*%
%ADD11R,1.150000X0.300000*%
%TD*%
%TA.AperFunction,ComponentPad*%
%ADD12O,2.100000X1.000000*%
%TD*%
%TA.AperFunction,ComponentPad*%
%ADD13O,1.800000X1.000000*%
%TD*%
%TA.AperFunction,SMDPad,CuDef*%
%ADD14RoundRect,0.237500X-0.237500X0.250000X-0.237500X-0.250000X0.237500X-0.250000X0.237500X0.250000X0*%
%TD*%
%TA.AperFunction,SMDPad,CuDef*%
%ADD15RoundRect,0.237500X-0.237500X0.300000X-0.237500X-0.300000X0.237500X-0.300000X0.237500X0.300000X0*%
%TD*%
%TA.AperFunction,SMDPad,CuDef*%
%ADD16RoundRect,0.237500X-0.287500X-0.237500X0.287500X-0.237500X0.287500X0.237500X-0.287500X0.237500X0*%
%TD*%
%TA.AperFunction,SMDPad,CuDef*%
%ADD17R,0.600000X1.300000*%
%TD*%
%TA.AperFunction,SMDPad,CuDef*%
%ADD18R,1.250000X1.000000*%
%TD*%
%TA.AperFunction,SMDPad,CuDef*%
%ADD19RoundRect,0.237500X-0.250000X-0.237500X0.250000X-0.237500X0.250000X0.237500X-0.250000X0.237500X0*%
%TD*%
%TA.AperFunction,SMDPad,CuDef*%
%ADD20R,1.450000X1.000000*%
%TD*%
%TA.AperFunction,SMDPad,CuDef*%
%ADD21RoundRect,0.237500X0.250000X0.237500X-0.250000X0.237500X-0.250000X-0.237500X0.250000X-0.237500X0*%
%TD*%
%TA.AperFunction,SMDPad,CuDef*%
%ADD22RoundRect,0.237500X0.237500X-0.250000X0.237500X0.250000X-0.237500X0.250000X-0.237500X-0.250000X0*%
%TD*%
%TA.AperFunction,SMDPad,CuDef*%
%ADD23RoundRect,0.237500X0.300000X0.237500X-0.300000X0.237500X-0.300000X-0.237500X0.300000X-0.237500X0*%
%TD*%
%TA.AperFunction,SMDPad,CuDef*%
%ADD24R,0.900000X1.200000*%
%TD*%
%TA.AperFunction,SMDPad,CuDef*%
%ADD25RoundRect,0.237500X-0.300000X-0.237500X0.300000X-0.237500X0.300000X0.237500X-0.300000X0.237500X0*%
%TD*%
%TA.AperFunction,SMDPad,CuDef*%
%ADD26RoundRect,0.237500X0.237500X-0.300000X0.237500X0.300000X-0.237500X0.300000X-0.237500X-0.300000X0*%
%TD*%
%TA.AperFunction,SMDPad,CuDef*%
%ADD27R,1.000000X1.250000*%
%TD*%
%TA.AperFunction,SMDPad,CuDef*%
%ADD28RoundRect,0.150000X-0.512500X-0.150000X0.512500X-0.150000X0.512500X0.150000X-0.512500X0.150000X0*%
%TD*%
%TA.AperFunction,SMDPad,CuDef*%
%ADD29RoundRect,0.062500X0.062500X-0.117500X0.062500X0.117500X-0.062500X0.117500X-0.062500X-0.117500X0*%
%TD*%
%TA.AperFunction,ComponentPad*%
%ADD30R,1.700000X1.700000*%
%TD*%
%TA.AperFunction,ComponentPad*%
%ADD31O,1.700000X1.700000*%
%TD*%
%TA.AperFunction,SMDPad,CuDef*%
%ADD32R,0.900000X1.500000*%
%TD*%
%TA.AperFunction,SMDPad,CuDef*%
%ADD33R,1.500000X0.900000*%
%TD*%
%TA.AperFunction,SMDPad,CuDef*%
%ADD34R,4.500000X4.500000*%
%TD*%
%TA.AperFunction,SMDPad,CuDef*%
%ADD35RoundRect,0.250001X0.499999X0.924999X-0.499999X0.924999X-0.499999X-0.924999X0.499999X-0.924999X0*%
%TD*%
%TA.AperFunction,SMDPad,CuDef*%
%ADD36RoundRect,0.062500X-0.062500X0.117500X-0.062500X-0.117500X0.062500X-0.117500X0.062500X0.117500X0*%
%TD*%
%TA.AperFunction,SMDPad,CuDef*%
%ADD37R,1.500000X2.000000*%
%TD*%
%TA.AperFunction,SMDPad,CuDef*%
%ADD38R,3.800000X2.000000*%
%TD*%
%TA.AperFunction,SMDPad,CuDef*%
%ADD39R,1.300000X0.600000*%
%TD*%
%TA.AperFunction,SMDPad,CuDef*%
%ADD40R,3.000000X1.300000*%
%TD*%
%TA.AperFunction,SMDPad,CuDef*%
%ADD41R,0.700000X1.600000*%
%TD*%
%TA.AperFunction,SMDPad,CuDef*%
%ADD42R,1.200000X2.200000*%
%TD*%
%TA.AperFunction,SMDPad,CuDef*%
%ADD43R,1.600000X1.400000*%
%TD*%
%TA.AperFunction,SMDPad,CuDef*%
%ADD44R,1.200000X1.400000*%
%TD*%
%TA.AperFunction,SMDPad,CuDef*%
%ADD45RoundRect,0.062500X-0.062500X0.337500X-0.062500X-0.337500X0.062500X-0.337500X0.062500X0.337500X0*%
%TD*%
%TA.AperFunction,SMDPad,CuDef*%
%ADD46RoundRect,0.062500X-0.337500X0.062500X-0.337500X-0.062500X0.337500X-0.062500X0.337500X0.062500X0*%
%TD*%
%TA.AperFunction,SMDPad,CuDef*%
%ADD47R,3.350000X3.350000*%
%TD*%
%TA.AperFunction,SMDPad,CuDef*%
%ADD48RoundRect,0.150000X0.150000X-0.675000X0.150000X0.675000X-0.150000X0.675000X-0.150000X-0.675000X0*%
%TD*%
%TA.AperFunction,SMDPad,CuDef*%
%ADD49R,0.300000X1.300000*%
%TD*%
%TA.AperFunction,SMDPad,CuDef*%
%ADD50R,1.800000X2.200000*%
%TD*%
%TA.AperFunction,ViaPad*%
%ADD51C,0.800000*%
%TD*%
%TA.AperFunction,Conductor*%
%ADD52C,0.550000*%
%TD*%
%TA.AperFunction,Conductor*%
%ADD53C,0.254000*%
%TD*%
G04 APERTURE END LIST*
D10*
%TO.P,J1,A1,GND*%
%TO.N,GND*%
X157605000Y-83300000D03*
%TO.P,J1,A4,VBUS*%
%TO.N,/USB_PWR*%
X157605000Y-84100000D03*
D11*
%TO.P,J1,A5,CC1*%
%TO.N,Net-(J1-CC1)*%
X157605000Y-85250000D03*
%TO.P,J1,A6,D+*%
%TO.N,/DATA+*%
X157605000Y-86250000D03*
%TO.P,J1,A7,D-*%
%TO.N,/DATA-*%
X157605000Y-86750000D03*
%TO.P,J1,A8,SBU1*%
%TO.N,unconnected-(J1-SBU1-PadA8)*%
X157605000Y-87750000D03*
D10*
%TO.P,J1,A9,VBUS*%
%TO.N,/USB_PWR*%
X157605000Y-88900000D03*
%TO.P,J1,A12,GND*%
%TO.N,GND*%
X157605000Y-89700000D03*
%TO.P,J1,B1,GND*%
X157605000Y-89700000D03*
%TO.P,J1,B4,VBUS*%
%TO.N,/USB_PWR*%
X157605000Y-88900000D03*
D11*
%TO.P,J1,B5,CC2*%
%TO.N,Net-(J1-CC2)*%
X157605000Y-88250000D03*
%TO.P,J1,B6,D+*%
%TO.N,/DATA+*%
X157605000Y-87250000D03*
%TO.P,J1,B7,D-*%
%TO.N,/DATA-*%
X157605000Y-85750000D03*
%TO.P,J1,B8,SBU2*%
%TO.N,unconnected-(J1-SBU2-PadB8)*%
X157605000Y-84750000D03*
D10*
%TO.P,J1,B9,VBUS*%
%TO.N,/USB_PWR*%
X157605000Y-84100000D03*
%TO.P,J1,B12,GND*%
%TO.N,GND*%
X157605000Y-83300000D03*
D12*
%TO.P,J1,S1,SHIELD*%
X157030000Y-82180000D03*
D13*
X152850000Y-82180000D03*
D12*
X157030000Y-90820000D03*
D13*
X152850000Y-90820000D03*
%TD*%
D14*
%TO.P,R28,1*%
%TO.N,/VCC_ESP*%
X183421800Y-83745700D03*
%TO.P,R28,2*%
%TO.N,/HS2_DATA1*%
X183421800Y-85570700D03*
%TD*%
D15*
%TO.P,C5,1*%
%TO.N,/CSI_1.2V*%
X196662500Y-79934100D03*
%TO.P,C5,2*%
%TO.N,GND*%
X196662500Y-81659100D03*
%TD*%
D16*
%TO.P,D3,1,K*%
%TO.N,/TXD*%
X172125000Y-89900000D03*
%TO.P,D3,2,A*%
%TO.N,Net-(D3-A)*%
X173875000Y-89900000D03*
%TD*%
D14*
%TO.P,R23,1*%
%TO.N,/VCC_ESP*%
X190017400Y-83771100D03*
%TO.P,R23,2*%
%TO.N,/HS2_DATA3*%
X190017400Y-85596100D03*
%TD*%
D17*
%TO.P,Q1,1,D*%
%TO.N,/VCC_ESP*%
X201350000Y-74950000D03*
%TO.P,Q1,2,G*%
%TO.N,Net-(Q1-G)*%
X199450000Y-74950000D03*
%TO.P,Q1,3,S*%
%TO.N,Net-(#FLG02-pwr)*%
X200400000Y-77050000D03*
%TD*%
D18*
%TO.P,S1,1*%
%TO.N,GND*%
X151293600Y-78333600D03*
%TO.P,S1,2*%
%TO.N,/EN*%
X159043600Y-78333600D03*
%TD*%
D19*
%TO.P,R6,1*%
%TO.N,Net-(Q1-G)*%
X199512500Y-71650000D03*
%TO.P,R6,2*%
%TO.N,/VCC_ESP*%
X201337500Y-71650000D03*
%TD*%
D15*
%TO.P,C9,1*%
%TO.N,/CSI_2.8V*%
X187059100Y-79984900D03*
%TO.P,C9,2*%
%TO.N,GND*%
X187059100Y-81709900D03*
%TD*%
D20*
%TO.P,S7,1*%
%TO.N,/I016*%
X220542000Y-102920800D03*
X215392000Y-102920800D03*
%TO.P,S7,2*%
%TO.N,GND*%
X220542000Y-101220800D03*
X215392000Y-101220800D03*
%TD*%
D21*
%TO.P,R1,1*%
%TO.N,/VCC_ESP*%
X177325000Y-88300000D03*
%TO.P,R1,2*%
%TO.N,Net-(D2-A)*%
X175500000Y-88300000D03*
%TD*%
D15*
%TO.P,C21,1*%
%TO.N,/CSI_MCLK*%
X162500000Y-98862500D03*
%TO.P,C21,2*%
%TO.N,GND*%
X162500000Y-100587500D03*
%TD*%
D19*
%TO.P,R34,1*%
%TO.N,/VCC_ESP*%
X175390000Y-85344000D03*
%TO.P,R34,2*%
%TO.N,/TWI_SCK*%
X177215000Y-85344000D03*
%TD*%
D22*
%TO.P,R2,1*%
%TO.N,/VCC_ESP*%
X164025000Y-100637500D03*
%TO.P,R2,2*%
%TO.N,Net-(U4-~{RST})*%
X164025000Y-98812500D03*
%TD*%
D23*
%TO.P,C3,1*%
%TO.N,GND*%
X167638900Y-93116400D03*
%TO.P,C3,2*%
%TO.N,/VCC_ESP*%
X165913900Y-93116400D03*
%TD*%
D19*
%TO.P,R31,1*%
%TO.N,/VCC_ESP*%
X175440000Y-82265000D03*
%TO.P,R31,2*%
%TO.N,/CAM_RST*%
X177265000Y-82265000D03*
%TD*%
D16*
%TO.P,D5,1,K*%
%TO.N,GND*%
X172125000Y-91540000D03*
%TO.P,D5,2,A*%
%TO.N,Net-(D5-A)*%
X173875000Y-91540000D03*
%TD*%
D24*
%TO.P,D7,1,K*%
%TO.N,Net-(D7-K)*%
X172125000Y-71390000D03*
%TO.P,D7,2,A*%
%TO.N,/VCC_ESP*%
X172125000Y-74190000D03*
%TO.P,D7,3*%
%TO.N,N/C*%
X170675000Y-74190000D03*
%TO.P,D7,4*%
X170675000Y-71390000D03*
%TD*%
D25*
%TO.P,C12,1*%
%TO.N,/VCC_ESP*%
X199187500Y-92975000D03*
%TO.P,C12,2*%
%TO.N,GND*%
X200912500Y-92975000D03*
%TD*%
D26*
%TO.P,C6,1*%
%TO.N,/USB_PWR*%
X160553400Y-83031500D03*
%TO.P,C6,2*%
%TO.N,GND*%
X160553400Y-81306500D03*
%TD*%
D25*
%TO.P,C11,1*%
%TO.N,Net-(#FLG02-pwr)*%
X199737500Y-79200000D03*
%TO.P,C11,2*%
%TO.N,GND*%
X201462500Y-79200000D03*
%TD*%
D27*
%TO.P,S3,1*%
%TO.N,/HS2_DATA3*%
X163800000Y-77675000D03*
%TO.P,S3,2*%
%TO.N,GND*%
X163800000Y-69925000D03*
%TD*%
D21*
%TO.P,R9,1*%
%TO.N,/VCC_ESP*%
X177342500Y-91500000D03*
%TO.P,R9,2*%
%TO.N,Net-(D5-A)*%
X175517500Y-91500000D03*
%TD*%
D23*
%TO.P,C8,1*%
%TO.N,/VCC_ESP*%
X167932500Y-87470000D03*
%TO.P,C8,2*%
%TO.N,GND*%
X166207500Y-87470000D03*
%TD*%
D16*
%TO.P,D2,1,K*%
%TO.N,/RXD*%
X172125000Y-88300000D03*
%TO.P,D2,2,A*%
%TO.N,Net-(D2-A)*%
X173875000Y-88300000D03*
%TD*%
D18*
%TO.P,S2,1*%
%TO.N,GND*%
X151325000Y-94589600D03*
%TO.P,S2,2*%
%TO.N,/CSI_MCLK*%
X159075000Y-94589600D03*
%TD*%
D15*
%TO.P,C1,1*%
%TO.N,/USB_PWR*%
X161000000Y-91500000D03*
%TO.P,C1,2*%
%TO.N,GND*%
X161000000Y-93225000D03*
%TD*%
D22*
%TO.P,R3,1*%
%TO.N,Net-(J1-CC1)*%
X163195000Y-83208500D03*
%TO.P,R3,2*%
%TO.N,GND*%
X163195000Y-81383500D03*
%TD*%
%TO.P,R7,1*%
%TO.N,GND*%
X193090000Y-85562500D03*
%TO.P,R7,2*%
%TO.N,Net-(#FLG02-pwr)*%
X193090000Y-83737500D03*
%TD*%
D28*
%TO.P,U2,1,IN*%
%TO.N,Net-(#FLG02-pwr)*%
X190734100Y-79949000D03*
%TO.P,U2,2,GND*%
%TO.N,GND*%
X190734100Y-80899000D03*
%TO.P,U2,3,EN*%
%TO.N,Net-(#FLG02-pwr)*%
X190734100Y-81849000D03*
%TO.P,U2,4,NC*%
%TO.N,unconnected-(U2-NC-Pad4)*%
X193009100Y-81849000D03*
%TO.P,U2,5,OUT*%
%TO.N,/CSI_1.2V*%
X193009100Y-79949000D03*
%TD*%
D29*
%TO.P,D6,1,A1*%
%TO.N,GND*%
X161315400Y-85051000D03*
%TO.P,D6,2,A2*%
%TO.N,/DATA-*%
X161315400Y-85891000D03*
%TD*%
D30*
%TO.P,J6,1,Pin_1*%
%TO.N,Net-(J6-Pin_1)*%
X201200000Y-82660000D03*
D31*
%TO.P,J6,2,Pin_2*%
%TO.N,Net-(J6-Pin_2)*%
X201200000Y-85200000D03*
%TO.P,J6,3,Pin_3*%
%TO.N,/VCC_ESP*%
X201200000Y-87740000D03*
%TO.P,J6,4,Pin_4*%
%TO.N,GND*%
X201200000Y-90280000D03*
%TD*%
D14*
%TO.P,R12,1*%
%TO.N,Net-(U4-SUSPEND)*%
X159475000Y-98837500D03*
%TO.P,R12,2*%
%TO.N,GND*%
X159475000Y-100662500D03*
%TD*%
D26*
%TO.P,C22,1*%
%TO.N,/EN*%
X160600000Y-74062500D03*
%TO.P,C22,2*%
%TO.N,GND*%
X160600000Y-72337500D03*
%TD*%
D15*
%TO.P,C4,1*%
%TO.N,/CSI_1.2V*%
X194862500Y-79987500D03*
%TO.P,C4,2*%
%TO.N,GND*%
X194862500Y-81712500D03*
%TD*%
D32*
%TO.P,IC1,1,GND_1*%
%TO.N,GND*%
X224010000Y-77500000D03*
%TO.P,IC1,2,3V3*%
%TO.N,/VCC_ESP*%
X222740000Y-77500000D03*
%TO.P,IC1,3,EN*%
%TO.N,/EN*%
X221470000Y-77500000D03*
%TO.P,IC1,4,SENSOR_VP*%
%TO.N,/CSI_D4*%
X220200000Y-77500000D03*
%TO.P,IC1,5,SENSOR_VN*%
%TO.N,/CSI_D5*%
X218930000Y-77500000D03*
%TO.P,IC1,6,IO34*%
%TO.N,/CSI_D6*%
X217660000Y-77500000D03*
%TO.P,IC1,7,IO35*%
%TO.N,/CSI_D7*%
X216390000Y-77500000D03*
%TO.P,IC1,8,IO32*%
%TO.N,/CAM_PWR*%
X215120000Y-77500000D03*
%TO.P,IC1,9,IO33*%
%TO.N,/LED*%
X213850000Y-77500000D03*
%TO.P,IC1,10,IO25*%
%TO.N,/CSI_VSYNC*%
X212580000Y-77500000D03*
%TO.P,IC1,11,IO26*%
%TO.N,/TWI_SDA*%
X211310000Y-77500000D03*
%TO.P,IC1,12,IO27*%
%TO.N,/TWI_SCK*%
X210040000Y-77500000D03*
%TO.P,IC1,13,IO14*%
%TO.N,/HS2_CLK*%
X208770000Y-77500000D03*
%TO.P,IC1,14,IO12*%
%TO.N,/HS2_DATA2*%
X207500000Y-77500000D03*
D33*
%TO.P,IC1,15,GND_2*%
%TO.N,GND*%
X206000000Y-80690000D03*
%TO.P,IC1,16,IO13*%
%TO.N,/HS2_DATA3*%
X206000000Y-81960000D03*
%TO.P,IC1,17,SHD/SD2*%
%TO.N,/SD2*%
X206000000Y-83230000D03*
%TO.P,IC1,18,SHD/SD3*%
%TO.N,/SD3*%
X206000000Y-84500000D03*
%TO.P,IC1,19,SCS/CMD*%
%TO.N,/CMD*%
X206000000Y-85770000D03*
%TO.P,IC1,20,SCK/CLK*%
%TO.N,/CLK*%
X206000000Y-87040000D03*
%TO.P,IC1,21,SDO/SD0*%
%TO.N,/SD0*%
X206000000Y-88310000D03*
%TO.P,IC1,22,SDI/SD1*%
%TO.N,/SD1*%
X206000000Y-89580000D03*
%TO.P,IC1,23,IO15*%
%TO.N,/HS2_CMD*%
X206000000Y-90850000D03*
%TO.P,IC1,24,IO2*%
%TO.N,/HS2_DATA0*%
X206000000Y-92120000D03*
D32*
%TO.P,IC1,25,IO0*%
%TO.N,/CSI_MCLK*%
X207500000Y-95300000D03*
%TO.P,IC1,26,IO4*%
%TO.N,/HS2_DATA1*%
X208770000Y-95300000D03*
%TO.P,IC1,27,IO16*%
%TO.N,/I016*%
X210040000Y-95300000D03*
%TO.P,IC1,28,IO17*%
%TO.N,/PSRAM_CLK*%
X211310000Y-95300000D03*
%TO.P,IC1,29,IO5*%
%TO.N,/CSI_D0*%
X212580000Y-95300000D03*
%TO.P,IC1,30,IO18*%
%TO.N,/CSI_D1*%
X213850000Y-95300000D03*
%TO.P,IC1,31,IO19*%
%TO.N,/CSI_D2*%
X215120000Y-95300000D03*
%TO.P,IC1,32,NC*%
%TO.N,unconnected-(IC1-NC-Pad32)*%
X216390000Y-95300000D03*
%TO.P,IC1,33,IO21*%
%TO.N,/CSI_D3*%
X217660000Y-95300000D03*
%TO.P,IC1,34,RXD0*%
%TO.N,/RXD0*%
X218930000Y-95300000D03*
%TO.P,IC1,35,TXDO*%
%TO.N,/TXD0*%
X220200000Y-95300000D03*
%TO.P,IC1,36,IO22*%
%TO.N,/CSI_PCLK*%
X221470000Y-95300000D03*
%TO.P,IC1,37,IO23*%
%TO.N,/CSI_HSYNC*%
X222740000Y-95300000D03*
%TO.P,IC1,38,GND_3*%
%TO.N,GND*%
X224010000Y-95300000D03*
D34*
%TO.P,IC1,39,EP*%
X216670000Y-85720000D03*
X216670000Y-85720000D03*
%TD*%
D14*
%TO.P,R27,1*%
%TO.N,/VCC_ESP*%
X184962800Y-83745700D03*
%TO.P,R27,2*%
%TO.N,/HS2_DATA0*%
X184962800Y-85570700D03*
%TD*%
D26*
%TO.P,C18,1*%
%TO.N,GND*%
X160975000Y-100600000D03*
%TO.P,C18,2*%
%TO.N,/CSI_MCLK*%
X160975000Y-98875000D03*
%TD*%
D22*
%TO.P,R10,1*%
%TO.N,Net-(U4-VBUS)*%
X164000000Y-96775000D03*
%TO.P,R10,2*%
%TO.N,GND*%
X164000000Y-94950000D03*
%TD*%
D17*
%TO.P,Q2,1,E*%
%TO.N,GND*%
X175290400Y-74498200D03*
%TO.P,Q2,2,B*%
%TO.N,Net-(Q2-B)*%
X177190400Y-74498200D03*
%TO.P,Q2,3,C*%
%TO.N,Net-(D7-K)*%
X176240400Y-72398200D03*
%TD*%
D14*
%TO.P,R26,1*%
%TO.N,/VCC_ESP*%
X188493400Y-83771100D03*
%TO.P,R26,2*%
%TO.N,/HS2_CMD*%
X188493400Y-85596100D03*
%TD*%
D35*
%TO.P,C7,1*%
%TO.N,/VCC_ESP*%
X169375000Y-90500000D03*
%TO.P,C7,2*%
%TO.N,GND*%
X166125000Y-90500000D03*
%TD*%
D14*
%TO.P,R4,1*%
%TO.N,Net-(J1-CC2)*%
X163500000Y-90837500D03*
%TO.P,R4,2*%
%TO.N,GND*%
X163500000Y-92662500D03*
%TD*%
D36*
%TO.P,D4,1,A1*%
%TO.N,GND*%
X160900000Y-87520000D03*
%TO.P,D4,2,A2*%
%TO.N,/DATA+*%
X160900000Y-86680000D03*
%TD*%
D14*
%TO.P,R29,1*%
%TO.N,/CSI_MCLK*%
X161000000Y-94950000D03*
%TO.P,R29,2*%
%TO.N,/VCC_ESP*%
X161000000Y-96775000D03*
%TD*%
D19*
%TO.P,R19,1*%
%TO.N,GND*%
X175435000Y-80760000D03*
%TO.P,R19,2*%
%TO.N,Net-(J4-Pin_17)*%
X177260000Y-80760000D03*
%TD*%
D22*
%TO.P,R30,1*%
%TO.N,/DTR*%
X178400000Y-101437500D03*
%TO.P,R30,2*%
%TO.N,Net-(Q5-B)*%
X178400000Y-99612500D03*
%TD*%
D37*
%TO.P,U1,1,GND*%
%TO.N,GND*%
X165900000Y-85040000D03*
%TO.P,U1,2,VO*%
%TO.N,/VCC_ESP*%
X168200000Y-85040000D03*
D38*
X168200000Y-78740000D03*
D37*
%TO.P,U1,3,VI*%
%TO.N,/USB_PWR*%
X170500000Y-85040000D03*
%TD*%
D39*
%TO.P,Q6,1,E*%
%TO.N,/DTR*%
X176362500Y-101450000D03*
%TO.P,Q6,2,B*%
%TO.N,Net-(Q6-B)*%
X176362500Y-99550000D03*
%TO.P,Q6,3,C*%
%TO.N,/CSI_MCLK*%
X174262500Y-100500000D03*
%TD*%
%TO.P,Q5,1,E*%
%TO.N,/RTS*%
X176412500Y-97350000D03*
%TO.P,Q5,2,B*%
%TO.N,Net-(Q5-B)*%
X176412500Y-95450000D03*
%TO.P,Q5,3,C*%
%TO.N,/EN*%
X174312500Y-96400000D03*
%TD*%
D25*
%TO.P,C17,1*%
%TO.N,GND*%
X175490000Y-83790000D03*
%TO.P,C17,2*%
%TO.N,/CAM_RST*%
X177215000Y-83790000D03*
%TD*%
D19*
%TO.P,R14,1*%
%TO.N,/LED*%
X175390000Y-76073000D03*
%TO.P,R14,2*%
%TO.N,Net-(Q2-B)*%
X177215000Y-76073000D03*
%TD*%
D36*
%TO.P,D1,1,A1*%
%TO.N,GND*%
X160500000Y-89730100D03*
%TO.P,D1,2,A2*%
%TO.N,/USB_PWR*%
X160500000Y-88890100D03*
%TD*%
D40*
%TO.P,REF\u002A\u002A,1*%
%TO.N,GND*%
X171400000Y-72790000D03*
%TD*%
D19*
%TO.P,R36,1*%
%TO.N,/VCC_ESP*%
X175390000Y-86868000D03*
%TO.P,R36,2*%
%TO.N,/TWI_SDA*%
X177215000Y-86868000D03*
%TD*%
D14*
%TO.P,R22,1*%
%TO.N,/VCC_ESP*%
X191541400Y-83745700D03*
%TO.P,R22,2*%
%TO.N,/HS2_DATA2*%
X191541400Y-85570700D03*
%TD*%
%TO.P,R8,1*%
%TO.N,/USB_PWR*%
X162500000Y-94945000D03*
%TO.P,R8,2*%
%TO.N,Net-(U4-VBUS)*%
X162500000Y-96770000D03*
%TD*%
D28*
%TO.P,U3,1,IN*%
%TO.N,Net-(#FLG02-pwr)*%
X181112500Y-79925000D03*
%TO.P,U3,2,GND*%
%TO.N,GND*%
X181112500Y-80875000D03*
%TO.P,U3,3,EN*%
%TO.N,Net-(#FLG02-pwr)*%
X181112500Y-81825000D03*
%TO.P,U3,4,NC*%
%TO.N,unconnected-(U3-NC-Pad4)*%
X183387500Y-81825000D03*
%TO.P,U3,5,OUT*%
%TO.N,/CSI_2.8V*%
X183387500Y-79925000D03*
%TD*%
D15*
%TO.P,C10,1*%
%TO.N,/CSI_2.8V*%
X185230300Y-79984900D03*
%TO.P,C10,2*%
%TO.N,GND*%
X185230300Y-81709900D03*
%TD*%
%TO.P,C19,1*%
%TO.N,GND*%
X159000000Y-72337500D03*
%TO.P,C19,2*%
%TO.N,/EN*%
X159000000Y-74062500D03*
%TD*%
D21*
%TO.P,R11,1*%
%TO.N,/CAM_PWR*%
X201318500Y-73152000D03*
%TO.P,R11,2*%
%TO.N,Net-(Q1-G)*%
X199493500Y-73152000D03*
%TD*%
D41*
%TO.P,J7,1,DAT2*%
%TO.N,/HS2_DATA2*%
X191050000Y-87612500D03*
%TO.P,J7,2,DAT3/CD*%
%TO.N,/HS2_DATA3*%
X189950000Y-87612500D03*
%TO.P,J7,3,CMD*%
%TO.N,/HS2_CMD*%
X188850000Y-87612500D03*
%TO.P,J7,4,VDD*%
%TO.N,/VCC_ESP*%
X187750000Y-87612500D03*
%TO.P,J7,5,CLK*%
%TO.N,/HS2_CLK*%
X186650000Y-87612500D03*
%TO.P,J7,6,VSS*%
%TO.N,GND*%
X185550000Y-87612500D03*
%TO.P,J7,7,DAT0*%
%TO.N,/HS2_DATA0*%
X184450000Y-87612500D03*
%TO.P,J7,8,DAT1*%
%TO.N,/HS2_DATA1*%
X183350000Y-87612500D03*
%TO.P,J7,9,DET*%
%TO.N,unconnected-(J7-DET-Pad9)*%
X182250000Y-87612500D03*
D42*
%TO.P,J7,SH,SH*%
%TO.N,GND*%
X196550000Y-97712500D03*
D43*
X195650000Y-88112500D03*
D42*
X181050000Y-97712500D03*
D44*
X181050000Y-88112500D03*
%TD*%
D23*
%TO.P,C2,1*%
%TO.N,GND*%
X167664300Y-94640400D03*
%TO.P,C2,2*%
%TO.N,/VCC_ESP*%
X165939300Y-94640400D03*
%TD*%
D45*
%TO.P,U4,1,~{DCD}*%
%TO.N,unconnected-(U4-~{DCD}-Pad1)*%
X169750000Y-97500000D03*
%TO.P,U4,2,~{RI}/CLK*%
%TO.N,unconnected-(U4-~{RI}{slash}CLK-Pad2)*%
X169250000Y-97500000D03*
%TO.P,U4,3,GND*%
%TO.N,GND*%
X168750000Y-97500000D03*
%TO.P,U4,4,D+*%
%TO.N,/DATA+*%
X168250000Y-97500000D03*
%TO.P,U4,5,D-*%
%TO.N,/DATA-*%
X167750000Y-97500000D03*
%TO.P,U4,6,VDD*%
%TO.N,/VCC_ESP*%
X167250000Y-97500000D03*
%TO.P,U4,7,VREGIN*%
X166750000Y-97500000D03*
D46*
%TO.P,U4,8,VBUS*%
%TO.N,Net-(U4-VBUS)*%
X165800000Y-98450000D03*
%TO.P,U4,9,~{RST}*%
%TO.N,Net-(U4-~{RST})*%
X165800000Y-98950000D03*
%TO.P,U4,10,NC*%
%TO.N,unconnected-(U4-NC-Pad10)*%
X165800000Y-99450000D03*
%TO.P,U4,11,~{SUSPEND}*%
%TO.N,unconnected-(U4-~{SUSPEND}-Pad11)*%
X165800000Y-99950000D03*
%TO.P,U4,12,SUSPEND*%
%TO.N,Net-(U4-SUSPEND)*%
X165800000Y-100450000D03*
%TO.P,U4,13,CHREN*%
%TO.N,unconnected-(U4-CHREN-Pad13)*%
X165800000Y-100950000D03*
%TO.P,U4,14,CHR1*%
%TO.N,unconnected-(U4-CHR1-Pad14)*%
X165800000Y-101450000D03*
D45*
%TO.P,U4,15,CHR0*%
%TO.N,unconnected-(U4-CHR0-Pad15)*%
X166750000Y-102400000D03*
%TO.P,U4,16,~{WAKEUP}/GPIO.3*%
%TO.N,unconnected-(U4-~{WAKEUP}{slash}GPIO.3-Pad16)*%
X167250000Y-102400000D03*
%TO.P,U4,17,RS485/GPIO.2*%
%TO.N,unconnected-(U4-RS485{slash}GPIO.2-Pad17)*%
X167750000Y-102400000D03*
%TO.P,U4,18,~{RXT}/GPIO.1*%
%TO.N,unconnected-(U4-~{RXT}{slash}GPIO.1-Pad18)*%
X168250000Y-102400000D03*
%TO.P,U4,19,~{TXT}/GPIO.0*%
%TO.N,unconnected-(U4-~{TXT}{slash}GPIO.0-Pad19)*%
X168750000Y-102400000D03*
%TO.P,U4,20,GPIO.6*%
%TO.N,unconnected-(U4-GPIO.6-Pad20)*%
X169250000Y-102400000D03*
%TO.P,U4,21,GPIO.5*%
%TO.N,unconnected-(U4-GPIO.5-Pad21)*%
X169750000Y-102400000D03*
D46*
%TO.P,U4,22,GPIO.4*%
%TO.N,unconnected-(U4-GPIO.4-Pad22)*%
X170700000Y-101450000D03*
%TO.P,U4,23,~{CTS}*%
%TO.N,unconnected-(U4-~{CTS}-Pad23)*%
X170700000Y-100950000D03*
%TO.P,U4,24,~{RTS}*%
%TO.N,/RTS*%
X170700000Y-100450000D03*
%TO.P,U4,25,RXD*%
%TO.N,/RXD*%
X170700000Y-99950000D03*
%TO.P,U4,26,TXD*%
%TO.N,/TXD*%
X170700000Y-99450000D03*
%TO.P,U4,27,~{DSR}*%
%TO.N,unconnected-(U4-~{DSR}-Pad27)*%
X170700000Y-98950000D03*
%TO.P,U4,28,~{DTR}*%
%TO.N,/DTR*%
X170700000Y-98450000D03*
D47*
%TO.P,U4,29,GND*%
%TO.N,GND*%
X168250000Y-99950000D03*
%TD*%
D48*
%TO.P,U5,1,~{CS}*%
%TO.N,/I016*%
X199130000Y-100350000D03*
%TO.P,U5,2,SO/SIO1*%
%TO.N,/SD0*%
X200400000Y-100350000D03*
%TO.P,U5,3,~{WP}/SIO2*%
%TO.N,/SD3*%
X201670000Y-100350000D03*
%TO.P,U5,4,GND*%
%TO.N,GND*%
X202940000Y-100350000D03*
%TO.P,U5,5,SI/SIO0*%
%TO.N,/SD1*%
X202940000Y-95100000D03*
%TO.P,U5,6,SCLK*%
%TO.N,/PSRAM_CLK*%
X201670000Y-95100000D03*
%TO.P,U5,7,~{HOLD}/SIO3*%
%TO.N,/SD2*%
X200400000Y-95100000D03*
%TO.P,U5,8,VCC*%
%TO.N,/VCC_ESP*%
X199130000Y-95100000D03*
%TD*%
D23*
%TO.P,C16,1*%
%TO.N,/CSI_PCLK*%
X177220000Y-79240000D03*
%TO.P,C16,2*%
%TO.N,GND*%
X175495000Y-79240000D03*
%TD*%
D19*
%TO.P,R15,1*%
%TO.N,GND*%
X175390000Y-77597000D03*
%TO.P,R15,2*%
%TO.N,Net-(Q2-B)*%
X177215000Y-77597000D03*
%TD*%
D21*
%TO.P,R16,1*%
%TO.N,/VCC_ESP*%
X200962900Y-102311200D03*
%TO.P,R16,2*%
%TO.N,/I016*%
X199137900Y-102311200D03*
%TD*%
%TO.P,R5,1*%
%TO.N,/VCC_ESP*%
X177275000Y-89900000D03*
%TO.P,R5,2*%
%TO.N,Net-(D3-A)*%
X175450000Y-89900000D03*
%TD*%
D49*
%TO.P,J4,1,Pin_1*%
%TO.N,unconnected-(J4-Pin_1-Pad1)*%
X183262500Y-72050000D03*
%TO.P,J4,2,Pin_2*%
%TO.N,unconnected-(J4-Pin_2-Pad2)*%
X183762500Y-72050000D03*
%TO.P,J4,3,Pin_3*%
%TO.N,/CSI_D2*%
X184262500Y-72050000D03*
%TO.P,J4,4,Pin_4*%
%TO.N,/CSI_D1*%
X184762500Y-72050000D03*
%TO.P,J4,5,Pin_5*%
%TO.N,/CSI_D3*%
X185262500Y-72050000D03*
%TO.P,J4,6,Pin_6*%
%TO.N,/CSI_D0*%
X185762500Y-72050000D03*
%TO.P,J4,7,Pin_7*%
%TO.N,/CSI_D4*%
X186262500Y-72050000D03*
%TO.P,J4,8,Pin_8*%
%TO.N,/CSI_PCLK*%
X186762500Y-72050000D03*
%TO.P,J4,9,Pin_9*%
%TO.N,/CSI_D5*%
X187262500Y-72050000D03*
%TO.P,J4,10,Pin_10*%
%TO.N,GND*%
X187762500Y-72050000D03*
%TO.P,J4,11,Pin_11*%
%TO.N,/CSI_D6*%
X188262500Y-72050000D03*
%TO.P,J4,12,Pin_12*%
%TO.N,/CSI_MCLK*%
X188762500Y-72050000D03*
%TO.P,J4,13,Pin_13*%
%TO.N,/CSI_D7*%
X189262500Y-72050000D03*
%TO.P,J4,14,Pin_14*%
%TO.N,/CSI_2.8V*%
X189762500Y-72050000D03*
%TO.P,J4,15,Pin_15*%
%TO.N,/CSI_1.2V*%
X190262500Y-72050000D03*
%TO.P,J4,16,Pin_16*%
%TO.N,/CSI_HSYNC*%
X190762500Y-72050000D03*
%TO.P,J4,17,Pin_17*%
%TO.N,Net-(J4-Pin_17)*%
X191262500Y-72050000D03*
%TO.P,J4,18,Pin_18*%
%TO.N,/CSI_VSYNC*%
X191762500Y-72050000D03*
%TO.P,J4,19,Pin_19*%
%TO.N,/CAM_RST*%
X192262500Y-72050000D03*
%TO.P,J4,20,Pin_20*%
%TO.N,/TWI_SCK*%
X192762500Y-72050000D03*
%TO.P,J4,21,Pin_21*%
%TO.N,/CSI_2.8V*%
X193262500Y-72050000D03*
%TO.P,J4,22,Pin_22*%
%TO.N,/TWI_SDA*%
X193762500Y-72050000D03*
%TO.P,J4,23,Pin_23*%
%TO.N,GND*%
X194262500Y-72050000D03*
%TO.P,J4,24,Pin_24*%
%TO.N,unconnected-(J4-Pin_24-Pad24)*%
X194762500Y-72050000D03*
D50*
%TO.P,J4,25,GND*%
%TO.N,GND*%
X196662500Y-75300000D03*
%TO.P,J4,26,GND*%
X181362500Y-75300000D03*
%TD*%
D14*
%TO.P,R37,1*%
%TO.N,/RTS*%
X178500000Y-95087500D03*
%TO.P,R37,2*%
%TO.N,Net-(Q6-B)*%
X178500000Y-96912500D03*
%TD*%
D22*
%TO.P,R13,1*%
%TO.N,GND*%
X181150000Y-85500000D03*
%TO.P,R13,2*%
%TO.N,Net-(#FLG02-pwr)*%
X181150000Y-83675000D03*
%TD*%
D25*
%TO.P,C14,1*%
%TO.N,/VCC_ESP*%
X222637500Y-71500000D03*
%TO.P,C14,2*%
%TO.N,GND*%
X224362500Y-71500000D03*
%TD*%
D30*
%TO.P,J5,1,Pin_1*%
%TO.N,GND*%
X223520000Y-99060000D03*
D31*
%TO.P,J5,2,Pin_2*%
%TO.N,/TXD0*%
X220980000Y-99060000D03*
%TO.P,J5,3,Pin_3*%
%TO.N,/RXD0*%
X218440000Y-99060000D03*
%TO.P,J5,4,Pin_4*%
%TO.N,/VCC_ESP*%
X215900000Y-99060000D03*
%TO.P,J5,5,Pin_5*%
%TO.N,/HS2_DATA1*%
X213360000Y-99060000D03*
%TO.P,J5,6,Pin_6*%
%TO.N,/I016*%
X210820000Y-99060000D03*
%TO.P,J5,7,Pin_7*%
%TO.N,/CSI_MCLK*%
X208280000Y-99060000D03*
%TO.P,J5,8,Pin_8*%
%TO.N,/VCC_ESP*%
X205740000Y-99060000D03*
%TD*%
D30*
%TO.P,J3,1,Pin_1*%
%TO.N,/USB_PWR*%
X223520000Y-73660000D03*
D31*
%TO.P,J3,2,Pin_2*%
%TO.N,GND*%
X220980000Y-73660000D03*
%TO.P,J3,3,Pin_3*%
X218440000Y-73660000D03*
%TO.P,J3,4,Pin_4*%
%TO.N,/HS2_CLK*%
X215900000Y-73660000D03*
%TO.P,J3,5,Pin_5*%
%TO.N,/HS2_DATA2*%
X213360000Y-73660000D03*
%TO.P,J3,6,Pin_6*%
%TO.N,/HS2_DATA3*%
X210820000Y-73660000D03*
%TO.P,J3,7,Pin_7*%
%TO.N,/HS2_CMD*%
X208280000Y-73660000D03*
%TO.P,J3,8,Pin_8*%
%TO.N,/HS2_DATA0*%
X205740000Y-73660000D03*
%TD*%
D51*
%TO.N,GND*%
X168200000Y-99800000D03*
X202971400Y-99060000D03*
X215000000Y-84000000D03*
X197590000Y-97750000D03*
X216600000Y-87400000D03*
X168250000Y-101000000D03*
X174421800Y-80772000D03*
X185547000Y-89103200D03*
X182250000Y-81170037D03*
X162640000Y-69690000D03*
X169500000Y-101000000D03*
X168250000Y-98750000D03*
X159871152Y-101317048D03*
X218400000Y-85600000D03*
X171170600Y-91567000D03*
X222750000Y-97000000D03*
X221005400Y-75133200D03*
X223748600Y-78892400D03*
X169500000Y-98750000D03*
X216600000Y-84000000D03*
X167000000Y-99800000D03*
X196950000Y-88100000D03*
X164846000Y-90525600D03*
X181140000Y-96080000D03*
X222750000Y-101000000D03*
X176225200Y-74498200D03*
X188870000Y-101790000D03*
X218400000Y-87400000D03*
X181100000Y-86950000D03*
X159004000Y-70993000D03*
X172339000Y-72821800D03*
X167000000Y-98750000D03*
X215000000Y-87400000D03*
X170383200Y-72847200D03*
X167000000Y-101000000D03*
X171399200Y-72847200D03*
X169400000Y-99800000D03*
X215000000Y-85600000D03*
X207237500Y-80962500D03*
X216600000Y-85600000D03*
X194925000Y-76025000D03*
X174447200Y-83769200D03*
X180175000Y-75300000D03*
X195450000Y-99940000D03*
X218400000Y-84000000D03*
X183591200Y-100888800D03*
X188175000Y-81675000D03*
%TO.N,/VCC_ESP*%
X174320200Y-85344000D03*
X202234800Y-71628000D03*
X187528200Y-83794600D03*
X163846666Y-101515066D03*
X187725000Y-89000000D03*
X177342800Y-92100000D03*
X222600000Y-70400000D03*
X202158600Y-75006200D03*
X205714600Y-100711000D03*
X222500000Y-79000000D03*
X198247000Y-92024200D03*
X168783000Y-87452200D03*
X170815000Y-78790800D03*
X165128500Y-94716600D03*
X172125000Y-75115000D03*
X182321200Y-83794600D03*
X174400000Y-82300000D03*
X160299400Y-96774000D03*
%TO.N,/EN*%
X162530000Y-74030000D03*
X174193200Y-95351600D03*
X221000000Y-79000000D03*
X175884200Y-70575800D03*
X163068000Y-79679800D03*
%TO.N,/CSI_D4*%
X218059000Y-90424000D03*
X186029600Y-74472800D03*
%TO.N,/CSI_D5*%
X187061676Y-76808158D03*
X212025102Y-86934492D03*
%TO.N,/CAM_RST*%
X178308000Y-82245200D03*
X191713543Y-70731452D03*
%TO.N,/CSI_D6*%
X187985400Y-76301600D03*
X211632702Y-85956796D03*
%TO.N,/CSI_D7*%
X211658235Y-83850100D03*
X189134400Y-74504654D03*
%TO.N,/CAM_PWR*%
X215163400Y-76301600D03*
X202336400Y-73228200D03*
%TO.N,/LED*%
X213817200Y-76352400D03*
X203454000Y-74930000D03*
X178816000Y-73406000D03*
X174218600Y-76123800D03*
%TO.N,/CSI_VSYNC*%
X192049400Y-73482200D03*
X211937600Y-82321400D03*
%TO.N,/TWI_SDA*%
X179730400Y-85547200D03*
X194259200Y-73353502D03*
X211861400Y-80086200D03*
X194063552Y-70603480D03*
%TO.N,/TWI_SCK*%
X192762500Y-70829203D03*
X211886800Y-81229200D03*
X178485800Y-85267800D03*
X193116200Y-73355200D03*
%TO.N,/HS2_CLK*%
X191363600Y-95783400D03*
X186625000Y-86175300D03*
X209677000Y-89560400D03*
%TO.N,/HS2_DATA2*%
X207949800Y-88417400D03*
X191920000Y-99880000D03*
X191430350Y-94732016D03*
%TO.N,/HS2_DATA3*%
X190424995Y-94417169D03*
X207481000Y-87097997D03*
X172920000Y-84090000D03*
%TO.N,/SD0*%
X204614306Y-90239544D03*
X204107500Y-96069823D03*
X200244457Y-98591597D03*
X204749400Y-88468200D03*
%TO.N,/HS2_CMD*%
X187675000Y-85825000D03*
X189331600Y-93903800D03*
X207487995Y-91086631D03*
X204012800Y-84455000D03*
%TO.N,/HS2_DATA0*%
X207314800Y-92125800D03*
X185089800Y-91109800D03*
X202869800Y-82270600D03*
X173180000Y-82940000D03*
X166930000Y-73230000D03*
%TO.N,/CSI_MCLK*%
X188645800Y-75438000D03*
X175285400Y-100507800D03*
X211023909Y-84691229D03*
X206857600Y-101422200D03*
%TO.N,/HS2_DATA1*%
X188569600Y-95935800D03*
X208762600Y-96494600D03*
X185115200Y-97409000D03*
X208952734Y-94144734D03*
X186205664Y-99967319D03*
%TO.N,/PSRAM_CLK*%
X201269600Y-98348800D03*
X211328000Y-97231200D03*
%TO.N,/CSI_D0*%
X185293000Y-75412600D03*
X212801200Y-90474800D03*
%TO.N,/CSI_D1*%
X212922980Y-92570653D03*
X183667400Y-77063600D03*
%TO.N,/CSI_D2*%
X214833200Y-93446600D03*
X182600600Y-77749400D03*
%TO.N,/CSI_D3*%
X212772737Y-91527918D03*
X184454800Y-76301600D03*
%TO.N,/RXD0*%
X197440000Y-101720000D03*
X169727252Y-94134000D03*
%TO.N,/TXD0*%
X171237063Y-94134000D03*
X197380742Y-102771835D03*
%TO.N,/CSI_PCLK*%
X212407500Y-88201500D03*
X186564297Y-77736857D03*
%TO.N,/CSI_HSYNC*%
X222758000Y-94005400D03*
X191109600Y-74041000D03*
%TO.N,/USB_PWR*%
X171958000Y-85039200D03*
X161950400Y-91541600D03*
X162052000Y-82296000D03*
X165100000Y-82296000D03*
X162500000Y-95000000D03*
%TO.N,/DATA+*%
X162814000Y-86588600D03*
X168554190Y-96459019D03*
%TO.N,/DATA-*%
X161823400Y-85826600D03*
X167503536Y-96381598D03*
%TO.N,/DTR*%
X176377600Y-102285800D03*
X171625000Y-98450000D03*
%TO.N,/RXD*%
X172161200Y-95250000D03*
X171069000Y-88341200D03*
%TO.N,/TXD*%
X171145200Y-89890600D03*
X169697400Y-96446500D03*
%TO.N,Net-(Q5-B)*%
X179349400Y-99745800D03*
X176593122Y-94728922D03*
%TO.N,Net-(J4-Pin_17)*%
X178155600Y-80772000D03*
X190550800Y-70688200D03*
%TD*%
D52*
%TO.N,GND*%
X224845000Y-75447406D02*
X224010000Y-76282406D01*
X220980000Y-73660000D02*
X220980000Y-75107800D01*
X165900000Y-87162500D02*
X166207500Y-87470000D01*
X200912500Y-92975000D02*
X200912500Y-90567500D01*
X161326400Y-85040000D02*
X161315400Y-85051000D01*
X220163000Y-101599800D02*
X220542000Y-101220800D01*
D53*
X180975000Y-72288400D02*
X180975000Y-74830300D01*
D52*
X194915900Y-81659100D02*
X194862500Y-81712500D01*
X151293600Y-78333600D02*
X151293600Y-80623600D01*
D53*
X196546400Y-71171400D02*
X197050000Y-71675000D01*
X187762500Y-71292800D02*
X187005500Y-70535800D01*
X197050000Y-71675000D02*
X197050000Y-74912500D01*
D52*
X174468000Y-83790000D02*
X174447200Y-83769200D01*
X159410100Y-90820000D02*
X160500000Y-89730100D01*
X194862500Y-81712500D02*
X194862500Y-83774400D01*
X151344400Y-92325600D02*
X152850000Y-90820000D01*
X220980000Y-75107800D02*
X221005400Y-75133200D01*
X224010000Y-77500000D02*
X224010000Y-78631000D01*
X197590000Y-97750000D02*
X196587500Y-97750000D01*
X163500000Y-94500000D02*
X164000000Y-95000000D01*
X223610000Y-97000000D02*
X222750000Y-97000000D01*
X166125000Y-90500000D02*
X166125000Y-87552500D01*
X175485000Y-79250000D02*
X175495000Y-79240000D01*
D53*
X168750000Y-97500000D02*
X168750000Y-99450000D01*
D52*
X162887500Y-93225000D02*
X163500000Y-92612500D01*
D53*
X194262500Y-72050000D02*
X194262500Y-71292800D01*
D52*
X151293600Y-80623600D02*
X152850000Y-82180000D01*
D53*
X206965000Y-80690000D02*
X206000000Y-80690000D01*
D52*
X199003400Y-81659100D02*
X196662500Y-81659100D01*
X196662500Y-81659100D02*
X194915900Y-81659100D01*
X166125000Y-90500000D02*
X166125000Y-91602500D01*
X171197600Y-91540000D02*
X171170600Y-91567000D01*
X175290400Y-74498200D02*
X176225200Y-74498200D01*
X185550000Y-87612500D02*
X185550000Y-89100200D01*
X157030000Y-82180000D02*
X159457500Y-82180000D01*
X220542000Y-101220800D02*
X222529200Y-101220800D01*
X185230300Y-81709900D02*
X187059100Y-81709900D01*
X161387500Y-72337500D02*
X163800000Y-69925000D01*
X160600000Y-72337500D02*
X161387500Y-72337500D01*
X159475000Y-100920896D02*
X159871152Y-101317048D01*
X157605000Y-89700000D02*
X157605000Y-89830000D01*
D53*
X180975000Y-74830300D02*
X180505300Y-75300000D01*
D52*
X162640000Y-69690000D02*
X163565000Y-69690000D01*
D53*
X168750000Y-99450000D02*
X168250000Y-99950000D01*
D52*
X195650000Y-75300000D02*
X196662500Y-75300000D01*
X163500000Y-92612500D02*
X164012500Y-92612500D01*
X182250000Y-81170037D02*
X181954963Y-80875000D01*
X163068000Y-81306500D02*
X163195000Y-81433500D01*
X159475000Y-100612500D02*
X159475000Y-100920896D01*
X159475000Y-100612500D02*
X162475000Y-100612500D01*
X157605000Y-83300000D02*
X158337500Y-83300000D01*
X158337500Y-83300000D02*
X159457500Y-82180000D01*
X175440000Y-79185000D02*
X175495000Y-79240000D01*
X188140100Y-81709900D02*
X187059100Y-81709900D01*
X196937500Y-88112500D02*
X196950000Y-88100000D01*
X202940000Y-99091400D02*
X202940000Y-100350000D01*
X194862500Y-83774400D02*
X193090800Y-85546100D01*
X224010000Y-95300000D02*
X224010000Y-96600000D01*
X189638198Y-80899000D02*
X188862198Y-81675000D01*
X188862198Y-81675000D02*
X188175000Y-81675000D01*
X157605000Y-89830000D02*
X159388900Y-91613900D01*
D53*
X187005500Y-70535800D02*
X182727600Y-70535800D01*
X180505300Y-75300000D02*
X180175000Y-75300000D01*
D52*
X196587500Y-97750000D02*
X196550000Y-97712500D01*
X160553400Y-81306500D02*
X163068000Y-81306500D01*
X181954963Y-80875000D02*
X181112500Y-80875000D01*
X224010000Y-96266000D02*
X224010000Y-98570000D01*
X152850000Y-90820000D02*
X159410100Y-90820000D01*
X159004000Y-72238700D02*
X159004000Y-70993000D01*
X163500000Y-92612500D02*
X163500000Y-94500000D01*
X222529200Y-101220800D02*
X222750000Y-101000000D01*
X181050000Y-88112500D02*
X181050000Y-87000000D01*
X164871600Y-90500000D02*
X166125000Y-90500000D01*
X181150000Y-86900000D02*
X181100000Y-86950000D01*
X165900000Y-85040000D02*
X161326400Y-85040000D01*
X181140000Y-96080000D02*
X181140000Y-97622500D01*
X181140000Y-97622500D02*
X181050000Y-97712500D01*
X164846000Y-90525600D02*
X164871600Y-90500000D01*
X175485000Y-80760000D02*
X174433800Y-80760000D01*
X166157500Y-87520000D02*
X166207500Y-87470000D01*
X166125000Y-91602500D02*
X167638900Y-93116400D01*
X160900000Y-87520000D02*
X166157500Y-87520000D01*
X164012500Y-92612500D02*
X166125000Y-90500000D01*
D53*
X194262500Y-71292800D02*
X194383900Y-71171400D01*
D52*
X223520000Y-100230000D02*
X222750000Y-101000000D01*
X185550000Y-89100200D02*
X185547000Y-89103200D01*
X224010000Y-76282406D02*
X224010000Y-77500000D01*
X172125000Y-91540000D02*
X171197600Y-91540000D01*
X195650000Y-88112500D02*
X195637500Y-88112500D01*
X224010000Y-78631000D02*
X223748600Y-78892400D01*
X181150000Y-85450000D02*
X181150000Y-86900000D01*
X161000000Y-93225000D02*
X162887500Y-93225000D01*
X201462500Y-79200000D02*
X199003400Y-81659100D01*
X165900000Y-85040000D02*
X165900000Y-87162500D01*
X167638900Y-94615000D02*
X167664300Y-94640400D01*
X181050000Y-87000000D02*
X181100000Y-86950000D01*
X162475000Y-100612500D02*
X162500000Y-100587500D01*
X200912500Y-90567500D02*
X201200000Y-90280000D01*
X151344400Y-94589600D02*
X151344400Y-92325600D01*
X159000000Y-72242700D02*
X159004000Y-72238700D01*
X195637500Y-88112500D02*
X193090800Y-85565800D01*
X159000000Y-72337500D02*
X159000000Y-72242700D01*
X166125000Y-87552500D02*
X166207500Y-87470000D01*
X175440000Y-77597000D02*
X175440000Y-79185000D01*
X195650000Y-88112500D02*
X196937500Y-88112500D01*
D53*
X187762500Y-72050000D02*
X187762500Y-71292800D01*
D52*
X174433800Y-80760000D02*
X174421800Y-80772000D01*
D53*
X194383900Y-71171400D02*
X196546400Y-71171400D01*
D52*
X215771000Y-101599800D02*
X220163000Y-101599800D01*
X175485000Y-80760000D02*
X175485000Y-79250000D01*
X160600000Y-72337500D02*
X159000000Y-72337500D01*
X224010000Y-96600000D02*
X223610000Y-97000000D01*
X188175000Y-81675000D02*
X188140100Y-81709900D01*
D53*
X197050000Y-74912500D02*
X196662500Y-75300000D01*
D52*
X159457500Y-82180000D02*
X160331000Y-81306500D01*
X175490000Y-83790000D02*
X174468000Y-83790000D01*
D53*
X207237500Y-80962500D02*
X206965000Y-80690000D01*
D52*
X202971400Y-99060000D02*
X202940000Y-99091400D01*
D53*
X182727600Y-70535800D02*
X180975000Y-72288400D01*
D52*
X194925000Y-76025000D02*
X195650000Y-75300000D01*
X224845000Y-71982500D02*
X224845000Y-75447406D01*
X193090800Y-85565800D02*
X193090800Y-85546100D01*
X167638900Y-93116400D02*
X167638900Y-94615000D01*
X224362500Y-71500000D02*
X224845000Y-71982500D01*
X190734100Y-80899000D02*
X189638198Y-80899000D01*
X158595000Y-90820000D02*
X159388900Y-91613900D01*
X153925000Y-82180000D02*
X158105000Y-82180000D01*
X159388900Y-91613900D02*
X161000000Y-93225000D01*
X223520000Y-99060000D02*
X223520000Y-100230000D01*
X160331000Y-81306500D02*
X160553400Y-81306500D01*
X157030000Y-90820000D02*
X158595000Y-90820000D01*
X163565000Y-69690000D02*
X163800000Y-69925000D01*
X215392000Y-101220800D02*
X215771000Y-101599800D01*
X224010000Y-95300000D02*
X224010000Y-96266000D01*
%TO.N,/VCC_ESP*%
X167932500Y-87470000D02*
X167932500Y-85307500D01*
X165939300Y-94640400D02*
X165204700Y-94640400D01*
X167932500Y-89057500D02*
X169375000Y-90500000D01*
X222600000Y-70400000D02*
X222637500Y-70437500D01*
X182321200Y-83794600D02*
X182322300Y-83795700D01*
X202102300Y-75062500D02*
X202158600Y-75006200D01*
D53*
X167250000Y-97500000D02*
X166750000Y-97500000D01*
D52*
X177342800Y-92100000D02*
X177342800Y-91550300D01*
X167932500Y-87470000D02*
X168765200Y-87470000D01*
X201350000Y-75062500D02*
X202102300Y-75062500D01*
X174435000Y-82265000D02*
X174400000Y-82300000D01*
X199187500Y-92964700D02*
X198247000Y-92024200D01*
X177342800Y-91550300D02*
X177292500Y-91500000D01*
X175485000Y-85310000D02*
X175485000Y-86755000D01*
X201287500Y-71650000D02*
X202212800Y-71650000D01*
X161000000Y-96725000D02*
X160348400Y-96725000D01*
X174354200Y-85310000D02*
X174320200Y-85344000D01*
X165204700Y-94640400D02*
X165128500Y-94716600D01*
X165913900Y-93116400D02*
X165913900Y-94615000D01*
X201200000Y-87740000D02*
X199187500Y-89752500D01*
X187554700Y-83821100D02*
X188493400Y-83821100D01*
X199187500Y-92975000D02*
X199187500Y-95042500D01*
X165939300Y-94640400D02*
X165939300Y-96689300D01*
X199187500Y-89752500D02*
X199187500Y-92975000D01*
X200927500Y-102325800D02*
X204099800Y-102325800D01*
X205740000Y-100685600D02*
X205714600Y-100711000D01*
X199187500Y-95042500D02*
X199130000Y-95100000D01*
X188493400Y-83821100D02*
X188517700Y-83845400D01*
X222637500Y-70437500D02*
X222637500Y-71500000D01*
X175485000Y-85310000D02*
X174354200Y-85310000D01*
X187750000Y-87612500D02*
X187750000Y-88975000D01*
X175490000Y-82265000D02*
X174435000Y-82265000D01*
X222740000Y-78760000D02*
X222500000Y-79000000D01*
X182322300Y-83795700D02*
X183421800Y-83795700D01*
X170764200Y-78740000D02*
X170815000Y-78790800D01*
X167932500Y-87470000D02*
X167932500Y-89057500D01*
X177275000Y-91482500D02*
X177292500Y-91500000D01*
X205740000Y-99060000D02*
X205740000Y-100685600D01*
X187528200Y-83794600D02*
X187554700Y-83821100D01*
X165939300Y-96689300D02*
X166750000Y-97500000D01*
X168765200Y-87470000D02*
X168783000Y-87452200D01*
X172125000Y-75115000D02*
X172125000Y-74190000D01*
X204099800Y-102325800D02*
X205714600Y-100711000D01*
X187750000Y-88975000D02*
X187725000Y-89000000D01*
X222740000Y-77500000D02*
X222740000Y-78760000D01*
X167932500Y-85307500D02*
X168200000Y-85040000D01*
X199187500Y-92975000D02*
X199187500Y-92964700D01*
X202212800Y-71650000D02*
X202234800Y-71628000D01*
X160348400Y-96725000D02*
X160299400Y-96774000D01*
X164025000Y-101336732D02*
X163846666Y-101515066D01*
X164025000Y-100587500D02*
X164025000Y-101336732D01*
X183421800Y-83795700D02*
X184962800Y-83795700D01*
X165913900Y-94615000D02*
X165939300Y-94640400D01*
X188517700Y-83845400D02*
X191386800Y-83845400D01*
X177275000Y-88300000D02*
X177275000Y-91482500D01*
X168200000Y-78740000D02*
X170764200Y-78740000D01*
D53*
%TO.N,/EN*%
X162400000Y-79679800D02*
X162103900Y-79679800D01*
X174193200Y-95351600D02*
X174193200Y-96368200D01*
X221470000Y-76599000D02*
X221470000Y-77500000D01*
X221470000Y-77500000D02*
X221470000Y-78530000D01*
X159043600Y-74106100D02*
X159043600Y-78333600D01*
X221470000Y-78530000D02*
X221000000Y-79000000D01*
X162530000Y-74030000D02*
X162497500Y-74062500D01*
X177135000Y-69325000D02*
X218363600Y-69325000D01*
X174193200Y-96368200D02*
X174225000Y-96400000D01*
X222157000Y-75912000D02*
X221470000Y-76599000D01*
X160757700Y-78333600D02*
X162103900Y-79679800D01*
X175884200Y-70575800D02*
X177135000Y-69325000D01*
X159043600Y-78333600D02*
X160757700Y-78333600D01*
X159000000Y-74062500D02*
X160600000Y-74062500D01*
X222157000Y-73118400D02*
X222157000Y-75912000D01*
X163068000Y-79679800D02*
X162400000Y-79679800D01*
X218363600Y-69325000D02*
X222157000Y-73118400D01*
X159000000Y-74062500D02*
X159043600Y-74106100D01*
X162497500Y-74062500D02*
X160600000Y-74062500D01*
%TO.N,/CSI_D4*%
X220200000Y-78600000D02*
X220200000Y-77500000D01*
X219800000Y-79000000D02*
X220200000Y-78600000D01*
X186029600Y-74472800D02*
X186262500Y-74239900D01*
X186262500Y-74239900D02*
X186262500Y-72050000D01*
X219800000Y-88683000D02*
X219800000Y-79000000D01*
X218059000Y-90424000D02*
X219800000Y-88683000D01*
%TO.N,/CSI_D5*%
X187262500Y-76607334D02*
X187262500Y-72050000D01*
X212048908Y-86934492D02*
X212025102Y-86934492D01*
X218930000Y-77800000D02*
X212953600Y-83776400D01*
X187061676Y-76808158D02*
X187262500Y-76607334D01*
X218930000Y-77500000D02*
X218930000Y-77800000D01*
X212953600Y-86029800D02*
X212048908Y-86934492D01*
X212953600Y-83776400D02*
X212953600Y-86029800D01*
%TO.N,/CAM_RST*%
X177215000Y-82265000D02*
X178288200Y-82265000D01*
X192262500Y-71218178D02*
X192262500Y-72050000D01*
X191775774Y-70731452D02*
X192262500Y-71218178D01*
X191713543Y-70731452D02*
X191775774Y-70731452D01*
X178288200Y-82265000D02*
X178308000Y-82245200D01*
X177215000Y-82265000D02*
X177215000Y-83790000D01*
%TO.N,/CSI_D6*%
X217660000Y-78567812D02*
X212496899Y-83730913D01*
X212496899Y-83730913D02*
X212496899Y-85092599D01*
X188262500Y-72954000D02*
X188262500Y-72050000D01*
X187985400Y-76301600D02*
X187985400Y-73231100D01*
X187985400Y-73231100D02*
X188262500Y-72954000D01*
X212496899Y-85092599D02*
X211632702Y-85956796D01*
X217660000Y-77500000D02*
X217660000Y-78567812D01*
%TO.N,/CSI_D7*%
X216390000Y-79118335D02*
X211658235Y-83850100D01*
X189134400Y-74504654D02*
X189262500Y-74376554D01*
X189262500Y-74376554D02*
X189262500Y-72050000D01*
X216390000Y-77500000D02*
X216390000Y-79118335D01*
%TO.N,/CAM_PWR*%
X202260200Y-73152000D02*
X202336400Y-73228200D01*
X201268500Y-73152000D02*
X202260200Y-73152000D01*
X215163400Y-77456600D02*
X215120000Y-77500000D01*
X215163400Y-76301600D02*
X215163400Y-77456600D01*
%TO.N,/LED*%
X175389200Y-76123800D02*
X175440000Y-76073000D01*
X203454000Y-71554000D02*
X203454000Y-74930000D01*
X178816000Y-73380600D02*
X182492600Y-69704000D01*
X213850000Y-77500000D02*
X213850000Y-76385200D01*
X182492600Y-69704000D02*
X201604000Y-69704000D01*
X201604000Y-69704000D02*
X203454000Y-71554000D01*
X213850000Y-76385200D02*
X213817200Y-76352400D01*
X178816000Y-73406000D02*
X178816000Y-73380600D01*
X174218600Y-76123800D02*
X175389200Y-76123800D01*
%TO.N,/CSI_VSYNC*%
X212580000Y-77500000D02*
X212826600Y-77746600D01*
X192049400Y-73482200D02*
X191762500Y-73195300D01*
X212344000Y-82321400D02*
X211937600Y-82321400D01*
X212826600Y-81838800D02*
X212344000Y-82321400D01*
X212826600Y-77746600D02*
X212826600Y-81838800D01*
X191762500Y-73195300D02*
X191762500Y-72050000D01*
%TO.N,/TWI_SDA*%
X178485800Y-86791800D02*
X179730400Y-85547200D01*
X194063552Y-70603480D02*
X193762500Y-70904532D01*
X194259200Y-73353502D02*
X193762500Y-72856802D01*
X211310000Y-79534800D02*
X211861400Y-80086200D01*
X211310000Y-77500000D02*
X211310000Y-79534800D01*
X193762500Y-70904532D02*
X193762500Y-72050000D01*
X193762500Y-72856802D02*
X193762500Y-72050000D01*
X177241200Y-86791800D02*
X178485800Y-86791800D01*
%TO.N,/TWI_SCK*%
X193116200Y-73355200D02*
X192762500Y-73001500D01*
X210040000Y-79382400D02*
X211886800Y-81229200D01*
X192762500Y-70829203D02*
X192762500Y-72050000D01*
X177215800Y-85318600D02*
X178435000Y-85318600D01*
X192762500Y-73001500D02*
X192762500Y-72050000D01*
X178435000Y-85318600D02*
X178485800Y-85267800D01*
X210040000Y-77500000D02*
X210040000Y-79382400D01*
%TO.N,/HS2_CLK*%
X190322225Y-95783400D02*
X191363600Y-95783400D01*
X208770000Y-77183200D02*
X210210400Y-75742800D01*
X186650000Y-92111175D02*
X190322225Y-95783400D01*
X213664800Y-75742800D02*
X215747600Y-73660000D01*
X208838800Y-88722200D02*
X208838800Y-77568800D01*
X186625000Y-87587500D02*
X186650000Y-87612500D01*
X186650000Y-87612500D02*
X186650000Y-92111175D01*
X210210400Y-75742800D02*
X213664800Y-75742800D01*
X209677000Y-89560400D02*
X208838800Y-88722200D01*
X208770000Y-77500000D02*
X208770000Y-77183200D01*
X208838800Y-77568800D02*
X208770000Y-77500000D01*
X215747600Y-73660000D02*
X215900000Y-73660000D01*
X186625000Y-86175300D02*
X186625000Y-87587500D01*
%TO.N,/HS2_DATA2*%
X191236600Y-87425900D02*
X191050000Y-87612500D01*
X191992200Y-99807800D02*
X191992200Y-95293866D01*
X191541400Y-85520700D02*
X191236600Y-85825500D01*
X191050000Y-87612500D02*
X191430350Y-87992850D01*
X191236600Y-85825500D02*
X191236600Y-87425900D01*
X211632800Y-75387200D02*
X213360000Y-73660000D01*
X207500000Y-78300000D02*
X207500000Y-77500000D01*
X207949800Y-88417400D02*
X208109100Y-88258100D01*
X191920000Y-99880000D02*
X191992200Y-99807800D01*
X208109100Y-78909100D02*
X207500000Y-78300000D01*
X207500000Y-77500000D02*
X207500000Y-77112800D01*
X191992200Y-95293866D02*
X191430350Y-94732016D01*
X209225600Y-75387200D02*
X211632800Y-75387200D01*
X191430350Y-87992850D02*
X191430350Y-94732016D01*
X208109100Y-88258100D02*
X208109100Y-78909100D01*
X207500000Y-77112800D02*
X209225600Y-75387200D01*
%TO.N,/HS2_DATA3*%
X207403500Y-83063500D02*
X206300000Y-81960000D01*
X190017400Y-87545100D02*
X189950000Y-87612500D01*
X189950000Y-87612500D02*
X190017400Y-87679900D01*
X206000000Y-81960000D02*
X205700000Y-81960000D01*
X190017400Y-94009574D02*
X190424995Y-94417169D01*
X208311200Y-75031600D02*
X209448400Y-75031600D01*
X207481000Y-87097997D02*
X207403500Y-87020497D01*
X205003400Y-78339400D02*
X208311200Y-75031600D01*
X172920000Y-84090000D02*
X172310000Y-84090000D01*
X163800000Y-78440000D02*
X163800000Y-77675000D01*
X205003400Y-81263400D02*
X205003400Y-78339400D01*
X166716200Y-81356200D02*
X163800000Y-78440000D01*
X172310000Y-84090000D02*
X169576200Y-81356200D01*
X209448400Y-75031600D02*
X210820000Y-73660000D01*
X190017400Y-87679900D02*
X190017400Y-94009574D01*
X206300000Y-81960000D02*
X206000000Y-81960000D01*
X207403500Y-87020497D02*
X207403500Y-83063500D01*
X169576200Y-81356200D02*
X166716200Y-81356200D01*
X205700000Y-81960000D02*
X205003400Y-81263400D01*
X190017400Y-85546100D02*
X190017400Y-87545100D01*
%TO.N,/SD2*%
X203123800Y-86512400D02*
X203123800Y-92285779D01*
X205021400Y-84614800D02*
X203123800Y-86512400D01*
X200400000Y-95009579D02*
X200400000Y-95100000D01*
X206000000Y-83230000D02*
X205612800Y-83230000D01*
X205021400Y-83821400D02*
X205021400Y-84614800D01*
X203123800Y-92285779D02*
X200400000Y-95009579D01*
X205612800Y-83230000D02*
X205021400Y-83821400D01*
%TO.N,/SD3*%
X206000000Y-84500000D02*
X205700000Y-84500000D01*
X202260200Y-98559000D02*
X201670000Y-99149200D01*
X203566749Y-86633251D02*
X203566749Y-93112830D01*
X202260200Y-94419379D02*
X202260200Y-98559000D01*
X201670000Y-99149200D02*
X201670000Y-100350000D01*
X205700000Y-84500000D02*
X203566749Y-86633251D01*
X203566749Y-93112830D02*
X202260200Y-94419379D01*
%TO.N,/SD0*%
X200400000Y-98747140D02*
X200244457Y-98591597D01*
X205841800Y-88468200D02*
X206000000Y-88310000D01*
X204749400Y-88468200D02*
X205841800Y-88468200D01*
X204107500Y-96069823D02*
X204614306Y-95563017D01*
X204614306Y-95563017D02*
X204614306Y-90239544D01*
X200400000Y-100350000D02*
X200400000Y-98747140D01*
%TO.N,/SD1*%
X206000000Y-89580000D02*
X204385582Y-89580000D01*
X203921850Y-90043732D02*
X203921850Y-94118150D01*
X204385582Y-89580000D02*
X203921850Y-90043732D01*
X203921850Y-94118150D02*
X202940000Y-95100000D01*
%TO.N,/HS2_CMD*%
X188493400Y-85546100D02*
X187953900Y-85546100D01*
X188850000Y-87612500D02*
X188850000Y-93422200D01*
X188850000Y-87612500D02*
X188722000Y-87484500D01*
X188850000Y-93422200D02*
X189331600Y-93903800D01*
X188722000Y-85774700D02*
X188493400Y-85546100D01*
X203987400Y-77952600D02*
X208280000Y-73660000D01*
X187953900Y-85546100D02*
X187675000Y-85825000D01*
X206236631Y-91086631D02*
X206000000Y-90850000D01*
X188722000Y-87484500D02*
X188722000Y-85774700D01*
X207487995Y-91086631D02*
X206236631Y-91086631D01*
X203987400Y-84429600D02*
X203987400Y-77952600D01*
X204012800Y-84455000D02*
X203987400Y-84429600D01*
%TO.N,/HS2_DATA0*%
X165790000Y-79687200D02*
X165790000Y-74102800D01*
X167103400Y-81000600D02*
X165790000Y-79687200D01*
X173180000Y-82940000D02*
X172442780Y-82940000D01*
X184658000Y-85825500D02*
X184962800Y-85520700D01*
X202869800Y-82270600D02*
X202869800Y-76530200D01*
X184450000Y-90470000D02*
X185089800Y-91109800D01*
X202869800Y-76530200D02*
X205740000Y-73660000D01*
X184450000Y-87612500D02*
X184450000Y-90470000D01*
X207314800Y-92125800D02*
X206005800Y-92125800D01*
X172442780Y-82940000D02*
X170503380Y-81000600D01*
X184450000Y-87612500D02*
X184658000Y-87404500D01*
X206005800Y-92125800D02*
X206000000Y-92120000D01*
X184658000Y-87404500D02*
X184658000Y-85825500D01*
X166662800Y-73230000D02*
X166930000Y-73230000D01*
X170503380Y-81000600D02*
X167103400Y-81000600D01*
X165790000Y-74102800D02*
X166662800Y-73230000D01*
%TO.N,/CSI_MCLK*%
X208280000Y-99060000D02*
X208280000Y-99999800D01*
X158242000Y-95442000D02*
X159094400Y-94589600D01*
X211004602Y-84710536D02*
X211004602Y-90290198D01*
X207500000Y-98280000D02*
X208280000Y-99060000D01*
X211004602Y-90290198D02*
X207500000Y-93794800D01*
X211023909Y-84691229D02*
X211004602Y-84710536D01*
X207500000Y-95300000D02*
X207500000Y-98280000D01*
X158242000Y-101854000D02*
X158242000Y-95442000D01*
X162487500Y-98875000D02*
X162500000Y-98862500D01*
X159504800Y-95000000D02*
X159094400Y-94589600D01*
X174262500Y-100500000D02*
X175277600Y-100500000D01*
X188762500Y-73619500D02*
X188762500Y-72050000D01*
X159094400Y-96994400D02*
X160975000Y-98875000D01*
X175285400Y-100507800D02*
X175285400Y-100714600D01*
X161000000Y-95000000D02*
X159504800Y-95000000D01*
X175277600Y-100500000D02*
X175285400Y-100507800D01*
X188347400Y-74034600D02*
X188762500Y-73619500D01*
X159416600Y-103028600D02*
X158242000Y-101854000D01*
X172971400Y-103028600D02*
X159416600Y-103028600D01*
X188347400Y-75139600D02*
X188347400Y-74034600D01*
X175285400Y-100714600D02*
X172971400Y-103028600D01*
X208280000Y-99999800D02*
X206857600Y-101422200D01*
X160975000Y-98875000D02*
X162487500Y-98875000D01*
X188645800Y-75438000D02*
X188347400Y-75139600D01*
X207500000Y-93794800D02*
X207500000Y-95300000D01*
X159094400Y-94589600D02*
X159094400Y-96994400D01*
%TO.N,/HS2_DATA1*%
X208770000Y-95300000D02*
X208770000Y-96487200D01*
X183350000Y-90716200D02*
X183350000Y-87612500D01*
X186205664Y-98499464D02*
X186205664Y-99967319D01*
X208770000Y-94912800D02*
X208770000Y-95300000D01*
X188569600Y-95935800D02*
X183350000Y-90716200D01*
X208770000Y-96487200D02*
X208762600Y-96494600D01*
X208952734Y-94730066D02*
X208770000Y-94912800D01*
X183350000Y-85592500D02*
X183421800Y-85520700D01*
X183350000Y-87612500D02*
X183350000Y-85592500D01*
X185115200Y-97409000D02*
X186205664Y-98499464D01*
X208952734Y-94144734D02*
X208952734Y-94730066D01*
%TO.N,/I016*%
X200127700Y-103251000D02*
X206629000Y-103251000D01*
X199130000Y-102253300D02*
X199187900Y-102311200D01*
X220311000Y-102689800D02*
X220542000Y-102920800D01*
X206629000Y-103251000D02*
X210820000Y-99060000D01*
X215623000Y-102689800D02*
X220311000Y-102689800D01*
X214680800Y-102920800D02*
X210820000Y-99060000D01*
X210040000Y-98280000D02*
X210820000Y-99060000D01*
X199187900Y-102311200D02*
X200127700Y-103251000D01*
X215392000Y-102920800D02*
X214680800Y-102920800D01*
X210040000Y-95300000D02*
X210040000Y-98280000D01*
X215392000Y-102920800D02*
X215623000Y-102689800D01*
X199130000Y-100350000D02*
X199130000Y-102253300D01*
%TO.N,/PSRAM_CLK*%
X211310000Y-97213200D02*
X211310000Y-95300000D01*
X211328000Y-97231200D02*
X211310000Y-97213200D01*
X201670000Y-95100000D02*
X201670000Y-97948400D01*
X201670000Y-97948400D02*
X201269600Y-98348800D01*
%TO.N,/CSI_D0*%
X212064600Y-94784600D02*
X212580000Y-95300000D01*
X212064600Y-91211400D02*
X212064600Y-94784600D01*
X212801200Y-90474800D02*
X212064600Y-91211400D01*
X185293000Y-74320425D02*
X185762500Y-73850925D01*
X185762500Y-73850925D02*
X185762500Y-72050000D01*
X185293000Y-75412600D02*
X185293000Y-74320425D01*
%TO.N,/CSI_D1*%
X213068253Y-92570653D02*
X213850000Y-93352400D01*
X213850000Y-93352400D02*
X213850000Y-95300000D01*
X183667400Y-74650600D02*
X184762500Y-73555500D01*
X184762500Y-73555500D02*
X184762500Y-72050000D01*
X212922980Y-92570653D02*
X213068253Y-92570653D01*
X183667400Y-77063600D02*
X183667400Y-74650600D01*
%TO.N,/CSI_D2*%
X215120000Y-93733400D02*
X214833200Y-93446600D01*
X182905400Y-74311100D02*
X184262500Y-72954000D01*
X182905400Y-77444600D02*
X182905400Y-74311100D01*
X182600600Y-77749400D02*
X182905400Y-77444600D01*
X215120000Y-95300000D02*
X215120000Y-93733400D01*
X184262500Y-72954000D02*
X184262500Y-72050000D01*
%TO.N,/CSI_D3*%
X212772737Y-91527918D02*
X214187918Y-91527918D01*
X214187918Y-91527918D02*
X217660000Y-95000000D01*
X217660000Y-95000000D02*
X217660000Y-95300000D01*
X185262500Y-73741300D02*
X185262500Y-72050000D01*
X184454800Y-74549000D02*
X185262500Y-73741300D01*
X184454800Y-76301600D02*
X184454800Y-74549000D01*
%TO.N,/RXD0*%
X170890852Y-92970400D02*
X169727252Y-94134000D01*
X218930000Y-95300000D02*
X218930000Y-98570000D01*
X197440000Y-101720000D02*
X196950000Y-101230000D01*
X182940400Y-92970400D02*
X170890852Y-92970400D01*
X218930000Y-98570000D02*
X218440000Y-99060000D01*
X191200000Y-101230000D02*
X182940400Y-92970400D01*
X196950000Y-101230000D02*
X191200000Y-101230000D01*
%TO.N,/TXD0*%
X220200000Y-98280000D02*
X220980000Y-99060000D01*
X196050001Y-101830000D02*
X190610000Y-101830000D01*
X171551063Y-93820000D02*
X171237063Y-94134000D01*
X196991836Y-102771835D02*
X196050001Y-101830000D01*
X190610000Y-101830000D02*
X182600000Y-93820000D01*
X220200000Y-95300000D02*
X220200000Y-98280000D01*
X197380742Y-102771835D02*
X196991836Y-102771835D01*
X182600000Y-93820000D02*
X171551063Y-93820000D01*
%TO.N,/CSI_PCLK*%
X177593000Y-78867000D02*
X185434154Y-78867000D01*
X221470000Y-95000000D02*
X221470000Y-95300000D01*
X186564297Y-77736857D02*
X186433076Y-77605636D01*
X185434154Y-78867000D02*
X186564297Y-77736857D01*
X212407500Y-88201500D02*
X214630000Y-90424000D01*
X186433076Y-76547783D02*
X186762500Y-76218359D01*
X186762500Y-76218359D02*
X186762500Y-72050000D01*
X186433076Y-77605636D02*
X186433076Y-76547783D01*
X216894000Y-90424000D02*
X221470000Y-95000000D01*
X177220000Y-79240000D02*
X177593000Y-78867000D01*
X214630000Y-90424000D02*
X216894000Y-90424000D01*
%TO.N,/CSI_HSYNC*%
X222740000Y-94023400D02*
X222758000Y-94005400D01*
X222740000Y-95300000D02*
X222740000Y-94023400D01*
X190762500Y-73693900D02*
X190762500Y-72050000D01*
X191109600Y-74041000D02*
X190762500Y-73693900D01*
D52*
%TO.N,/USB_PWR*%
X170500000Y-85040000D02*
X171957200Y-85040000D01*
X161000000Y-91500000D02*
X161908800Y-91500000D01*
X157605000Y-84100000D02*
X159484900Y-84100000D01*
X155850000Y-84775000D02*
X156525000Y-84100000D01*
X156480000Y-88900000D02*
X155850000Y-88270000D01*
X157605000Y-88900000D02*
X160591402Y-88900000D01*
X161908800Y-91500000D02*
X161950400Y-91541600D01*
X161950400Y-90258998D02*
X161950400Y-91541600D01*
X171957200Y-85040000D02*
X171958000Y-85039200D01*
X161288900Y-82296000D02*
X162052000Y-82296000D01*
X160591402Y-88900000D02*
X161950400Y-90258998D01*
X159484900Y-84100000D02*
X160553400Y-83031500D01*
X157605000Y-88900000D02*
X156480000Y-88900000D01*
X160553400Y-83031500D02*
X161288900Y-82296000D01*
X156525000Y-84100000D02*
X157605000Y-84100000D01*
X167756000Y-82296000D02*
X170500000Y-85040000D01*
X165100000Y-82296000D02*
X167756000Y-82296000D01*
X155850000Y-88270000D02*
X155850000Y-84775000D01*
D53*
%TO.N,/DATA+*%
X162814000Y-86588600D02*
X160991400Y-86588600D01*
X158408600Y-87128600D02*
X158287200Y-87250000D01*
X158287200Y-86250000D02*
X158408600Y-86371400D01*
X158428600Y-86680000D02*
X158408600Y-86700000D01*
X157605000Y-86250000D02*
X158287200Y-86250000D01*
X158408600Y-86371400D02*
X158408600Y-86700000D01*
X168250000Y-97500000D02*
X168250000Y-96763209D01*
X160991400Y-86588600D02*
X160900000Y-86680000D01*
X168250000Y-96763209D02*
X168554190Y-96459019D01*
X158408600Y-86700000D02*
X158408600Y-87128600D01*
X158287200Y-87250000D02*
X157605000Y-87250000D01*
X160900000Y-86680000D02*
X158428600Y-86680000D01*
%TO.N,/DATA-*%
X157605000Y-85750000D02*
X160477200Y-85750000D01*
X157605000Y-85750000D02*
X156922800Y-85750000D01*
X160553800Y-85826600D02*
X160477200Y-85750000D01*
X156922800Y-86750000D02*
X157605000Y-86750000D01*
X167503536Y-96381598D02*
X167750000Y-96628062D01*
X156801400Y-85871400D02*
X156801400Y-86628600D01*
X160477200Y-85750000D02*
X161174400Y-85750000D01*
X161174400Y-85750000D02*
X161315400Y-85891000D01*
X156801400Y-86628600D02*
X156922800Y-86750000D01*
X167750000Y-96628062D02*
X167750000Y-97500000D01*
X161823400Y-85826600D02*
X160553800Y-85826600D01*
X156922800Y-85750000D02*
X156801400Y-85871400D01*
%TO.N,Net-(Q1-G)*%
X199562500Y-71650000D02*
X199450000Y-71762500D01*
X199450000Y-71762500D02*
X199450000Y-75062500D01*
%TO.N,/CSI_2.8V*%
X189762500Y-77281500D02*
X189762500Y-72050000D01*
X192881872Y-70059600D02*
X190290425Y-70059600D01*
X190290425Y-70059600D02*
X189762500Y-70587525D01*
X193375000Y-71937500D02*
X193375000Y-71105678D01*
X187059100Y-79984900D02*
X189762500Y-77281500D01*
X193391100Y-71089578D02*
X193391100Y-70568828D01*
X189762500Y-70587525D02*
X189762500Y-72050000D01*
X193391100Y-70568828D02*
X192881872Y-70059600D01*
X183387500Y-79925000D02*
X186999200Y-79925000D01*
X193375000Y-71105678D02*
X193391100Y-71089578D01*
X193262500Y-72050000D02*
X193375000Y-71937500D01*
%TO.N,/CSI_1.2V*%
X193000000Y-80000000D02*
X190262500Y-77262500D01*
X196662500Y-79934100D02*
X196596600Y-80000000D01*
X196596600Y-80000000D02*
X193000000Y-80000000D01*
X190262500Y-77262500D02*
X190262500Y-72050000D01*
%TO.N,/RTS*%
X175496800Y-97350000D02*
X176412500Y-97350000D01*
X178500000Y-95262500D02*
X176412500Y-97350000D01*
X178500000Y-95087500D02*
X178500000Y-95262500D01*
X172396800Y-100450000D02*
X175496800Y-97350000D01*
X170700000Y-100450000D02*
X172396800Y-100450000D01*
%TO.N,/DTR*%
X176362500Y-101450000D02*
X178337500Y-101450000D01*
X176377600Y-102285800D02*
X176362500Y-102270700D01*
X178337500Y-101450000D02*
X178400000Y-101387500D01*
X171625000Y-98450000D02*
X170700000Y-98450000D01*
X176362500Y-102270700D02*
X176362500Y-101450000D01*
%TO.N,/RXD*%
X172608201Y-98857255D02*
X172608201Y-95697001D01*
X171515456Y-99950000D02*
X172608201Y-98857255D01*
X171110200Y-88300000D02*
X171069000Y-88341200D01*
X172125000Y-88300000D02*
X171110200Y-88300000D01*
X172608201Y-95697001D02*
X172161200Y-95250000D01*
X170700000Y-99950000D02*
X171515456Y-99950000D01*
%TO.N,/TXD*%
X171154600Y-89900000D02*
X171145200Y-89890600D01*
X171513268Y-99450000D02*
X172253100Y-98710168D01*
X172253100Y-98710168D02*
X172253100Y-98064832D01*
X172125000Y-89900000D02*
X171154600Y-89900000D01*
X170700000Y-99450000D02*
X171513268Y-99450000D01*
X170634768Y-96446500D02*
X169697400Y-96446500D01*
X172253100Y-98064832D02*
X170634768Y-96446500D01*
%TO.N,Net-(D5-A)*%
X173915000Y-91500000D02*
X173875000Y-91540000D01*
X175567500Y-91500000D02*
X173915000Y-91500000D01*
%TO.N,Net-(Q5-B)*%
X179349400Y-99745800D02*
X178483300Y-99745800D01*
X176500000Y-95450000D02*
X176500000Y-94822044D01*
X178483300Y-99745800D02*
X178400000Y-99662500D01*
X176500000Y-94822044D02*
X176593122Y-94728922D01*
%TO.N,Net-(Q6-B)*%
X178500000Y-97500000D02*
X178500000Y-96862500D01*
X176450000Y-99550000D02*
X178500000Y-97500000D01*
%TO.N,Net-(D2-A)*%
X173875000Y-88300000D02*
X175550000Y-88300000D01*
%TO.N,Net-(D3-A)*%
X173875000Y-89900000D02*
X175500000Y-89900000D01*
%TO.N,Net-(J1-CC1)*%
X159848508Y-85250000D02*
X161940008Y-83158500D01*
X161940008Y-83158500D02*
X163195000Y-83158500D01*
X157605000Y-85250000D02*
X159848508Y-85250000D01*
%TO.N,Net-(J1-CC2)*%
X160862500Y-88250000D02*
X163500000Y-90887500D01*
X157605000Y-88250000D02*
X160862500Y-88250000D01*
%TO.N,Net-(J4-Pin_17)*%
X178143600Y-80760000D02*
X178155600Y-80772000D01*
X191262500Y-71399900D02*
X191262500Y-72050000D01*
X190550800Y-70688200D02*
X191262500Y-71399900D01*
X177210000Y-80760000D02*
X178143600Y-80760000D01*
%TO.N,Net-(U4-~{RST})*%
X165800000Y-98950000D02*
X164112500Y-98950000D01*
X164112500Y-98950000D02*
X164025000Y-98862500D01*
%TO.N,Net-(U4-VBUS)*%
X164000000Y-96725000D02*
X164075000Y-96725000D01*
X162500000Y-96725000D02*
X164000000Y-96725000D01*
X164075000Y-96725000D02*
X165800000Y-98450000D01*
%TO.N,Net-(U4-SUSPEND)*%
X164137600Y-102387400D02*
X165171400Y-101353600D01*
X165171400Y-100766922D02*
X165488322Y-100450000D01*
X159475000Y-98887500D02*
X158771400Y-99591100D01*
X158771400Y-101448706D02*
X159710094Y-102387400D01*
X158771400Y-99591100D02*
X158771400Y-101448706D01*
X165488322Y-100450000D02*
X165800000Y-100450000D01*
X159710094Y-102387400D02*
X164137600Y-102387400D01*
X165171400Y-101353600D02*
X165171400Y-100766922D01*
D52*
%TO.N,Net-(D7-K)*%
X172236000Y-71501000D02*
X174862721Y-71501000D01*
X175759921Y-72398200D02*
X176240400Y-72398200D01*
X174862721Y-71501000D02*
X175759921Y-72398200D01*
X172125000Y-71390000D02*
X172236000Y-71501000D01*
D53*
%TO.N,Net-(Q2-B)*%
X177190400Y-74498200D02*
X177190400Y-77571600D01*
%TO.N,Net-(#FLG02-pwr)*%
X190734100Y-81849000D02*
X191451000Y-81849000D01*
X192562500Y-80737500D02*
X192600000Y-80775000D01*
X191451000Y-81849000D02*
X192562500Y-80737500D01*
X181112500Y-79925000D02*
X182169700Y-79925000D01*
X200400000Y-76937500D02*
X200400000Y-78537500D01*
X189074000Y-80751000D02*
X189875000Y-79950000D01*
X182169700Y-79925000D02*
X182995700Y-80751000D01*
X182995700Y-80751000D02*
X189074000Y-80751000D01*
X180221400Y-80568179D02*
X180221400Y-81181821D01*
X180864579Y-81825000D02*
X181112500Y-81825000D01*
X198162500Y-80775000D02*
X199737500Y-79200000D01*
X180221400Y-81181821D02*
X180864579Y-81825000D01*
X191225000Y-81850000D02*
X193090800Y-83715800D01*
X181112500Y-79925000D02*
X180864579Y-79925000D01*
X192600000Y-80775000D02*
X198162500Y-80775000D01*
X181112500Y-81825000D02*
X181112500Y-83687500D01*
X180864579Y-79925000D02*
X180221400Y-80568179D01*
X191775000Y-79950000D02*
X192562500Y-80737500D01*
X189875000Y-79950000D02*
X191775000Y-79950000D01*
X200400000Y-78537500D02*
X199737500Y-79200000D01*
%TD*%
M02*
