%TF.GenerationSoftware,KiCad,Pcbnew,7.0.2*%
%TF.CreationDate,2024-01-21T15:04:15+01:00*%
%TF.ProjectId,ESP32CAM,45535033-3243-4414-9d2e-6b696361645f,rev?*%
%TF.SameCoordinates,Original*%
%TF.FileFunction,Soldermask,Top*%
%TF.FilePolarity,Negative*%
%FSLAX46Y46*%
G04 Gerber Fmt 4.6, Leading zero omitted, Abs format (unit mm)*
G04 Created by KiCad (PCBNEW 7.0.2) date 2024-01-21 15:04:15*
%MOMM*%
%LPD*%
G01*
G04 APERTURE LIST*
G04 Aperture macros list*
%AMRoundRect*
0 Rectangle with rounded corners*
0 $1 Rounding radius*
0 $2 $3 $4 $5 $6 $7 $8 $9 X,Y pos of 4 corners*
0 Add a 4 corners polygon primitive as box body*
4,1,4,$2,$3,$4,$5,$6,$7,$8,$9,$2,$3,0*
0 Add four circle primitives for the rounded corners*
1,1,$1+$1,$2,$3*
1,1,$1+$1,$4,$5*
1,1,$1+$1,$6,$7*
1,1,$1+$1,$8,$9*
0 Add four rect primitives between the rounded corners*
20,1,$1+$1,$2,$3,$4,$5,0*
20,1,$1+$1,$4,$5,$6,$7,0*
20,1,$1+$1,$6,$7,$8,$9,0*
20,1,$1+$1,$8,$9,$2,$3,0*%
G04 Aperture macros list end*
%ADD10R,1.150000X0.600000*%
%ADD11R,1.150000X0.300000*%
%ADD12O,2.100000X1.000000*%
%ADD13O,1.800000X1.000000*%
%ADD14RoundRect,0.237500X-0.237500X0.250000X-0.237500X-0.250000X0.237500X-0.250000X0.237500X0.250000X0*%
%ADD15RoundRect,0.237500X-0.237500X0.300000X-0.237500X-0.300000X0.237500X-0.300000X0.237500X0.300000X0*%
%ADD16RoundRect,0.237500X-0.287500X-0.237500X0.287500X-0.237500X0.287500X0.237500X-0.287500X0.237500X0*%
%ADD17RoundRect,0.070000X-0.300000X0.650000X-0.300000X-0.650000X0.300000X-0.650000X0.300000X0.650000X0*%
%ADD18R,1.250000X1.000000*%
%ADD19RoundRect,0.237500X-0.250000X-0.237500X0.250000X-0.237500X0.250000X0.237500X-0.250000X0.237500X0*%
%ADD20R,1.450000X1.000000*%
%ADD21RoundRect,0.237500X0.250000X0.237500X-0.250000X0.237500X-0.250000X-0.237500X0.250000X-0.237500X0*%
%ADD22C,3.700000*%
%ADD23RoundRect,0.237500X0.237500X-0.250000X0.237500X0.250000X-0.237500X0.250000X-0.237500X-0.250000X0*%
%ADD24RoundRect,0.237500X0.300000X0.237500X-0.300000X0.237500X-0.300000X-0.237500X0.300000X-0.237500X0*%
%ADD25R,0.900000X1.200000*%
%ADD26RoundRect,0.237500X-0.300000X-0.237500X0.300000X-0.237500X0.300000X0.237500X-0.300000X0.237500X0*%
%ADD27RoundRect,0.237500X0.237500X-0.300000X0.237500X0.300000X-0.237500X0.300000X-0.237500X-0.300000X0*%
%ADD28R,1.000000X1.250000*%
%ADD29RoundRect,0.150000X-0.512500X-0.150000X0.512500X-0.150000X0.512500X0.150000X-0.512500X0.150000X0*%
%ADD30RoundRect,0.062500X0.062500X-0.117500X0.062500X0.117500X-0.062500X0.117500X-0.062500X-0.117500X0*%
%ADD31R,1.700000X1.700000*%
%ADD32O,1.700000X1.700000*%
%ADD33R,0.900000X1.500000*%
%ADD34R,1.500000X0.900000*%
%ADD35R,4.500000X4.500000*%
%ADD36RoundRect,0.070000X0.300000X-0.650000X0.300000X0.650000X-0.300000X0.650000X-0.300000X-0.650000X0*%
%ADD37RoundRect,0.250001X0.499999X0.924999X-0.499999X0.924999X-0.499999X-0.924999X0.499999X-0.924999X0*%
%ADD38RoundRect,0.062500X-0.062500X0.117500X-0.062500X-0.117500X0.062500X-0.117500X0.062500X0.117500X0*%
%ADD39R,1.500000X2.000000*%
%ADD40R,3.800000X2.000000*%
%ADD41RoundRect,0.070000X0.650000X0.300000X-0.650000X0.300000X-0.650000X-0.300000X0.650000X-0.300000X0*%
%ADD42R,3.000000X1.300000*%
%ADD43R,0.700000X1.600000*%
%ADD44R,1.200000X2.200000*%
%ADD45R,1.600000X1.400000*%
%ADD46R,1.200000X1.400000*%
%ADD47RoundRect,0.062500X-0.062500X0.337500X-0.062500X-0.337500X0.062500X-0.337500X0.062500X0.337500X0*%
%ADD48RoundRect,0.062500X-0.337500X0.062500X-0.337500X-0.062500X0.337500X-0.062500X0.337500X0.062500X0*%
%ADD49R,3.350000X3.350000*%
%ADD50RoundRect,0.150000X0.150000X-0.675000X0.150000X0.675000X-0.150000X0.675000X-0.150000X-0.675000X0*%
%ADD51R,0.300000X1.300000*%
%ADD52R,1.800000X2.200000*%
%ADD53C,0.750000*%
G04 APERTURE END LIST*
D10*
%TO.C,J1*%
X157605000Y-83300000D03*
X157605000Y-84100000D03*
D11*
X157605000Y-85250000D03*
X157605000Y-86250000D03*
X157605000Y-86750000D03*
X157605000Y-87750000D03*
D10*
X157605000Y-88900000D03*
X157605000Y-89700000D03*
X157605000Y-89700000D03*
X157605000Y-88900000D03*
D11*
X157605000Y-88250000D03*
X157605000Y-87250000D03*
X157605000Y-85750000D03*
X157605000Y-84750000D03*
D10*
X157605000Y-84100000D03*
X157605000Y-83300000D03*
D12*
X157030000Y-82180000D03*
D13*
X152850000Y-82180000D03*
D12*
X157030000Y-90820000D03*
D13*
X152850000Y-90820000D03*
%TD*%
D14*
%TO.C,R28*%
X183421800Y-83745700D03*
X183421800Y-85570700D03*
%TD*%
D15*
%TO.C,C5*%
X196662500Y-79934100D03*
X196662500Y-81659100D03*
%TD*%
D16*
%TO.C,D3*%
X172125000Y-89900000D03*
X173875000Y-89900000D03*
%TD*%
D14*
%TO.C,R23*%
X190017400Y-83771100D03*
X190017400Y-85596100D03*
%TD*%
D17*
%TO.C,Q1*%
X201350000Y-74950000D03*
X199450000Y-74950000D03*
X200400000Y-77050000D03*
%TD*%
D18*
%TO.C,S1*%
X151293600Y-78333600D03*
X159043600Y-78333600D03*
%TD*%
D19*
%TO.C,R6*%
X199512500Y-71650000D03*
X201337500Y-71650000D03*
%TD*%
D15*
%TO.C,C9*%
X187059100Y-79984900D03*
X187059100Y-81709900D03*
%TD*%
D20*
%TO.C,S7*%
X220542000Y-102920800D03*
X215392000Y-102920800D03*
X220542000Y-101220800D03*
X215392000Y-101220800D03*
%TD*%
D21*
%TO.C,R1*%
X177325000Y-88300000D03*
X175500000Y-88300000D03*
%TD*%
D22*
%TO.C,H4*%
X228600000Y-100330000D03*
%TD*%
D15*
%TO.C,C21*%
X162500000Y-98862500D03*
X162500000Y-100587500D03*
%TD*%
D19*
%TO.C,R34*%
X175390000Y-85344000D03*
X177215000Y-85344000D03*
%TD*%
D23*
%TO.C,R2*%
X164025000Y-100637500D03*
X164025000Y-98812500D03*
%TD*%
D24*
%TO.C,C3*%
X167638900Y-93116400D03*
X165913900Y-93116400D03*
%TD*%
D19*
%TO.C,R31*%
X175440000Y-82265000D03*
X177265000Y-82265000D03*
%TD*%
D16*
%TO.C,D5*%
X172125000Y-91540000D03*
X173875000Y-91540000D03*
%TD*%
D25*
%TO.C,D7*%
X172125000Y-71390000D03*
X172125000Y-74190000D03*
X170675000Y-74190000D03*
X170675000Y-71390000D03*
%TD*%
D22*
%TO.C,H2*%
X154305000Y-72390000D03*
%TD*%
D26*
%TO.C,C12*%
X199187500Y-92975000D03*
X200912500Y-92975000D03*
%TD*%
D27*
%TO.C,C6*%
X160553400Y-83031500D03*
X160553400Y-81306500D03*
%TD*%
D26*
%TO.C,C11*%
X199737500Y-79200000D03*
X201462500Y-79200000D03*
%TD*%
D28*
%TO.C,S3*%
X163800000Y-77675000D03*
X163800000Y-69925000D03*
%TD*%
D21*
%TO.C,R9*%
X177342500Y-91500000D03*
X175517500Y-91500000D03*
%TD*%
D24*
%TO.C,C8*%
X167932500Y-87470000D03*
X166207500Y-87470000D03*
%TD*%
D16*
%TO.C,D2*%
X172125000Y-88300000D03*
X173875000Y-88300000D03*
%TD*%
D18*
%TO.C,S2*%
X151325000Y-94589600D03*
X159075000Y-94589600D03*
%TD*%
D15*
%TO.C,C1*%
X161000000Y-91500000D03*
X161000000Y-93225000D03*
%TD*%
D23*
%TO.C,R3*%
X163195000Y-83208500D03*
X163195000Y-81383500D03*
%TD*%
%TO.C,R7*%
X193090000Y-85562500D03*
X193090000Y-83737500D03*
%TD*%
D29*
%TO.C,U2*%
X190734100Y-79949000D03*
X190734100Y-80899000D03*
X190734100Y-81849000D03*
X193009100Y-81849000D03*
X193009100Y-79949000D03*
%TD*%
D30*
%TO.C,D6*%
X161315400Y-85051000D03*
X161315400Y-85891000D03*
%TD*%
D31*
%TO.C,J6*%
X201200000Y-82660000D03*
D32*
X201200000Y-85200000D03*
X201200000Y-87740000D03*
X201200000Y-90280000D03*
%TD*%
D14*
%TO.C,R12*%
X159475000Y-98837500D03*
X159475000Y-100662500D03*
%TD*%
D27*
%TO.C,C22*%
X160600000Y-74062500D03*
X160600000Y-72337500D03*
%TD*%
D15*
%TO.C,C4*%
X194862500Y-79987500D03*
X194862500Y-81712500D03*
%TD*%
D33*
%TO.C,IC1*%
X224010000Y-77500000D03*
X222740000Y-77500000D03*
X221470000Y-77500000D03*
X220200000Y-77500000D03*
X218930000Y-77500000D03*
X217660000Y-77500000D03*
X216390000Y-77500000D03*
X215120000Y-77500000D03*
X213850000Y-77500000D03*
X212580000Y-77500000D03*
X211310000Y-77500000D03*
X210040000Y-77500000D03*
X208770000Y-77500000D03*
X207500000Y-77500000D03*
D34*
X206000000Y-80690000D03*
X206000000Y-81960000D03*
X206000000Y-83230000D03*
X206000000Y-84500000D03*
X206000000Y-85770000D03*
X206000000Y-87040000D03*
X206000000Y-88310000D03*
X206000000Y-89580000D03*
X206000000Y-90850000D03*
X206000000Y-92120000D03*
D33*
X207500000Y-95300000D03*
X208770000Y-95300000D03*
X210040000Y-95300000D03*
X211310000Y-95300000D03*
X212580000Y-95300000D03*
X213850000Y-95300000D03*
X215120000Y-95300000D03*
X216390000Y-95300000D03*
X217660000Y-95300000D03*
X218930000Y-95300000D03*
X220200000Y-95300000D03*
X221470000Y-95300000D03*
X222740000Y-95300000D03*
X224010000Y-95300000D03*
D35*
X216670000Y-85720000D03*
X216670000Y-85720000D03*
%TD*%
D14*
%TO.C,R27*%
X184962800Y-83745700D03*
X184962800Y-85570700D03*
%TD*%
D27*
%TO.C,C18*%
X160975000Y-100600000D03*
X160975000Y-98875000D03*
%TD*%
D23*
%TO.C,R10*%
X164000000Y-96775000D03*
X164000000Y-94950000D03*
%TD*%
D36*
%TO.C,Q2*%
X175290400Y-74498200D03*
X177190400Y-74498200D03*
X176240400Y-72398200D03*
%TD*%
D14*
%TO.C,R26*%
X188493400Y-83771100D03*
X188493400Y-85596100D03*
%TD*%
D37*
%TO.C,C7*%
X169375000Y-90500000D03*
X166125000Y-90500000D03*
%TD*%
D22*
%TO.C,H1*%
X228600000Y-72390000D03*
%TD*%
D14*
%TO.C,R4*%
X163500000Y-90837500D03*
X163500000Y-92662500D03*
%TD*%
D38*
%TO.C,D4*%
X160900000Y-87520000D03*
X160900000Y-86680000D03*
%TD*%
D14*
%TO.C,R29*%
X161000000Y-94950000D03*
X161000000Y-96775000D03*
%TD*%
D19*
%TO.C,R19*%
X175435000Y-80760000D03*
X177260000Y-80760000D03*
%TD*%
D23*
%TO.C,R30*%
X178400000Y-101437500D03*
X178400000Y-99612500D03*
%TD*%
D39*
%TO.C,U1*%
X165900000Y-85040000D03*
X168200000Y-85040000D03*
D40*
X168200000Y-78740000D03*
D39*
X170500000Y-85040000D03*
%TD*%
D22*
%TO.C,H3*%
X154305000Y-100330000D03*
%TD*%
D41*
%TO.C,Q6*%
X176362500Y-101450000D03*
X176362500Y-99550000D03*
X174262500Y-100500000D03*
%TD*%
%TO.C,Q5*%
X176412500Y-97350000D03*
X176412500Y-95450000D03*
X174312500Y-96400000D03*
%TD*%
D26*
%TO.C,C17*%
X175490000Y-83790000D03*
X177215000Y-83790000D03*
%TD*%
D19*
%TO.C,R14*%
X175390000Y-76073000D03*
X177215000Y-76073000D03*
%TD*%
D38*
%TO.C,D1*%
X160500000Y-89730100D03*
X160500000Y-88890100D03*
%TD*%
D42*
%TO.C,REF\u002A\u002A*%
X171400000Y-72790000D03*
%TD*%
D19*
%TO.C,R36*%
X175390000Y-86868000D03*
X177215000Y-86868000D03*
%TD*%
D14*
%TO.C,R22*%
X191541400Y-83745700D03*
X191541400Y-85570700D03*
%TD*%
%TO.C,R8*%
X162500000Y-94945000D03*
X162500000Y-96770000D03*
%TD*%
D29*
%TO.C,U3*%
X181112500Y-79925000D03*
X181112500Y-80875000D03*
X181112500Y-81825000D03*
X183387500Y-81825000D03*
X183387500Y-79925000D03*
%TD*%
D15*
%TO.C,C10*%
X185230300Y-79984900D03*
X185230300Y-81709900D03*
%TD*%
%TO.C,C19*%
X159000000Y-72337500D03*
X159000000Y-74062500D03*
%TD*%
D21*
%TO.C,R11*%
X201318500Y-73152000D03*
X199493500Y-73152000D03*
%TD*%
D43*
%TO.C,J7*%
X191050000Y-87612500D03*
X189950000Y-87612500D03*
X188850000Y-87612500D03*
X187750000Y-87612500D03*
X186650000Y-87612500D03*
X185550000Y-87612500D03*
X184450000Y-87612500D03*
X183350000Y-87612500D03*
X182250000Y-87612500D03*
D44*
X196550000Y-97712500D03*
D45*
X195650000Y-88112500D03*
D44*
X181050000Y-97712500D03*
D46*
X181050000Y-88112500D03*
%TD*%
D24*
%TO.C,C2*%
X167664300Y-94640400D03*
X165939300Y-94640400D03*
%TD*%
D47*
%TO.C,U4*%
X169750000Y-97500000D03*
X169250000Y-97500000D03*
X168750000Y-97500000D03*
X168250000Y-97500000D03*
X167750000Y-97500000D03*
X167250000Y-97500000D03*
X166750000Y-97500000D03*
D48*
X165800000Y-98450000D03*
X165800000Y-98950000D03*
X165800000Y-99450000D03*
X165800000Y-99950000D03*
X165800000Y-100450000D03*
X165800000Y-100950000D03*
X165800000Y-101450000D03*
D47*
X166750000Y-102400000D03*
X167250000Y-102400000D03*
X167750000Y-102400000D03*
X168250000Y-102400000D03*
X168750000Y-102400000D03*
X169250000Y-102400000D03*
X169750000Y-102400000D03*
D48*
X170700000Y-101450000D03*
X170700000Y-100950000D03*
X170700000Y-100450000D03*
X170700000Y-99950000D03*
X170700000Y-99450000D03*
X170700000Y-98950000D03*
X170700000Y-98450000D03*
D49*
X168250000Y-99950000D03*
%TD*%
D50*
%TO.C,U5*%
X199130000Y-100350000D03*
X200400000Y-100350000D03*
X201670000Y-100350000D03*
X202940000Y-100350000D03*
X202940000Y-95100000D03*
X201670000Y-95100000D03*
X200400000Y-95100000D03*
X199130000Y-95100000D03*
%TD*%
D24*
%TO.C,C16*%
X177220000Y-79240000D03*
X175495000Y-79240000D03*
%TD*%
D19*
%TO.C,R15*%
X175390000Y-77597000D03*
X177215000Y-77597000D03*
%TD*%
D21*
%TO.C,R16*%
X200962900Y-102311200D03*
X199137900Y-102311200D03*
%TD*%
%TO.C,R5*%
X177275000Y-89900000D03*
X175450000Y-89900000D03*
%TD*%
D51*
%TO.C,J4*%
X183262500Y-72050000D03*
X183762500Y-72050000D03*
X184262500Y-72050000D03*
X184762500Y-72050000D03*
X185262500Y-72050000D03*
X185762500Y-72050000D03*
X186262500Y-72050000D03*
X186762500Y-72050000D03*
X187262500Y-72050000D03*
X187762500Y-72050000D03*
X188262500Y-72050000D03*
X188762500Y-72050000D03*
X189262500Y-72050000D03*
X189762500Y-72050000D03*
X190262500Y-72050000D03*
X190762500Y-72050000D03*
X191262500Y-72050000D03*
X191762500Y-72050000D03*
X192262500Y-72050000D03*
X192762500Y-72050000D03*
X193262500Y-72050000D03*
X193762500Y-72050000D03*
X194262500Y-72050000D03*
X194762500Y-72050000D03*
D52*
X196662500Y-75300000D03*
X181362500Y-75300000D03*
%TD*%
D14*
%TO.C,R37*%
X178500000Y-95087500D03*
X178500000Y-96912500D03*
%TD*%
D23*
%TO.C,R13*%
X181150000Y-85500000D03*
X181150000Y-83675000D03*
%TD*%
D26*
%TO.C,C14*%
X222637500Y-71500000D03*
X224362500Y-71500000D03*
%TD*%
D31*
%TO.C,J5*%
X223520000Y-99060000D03*
D32*
X220980000Y-99060000D03*
X218440000Y-99060000D03*
X215900000Y-99060000D03*
X213360000Y-99060000D03*
X210820000Y-99060000D03*
X208280000Y-99060000D03*
X205740000Y-99060000D03*
%TD*%
D53*
%TO.C,S5*%
X193105000Y-100425000D03*
X193105000Y-103175000D03*
%TD*%
%TO.C,S4*%
X168220000Y-72520400D03*
X168220000Y-69770400D03*
%TD*%
%TO.C,S6*%
X184785000Y-100435000D03*
X184785000Y-103185000D03*
%TD*%
D31*
%TO.C,J3*%
X223520000Y-73660000D03*
D32*
X220980000Y-73660000D03*
X218440000Y-73660000D03*
X215900000Y-73660000D03*
X213360000Y-73660000D03*
X210820000Y-73660000D03*
X208280000Y-73660000D03*
X205740000Y-73660000D03*
%TD*%
M02*
