%TF.GenerationSoftware,KiCad,Pcbnew,7.0.2*%
%TF.CreationDate,2024-01-21T15:04:15+01:00*%
%TF.ProjectId,ESP32CAM,45535033-3243-4414-9d2e-6b696361645f,rev?*%
%TF.SameCoordinates,Original*%
%TF.FileFunction,Copper,L4,Bot*%
%TF.FilePolarity,Positive*%
%FSLAX46Y46*%
G04 Gerber Fmt 4.6, Leading zero omitted, Abs format (unit mm)*
G04 Created by KiCad (PCBNEW 7.0.2) date 2024-01-21 15:04:15*
%MOMM*%
%LPD*%
G01*
G04 APERTURE LIST*
G04 Aperture macros list*
%AMRoundRect*
0 Rectangle with rounded corners*
0 $1 Rounding radius*
0 $2 $3 $4 $5 $6 $7 $8 $9 X,Y pos of 4 corners*
0 Add a 4 corners polygon primitive as box body*
4,1,4,$2,$3,$4,$5,$6,$7,$8,$9,$2,$3,0*
0 Add four circle primitives for the rounded corners*
1,1,$1+$1,$2,$3*
1,1,$1+$1,$4,$5*
1,1,$1+$1,$6,$7*
1,1,$1+$1,$8,$9*
0 Add four rect primitives between the rounded corners*
20,1,$1+$1,$2,$3,$4,$5,0*
20,1,$1+$1,$4,$5,$6,$7,0*
20,1,$1+$1,$6,$7,$8,$9,0*
20,1,$1+$1,$8,$9,$2,$3,0*%
G04 Aperture macros list end*
%TA.AperFunction,ComponentPad*%
%ADD10O,2.100000X1.000000*%
%TD*%
%TA.AperFunction,ComponentPad*%
%ADD11O,1.800000X1.000000*%
%TD*%
%TA.AperFunction,ComponentPad*%
%ADD12R,1.700000X1.700000*%
%TD*%
%TA.AperFunction,ComponentPad*%
%ADD13O,1.700000X1.700000*%
%TD*%
%TA.AperFunction,SMDPad,CuDef*%
%ADD14RoundRect,0.237500X-0.300000X-0.237500X0.300000X-0.237500X0.300000X0.237500X-0.300000X0.237500X0*%
%TD*%
%TA.AperFunction,SMDPad,CuDef*%
%ADD15RoundRect,0.237500X-0.237500X0.250000X-0.237500X-0.250000X0.237500X-0.250000X0.237500X0.250000X0*%
%TD*%
%TA.AperFunction,SMDPad,CuDef*%
%ADD16R,1.450000X1.000000*%
%TD*%
%TA.AperFunction,SMDPad,CuDef*%
%ADD17RoundRect,0.237500X0.250000X0.237500X-0.250000X0.237500X-0.250000X-0.237500X0.250000X-0.237500X0*%
%TD*%
%TA.AperFunction,SMDPad,CuDef*%
%ADD18RoundRect,0.237500X-0.250000X-0.237500X0.250000X-0.237500X0.250000X0.237500X-0.250000X0.237500X0*%
%TD*%
%TA.AperFunction,ViaPad*%
%ADD19C,0.800000*%
%TD*%
%TA.AperFunction,Conductor*%
%ADD20C,0.550000*%
%TD*%
%TA.AperFunction,Conductor*%
%ADD21C,0.254000*%
%TD*%
G04 APERTURE END LIST*
D10*
%TO.P,J1,S1,SHIELD*%
%TO.N,GND*%
X157030000Y-82180000D03*
D11*
X152850000Y-82180000D03*
D10*
X157030000Y-90820000D03*
D11*
X152850000Y-90820000D03*
%TD*%
D12*
%TO.P,J6,1,Pin_1*%
%TO.N,Net-(J6-Pin_1)*%
X201200000Y-82660000D03*
D13*
%TO.P,J6,2,Pin_2*%
%TO.N,Net-(J6-Pin_2)*%
X201200000Y-85200000D03*
%TO.P,J6,3,Pin_3*%
%TO.N,/VCC_ESP*%
X201200000Y-87740000D03*
%TO.P,J6,4,Pin_4*%
%TO.N,GND*%
X201200000Y-90280000D03*
%TD*%
D12*
%TO.P,J5,1,Pin_1*%
%TO.N,GND*%
X223520000Y-99060000D03*
D13*
%TO.P,J5,2,Pin_2*%
%TO.N,/TXD0*%
X220980000Y-99060000D03*
%TO.P,J5,3,Pin_3*%
%TO.N,/RXD0*%
X218440000Y-99060000D03*
%TO.P,J5,4,Pin_4*%
%TO.N,/VCC_ESP*%
X215900000Y-99060000D03*
%TO.P,J5,5,Pin_5*%
%TO.N,/HS2_DATA1*%
X213360000Y-99060000D03*
%TO.P,J5,6,Pin_6*%
%TO.N,/I016*%
X210820000Y-99060000D03*
%TO.P,J5,7,Pin_7*%
%TO.N,/CSI_MCLK*%
X208280000Y-99060000D03*
%TO.P,J5,8,Pin_8*%
%TO.N,/VCC_ESP*%
X205740000Y-99060000D03*
%TD*%
D14*
%TO.P,C13,1*%
%TO.N,/VCC_ESP*%
X222075000Y-80200000D03*
%TO.P,C13,2*%
%TO.N,GND*%
X223800000Y-80200000D03*
%TD*%
D15*
%TO.P,R35,1*%
%TO.N,/RXD0*%
X169700000Y-93550000D03*
%TO.P,R35,2*%
%TO.N,/TXD*%
X169700000Y-95375000D03*
%TD*%
D16*
%TO.P,S5,1*%
%TO.N,/HS2_DATA2*%
X190530000Y-102650000D03*
X195680000Y-102650000D03*
%TO.P,S5,2*%
%TO.N,GND*%
X190530000Y-100950000D03*
X195680000Y-100950000D03*
%TD*%
%TO.P,S4,1*%
%TO.N,/HS2_DATA0*%
X170795000Y-70295400D03*
X165645000Y-70295400D03*
%TO.P,S4,2*%
%TO.N,GND*%
X170795000Y-71995400D03*
X165645000Y-71995400D03*
%TD*%
%TO.P,S6,1*%
%TO.N,/HS2_DATA1*%
X182210000Y-102660000D03*
X187360000Y-102660000D03*
%TO.P,S6,2*%
%TO.N,GND*%
X182210000Y-100960000D03*
X187360000Y-100960000D03*
%TD*%
D14*
%TO.P,C20,1*%
%TO.N,/EN*%
X220875000Y-83400000D03*
%TO.P,C20,2*%
%TO.N,GND*%
X222600000Y-83400000D03*
%TD*%
D17*
%TO.P,R20,1*%
%TO.N,Net-(J6-Pin_1)*%
X197400000Y-83250000D03*
%TO.P,R20,2*%
%TO.N,/HS2_CMD*%
X195575000Y-83250000D03*
%TD*%
%TO.P,R32,1*%
%TO.N,/VCC_ESP*%
X222712500Y-81800000D03*
%TO.P,R32,2*%
%TO.N,/EN*%
X220887500Y-81800000D03*
%TD*%
D18*
%TO.P,R24,1*%
%TO.N,/HS2_CLK*%
X195600000Y-84800000D03*
%TO.P,R24,2*%
%TO.N,Net-(J6-Pin_2)*%
X197425000Y-84800000D03*
%TD*%
%TO.P,R25,1*%
%TO.N,/TWI_SCK*%
X195600000Y-86300000D03*
%TO.P,R25,2*%
%TO.N,Net-(J6-Pin_2)*%
X197425000Y-86300000D03*
%TD*%
D12*
%TO.P,J3,1,Pin_1*%
%TO.N,/USB_PWR*%
X223520000Y-73660000D03*
D13*
%TO.P,J3,2,Pin_2*%
%TO.N,GND*%
X220980000Y-73660000D03*
%TO.P,J3,3,Pin_3*%
X218440000Y-73660000D03*
%TO.P,J3,4,Pin_4*%
%TO.N,/HS2_CLK*%
X215900000Y-73660000D03*
%TO.P,J3,5,Pin_5*%
%TO.N,/HS2_DATA2*%
X213360000Y-73660000D03*
%TO.P,J3,6,Pin_6*%
%TO.N,/HS2_DATA3*%
X210820000Y-73660000D03*
%TO.P,J3,7,Pin_7*%
%TO.N,/HS2_CMD*%
X208280000Y-73660000D03*
%TO.P,J3,8,Pin_8*%
%TO.N,/HS2_DATA0*%
X205740000Y-73660000D03*
%TD*%
D17*
%TO.P,R21,1*%
%TO.N,Net-(J6-Pin_1)*%
X197387500Y-81725000D03*
%TO.P,R21,2*%
%TO.N,/TWI_SDA*%
X195562500Y-81725000D03*
%TD*%
D15*
%TO.P,R33,1*%
%TO.N,/TXD0*%
X171300000Y-93550000D03*
%TO.P,R33,2*%
%TO.N,/RXD*%
X171300000Y-95375000D03*
%TD*%
D19*
%TO.N,GND*%
X168200000Y-99800000D03*
X202971400Y-99060000D03*
X215000000Y-84000000D03*
X197590000Y-97750000D03*
X216600000Y-87400000D03*
X168250000Y-101000000D03*
X174421800Y-80772000D03*
X185547000Y-89103200D03*
X182250000Y-81170037D03*
X162640000Y-69690000D03*
X169500000Y-101000000D03*
X168250000Y-98750000D03*
X159871152Y-101317048D03*
X218400000Y-85600000D03*
X171170600Y-91567000D03*
X222750000Y-97000000D03*
X221005400Y-75133200D03*
X223748600Y-78892400D03*
X169500000Y-98750000D03*
X216600000Y-84000000D03*
X167000000Y-99800000D03*
X196950000Y-88100000D03*
X164846000Y-90525600D03*
X181140000Y-96080000D03*
X222750000Y-101000000D03*
X176225200Y-74498200D03*
X188870000Y-101790000D03*
X218400000Y-87400000D03*
X181100000Y-86950000D03*
X159004000Y-70993000D03*
X172339000Y-72821800D03*
X167000000Y-98750000D03*
X215000000Y-87400000D03*
X170383200Y-72847200D03*
X167000000Y-101000000D03*
X171399200Y-72847200D03*
X169400000Y-99800000D03*
X215000000Y-85600000D03*
X207237500Y-80962500D03*
X216600000Y-85600000D03*
X194925000Y-76025000D03*
X174447200Y-83769200D03*
X180175000Y-75300000D03*
X195450000Y-99940000D03*
X218400000Y-84000000D03*
X183591200Y-100888800D03*
X188175000Y-81675000D03*
%TO.N,/VCC_ESP*%
X174320200Y-85344000D03*
X202234800Y-71628000D03*
X187528200Y-83794600D03*
X163846666Y-101515066D03*
X187725000Y-89000000D03*
X177342800Y-92100000D03*
X222600000Y-70400000D03*
X202158600Y-75006200D03*
X205714600Y-100711000D03*
X222500000Y-79000000D03*
X198247000Y-92024200D03*
X168783000Y-87452200D03*
X170815000Y-78790800D03*
X165128500Y-94716600D03*
X172125000Y-75115000D03*
X182321200Y-83794600D03*
X174400000Y-82300000D03*
X160299400Y-96774000D03*
%TO.N,/EN*%
X162530000Y-74030000D03*
X174193200Y-95351600D03*
X221000000Y-79000000D03*
X175884200Y-70575800D03*
X163068000Y-79679800D03*
%TO.N,/CSI_D4*%
X218059000Y-90424000D03*
X186029600Y-74472800D03*
%TO.N,/CSI_D5*%
X187061676Y-76808158D03*
X212025102Y-86934492D03*
%TO.N,/CAM_RST*%
X178308000Y-82245200D03*
X191713543Y-70731452D03*
%TO.N,/CSI_D6*%
X187985400Y-76301600D03*
X211632702Y-85956796D03*
%TO.N,/CSI_D7*%
X211658235Y-83850100D03*
X189134400Y-74504654D03*
%TO.N,/CAM_PWR*%
X215163400Y-76301600D03*
X202336400Y-73228200D03*
%TO.N,/LED*%
X213817200Y-76352400D03*
X203454000Y-74930000D03*
X178816000Y-73406000D03*
X174218600Y-76123800D03*
%TO.N,/CSI_VSYNC*%
X192049400Y-73482200D03*
X211937600Y-82321400D03*
%TO.N,/TWI_SDA*%
X179730400Y-85547200D03*
X194259200Y-73353502D03*
X211861400Y-80086200D03*
X194063552Y-70603480D03*
%TO.N,/TWI_SCK*%
X192762500Y-70829203D03*
X211886800Y-81229200D03*
X178485800Y-85267800D03*
X193116200Y-73355200D03*
%TO.N,/HS2_CLK*%
X191363600Y-95783400D03*
X186625000Y-86175300D03*
X209677000Y-89560400D03*
%TO.N,/HS2_DATA2*%
X207949800Y-88417400D03*
X191920000Y-99880000D03*
X191430350Y-94732016D03*
%TO.N,/HS2_DATA3*%
X190424995Y-94417169D03*
X207481000Y-87097997D03*
X172920000Y-84090000D03*
%TO.N,/SD0*%
X204614306Y-90239544D03*
X204107500Y-96069823D03*
X200244457Y-98591597D03*
X204749400Y-88468200D03*
%TO.N,/HS2_CMD*%
X187675000Y-85825000D03*
X189331600Y-93903800D03*
X207487995Y-91086631D03*
X204012800Y-84455000D03*
%TO.N,/HS2_DATA0*%
X207314800Y-92125800D03*
X185089800Y-91109800D03*
X202869800Y-82270600D03*
X173180000Y-82940000D03*
X166930000Y-73230000D03*
%TO.N,/CSI_MCLK*%
X188645800Y-75438000D03*
X175285400Y-100507800D03*
X211023909Y-84691229D03*
X206857600Y-101422200D03*
%TO.N,/HS2_DATA1*%
X188569600Y-95935800D03*
X208762600Y-96494600D03*
X185115200Y-97409000D03*
X208952734Y-94144734D03*
X186205664Y-99967319D03*
%TO.N,/PSRAM_CLK*%
X201269600Y-98348800D03*
X211328000Y-97231200D03*
%TO.N,/CSI_D0*%
X185293000Y-75412600D03*
X212801200Y-90474800D03*
%TO.N,/CSI_D1*%
X212922980Y-92570653D03*
X183667400Y-77063600D03*
%TO.N,/CSI_D2*%
X214833200Y-93446600D03*
X182600600Y-77749400D03*
%TO.N,/CSI_D3*%
X212772737Y-91527918D03*
X184454800Y-76301600D03*
%TO.N,/RXD0*%
X197440000Y-101720000D03*
X169727252Y-94134000D03*
%TO.N,/TXD0*%
X171237063Y-94134000D03*
X197380742Y-102771835D03*
%TO.N,/CSI_PCLK*%
X212407500Y-88201500D03*
X186564297Y-77736857D03*
%TO.N,/CSI_HSYNC*%
X222758000Y-94005400D03*
X191109600Y-74041000D03*
%TO.N,/USB_PWR*%
X171958000Y-85039200D03*
X161950400Y-91541600D03*
X162052000Y-82296000D03*
X165100000Y-82296000D03*
X162500000Y-95000000D03*
%TO.N,/DATA+*%
X162814000Y-86588600D03*
X168554190Y-96459019D03*
%TO.N,/DATA-*%
X161823400Y-85826600D03*
X167503536Y-96381598D03*
%TO.N,/DTR*%
X176377600Y-102285800D03*
X171625000Y-98450000D03*
%TO.N,/RXD*%
X172161200Y-95250000D03*
X171069000Y-88341200D03*
%TO.N,/TXD*%
X171145200Y-89890600D03*
X169697400Y-96446500D03*
%TO.N,Net-(Q5-B)*%
X179349400Y-99745800D03*
X176593122Y-94728922D03*
%TO.N,Net-(J4-Pin_17)*%
X178155600Y-80772000D03*
X190550800Y-70688200D03*
%TD*%
D20*
%TO.N,GND*%
X182250000Y-81170037D02*
X182309163Y-81229200D01*
X188920000Y-101740000D02*
X188870000Y-101790000D01*
X170795000Y-71995400D02*
X170795000Y-72435400D01*
X165645000Y-71995400D02*
X164945400Y-71995400D01*
X183520000Y-100960000D02*
X182210000Y-100960000D01*
X183591200Y-100888800D02*
X183520000Y-100960000D01*
X170795000Y-72435400D02*
X170383200Y-72847200D01*
X187729200Y-81229200D02*
X188175000Y-81675000D01*
X195680000Y-100950000D02*
X195680000Y-100170000D01*
X190520000Y-100960000D02*
X190530000Y-100950000D01*
X188920000Y-100960000D02*
X188920000Y-101740000D01*
X223800000Y-82200000D02*
X222600000Y-83400000D01*
X188920000Y-100960000D02*
X190520000Y-100960000D01*
X182309163Y-81229200D02*
X187729200Y-81229200D01*
X195680000Y-100170000D02*
X195450000Y-99940000D01*
X223800000Y-80200000D02*
X223800000Y-82200000D01*
X164945400Y-71995400D02*
X162640000Y-69690000D01*
X187360000Y-100960000D02*
X188920000Y-100960000D01*
%TO.N,/VCC_ESP*%
X222075000Y-79425000D02*
X222500000Y-79000000D01*
X222075000Y-81212500D02*
X222662500Y-81800000D01*
X205780000Y-100645600D02*
X205714600Y-100711000D01*
X214314400Y-100645600D02*
X205780000Y-100645600D01*
X222075000Y-80200000D02*
X222075000Y-81212500D01*
X222075000Y-80200000D02*
X222075000Y-79425000D01*
X215900000Y-99060000D02*
X214314400Y-100645600D01*
D21*
%TO.N,/EN*%
X163068000Y-79679800D02*
X164007800Y-79679800D01*
X162550000Y-74050000D02*
X162530000Y-74030000D01*
X175884200Y-70575800D02*
X172410000Y-74050000D01*
X221000000Y-83275000D02*
X220875000Y-83400000D01*
X221000000Y-79000000D02*
X221000000Y-83275000D01*
X172410000Y-74050000D02*
X162550000Y-74050000D01*
X164007800Y-79679800D02*
X174193200Y-89865200D01*
X174193200Y-89865200D02*
X174193200Y-95351600D01*
%TO.N,/CSI_D4*%
X185935697Y-74566703D02*
X186029600Y-74472800D01*
X213639375Y-90424000D02*
X211732404Y-88517029D01*
X211732404Y-88517029D02*
X211732404Y-88032252D01*
X202645348Y-78945196D02*
X186883661Y-78945196D01*
X218059000Y-90424000D02*
X213639375Y-90424000D01*
X185935697Y-77997232D02*
X185935697Y-74566703D01*
X186883661Y-78945196D02*
X185935697Y-77997232D01*
X211732404Y-88032252D02*
X202645348Y-78945196D01*
%TO.N,/CSI_D5*%
X211639021Y-86934492D02*
X212025102Y-86934492D01*
X202939523Y-78234994D02*
X211639021Y-86934492D01*
X187061676Y-76808158D02*
X188485518Y-78232000D01*
X188485518Y-78232000D02*
X202657129Y-78232000D01*
X202660123Y-78234994D02*
X202939523Y-78234994D01*
X202657129Y-78232000D02*
X202660123Y-78234994D01*
%TO.N,/CAM_RST*%
X191713543Y-70731452D02*
X190435995Y-72009000D01*
X186446237Y-72009000D02*
X178993800Y-79461437D01*
X178993800Y-79461437D02*
X178993800Y-81559400D01*
X178993800Y-81559400D02*
X178308000Y-82245200D01*
X190435995Y-72009000D02*
X186446237Y-72009000D01*
%TO.N,/CSI_D6*%
X189560200Y-77876400D02*
X203101400Y-77876400D01*
X203101400Y-77876400D02*
X211181796Y-85956796D01*
X187985400Y-76301600D02*
X189560200Y-77876400D01*
X211181796Y-85956796D02*
X211632702Y-85956796D01*
%TO.N,/CSI_D7*%
X189134400Y-74504654D02*
X189363454Y-74504654D01*
X211586700Y-83850100D02*
X211658235Y-83850100D01*
X189363454Y-74504654D02*
X192024000Y-77165200D01*
X192024000Y-77165200D02*
X204901800Y-77165200D01*
X204901800Y-77165200D02*
X211586700Y-83850100D01*
%TO.N,/CAM_PWR*%
X202336400Y-73228200D02*
X203643670Y-73228200D01*
X208371388Y-75590400D02*
X214452200Y-75590400D01*
X205397268Y-74981798D02*
X207762786Y-74981798D01*
X207762786Y-74981798D02*
X208371388Y-75590400D01*
X214452200Y-75590400D02*
X215163400Y-76301600D01*
X203643670Y-73228200D02*
X205397268Y-74981798D01*
%TO.N,/LED*%
X208630494Y-76352400D02*
X207615492Y-75337398D01*
X178816000Y-73406000D02*
X176098200Y-76123800D01*
X203861398Y-75337398D02*
X203454000Y-74930000D01*
X176098200Y-76123800D02*
X174218600Y-76123800D01*
X207615492Y-75337398D02*
X203861398Y-75337398D01*
X213817200Y-76352400D02*
X208630494Y-76352400D01*
%TO.N,/CSI_VSYNC*%
X206020398Y-76404198D02*
X200793104Y-76404198D01*
X199369706Y-74980800D02*
X193548000Y-74980800D01*
X193548000Y-74980800D02*
X192049400Y-73482200D01*
X211937600Y-82321400D02*
X206020398Y-76404198D01*
X200793104Y-76404198D02*
X199369706Y-74980800D01*
%TO.N,/TWI_SDA*%
X195175797Y-74270099D02*
X194259200Y-73353502D01*
X207468198Y-75692998D02*
X201086986Y-75692998D01*
X211861400Y-80086200D02*
X207468198Y-75692998D01*
X201086986Y-75692998D02*
X199664087Y-74270099D01*
X195612500Y-81725000D02*
X193865000Y-81725000D01*
X199664087Y-74270099D02*
X195175797Y-74270099D01*
X194063552Y-71518848D02*
X192811400Y-72771000D01*
X194063552Y-70603480D02*
X194063552Y-71518848D01*
X179730400Y-79730625D02*
X179730400Y-85547200D01*
X186690025Y-72771000D02*
X179730400Y-79730625D01*
X190665000Y-84925000D02*
X180352600Y-84925000D01*
X193865000Y-81725000D02*
X190665000Y-84925000D01*
X192811400Y-72771000D02*
X186690025Y-72771000D01*
X180352600Y-84925000D02*
X179730400Y-85547200D01*
%TO.N,/TWI_SCK*%
X200940398Y-76048598D02*
X199517000Y-74625200D01*
X211886800Y-81102200D02*
X206833198Y-76048598D01*
X194112500Y-87825000D02*
X181043000Y-87825000D01*
X179120825Y-85267800D02*
X178485800Y-85267800D01*
X192762500Y-71829300D02*
X192227200Y-72364600D01*
X179374800Y-85013825D02*
X179120825Y-85267800D01*
X179374800Y-79583331D02*
X179374800Y-85013825D01*
X199517000Y-74625200D02*
X194386200Y-74625200D01*
X206833198Y-76048598D02*
X200940398Y-76048598D01*
X195637500Y-86300000D02*
X194112500Y-87825000D01*
X194386200Y-74625200D02*
X193116200Y-73355200D01*
X211886800Y-81229200D02*
X211886800Y-81102200D01*
X192227200Y-72364600D02*
X186593531Y-72364600D01*
X181043000Y-87825000D02*
X178485800Y-85267800D01*
X192762500Y-70829203D02*
X192762500Y-71829300D01*
X186593531Y-72364600D02*
X179374800Y-79583331D01*
%TO.N,/HS2_CLK*%
X195650000Y-84800000D02*
X193646100Y-86803900D01*
X209092800Y-90144600D02*
X209092800Y-93116400D01*
X187253600Y-86803900D02*
X186625000Y-86175300D01*
X193646100Y-86803900D02*
X187253600Y-86803900D01*
X209677000Y-89560400D02*
X209092800Y-90144600D01*
X209092800Y-93116400D02*
X207518000Y-94691200D01*
X207518000Y-94691200D02*
X192455800Y-94691200D01*
X192455800Y-94691200D02*
X191363600Y-95783400D01*
%TO.N,/HS2_DATA2*%
X208661000Y-92821682D02*
X207274082Y-94208600D01*
X195449000Y-102419000D02*
X195680000Y-102650000D01*
X207274082Y-94208600D02*
X191953766Y-94208600D01*
X190530000Y-102650000D02*
X191920000Y-101260000D01*
X207949800Y-88417400D02*
X208661000Y-89128600D01*
X208661000Y-89128600D02*
X208661000Y-92821682D01*
X191953766Y-94208600D02*
X191430350Y-94732016D01*
X190761000Y-102419000D02*
X195449000Y-102419000D01*
X190530000Y-102650000D02*
X190761000Y-102419000D01*
X191920000Y-101260000D02*
X191920000Y-99880000D01*
%TO.N,/HS2_DATA3*%
X172920000Y-85930000D02*
X174120000Y-87130000D01*
X207481000Y-87097997D02*
X207275000Y-87303997D01*
X207275000Y-88860175D02*
X208305400Y-89890575D01*
X207275000Y-87303997D02*
X207275000Y-88860175D01*
X190309764Y-94532400D02*
X190424995Y-94417169D01*
X208305400Y-92674388D02*
X207126788Y-93853000D01*
X186112400Y-94532400D02*
X190309764Y-94532400D01*
X172920000Y-84090000D02*
X172920000Y-85930000D01*
X207126788Y-93853000D02*
X190989164Y-93853000D01*
X208305400Y-89890575D02*
X208305400Y-92674388D01*
X178710000Y-87130000D02*
X186112400Y-94532400D01*
X174120000Y-87130000D02*
X178710000Y-87130000D01*
X190989164Y-93853000D02*
X190424995Y-94417169D01*
%TO.N,/SD0*%
X200244457Y-98591597D02*
X200244457Y-98484968D01*
X202659602Y-96069823D02*
X204107500Y-96069823D01*
X200244457Y-98484968D02*
X202659602Y-96069823D01*
X204614306Y-88603294D02*
X204614306Y-90239544D01*
X204749400Y-88468200D02*
X204614306Y-88603294D01*
%TO.N,/HS2_CMD*%
X207943400Y-92533494D02*
X207055694Y-93421200D01*
X204012800Y-84455000D02*
X203250800Y-85217000D01*
X188025300Y-86175300D02*
X192699700Y-86175300D01*
X207943400Y-91542036D02*
X207943400Y-92533494D01*
X207055694Y-93421200D02*
X189814200Y-93421200D01*
X206832225Y-91719400D02*
X207464994Y-91086631D01*
X189814200Y-93421200D02*
X189331600Y-93903800D01*
X204165200Y-91719400D02*
X206832225Y-91719400D01*
X203250800Y-85217000D02*
X203250800Y-90805000D01*
X207464994Y-91086631D02*
X207487995Y-91086631D01*
X187675000Y-85825000D02*
X188025300Y-86175300D01*
X192699700Y-86175300D02*
X195625000Y-83250000D01*
X203250800Y-90805000D02*
X204165200Y-91719400D01*
X207487995Y-91086631D02*
X207943400Y-91542036D01*
%TO.N,/HS2_DATA0*%
X174340000Y-86290000D02*
X178822894Y-86290000D01*
X203987400Y-92125800D02*
X207314800Y-92125800D01*
X202895200Y-91033600D02*
X203987400Y-92125800D01*
X185089800Y-91109800D02*
X186994800Y-93014800D01*
X186994800Y-93014800D02*
X206959200Y-93014800D01*
X202869800Y-82270600D02*
X202895200Y-82296000D01*
X178822894Y-86290000D02*
X183642694Y-91109800D01*
X173602600Y-83362600D02*
X173602600Y-85552600D01*
X170564000Y-70526400D02*
X170795000Y-70295400D01*
X183642694Y-91109800D02*
X185089800Y-91109800D01*
X206959200Y-93014800D02*
X207314800Y-92659200D01*
X165645000Y-70295400D02*
X166930000Y-71580400D01*
X165645000Y-70295400D02*
X165876000Y-70526400D01*
X173602600Y-85552600D02*
X174340000Y-86290000D01*
X207314800Y-92659200D02*
X207314800Y-92125800D01*
X166930000Y-71580400D02*
X166930000Y-73230000D01*
X173180000Y-82940000D02*
X173602600Y-83362600D01*
X165876000Y-70526400D02*
X170564000Y-70526400D01*
X202895200Y-82296000D02*
X202895200Y-91033600D01*
%TO.N,/CSI_MCLK*%
X204754506Y-77520800D02*
X190728600Y-77520800D01*
X198560800Y-101422200D02*
X206857600Y-101422200D01*
X211029635Y-84685503D02*
X211029635Y-83795929D01*
X180441600Y-100507800D02*
X182651400Y-98298000D01*
X211029635Y-83795929D02*
X204754506Y-77520800D01*
X182651400Y-98298000D02*
X195436600Y-98298000D01*
X211023909Y-84691229D02*
X211029635Y-84685503D01*
X190728600Y-77520800D02*
X188645800Y-75438000D01*
X175285400Y-100507800D02*
X180441600Y-100507800D01*
X195436600Y-98298000D02*
X198560800Y-101422200D01*
%TO.N,/HS2_DATA1*%
X188569600Y-95935800D02*
X189045800Y-96412000D01*
X189045800Y-96412000D02*
X201580800Y-96412000D01*
X187360000Y-102660000D02*
X186205664Y-101505664D01*
X185115200Y-97409000D02*
X185826400Y-96697800D01*
X187807600Y-96697800D02*
X188569600Y-95935800D01*
X211480375Y-96494600D02*
X213360000Y-98374225D01*
X187129000Y-102429000D02*
X187360000Y-102660000D01*
X213360000Y-98374225D02*
X213360000Y-99060000D01*
X208025268Y-95072200D02*
X208952734Y-94144734D01*
X201580800Y-96412000D02*
X202920600Y-95072200D01*
X208762600Y-96494600D02*
X211480375Y-96494600D01*
X186205664Y-101505664D02*
X186205664Y-99967319D01*
X182210000Y-102660000D02*
X182441000Y-102429000D01*
X182441000Y-102429000D02*
X187129000Y-102429000D01*
X202920600Y-95072200D02*
X208025268Y-95072200D01*
X185826400Y-96697800D02*
X187807600Y-96697800D01*
%TO.N,/PSRAM_CLK*%
X202438000Y-97180400D02*
X201269600Y-98348800D01*
X211277200Y-97180400D02*
X202438000Y-97180400D01*
X211328000Y-97231200D02*
X211277200Y-97180400D01*
%TO.N,/CSI_D0*%
X212801200Y-90474800D02*
X212801200Y-90246200D01*
X185293000Y-77857429D02*
X185293000Y-75412600D01*
X212801200Y-90246200D02*
X211377303Y-88822303D01*
X202498261Y-79300297D02*
X186735868Y-79300297D01*
X186735868Y-79300297D02*
X185293000Y-77857429D01*
X211377303Y-88822303D02*
X211377303Y-88179339D01*
X211377303Y-88179339D02*
X202498261Y-79300297D01*
%TO.N,/CSI_D1*%
X212922980Y-92570653D02*
X210667600Y-90315273D01*
X202204087Y-80010499D02*
X186440282Y-80010499D01*
X183667400Y-77237617D02*
X183667400Y-77063600D01*
X210667101Y-88473513D02*
X202204087Y-80010499D01*
X210667101Y-89133913D02*
X210667101Y-88473513D01*
X210667600Y-89134412D02*
X210667101Y-89133913D01*
X186440282Y-80010499D02*
X183667400Y-77237617D01*
X210667600Y-90315273D02*
X210667600Y-89134412D01*
%TO.N,/CSI_D2*%
X210312000Y-91820975D02*
X210312000Y-88696800D01*
X210312000Y-88696800D02*
X201980800Y-80365600D01*
X211937625Y-93446600D02*
X210312000Y-91820975D01*
X201980800Y-80365600D02*
X185216800Y-80365600D01*
X185216800Y-80365600D02*
X182600600Y-77749400D01*
X214833200Y-93446600D02*
X211937625Y-93446600D01*
%TO.N,/CSI_D3*%
X211022202Y-88326426D02*
X202351174Y-79655398D01*
X186588075Y-79655398D02*
X184454800Y-77522123D01*
X211023200Y-88987118D02*
X211022202Y-88986120D01*
X184454800Y-77522123D02*
X184454800Y-76301600D01*
X211023200Y-89778381D02*
X211023200Y-88987118D01*
X212772737Y-91527918D02*
X211023200Y-89778381D01*
X202351174Y-79655398D02*
X186588075Y-79655398D01*
X211022202Y-88986120D02*
X211022202Y-88326426D01*
%TO.N,/RXD0*%
X169727252Y-94134000D02*
X169700000Y-94106748D01*
X215250976Y-102249024D02*
X218440000Y-99060000D01*
X197440000Y-101720000D02*
X197969024Y-102249024D01*
X169700000Y-94106748D02*
X169700000Y-93600000D01*
X197969024Y-102249024D02*
X215250976Y-102249024D01*
%TO.N,/TXD0*%
X197380742Y-102771835D02*
X197486031Y-102877124D01*
X217162876Y-102877124D02*
X220980000Y-99060000D01*
X171237063Y-93662937D02*
X171300000Y-93600000D01*
X197486031Y-102877124D02*
X217162876Y-102877124D01*
X171237063Y-94134000D02*
X171237063Y-93662937D01*
%TO.N,/CSI_PCLK*%
X202051454Y-78588598D02*
X202050456Y-78587600D01*
X202792436Y-78590095D02*
X202149472Y-78590095D01*
X202147975Y-78588598D02*
X202051454Y-78588598D01*
X202050456Y-78587600D02*
X187415040Y-78587600D01*
X202149472Y-78590095D02*
X202147975Y-78588598D01*
X212407500Y-88201500D02*
X212091164Y-87885164D01*
X187415040Y-78587600D02*
X186564297Y-77736857D01*
X212087505Y-87885164D02*
X202792436Y-78590095D01*
X212091164Y-87885164D02*
X212087505Y-87885164D01*
%TO.N,/CSI_HSYNC*%
X212653702Y-86923702D02*
X212653702Y-83957299D01*
X193878200Y-76809600D02*
X191109600Y-74041000D01*
X218414600Y-89662000D02*
X215392000Y-89662000D01*
X212653702Y-83957299D02*
X205506003Y-76809600D01*
X222758000Y-94005400D02*
X218414600Y-89662000D01*
X215392000Y-89662000D02*
X212653702Y-86923702D01*
X205506003Y-76809600D02*
X193878200Y-76809600D01*
D20*
%TO.N,/USB_PWR*%
X165100000Y-82296000D02*
X162052000Y-82296000D01*
X219687380Y-69827380D02*
X223520000Y-73660000D01*
X179041820Y-69827380D02*
X219687380Y-69827380D01*
X171958000Y-76911200D02*
X179041820Y-69827380D01*
X161950400Y-94450400D02*
X162500000Y-95000000D01*
X171958000Y-85039200D02*
X171958000Y-76911200D01*
X161950400Y-91541600D02*
X161950400Y-94450400D01*
D21*
%TO.N,/DATA+*%
X168554190Y-96459019D02*
X168554190Y-92328790D01*
X168554190Y-92328790D02*
X162814000Y-86588600D01*
%TO.N,/DATA-*%
X161823400Y-86486975D02*
X161823400Y-85826600D01*
X167503536Y-96381598D02*
X167500765Y-96378827D01*
X167500765Y-96378827D02*
X167500765Y-92164340D01*
X167500765Y-92164340D02*
X161823400Y-86486975D01*
%TO.N,/DTR*%
X171625000Y-99025000D02*
X171625000Y-98450000D01*
X176377600Y-102285800D02*
X174885800Y-102285800D01*
X174885800Y-102285800D02*
X171625000Y-99025000D01*
%TO.N,/RXD*%
X172161200Y-89433400D02*
X171069000Y-88341200D01*
X172161200Y-95250000D02*
X171375000Y-95250000D01*
X172161200Y-95250000D02*
X172161200Y-89433400D01*
X171375000Y-95250000D02*
X171300000Y-95325000D01*
%TO.N,/TXD*%
X170484800Y-95659100D02*
X170484800Y-90551000D01*
X170484800Y-90551000D02*
X171145200Y-89890600D01*
X169700000Y-96443900D02*
X169697400Y-96446500D01*
X169700000Y-95325000D02*
X169700000Y-96443900D01*
X169697400Y-96446500D02*
X170484800Y-95659100D01*
%TO.N,Net-(Q5-B)*%
X179349400Y-97485200D02*
X176593122Y-94728922D01*
X179349400Y-99745800D02*
X179349400Y-97485200D01*
%TO.N,Net-(J6-Pin_2)*%
X197362500Y-86300000D02*
X198387500Y-85275000D01*
X197675000Y-84500000D02*
X200500000Y-84500000D01*
X201125000Y-85275000D02*
X201200000Y-85200000D01*
X200500000Y-84500000D02*
X201200000Y-85200000D01*
X197375000Y-84800000D02*
X197675000Y-84500000D01*
X198387500Y-85275000D02*
X201125000Y-85275000D01*
%TO.N,Net-(J4-Pin_17)*%
X178155600Y-79796743D02*
X187264143Y-70688200D01*
X178155600Y-80772000D02*
X178155600Y-79796743D01*
X187264143Y-70688200D02*
X190550800Y-70688200D01*
%TO.N,Net-(J6-Pin_1)*%
X200785000Y-83075000D02*
X201200000Y-82660000D01*
X197337500Y-81725000D02*
X198037500Y-82425000D01*
X197962500Y-83075000D02*
X200785000Y-83075000D01*
X197512500Y-83525000D02*
X197962500Y-83075000D01*
X200560000Y-83300000D02*
X201200000Y-82660000D01*
X200965000Y-82425000D02*
X201200000Y-82660000D01*
X198037500Y-82425000D02*
X200965000Y-82425000D01*
%TD*%
%TA.AperFunction,Conductor*%
%TO.N,GND*%
G36*
X171895092Y-90124468D02*
G01*
X171928623Y-90175648D01*
X171932100Y-90201656D01*
X171932100Y-92783033D01*
X171913193Y-92841224D01*
X171863693Y-92877188D01*
X171802507Y-92877188D01*
X171778784Y-92864886D01*
X171643157Y-92814299D01*
X171587187Y-92808282D01*
X171587173Y-92808281D01*
X171584557Y-92808000D01*
X171581910Y-92808000D01*
X171018091Y-92808000D01*
X171018072Y-92808000D01*
X171015444Y-92808001D01*
X171012828Y-92808282D01*
X171012812Y-92808283D01*
X170956842Y-92814300D01*
X170847497Y-92855084D01*
X170786368Y-92857704D01*
X170735373Y-92823894D01*
X170713991Y-92766566D01*
X170713900Y-92762326D01*
X170713900Y-90686902D01*
X170732807Y-90628711D01*
X170742890Y-90616904D01*
X170824854Y-90534940D01*
X170879369Y-90507165D01*
X170918547Y-90508822D01*
X171065729Y-90545100D01*
X171224671Y-90545100D01*
X171378993Y-90507063D01*
X171519729Y-90433199D01*
X171638698Y-90327801D01*
X171728987Y-90196995D01*
X171740533Y-90166549D01*
X171778847Y-90118845D01*
X171837883Y-90102772D01*
X171895092Y-90124468D01*
G37*
%TD.AperFunction*%
%TA.AperFunction,Conductor*%
G36*
X167750971Y-69269407D02*
G01*
X167786935Y-69318907D01*
X167786935Y-69380093D01*
X167771322Y-69409767D01*
X167717302Y-69480166D01*
X167659312Y-69620164D01*
X167639534Y-69770400D01*
X167659312Y-69920635D01*
X167717302Y-70060633D01*
X167776693Y-70138033D01*
X167797117Y-70195709D01*
X167779739Y-70254374D01*
X167731198Y-70291622D01*
X167698151Y-70297300D01*
X166723500Y-70297300D01*
X166665309Y-70278393D01*
X166629345Y-70228893D01*
X166624500Y-70198300D01*
X166624499Y-69770334D01*
X166624499Y-69770333D01*
X166609734Y-69696099D01*
X166553484Y-69611916D01*
X166518266Y-69588384D01*
X166469301Y-69555666D01*
X166469300Y-69555666D01*
X166395067Y-69540900D01*
X166395066Y-69540900D01*
X164894934Y-69540900D01*
X164820699Y-69555666D01*
X164736515Y-69611916D01*
X164680266Y-69696098D01*
X164665500Y-69770333D01*
X164665500Y-70820465D01*
X164671058Y-70848405D01*
X164680266Y-70894701D01*
X164697430Y-70920388D01*
X164714038Y-70979276D01*
X164692860Y-71036680D01*
X164674444Y-71054642D01*
X164562810Y-71138212D01*
X164476646Y-71253310D01*
X164426401Y-71388023D01*
X164420282Y-71444942D01*
X164420000Y-71450218D01*
X164420000Y-71745399D01*
X164420001Y-71745400D01*
X165796000Y-71745400D01*
X165854191Y-71764307D01*
X165890155Y-71813807D01*
X165895000Y-71844400D01*
X165895000Y-72995399D01*
X165895001Y-72995400D01*
X166187431Y-72995400D01*
X166245622Y-73014307D01*
X166281586Y-73063807D01*
X166285709Y-73106333D01*
X166270692Y-73230000D01*
X166289850Y-73387779D01*
X166289850Y-73387781D01*
X166289851Y-73387782D01*
X166298277Y-73409999D01*
X166346213Y-73536396D01*
X166435439Y-73665661D01*
X166452935Y-73724292D01*
X166432627Y-73782009D01*
X166382273Y-73816766D01*
X166353964Y-73820900D01*
X163219021Y-73820900D01*
X163160830Y-73801993D01*
X163126455Y-73757006D01*
X163113787Y-73723605D01*
X163023500Y-73592801D01*
X162904527Y-73487399D01*
X162763794Y-73413537D01*
X162609471Y-73375500D01*
X162450529Y-73375500D01*
X162296205Y-73413537D01*
X162155472Y-73487399D01*
X162036501Y-73592799D01*
X161946213Y-73723603D01*
X161889850Y-73872220D01*
X161870692Y-74030000D01*
X161889850Y-74187779D01*
X161889850Y-74187781D01*
X161889851Y-74187782D01*
X161897034Y-74206722D01*
X161946213Y-74336396D01*
X162036501Y-74467200D01*
X162155472Y-74572600D01*
X162278685Y-74637267D01*
X162296207Y-74646463D01*
X162450529Y-74684500D01*
X162609471Y-74684500D01*
X162763793Y-74646463D01*
X162904529Y-74572599D01*
X163023498Y-74467201D01*
X163078580Y-74387401D01*
X163120616Y-74326502D01*
X163123133Y-74328239D01*
X163149602Y-74295287D01*
X163203851Y-74279100D01*
X171966160Y-74279100D01*
X172024351Y-74298007D01*
X172060315Y-74347507D01*
X172060315Y-74408693D01*
X172024351Y-74458193D01*
X171989852Y-74474223D01*
X171891206Y-74498537D01*
X171750472Y-74572399D01*
X171631501Y-74677799D01*
X171541213Y-74808603D01*
X171484850Y-74957220D01*
X171465692Y-75115000D01*
X171484850Y-75272779D01*
X171541213Y-75421396D01*
X171631501Y-75552200D01*
X171750472Y-75657600D01*
X171851465Y-75710605D01*
X171891207Y-75731463D01*
X172045529Y-75769500D01*
X172204471Y-75769500D01*
X172339975Y-75736101D01*
X172400998Y-75740533D01*
X172447763Y-75779987D01*
X172462406Y-75839394D01*
X172439334Y-75896063D01*
X172433670Y-75902228D01*
X171726260Y-76609638D01*
X171710408Y-76622511D01*
X171699065Y-76629922D01*
X171678568Y-76656256D01*
X171670459Y-76665441D01*
X171669253Y-76666647D01*
X171656806Y-76684078D01*
X171654366Y-76687351D01*
X171618685Y-76733196D01*
X171615963Y-76738484D01*
X171599384Y-76794170D01*
X171598136Y-76798065D01*
X171579271Y-76853017D01*
X171578414Y-76858899D01*
X171580815Y-76916930D01*
X171580900Y-76921022D01*
X171580900Y-78430538D01*
X171561993Y-78488729D01*
X171512493Y-78524693D01*
X171451307Y-78524693D01*
X171401807Y-78488729D01*
X171400425Y-78486777D01*
X171308498Y-78353599D01*
X171189527Y-78248199D01*
X171048794Y-78174337D01*
X170894471Y-78136300D01*
X170735529Y-78136300D01*
X170581205Y-78174337D01*
X170440472Y-78248199D01*
X170321501Y-78353599D01*
X170231213Y-78484403D01*
X170174850Y-78633020D01*
X170155692Y-78790800D01*
X170174850Y-78948579D01*
X170231213Y-79097196D01*
X170321501Y-79228000D01*
X170440472Y-79333400D01*
X170516692Y-79373403D01*
X170581207Y-79407263D01*
X170735529Y-79445300D01*
X170894471Y-79445300D01*
X171048793Y-79407263D01*
X171189529Y-79333399D01*
X171308498Y-79228001D01*
X171371173Y-79137201D01*
X171400425Y-79094823D01*
X171449041Y-79057673D01*
X171510209Y-79056195D01*
X171560563Y-79090952D01*
X171580871Y-79148669D01*
X171580900Y-79151061D01*
X171580900Y-84454321D01*
X171561993Y-84512512D01*
X171547550Y-84528423D01*
X171464501Y-84601999D01*
X171374213Y-84732803D01*
X171317850Y-84881420D01*
X171298692Y-85039200D01*
X171317850Y-85196979D01*
X171374213Y-85345596D01*
X171464501Y-85476400D01*
X171464502Y-85476401D01*
X171511532Y-85518066D01*
X171583472Y-85581800D01*
X171724205Y-85655662D01*
X171724207Y-85655663D01*
X171878529Y-85693700D01*
X172037471Y-85693700D01*
X172191793Y-85655663D01*
X172332529Y-85581799D01*
X172451498Y-85476401D01*
X172510425Y-85391029D01*
X172559041Y-85353881D01*
X172620208Y-85352403D01*
X172670563Y-85387160D01*
X172690871Y-85444877D01*
X172690900Y-85447269D01*
X172690900Y-85921423D01*
X172690764Y-85926605D01*
X172688665Y-85966638D01*
X172696863Y-85987995D01*
X172701274Y-86002887D01*
X172706030Y-86025264D01*
X172709267Y-86029719D01*
X172721595Y-86052425D01*
X172723568Y-86057564D01*
X172739748Y-86073745D01*
X172749831Y-86085550D01*
X172752919Y-86089800D01*
X172763279Y-86104059D01*
X172768040Y-86106808D01*
X172788544Y-86122540D01*
X173951936Y-87285932D01*
X173955503Y-87289692D01*
X173982328Y-87319485D01*
X174003227Y-87328790D01*
X174016876Y-87336200D01*
X174036063Y-87348661D01*
X174041495Y-87349521D01*
X174066276Y-87356861D01*
X174071303Y-87359100D01*
X174094180Y-87359100D01*
X174109667Y-87360319D01*
X174132258Y-87363897D01*
X174137573Y-87362473D01*
X174163195Y-87359100D01*
X178574096Y-87359100D01*
X178632287Y-87378007D01*
X178644100Y-87388096D01*
X185944336Y-94688332D01*
X185947903Y-94692092D01*
X185974728Y-94721885D01*
X185974729Y-94721885D01*
X185974730Y-94721886D01*
X185976221Y-94722550D01*
X185995627Y-94731190D01*
X186009276Y-94738600D01*
X186028463Y-94751061D01*
X186033895Y-94751921D01*
X186058674Y-94759261D01*
X186063020Y-94761196D01*
X186063703Y-94761500D01*
X186086586Y-94761500D01*
X186102072Y-94762718D01*
X186124658Y-94766296D01*
X186129970Y-94764872D01*
X186155591Y-94761500D01*
X189815434Y-94761500D01*
X189873625Y-94780407D01*
X189896909Y-94804261D01*
X189931496Y-94854369D01*
X190050467Y-94959769D01*
X190165482Y-95020133D01*
X190191202Y-95033632D01*
X190345524Y-95071669D01*
X190504466Y-95071669D01*
X190658788Y-95033632D01*
X190716547Y-95003317D01*
X190776857Y-94993017D01*
X190831705Y-95020133D01*
X190844028Y-95034739D01*
X190937505Y-95170163D01*
X190955001Y-95228794D01*
X190934693Y-95286511D01*
X190921680Y-95300504D01*
X190870101Y-95346199D01*
X190779813Y-95477003D01*
X190723450Y-95625620D01*
X190704292Y-95783400D01*
X190723450Y-95941179D01*
X190723450Y-95941181D01*
X190723451Y-95941182D01*
X190764264Y-96048796D01*
X190767220Y-96109908D01*
X190733690Y-96161088D01*
X190676480Y-96182784D01*
X190671697Y-96182900D01*
X189310651Y-96182900D01*
X189252460Y-96163993D01*
X189216496Y-96114493D01*
X189212373Y-96071969D01*
X189228907Y-95935800D01*
X189227970Y-95928087D01*
X189215067Y-95821816D01*
X189209749Y-95778018D01*
X189153387Y-95629405D01*
X189150774Y-95625620D01*
X189063098Y-95498599D01*
X188944127Y-95393199D01*
X188803394Y-95319337D01*
X188649071Y-95281300D01*
X188490129Y-95281300D01*
X188335805Y-95319337D01*
X188195072Y-95393199D01*
X188076101Y-95498599D01*
X187985813Y-95629403D01*
X187929450Y-95778020D01*
X187910292Y-95935800D01*
X187929450Y-96093579D01*
X187929450Y-96093581D01*
X187929451Y-96093582D01*
X187942775Y-96128715D01*
X187950300Y-96148555D01*
X187953256Y-96209669D01*
X187927737Y-96253664D01*
X187741699Y-96439703D01*
X187687182Y-96467481D01*
X187671695Y-96468700D01*
X185834982Y-96468700D01*
X185829802Y-96468564D01*
X185789762Y-96466466D01*
X185789761Y-96466466D01*
X185768403Y-96474663D01*
X185753515Y-96479073D01*
X185731135Y-96483830D01*
X185726680Y-96487067D01*
X185703978Y-96499393D01*
X185698835Y-96501367D01*
X185682656Y-96517546D01*
X185670849Y-96527630D01*
X185652342Y-96541076D01*
X185649591Y-96545842D01*
X185633861Y-96566341D01*
X185435545Y-96764657D01*
X185381028Y-96792434D01*
X185341849Y-96790776D01*
X185194672Y-96754500D01*
X185194671Y-96754500D01*
X185035729Y-96754500D01*
X184881405Y-96792537D01*
X184740672Y-96866399D01*
X184621701Y-96971799D01*
X184531413Y-97102603D01*
X184475050Y-97251220D01*
X184455892Y-97409000D01*
X184475050Y-97566779D01*
X184531413Y-97715396D01*
X184621701Y-97846200D01*
X184677685Y-97895798D01*
X184708703Y-97948538D01*
X184702797Y-98009438D01*
X184662223Y-98055235D01*
X184612035Y-98068900D01*
X182659975Y-98068900D01*
X182654794Y-98068764D01*
X182634128Y-98067681D01*
X182614760Y-98066666D01*
X182614759Y-98066666D01*
X182593399Y-98074864D01*
X182578515Y-98079273D01*
X182556134Y-98084031D01*
X182551679Y-98087268D01*
X182528978Y-98099593D01*
X182523835Y-98101567D01*
X182507656Y-98117746D01*
X182495849Y-98127830D01*
X182477342Y-98141276D01*
X182474591Y-98146042D01*
X182458861Y-98166541D01*
X180375699Y-100249704D01*
X180321182Y-100277481D01*
X180305695Y-100278700D01*
X179965471Y-100278700D01*
X179907280Y-100259793D01*
X179871316Y-100210293D01*
X179871316Y-100149107D01*
X179883996Y-100123462D01*
X179933185Y-100052199D01*
X179933187Y-100052195D01*
X179989549Y-99903582D01*
X180008707Y-99745800D01*
X179989549Y-99588018D01*
X179933187Y-99439405D01*
X179928170Y-99432137D01*
X179842898Y-99308599D01*
X179723928Y-99203200D01*
X179631492Y-99154686D01*
X179588754Y-99110902D01*
X179578500Y-99067026D01*
X179578500Y-97493781D01*
X179578636Y-97488601D01*
X179580734Y-97448561D01*
X179572536Y-97427206D01*
X179568125Y-97412313D01*
X179567310Y-97408478D01*
X179563369Y-97389935D01*
X179560132Y-97385480D01*
X179547804Y-97362774D01*
X179545832Y-97357636D01*
X179545830Y-97357634D01*
X179529653Y-97341456D01*
X179519566Y-97329646D01*
X179510087Y-97316600D01*
X179506122Y-97311142D01*
X179501356Y-97308390D01*
X179480856Y-97292660D01*
X177234983Y-95046787D01*
X177207206Y-94992270D01*
X177212420Y-94941680D01*
X177233271Y-94886704D01*
X177252429Y-94728922D01*
X177233271Y-94571140D01*
X177176909Y-94422527D01*
X177168402Y-94410203D01*
X177086620Y-94291721D01*
X176967649Y-94186321D01*
X176826916Y-94112459D01*
X176672593Y-94074422D01*
X176513651Y-94074422D01*
X176359327Y-94112459D01*
X176218594Y-94186321D01*
X176099623Y-94291721D01*
X176009335Y-94422525D01*
X175952972Y-94571142D01*
X175933814Y-94728922D01*
X175952972Y-94886701D01*
X175952972Y-94886703D01*
X175952973Y-94886704D01*
X175961075Y-94908068D01*
X176009335Y-95035318D01*
X176099623Y-95166122D01*
X176099624Y-95166123D01*
X176152390Y-95212870D01*
X176218594Y-95271522D01*
X176335851Y-95333063D01*
X176359329Y-95345385D01*
X176513651Y-95383422D01*
X176672593Y-95383422D01*
X176819773Y-95347145D01*
X176880796Y-95351576D01*
X176913468Y-95373264D01*
X179091304Y-97551100D01*
X179119081Y-97605617D01*
X179120300Y-97621104D01*
X179120300Y-99067026D01*
X179101393Y-99125217D01*
X179067308Y-99154686D01*
X178974871Y-99203200D01*
X178855901Y-99308599D01*
X178765613Y-99439403D01*
X178709250Y-99588020D01*
X178690092Y-99745800D01*
X178709250Y-99903579D01*
X178765614Y-100052199D01*
X178814804Y-100123462D01*
X178832300Y-100182092D01*
X178811992Y-100239809D01*
X178761638Y-100274566D01*
X178733329Y-100278700D01*
X175966836Y-100278700D01*
X175908645Y-100259793D01*
X175874270Y-100214807D01*
X175871654Y-100207910D01*
X175869187Y-100201405D01*
X175823190Y-100134767D01*
X175778900Y-100070601D01*
X175761124Y-100054853D01*
X175679382Y-99982435D01*
X175659927Y-99965199D01*
X175519194Y-99891337D01*
X175364871Y-99853300D01*
X175205929Y-99853300D01*
X175051605Y-99891337D01*
X174910872Y-99965199D01*
X174791901Y-100070599D01*
X174701613Y-100201403D01*
X174645250Y-100350020D01*
X174626092Y-100507800D01*
X174645250Y-100665579D01*
X174645250Y-100665581D01*
X174645251Y-100665582D01*
X174658303Y-100699998D01*
X174701613Y-100814196D01*
X174786860Y-100937697D01*
X174791902Y-100945001D01*
X174822902Y-100972465D01*
X174910872Y-101050400D01*
X175051605Y-101124262D01*
X175051607Y-101124263D01*
X175205929Y-101162300D01*
X175364871Y-101162300D01*
X175519193Y-101124263D01*
X175659929Y-101050399D01*
X175778898Y-100945001D01*
X175869187Y-100814195D01*
X175874269Y-100800793D01*
X175912584Y-100753089D01*
X175966836Y-100736900D01*
X180433025Y-100736900D01*
X180438205Y-100737035D01*
X180457392Y-100738041D01*
X180478238Y-100739134D01*
X180478238Y-100739133D01*
X180478239Y-100739134D01*
X180499593Y-100730936D01*
X180514488Y-100726524D01*
X180536865Y-100721769D01*
X180541314Y-100718535D01*
X180564029Y-100706202D01*
X180569164Y-100704232D01*
X180585343Y-100688051D01*
X180597150Y-100677968D01*
X180615658Y-100664522D01*
X180618407Y-100659759D01*
X180634141Y-100639254D01*
X180815997Y-100457399D01*
X180870513Y-100429622D01*
X180930945Y-100439193D01*
X180974210Y-100482458D01*
X180985000Y-100527403D01*
X180985000Y-100709999D01*
X180985001Y-100710000D01*
X181959999Y-100710000D01*
X181960000Y-100709999D01*
X182460000Y-100709999D01*
X182460001Y-100710000D01*
X183434999Y-100710000D01*
X183435000Y-100709998D01*
X183435000Y-100435000D01*
X184204534Y-100435000D01*
X184224312Y-100585235D01*
X184282302Y-100725233D01*
X184374548Y-100845451D01*
X184452567Y-100905317D01*
X184494767Y-100937698D01*
X184634764Y-100995687D01*
X184747280Y-101010500D01*
X184750521Y-101010500D01*
X184819479Y-101010500D01*
X184822720Y-101010500D01*
X184935236Y-100995687D01*
X185075233Y-100937698D01*
X185195451Y-100845451D01*
X185287698Y-100725233D01*
X185345687Y-100585236D01*
X185365466Y-100435000D01*
X185345687Y-100284764D01*
X185287698Y-100144767D01*
X185238379Y-100080493D01*
X185195451Y-100024548D01*
X185075233Y-99932302D01*
X184935235Y-99874312D01*
X184825933Y-99859923D01*
X184822720Y-99859500D01*
X184747280Y-99859500D01*
X184744067Y-99859922D01*
X184744066Y-99859923D01*
X184634764Y-99874312D01*
X184494766Y-99932302D01*
X184374548Y-100024548D01*
X184282302Y-100144766D01*
X184224312Y-100284764D01*
X184204534Y-100435000D01*
X183435000Y-100435000D01*
X183435000Y-100414818D01*
X183434717Y-100409542D01*
X183428598Y-100352623D01*
X183378353Y-100217910D01*
X183292188Y-100102811D01*
X183177089Y-100016646D01*
X183042376Y-99966401D01*
X182985457Y-99960282D01*
X182980181Y-99960000D01*
X182460001Y-99960000D01*
X182460000Y-99960001D01*
X182460000Y-100709999D01*
X181960000Y-100709999D01*
X181960000Y-100709998D01*
X181960000Y-99960000D01*
X181552403Y-99960000D01*
X181494212Y-99941093D01*
X181458248Y-99891593D01*
X181458248Y-99830407D01*
X181482399Y-99790996D01*
X181695353Y-99578043D01*
X182717299Y-98556096D01*
X182771817Y-98528319D01*
X182787304Y-98527100D01*
X195300696Y-98527100D01*
X195358887Y-98546007D01*
X195370700Y-98556096D01*
X196603725Y-99789121D01*
X196631502Y-99843638D01*
X196621931Y-99904070D01*
X196578666Y-99947335D01*
X196523140Y-99957558D01*
X196455460Y-99950282D01*
X196450181Y-99950000D01*
X195930000Y-99950000D01*
X195930000Y-100699998D01*
X195930001Y-100700000D01*
X196904999Y-100700000D01*
X196905000Y-100699999D01*
X196905000Y-100404818D01*
X196904717Y-100399542D01*
X196897441Y-100331860D01*
X196910020Y-100271982D01*
X196955392Y-100230933D01*
X197016227Y-100224393D01*
X197065876Y-100251273D01*
X197746951Y-100932348D01*
X197774728Y-100986864D01*
X197765157Y-101047296D01*
X197721892Y-101090561D01*
X197661460Y-101100132D01*
X197653255Y-101098474D01*
X197519473Y-101065500D01*
X197519471Y-101065500D01*
X197360529Y-101065500D01*
X197206205Y-101103537D01*
X197065472Y-101177399D01*
X197038154Y-101201601D01*
X196982059Y-101226036D01*
X196922315Y-101212833D01*
X196905729Y-101200000D01*
X194455000Y-101200000D01*
X194455000Y-101495181D01*
X194455282Y-101500457D01*
X194461401Y-101557376D01*
X194511646Y-101692089D01*
X194597811Y-101807188D01*
X194709443Y-101890757D01*
X194744696Y-101940766D01*
X194743822Y-102001945D01*
X194732430Y-102025011D01*
X194715266Y-102050698D01*
X194703428Y-102110214D01*
X194673531Y-102163598D01*
X194617966Y-102189214D01*
X194606330Y-102189900D01*
X191603669Y-102189900D01*
X191545478Y-102170993D01*
X191509514Y-102121493D01*
X191506571Y-102110213D01*
X191498182Y-102068036D01*
X191505374Y-102007275D01*
X191525276Y-101978719D01*
X191775403Y-101728592D01*
X192075959Y-101428036D01*
X192079681Y-101424505D01*
X192109486Y-101397670D01*
X192118790Y-101376770D01*
X192126198Y-101363126D01*
X192138662Y-101343936D01*
X192139522Y-101338502D01*
X192146862Y-101313722D01*
X192149100Y-101308697D01*
X192149100Y-101285819D01*
X192150319Y-101270332D01*
X192153897Y-101247739D01*
X192152473Y-101242424D01*
X192149100Y-101216803D01*
X192149100Y-100558773D01*
X192168007Y-100500582D01*
X192202089Y-100471115D01*
X192294529Y-100422599D01*
X192360747Y-100363934D01*
X192416840Y-100339499D01*
X192476584Y-100352702D01*
X192517158Y-100398499D01*
X192524549Y-100425115D01*
X192544312Y-100575235D01*
X192602302Y-100715233D01*
X192694548Y-100835451D01*
X192776850Y-100898603D01*
X192814767Y-100927698D01*
X192954764Y-100985687D01*
X193067280Y-101000500D01*
X193070521Y-101000500D01*
X193139479Y-101000500D01*
X193142720Y-101000500D01*
X193255236Y-100985687D01*
X193395233Y-100927698D01*
X193515451Y-100835451D01*
X193607698Y-100715233D01*
X193614008Y-100699999D01*
X194455000Y-100699999D01*
X194455001Y-100700000D01*
X195429999Y-100700000D01*
X195429999Y-99950000D01*
X194909819Y-99950000D01*
X194904542Y-99950282D01*
X194847623Y-99956401D01*
X194712910Y-100006646D01*
X194597811Y-100092811D01*
X194511646Y-100207910D01*
X194461401Y-100342623D01*
X194455282Y-100399542D01*
X194455000Y-100404818D01*
X194455000Y-100699999D01*
X193614008Y-100699999D01*
X193665687Y-100575236D01*
X193685466Y-100425000D01*
X193665687Y-100274764D01*
X193607698Y-100134767D01*
X193562241Y-100075526D01*
X193515451Y-100014548D01*
X193395233Y-99922302D01*
X193255235Y-99864312D01*
X193145933Y-99849923D01*
X193142720Y-99849500D01*
X193067280Y-99849500D01*
X193064067Y-99849922D01*
X193064066Y-99849923D01*
X192954764Y-99864312D01*
X192814766Y-99922302D01*
X192736398Y-99982435D01*
X192678722Y-100002858D01*
X192620057Y-99985480D01*
X192582810Y-99936938D01*
X192577854Y-99891961D01*
X192579307Y-99880000D01*
X192560149Y-99722218D01*
X192503787Y-99573605D01*
X192500601Y-99568990D01*
X192413498Y-99442799D01*
X192294527Y-99337399D01*
X192153794Y-99263537D01*
X191999471Y-99225500D01*
X191840529Y-99225500D01*
X191686205Y-99263537D01*
X191545472Y-99337399D01*
X191426501Y-99442799D01*
X191336213Y-99573603D01*
X191279850Y-99722220D01*
X191262765Y-99862933D01*
X191236982Y-99918421D01*
X191183507Y-99948156D01*
X191164487Y-99950000D01*
X190780000Y-99950000D01*
X190780000Y-101101000D01*
X190761093Y-101159191D01*
X190711593Y-101195155D01*
X190681000Y-101200000D01*
X189305000Y-101200000D01*
X189305000Y-101495181D01*
X189305282Y-101500457D01*
X189311401Y-101557376D01*
X189361646Y-101692089D01*
X189447811Y-101807188D01*
X189559443Y-101890757D01*
X189594696Y-101940766D01*
X189593822Y-102001945D01*
X189582430Y-102025011D01*
X189565266Y-102050698D01*
X189550500Y-102124933D01*
X189550500Y-103175065D01*
X189568778Y-103266959D01*
X189579334Y-103304389D01*
X189558155Y-103361792D01*
X189507281Y-103395784D01*
X189480410Y-103399500D01*
X188416272Y-103399500D01*
X188358081Y-103380593D01*
X188322117Y-103331093D01*
X188322117Y-103278858D01*
X188320892Y-103278615D01*
X188322117Y-103272456D01*
X188322117Y-103269907D01*
X188322976Y-103268134D01*
X188324732Y-103259303D01*
X188324734Y-103259301D01*
X188339500Y-103185067D01*
X188339499Y-102134934D01*
X188324734Y-102060699D01*
X188307569Y-102035011D01*
X188290961Y-101976123D01*
X188312139Y-101918720D01*
X188330556Y-101900757D01*
X188442188Y-101817188D01*
X188528353Y-101702089D01*
X188578598Y-101567376D01*
X188584717Y-101510457D01*
X188585000Y-101505181D01*
X188585000Y-101210000D01*
X187209000Y-101210000D01*
X187150809Y-101191093D01*
X187114845Y-101141593D01*
X187110000Y-101111000D01*
X187110000Y-100709998D01*
X187610000Y-100709998D01*
X187610001Y-100710000D01*
X188584999Y-100710000D01*
X188585000Y-100709999D01*
X188585000Y-100699999D01*
X189305000Y-100699999D01*
X189305001Y-100700000D01*
X190279999Y-100700000D01*
X190280000Y-100699999D01*
X190280000Y-99950000D01*
X189759819Y-99950000D01*
X189754542Y-99950282D01*
X189697623Y-99956401D01*
X189562910Y-100006646D01*
X189447811Y-100092811D01*
X189361646Y-100207910D01*
X189311401Y-100342623D01*
X189305282Y-100399542D01*
X189305000Y-100404818D01*
X189305000Y-100699999D01*
X188585000Y-100699999D01*
X188585000Y-100414818D01*
X188584717Y-100409542D01*
X188578598Y-100352623D01*
X188528353Y-100217910D01*
X188442188Y-100102811D01*
X188327089Y-100016646D01*
X188192376Y-99966401D01*
X188135457Y-99960282D01*
X188130181Y-99960000D01*
X187610001Y-99960000D01*
X187610000Y-99960001D01*
X187610000Y-100709998D01*
X187110000Y-100709998D01*
X187110000Y-99960001D01*
X187109999Y-99960000D01*
X186951788Y-99960000D01*
X186893597Y-99941093D01*
X186857633Y-99891593D01*
X186853510Y-99872932D01*
X186852463Y-99864312D01*
X186845813Y-99809537D01*
X186789451Y-99660924D01*
X186777724Y-99643935D01*
X186699162Y-99530118D01*
X186580191Y-99424718D01*
X186439458Y-99350856D01*
X186285135Y-99312819D01*
X186126193Y-99312819D01*
X185971869Y-99350856D01*
X185831136Y-99424718D01*
X185712165Y-99530118D01*
X185621877Y-99660922D01*
X185565514Y-99809539D01*
X185546356Y-99967319D01*
X185565514Y-100125098D01*
X185565514Y-100125100D01*
X185565515Y-100125101D01*
X185569181Y-100134767D01*
X185621877Y-100273715D01*
X185712165Y-100404519D01*
X185712166Y-100404520D01*
X185718352Y-100410000D01*
X185831133Y-100509917D01*
X185831135Y-100509918D01*
X185923573Y-100558433D01*
X185966310Y-100602215D01*
X185976564Y-100646092D01*
X185976564Y-101497087D01*
X185976428Y-101502269D01*
X185974329Y-101542302D01*
X185982527Y-101563659D01*
X185986938Y-101578551D01*
X185991694Y-101600928D01*
X185994931Y-101605383D01*
X186007259Y-101628089D01*
X186009232Y-101633228D01*
X186025412Y-101649409D01*
X186035495Y-101661214D01*
X186037300Y-101663698D01*
X186048943Y-101679723D01*
X186053704Y-101682472D01*
X186074208Y-101698204D01*
X186364723Y-101988719D01*
X186392500Y-102043236D01*
X186391817Y-102078036D01*
X186383428Y-102120213D01*
X186353532Y-102173597D01*
X186297967Y-102199214D01*
X186286330Y-102199900D01*
X183283669Y-102199900D01*
X183225478Y-102180993D01*
X183189514Y-102131493D01*
X183186571Y-102120213D01*
X183178182Y-102078036D01*
X183174734Y-102060699D01*
X183157569Y-102035011D01*
X183140961Y-101976123D01*
X183162139Y-101918720D01*
X183180556Y-101900757D01*
X183292188Y-101817188D01*
X183378353Y-101702089D01*
X183428598Y-101567376D01*
X183434717Y-101510457D01*
X183435000Y-101505181D01*
X183435000Y-101210001D01*
X183434999Y-101210000D01*
X180985000Y-101210000D01*
X180985000Y-101505181D01*
X180985282Y-101510457D01*
X180991401Y-101567376D01*
X181041646Y-101702089D01*
X181127811Y-101817188D01*
X181239443Y-101900757D01*
X181274696Y-101950766D01*
X181273822Y-102011945D01*
X181262430Y-102035011D01*
X181245266Y-102060698D01*
X181230500Y-102134933D01*
X181230500Y-103185065D01*
X181249108Y-103278615D01*
X181245582Y-103279316D01*
X181252653Y-103304375D01*
X181231483Y-103361781D01*
X181180613Y-103395780D01*
X181153729Y-103399500D01*
X153252773Y-103399500D01*
X153247222Y-103399344D01*
X152964499Y-103383466D01*
X152953467Y-103382223D01*
X152677042Y-103335257D01*
X152666218Y-103332787D01*
X152396780Y-103255163D01*
X152386301Y-103251496D01*
X152127253Y-103144195D01*
X152117251Y-103139378D01*
X151871851Y-103003750D01*
X151862451Y-102997844D01*
X151633767Y-102835584D01*
X151625092Y-102828666D01*
X151416013Y-102641821D01*
X151408178Y-102633986D01*
X151221331Y-102424904D01*
X151214415Y-102416232D01*
X151052155Y-102187548D01*
X151046249Y-102178148D01*
X150910621Y-101932748D01*
X150905804Y-101922746D01*
X150898661Y-101905501D01*
X150798501Y-101663694D01*
X150794836Y-101653219D01*
X150717208Y-101383766D01*
X150714745Y-101372972D01*
X150667775Y-101096530D01*
X150666533Y-101085500D01*
X150662775Y-101018588D01*
X150652032Y-100827272D01*
X150650656Y-100802777D01*
X150650500Y-100797226D01*
X150650500Y-100258264D01*
X152250745Y-100258264D01*
X152250865Y-100261709D01*
X152250865Y-100261718D01*
X152260632Y-100541414D01*
X152260633Y-100541423D01*
X152260753Y-100544859D01*
X152261349Y-100548243D01*
X152261351Y-100548255D01*
X152305252Y-100797226D01*
X152310550Y-100827272D01*
X152311615Y-100830552D01*
X152311616Y-100830553D01*
X152398101Y-101096727D01*
X152398103Y-101096734D01*
X152399167Y-101100006D01*
X152400677Y-101103103D01*
X152400678Y-101103104D01*
X152509210Y-101325628D01*
X152524879Y-101357753D01*
X152526813Y-101360620D01*
X152526814Y-101360622D01*
X152683305Y-101592631D01*
X152683308Y-101592636D01*
X152685238Y-101595496D01*
X152687550Y-101598063D01*
X152687551Y-101598065D01*
X152805084Y-101728599D01*
X152877125Y-101808608D01*
X153096803Y-101992940D01*
X153339998Y-102144905D01*
X153601975Y-102261545D01*
X153877636Y-102340589D01*
X154161615Y-102380500D01*
X154165070Y-102380500D01*
X154374870Y-102380500D01*
X154376604Y-102380500D01*
X154591071Y-102365503D01*
X154871575Y-102305880D01*
X155141050Y-102207799D01*
X155394253Y-102073169D01*
X155626254Y-101904610D01*
X155832539Y-101705403D01*
X155981247Y-101515066D01*
X163187358Y-101515066D01*
X163206516Y-101672845D01*
X163262879Y-101821462D01*
X163353167Y-101952266D01*
X163472138Y-102057666D01*
X163591312Y-102120213D01*
X163612873Y-102131529D01*
X163767195Y-102169566D01*
X163926137Y-102169566D01*
X164080459Y-102131529D01*
X164221195Y-102057665D01*
X164340164Y-101952267D01*
X164430453Y-101821461D01*
X164486815Y-101672848D01*
X164505973Y-101515066D01*
X164486815Y-101357284D01*
X164430453Y-101208671D01*
X164416852Y-101188967D01*
X164340164Y-101077865D01*
X164221193Y-100972465D01*
X164080460Y-100898603D01*
X163926137Y-100860566D01*
X163767195Y-100860566D01*
X163612871Y-100898603D01*
X163472138Y-100972465D01*
X163353167Y-101077865D01*
X163262879Y-101208669D01*
X163206516Y-101357286D01*
X163187358Y-101515066D01*
X155981247Y-101515066D01*
X156009093Y-101479425D01*
X156152477Y-101231075D01*
X156259903Y-100965187D01*
X156329279Y-100686935D01*
X156359255Y-100401736D01*
X156349247Y-100115141D01*
X156299450Y-99832728D01*
X156210833Y-99559994D01*
X156085121Y-99302247D01*
X155962373Y-99120265D01*
X155926694Y-99067368D01*
X155926692Y-99067365D01*
X155924762Y-99064504D01*
X155892611Y-99028797D01*
X155735191Y-98853964D01*
X155735189Y-98853962D01*
X155732875Y-98851392D01*
X155513197Y-98667060D01*
X155270002Y-98515095D01*
X155182344Y-98476067D01*
X155123797Y-98450000D01*
X170965692Y-98450000D01*
X170984850Y-98607779D01*
X171041213Y-98756396D01*
X171131501Y-98887200D01*
X171131502Y-98887201D01*
X171148700Y-98902437D01*
X171250472Y-98992600D01*
X171359484Y-99049814D01*
X171402223Y-99093598D01*
X171410313Y-99116888D01*
X171411030Y-99120264D01*
X171414267Y-99124719D01*
X171426595Y-99147425D01*
X171428568Y-99152564D01*
X171444748Y-99168745D01*
X171454831Y-99180550D01*
X171468278Y-99199058D01*
X171468279Y-99199059D01*
X171473040Y-99201808D01*
X171493544Y-99217540D01*
X174717736Y-102441732D01*
X174721303Y-102445492D01*
X174742412Y-102468936D01*
X174748130Y-102475286D01*
X174765278Y-102482921D01*
X174769029Y-102484591D01*
X174782676Y-102492001D01*
X174801864Y-102504462D01*
X174802917Y-102504628D01*
X174807297Y-102505323D01*
X174832081Y-102512664D01*
X174837103Y-102514900D01*
X174859980Y-102514900D01*
X174875467Y-102516119D01*
X174898058Y-102519697D01*
X174898058Y-102519696D01*
X174898059Y-102519697D01*
X174903373Y-102518273D01*
X174928996Y-102514900D01*
X175696164Y-102514900D01*
X175754355Y-102533807D01*
X175788730Y-102578793D01*
X175793813Y-102592195D01*
X175884099Y-102722998D01*
X175884101Y-102723000D01*
X175884102Y-102723001D01*
X175911304Y-102747100D01*
X176003072Y-102828400D01*
X176143805Y-102902262D01*
X176143807Y-102902263D01*
X176298129Y-102940300D01*
X176457071Y-102940300D01*
X176611393Y-102902263D01*
X176752129Y-102828399D01*
X176871098Y-102723001D01*
X176961387Y-102592195D01*
X177017749Y-102443582D01*
X177036907Y-102285800D01*
X177017749Y-102128018D01*
X176961387Y-101979405D01*
X176960913Y-101978719D01*
X176871098Y-101848599D01*
X176752127Y-101743199D01*
X176611394Y-101669337D01*
X176457071Y-101631300D01*
X176298129Y-101631300D01*
X176143805Y-101669337D01*
X176003072Y-101743199D01*
X175884099Y-101848601D01*
X175793813Y-101979404D01*
X175788730Y-101992807D01*
X175750416Y-102040511D01*
X175696164Y-102056700D01*
X175021704Y-102056700D01*
X174963513Y-102037793D01*
X174951700Y-102027704D01*
X172029919Y-99105923D01*
X172002142Y-99051406D01*
X172011713Y-98990974D01*
X172034270Y-98961820D01*
X172118498Y-98887201D01*
X172208787Y-98756395D01*
X172265149Y-98607782D01*
X172284307Y-98450000D01*
X172265149Y-98292218D01*
X172208787Y-98143605D01*
X172207179Y-98141276D01*
X172118498Y-98012799D01*
X171999527Y-97907399D01*
X171858794Y-97833537D01*
X171704471Y-97795500D01*
X171545529Y-97795500D01*
X171391205Y-97833537D01*
X171250472Y-97907399D01*
X171131501Y-98012799D01*
X171041213Y-98143603D01*
X170984850Y-98292220D01*
X170965692Y-98450000D01*
X155123797Y-98450000D01*
X155011175Y-98399857D01*
X155011169Y-98399854D01*
X155008025Y-98398455D01*
X155004711Y-98397504D01*
X155004709Y-98397504D01*
X154735684Y-98320363D01*
X154732364Y-98319411D01*
X154728951Y-98318931D01*
X154728945Y-98318930D01*
X154451803Y-98279980D01*
X154451797Y-98279979D01*
X154448385Y-98279500D01*
X154233396Y-98279500D01*
X154231691Y-98279619D01*
X154231668Y-98279620D01*
X154022378Y-98294255D01*
X154022366Y-98294256D01*
X154018929Y-98294497D01*
X154015559Y-98295213D01*
X154015547Y-98295215D01*
X153741798Y-98353402D01*
X153741783Y-98353406D01*
X153738425Y-98354120D01*
X153735192Y-98355296D01*
X153735184Y-98355299D01*
X153472199Y-98451018D01*
X153472193Y-98451020D01*
X153468950Y-98452201D01*
X153465905Y-98453819D01*
X153465896Y-98453824D01*
X153218797Y-98585208D01*
X153218783Y-98585216D01*
X153215747Y-98586831D01*
X153212958Y-98588856D01*
X153212952Y-98588861D01*
X152986534Y-98753364D01*
X152986530Y-98753366D01*
X152983746Y-98755390D01*
X152981271Y-98757779D01*
X152981265Y-98757785D01*
X152779943Y-98952199D01*
X152779934Y-98952207D01*
X152777461Y-98954597D01*
X152775340Y-98957311D01*
X152775337Y-98957315D01*
X152603032Y-99177854D01*
X152603026Y-99177862D01*
X152600907Y-99180575D01*
X152599187Y-99183553D01*
X152599181Y-99183563D01*
X152459253Y-99425928D01*
X152457523Y-99428925D01*
X152456231Y-99432121D01*
X152456224Y-99432137D01*
X152363789Y-99660924D01*
X152350097Y-99694813D01*
X152349262Y-99698160D01*
X152349258Y-99698174D01*
X152281556Y-99969712D01*
X152281553Y-99969725D01*
X152280721Y-99973065D01*
X152280360Y-99976493D01*
X152280360Y-99976497D01*
X152251480Y-100251274D01*
X152250745Y-100258264D01*
X150650500Y-100258264D01*
X150650500Y-96774000D01*
X159640092Y-96774000D01*
X159659250Y-96931779D01*
X159659250Y-96931781D01*
X159659251Y-96931782D01*
X159665806Y-96949066D01*
X159715613Y-97080396D01*
X159805901Y-97211200D01*
X159924872Y-97316600D01*
X160062785Y-97388982D01*
X160065607Y-97390463D01*
X160219929Y-97428500D01*
X160378871Y-97428500D01*
X160533193Y-97390463D01*
X160673929Y-97316599D01*
X160792898Y-97211201D01*
X160883187Y-97080395D01*
X160939549Y-96931782D01*
X160958707Y-96774000D01*
X160939549Y-96616218D01*
X160883187Y-96467605D01*
X160883101Y-96467481D01*
X160792898Y-96336799D01*
X160673927Y-96231399D01*
X160533194Y-96157537D01*
X160378871Y-96119500D01*
X160219929Y-96119500D01*
X160065605Y-96157537D01*
X159924872Y-96231399D01*
X159805901Y-96336799D01*
X159715613Y-96467603D01*
X159659250Y-96616220D01*
X159640092Y-96774000D01*
X150650500Y-96774000D01*
X150650500Y-91070001D01*
X151476632Y-91070001D01*
X151476929Y-91071941D01*
X151547566Y-91262667D01*
X151655145Y-91435263D01*
X151795268Y-91582670D01*
X151962193Y-91698855D01*
X152149095Y-91779061D01*
X152348307Y-91820000D01*
X152599999Y-91820000D01*
X152600000Y-91819999D01*
X152600000Y-91120000D01*
X153100000Y-91120000D01*
X153100000Y-91819999D01*
X153100001Y-91820000D01*
X153298201Y-91820000D01*
X153303210Y-91819745D01*
X153452335Y-91804581D01*
X153646392Y-91743696D01*
X153824212Y-91644997D01*
X153978531Y-91512519D01*
X154103019Y-91351693D01*
X154192587Y-91169096D01*
X154218246Y-91070001D01*
X155506632Y-91070001D01*
X155506929Y-91071941D01*
X155577566Y-91262667D01*
X155685145Y-91435263D01*
X155825268Y-91582670D01*
X155992193Y-91698855D01*
X156179095Y-91779061D01*
X156378307Y-91820000D01*
X156779999Y-91820000D01*
X156780000Y-91819999D01*
X156780000Y-91120000D01*
X157280000Y-91120000D01*
X157280000Y-91819998D01*
X157280001Y-91820000D01*
X157628201Y-91820000D01*
X157633210Y-91819745D01*
X157782335Y-91804581D01*
X157976392Y-91743696D01*
X158154212Y-91644997D01*
X158274656Y-91541600D01*
X161291092Y-91541600D01*
X161310250Y-91699379D01*
X161366613Y-91847996D01*
X161424070Y-91931235D01*
X161456902Y-91978801D01*
X161539950Y-92052376D01*
X161570968Y-92105113D01*
X161573300Y-92126476D01*
X161573300Y-94401020D01*
X161571193Y-94421336D01*
X161569598Y-94428945D01*
X161568412Y-94434600D01*
X161570473Y-94451130D01*
X161572540Y-94467715D01*
X161573300Y-94479960D01*
X161573300Y-94481647D01*
X161576820Y-94502747D01*
X161577409Y-94506789D01*
X161584599Y-94564458D01*
X161586417Y-94570132D01*
X161614063Y-94621218D01*
X161615926Y-94624836D01*
X161620180Y-94633537D01*
X161641457Y-94677060D01*
X161645008Y-94681821D01*
X161648699Y-94685219D01*
X161648701Y-94685222D01*
X161687739Y-94721159D01*
X161690691Y-94723991D01*
X161820251Y-94853551D01*
X161848028Y-94908068D01*
X161848525Y-94935487D01*
X161840692Y-94999998D01*
X161859850Y-95157779D01*
X161916213Y-95306396D01*
X162006501Y-95437200D01*
X162125472Y-95542600D01*
X162178904Y-95570643D01*
X162266207Y-95616463D01*
X162420529Y-95654500D01*
X162579471Y-95654500D01*
X162733793Y-95616463D01*
X162874529Y-95542599D01*
X162993498Y-95437201D01*
X163083787Y-95306395D01*
X163140149Y-95157782D01*
X163159307Y-95000000D01*
X163140149Y-94842218D01*
X163092508Y-94716600D01*
X164469192Y-94716600D01*
X164488350Y-94874379D01*
X164544713Y-95022996D01*
X164635001Y-95153800D01*
X164635002Y-95153801D01*
X164648911Y-95166123D01*
X164753972Y-95259200D01*
X164836167Y-95302339D01*
X164894707Y-95333063D01*
X165049029Y-95371100D01*
X165207971Y-95371100D01*
X165362293Y-95333063D01*
X165503029Y-95259199D01*
X165621998Y-95153801D01*
X165712287Y-95022995D01*
X165768649Y-94874382D01*
X165787807Y-94716600D01*
X165768649Y-94558818D01*
X165712287Y-94410205D01*
X165708716Y-94405032D01*
X165621998Y-94279399D01*
X165503027Y-94173999D01*
X165362294Y-94100137D01*
X165207971Y-94062100D01*
X165049029Y-94062100D01*
X164894705Y-94100137D01*
X164753972Y-94173999D01*
X164635001Y-94279399D01*
X164544713Y-94410203D01*
X164488350Y-94558820D01*
X164469192Y-94716600D01*
X163092508Y-94716600D01*
X163083787Y-94693605D01*
X163080430Y-94688742D01*
X162993498Y-94562799D01*
X162874527Y-94457399D01*
X162733794Y-94383537D01*
X162579471Y-94345500D01*
X162426500Y-94345500D01*
X162368309Y-94326593D01*
X162332345Y-94277093D01*
X162327500Y-94246500D01*
X162327500Y-92126476D01*
X162346407Y-92068285D01*
X162360844Y-92052380D01*
X162443898Y-91978801D01*
X162534187Y-91847995D01*
X162590549Y-91699382D01*
X162609707Y-91541600D01*
X162590549Y-91383818D01*
X162534187Y-91235205D01*
X162521569Y-91216925D01*
X162443898Y-91104399D01*
X162324927Y-90998999D01*
X162184194Y-90925137D01*
X162029871Y-90887100D01*
X161870929Y-90887100D01*
X161716605Y-90925137D01*
X161575872Y-90998999D01*
X161456901Y-91104399D01*
X161366613Y-91235203D01*
X161310250Y-91383820D01*
X161291092Y-91541600D01*
X158274656Y-91541600D01*
X158308531Y-91512519D01*
X158433019Y-91351693D01*
X158522587Y-91169096D01*
X158548246Y-91070000D01*
X157746111Y-91070000D01*
X157785610Y-91045543D01*
X157853201Y-90956038D01*
X157883895Y-90848160D01*
X157873546Y-90736479D01*
X157823552Y-90636078D01*
X157751069Y-90570000D01*
X158553367Y-90570000D01*
X158553367Y-90569998D01*
X158553070Y-90568058D01*
X158482433Y-90377332D01*
X158374854Y-90204736D01*
X158234731Y-90057329D01*
X158067806Y-89941144D01*
X157880904Y-89860938D01*
X157681693Y-89820000D01*
X157280001Y-89820000D01*
X157280000Y-89820001D01*
X157280000Y-90520000D01*
X156780000Y-90520000D01*
X156780000Y-89820001D01*
X156779999Y-89820000D01*
X156431799Y-89820000D01*
X156426789Y-89820254D01*
X156277664Y-89835418D01*
X156083607Y-89896303D01*
X155905787Y-89995002D01*
X155751468Y-90127480D01*
X155626980Y-90288306D01*
X155537412Y-90470903D01*
X155511754Y-90570000D01*
X156313889Y-90570000D01*
X156274390Y-90594457D01*
X156206799Y-90683962D01*
X156176105Y-90791840D01*
X156186454Y-90903521D01*
X156236448Y-91003922D01*
X156308931Y-91070000D01*
X155506634Y-91070000D01*
X155506632Y-91070001D01*
X154218246Y-91070001D01*
X154218246Y-91070000D01*
X153416111Y-91070000D01*
X153455610Y-91045543D01*
X153523201Y-90956038D01*
X153553895Y-90848160D01*
X153543546Y-90736479D01*
X153493552Y-90636078D01*
X153421069Y-90570000D01*
X154223367Y-90570000D01*
X154223367Y-90569998D01*
X154223070Y-90568058D01*
X154152433Y-90377332D01*
X154044854Y-90204736D01*
X153904731Y-90057329D01*
X153737806Y-89941144D01*
X153550904Y-89860938D01*
X153351693Y-89820000D01*
X153100000Y-89820000D01*
X153100000Y-90520000D01*
X152600000Y-90520000D01*
X152600000Y-89820001D01*
X152599999Y-89820000D01*
X152401799Y-89820000D01*
X152396789Y-89820254D01*
X152247664Y-89835418D01*
X152053607Y-89896303D01*
X151875787Y-89995002D01*
X151721468Y-90127480D01*
X151596980Y-90288306D01*
X151507412Y-90470903D01*
X151481754Y-90570000D01*
X152283889Y-90570000D01*
X152244390Y-90594457D01*
X152176799Y-90683962D01*
X152146105Y-90791840D01*
X152156454Y-90903521D01*
X152206448Y-91003922D01*
X152278931Y-91070000D01*
X151476634Y-91070000D01*
X151476632Y-91070001D01*
X150650500Y-91070001D01*
X150650500Y-85826600D01*
X161164092Y-85826600D01*
X161183250Y-85984379D01*
X161183250Y-85984381D01*
X161183251Y-85984382D01*
X161196035Y-86018091D01*
X161239613Y-86132996D01*
X161302398Y-86223955D01*
X161329902Y-86263801D01*
X161350676Y-86282205D01*
X161448872Y-86369200D01*
X161539930Y-86416991D01*
X161582669Y-86460775D01*
X161592787Y-86509831D01*
X161592064Y-86523612D01*
X161600263Y-86544970D01*
X161604674Y-86559862D01*
X161609430Y-86582239D01*
X161612667Y-86586694D01*
X161624995Y-86609400D01*
X161626968Y-86614539D01*
X161643148Y-86630720D01*
X161653231Y-86642525D01*
X161666497Y-86660784D01*
X161666679Y-86661034D01*
X161671440Y-86663783D01*
X161691944Y-86679515D01*
X167242669Y-92230240D01*
X167270446Y-92284757D01*
X167271665Y-92300244D01*
X167271665Y-95704278D01*
X167252758Y-95762469D01*
X167218673Y-95791938D01*
X167129007Y-95838998D01*
X167010037Y-95944397D01*
X166919749Y-96075201D01*
X166863386Y-96223818D01*
X166844228Y-96381598D01*
X166863386Y-96539377D01*
X166919749Y-96687994D01*
X167005507Y-96812235D01*
X167010038Y-96818799D01*
X167021839Y-96829254D01*
X167129008Y-96924198D01*
X167208608Y-96965975D01*
X167269743Y-96998061D01*
X167424065Y-97036098D01*
X167583007Y-97036098D01*
X167737329Y-96998061D01*
X167878065Y-96924197D01*
X167919730Y-96887284D01*
X167975823Y-96862849D01*
X168035567Y-96876051D01*
X168050337Y-96889781D01*
X168051695Y-96888249D01*
X168060691Y-96896219D01*
X168060692Y-96896220D01*
X168122711Y-96951164D01*
X168179662Y-97001619D01*
X168245357Y-97036098D01*
X168320397Y-97075482D01*
X168474719Y-97113519D01*
X168633661Y-97113519D01*
X168787983Y-97075482D01*
X168928719Y-97001618D01*
X169047688Y-96896220D01*
X169048846Y-96894541D01*
X169054200Y-96890450D01*
X169056685Y-96888249D01*
X169056844Y-96888429D01*
X169097463Y-96857391D01*
X169158630Y-96855911D01*
X169195973Y-96876676D01*
X169203901Y-96883699D01*
X169203902Y-96883701D01*
X169275539Y-96947166D01*
X169322872Y-96989100D01*
X169412420Y-97036098D01*
X169463607Y-97062963D01*
X169617929Y-97101000D01*
X169776871Y-97101000D01*
X169931193Y-97062963D01*
X170071929Y-96989099D01*
X170190898Y-96883701D01*
X170281187Y-96752895D01*
X170337549Y-96604282D01*
X170356707Y-96446500D01*
X170348174Y-96376219D01*
X170337549Y-96288717D01*
X170316699Y-96233743D01*
X170313742Y-96172629D01*
X170339260Y-96128634D01*
X170536224Y-95931671D01*
X170590739Y-95903895D01*
X170651171Y-95913466D01*
X170685479Y-95942347D01*
X170711026Y-95976474D01*
X170807635Y-96048794D01*
X170824285Y-96061258D01*
X170956842Y-96110700D01*
X170980667Y-96113261D01*
X171015443Y-96117000D01*
X171584556Y-96116999D01*
X171643157Y-96110700D01*
X171775715Y-96061258D01*
X171888974Y-95976474D01*
X171925196Y-95928085D01*
X171975202Y-95892833D01*
X172028140Y-95891291D01*
X172081729Y-95904500D01*
X172081730Y-95904500D01*
X172240671Y-95904500D01*
X172394993Y-95866463D01*
X172535729Y-95792599D01*
X172654698Y-95687201D01*
X172744987Y-95556395D01*
X172801349Y-95407782D01*
X172820507Y-95250000D01*
X172801349Y-95092218D01*
X172744987Y-94943605D01*
X172741951Y-94939207D01*
X172654698Y-94812799D01*
X172535728Y-94707400D01*
X172443292Y-94658886D01*
X172400554Y-94615102D01*
X172390300Y-94571226D01*
X172390300Y-89441975D01*
X172390436Y-89436793D01*
X172390892Y-89428102D01*
X172392534Y-89396761D01*
X172384336Y-89375406D01*
X172379925Y-89360513D01*
X172375169Y-89338135D01*
X172371932Y-89333680D01*
X172359604Y-89310974D01*
X172357632Y-89305836D01*
X172353847Y-89302051D01*
X172341453Y-89289656D01*
X172331366Y-89277846D01*
X172328671Y-89274137D01*
X172317922Y-89259342D01*
X172313156Y-89256590D01*
X172292656Y-89240860D01*
X171710861Y-88659065D01*
X171683084Y-88604548D01*
X171688298Y-88553958D01*
X171709149Y-88498982D01*
X171728307Y-88341200D01*
X171709149Y-88183418D01*
X171652787Y-88034805D01*
X171643556Y-88021432D01*
X171562498Y-87903999D01*
X171443527Y-87798599D01*
X171302794Y-87724737D01*
X171148471Y-87686700D01*
X170989529Y-87686700D01*
X170835205Y-87724737D01*
X170694472Y-87798599D01*
X170575501Y-87903999D01*
X170485213Y-88034803D01*
X170428850Y-88183420D01*
X170409692Y-88341200D01*
X170428850Y-88498979D01*
X170485213Y-88647596D01*
X170575501Y-88778400D01*
X170694472Y-88883800D01*
X170830971Y-88955440D01*
X170835207Y-88957663D01*
X170989529Y-88995700D01*
X171148471Y-88995700D01*
X171295651Y-88959423D01*
X171356674Y-88963854D01*
X171389346Y-88985542D01*
X171548191Y-89144387D01*
X171575968Y-89198904D01*
X171566397Y-89259336D01*
X171523132Y-89302601D01*
X171462700Y-89312172D01*
X171432180Y-89302051D01*
X171378994Y-89274137D01*
X171224671Y-89236100D01*
X171065729Y-89236100D01*
X170911405Y-89274137D01*
X170770672Y-89347999D01*
X170651701Y-89453399D01*
X170561413Y-89584203D01*
X170505050Y-89732820D01*
X170485892Y-89890600D01*
X170505050Y-90048381D01*
X170525900Y-90103357D01*
X170528855Y-90164471D01*
X170503336Y-90208466D01*
X170328863Y-90382938D01*
X170325106Y-90386503D01*
X170295313Y-90413329D01*
X170286007Y-90434230D01*
X170278600Y-90447873D01*
X170266138Y-90467064D01*
X170265278Y-90472498D01*
X170257941Y-90497268D01*
X170255700Y-90502302D01*
X170255700Y-90525180D01*
X170254480Y-90540667D01*
X170250903Y-90563258D01*
X170252326Y-90568567D01*
X170255700Y-90594192D01*
X170255700Y-92750987D01*
X170236793Y-92809178D01*
X170187293Y-92845142D01*
X170126107Y-92845142D01*
X170122103Y-92843745D01*
X170043157Y-92814299D01*
X169987187Y-92808282D01*
X169987173Y-92808281D01*
X169984557Y-92808000D01*
X169981910Y-92808000D01*
X169418091Y-92808000D01*
X169418072Y-92808000D01*
X169415444Y-92808001D01*
X169412828Y-92808282D01*
X169412812Y-92808283D01*
X169356843Y-92814299D01*
X169224285Y-92863741D01*
X169111026Y-92948526D01*
X169026241Y-93061785D01*
X168975048Y-93199039D01*
X168936997Y-93246954D01*
X168878050Y-93263351D01*
X168820722Y-93241969D01*
X168786911Y-93190974D01*
X168783290Y-93164442D01*
X168783290Y-92337384D01*
X168783426Y-92332202D01*
X168785525Y-92292150D01*
X168777327Y-92270795D01*
X168772913Y-92255894D01*
X168768159Y-92233525D01*
X168764924Y-92229072D01*
X168752593Y-92206361D01*
X168750622Y-92201226D01*
X168750621Y-92201225D01*
X168734443Y-92185046D01*
X168724356Y-92173236D01*
X168722258Y-92170348D01*
X168710912Y-92154732D01*
X168706146Y-92151980D01*
X168685646Y-92136250D01*
X164001596Y-87452200D01*
X168123692Y-87452200D01*
X168142850Y-87609979D01*
X168199213Y-87758596D01*
X168237249Y-87813700D01*
X168289502Y-87889401D01*
X168305980Y-87903999D01*
X168408472Y-87994800D01*
X168525716Y-88056334D01*
X168549207Y-88068663D01*
X168703529Y-88106700D01*
X168862471Y-88106700D01*
X169016793Y-88068663D01*
X169157529Y-87994799D01*
X169276498Y-87889401D01*
X169366787Y-87758595D01*
X169423149Y-87609982D01*
X169442307Y-87452200D01*
X169423149Y-87294418D01*
X169366787Y-87145805D01*
X169333787Y-87097997D01*
X169276498Y-87014999D01*
X169157527Y-86909599D01*
X169016794Y-86835737D01*
X168862471Y-86797700D01*
X168703529Y-86797700D01*
X168549205Y-86835737D01*
X168408472Y-86909599D01*
X168289501Y-87014999D01*
X168199213Y-87145803D01*
X168142850Y-87294420D01*
X168123692Y-87452200D01*
X164001596Y-87452200D01*
X163455861Y-86906465D01*
X163428084Y-86851948D01*
X163433298Y-86801358D01*
X163454149Y-86746382D01*
X163473307Y-86588600D01*
X163454149Y-86430818D01*
X163397787Y-86282205D01*
X163387214Y-86266888D01*
X163307498Y-86151399D01*
X163188527Y-86045999D01*
X163047794Y-85972137D01*
X162893471Y-85934100D01*
X162734529Y-85934100D01*
X162734527Y-85934100D01*
X162600740Y-85967075D01*
X162539715Y-85962643D01*
X162492950Y-85923188D01*
X162478308Y-85863781D01*
X162478766Y-85859054D01*
X162482707Y-85826600D01*
X162463549Y-85668818D01*
X162407187Y-85520205D01*
X162406081Y-85518603D01*
X162316898Y-85389399D01*
X162197927Y-85283999D01*
X162057194Y-85210137D01*
X161902871Y-85172100D01*
X161743929Y-85172100D01*
X161589605Y-85210137D01*
X161448872Y-85283999D01*
X161329901Y-85389399D01*
X161239613Y-85520203D01*
X161183250Y-85668820D01*
X161164092Y-85826600D01*
X150650500Y-85826600D01*
X150650500Y-82430001D01*
X151476632Y-82430001D01*
X151476929Y-82431941D01*
X151547566Y-82622667D01*
X151655145Y-82795263D01*
X151795268Y-82942670D01*
X151962193Y-83058855D01*
X152149095Y-83139061D01*
X152348307Y-83180000D01*
X152599999Y-83180000D01*
X152600000Y-83179998D01*
X152600000Y-82480000D01*
X153100000Y-82480000D01*
X153100000Y-83179999D01*
X153100001Y-83180000D01*
X153298201Y-83180000D01*
X153303210Y-83179745D01*
X153452335Y-83164581D01*
X153646392Y-83103696D01*
X153824212Y-83004997D01*
X153978531Y-82872519D01*
X154103019Y-82711693D01*
X154192587Y-82529096D01*
X154218246Y-82430001D01*
X155506632Y-82430001D01*
X155506929Y-82431941D01*
X155577566Y-82622667D01*
X155685145Y-82795263D01*
X155825268Y-82942670D01*
X155992193Y-83058855D01*
X156179095Y-83139061D01*
X156378307Y-83180000D01*
X156779999Y-83180000D01*
X156780000Y-83179998D01*
X156780000Y-82480000D01*
X157280000Y-82480000D01*
X157280000Y-83179998D01*
X157280001Y-83180000D01*
X157628201Y-83180000D01*
X157633210Y-83179745D01*
X157782335Y-83164581D01*
X157976392Y-83103696D01*
X158154212Y-83004997D01*
X158308531Y-82872519D01*
X158433019Y-82711693D01*
X158522587Y-82529096D01*
X158548246Y-82430000D01*
X157746111Y-82430000D01*
X157785610Y-82405543D01*
X157853201Y-82316038D01*
X157858902Y-82296000D01*
X161392692Y-82296000D01*
X161411850Y-82453779D01*
X161468213Y-82602396D01*
X161558501Y-82733200D01*
X161558502Y-82733201D01*
X161600044Y-82770004D01*
X161677472Y-82838600D01*
X161793889Y-82899700D01*
X161818207Y-82912463D01*
X161972529Y-82950500D01*
X162131471Y-82950500D01*
X162285793Y-82912463D01*
X162426529Y-82838599D01*
X162545498Y-82733201D01*
X162557467Y-82715860D01*
X162606083Y-82678712D01*
X162638942Y-82673100D01*
X164513058Y-82673100D01*
X164571249Y-82692007D01*
X164594533Y-82715861D01*
X164601698Y-82726242D01*
X164606502Y-82733201D01*
X164648044Y-82770004D01*
X164725472Y-82838600D01*
X164841889Y-82899700D01*
X164866207Y-82912463D01*
X165020529Y-82950500D01*
X165179471Y-82950500D01*
X165333793Y-82912463D01*
X165474529Y-82838599D01*
X165593498Y-82733201D01*
X165683787Y-82602395D01*
X165740149Y-82453782D01*
X165759307Y-82296000D01*
X165740149Y-82138218D01*
X165683787Y-81989605D01*
X165612253Y-81885971D01*
X165594758Y-81827341D01*
X165606992Y-81792569D01*
X165552006Y-81801278D01*
X165501843Y-81777599D01*
X165474527Y-81753399D01*
X165333794Y-81679537D01*
X165179471Y-81641500D01*
X165020529Y-81641500D01*
X164866205Y-81679537D01*
X164725472Y-81753399D01*
X164606501Y-81858799D01*
X164594533Y-81876139D01*
X164545917Y-81913288D01*
X164513058Y-81918900D01*
X162638942Y-81918900D01*
X162580751Y-81899993D01*
X162557467Y-81876139D01*
X162545498Y-81858799D01*
X162426527Y-81753399D01*
X162285794Y-81679537D01*
X162131471Y-81641500D01*
X161972529Y-81641500D01*
X161818205Y-81679537D01*
X161677472Y-81753399D01*
X161558501Y-81858799D01*
X161468213Y-81989603D01*
X161411850Y-82138220D01*
X161392692Y-82296000D01*
X157858902Y-82296000D01*
X157883895Y-82208160D01*
X157873546Y-82096479D01*
X157823552Y-81996078D01*
X157751069Y-81930000D01*
X158553367Y-81930000D01*
X158553367Y-81929998D01*
X158553070Y-81928058D01*
X158482433Y-81737332D01*
X158374854Y-81564736D01*
X158234731Y-81417329D01*
X158067806Y-81301144D01*
X157880904Y-81220938D01*
X157681693Y-81180000D01*
X157280001Y-81180000D01*
X157280000Y-81180001D01*
X157280000Y-81880000D01*
X156780000Y-81880000D01*
X156780000Y-81180001D01*
X156779999Y-81180000D01*
X156431799Y-81180000D01*
X156426789Y-81180254D01*
X156277664Y-81195418D01*
X156083607Y-81256303D01*
X155905787Y-81355002D01*
X155751468Y-81487480D01*
X155626980Y-81648306D01*
X155537412Y-81830903D01*
X155511754Y-81930000D01*
X156313889Y-81930000D01*
X156274390Y-81954457D01*
X156206799Y-82043962D01*
X156176105Y-82151840D01*
X156186454Y-82263521D01*
X156236448Y-82363922D01*
X156308931Y-82430000D01*
X155506634Y-82430000D01*
X155506632Y-82430001D01*
X154218246Y-82430001D01*
X154218246Y-82430000D01*
X153416111Y-82430000D01*
X153455610Y-82405543D01*
X153523201Y-82316038D01*
X153553895Y-82208160D01*
X153543546Y-82096479D01*
X153493552Y-81996078D01*
X153421069Y-81930000D01*
X154223367Y-81930000D01*
X154223367Y-81929998D01*
X154223070Y-81928058D01*
X154152433Y-81737332D01*
X154044854Y-81564736D01*
X153904731Y-81417329D01*
X153737806Y-81301144D01*
X153550904Y-81220938D01*
X153351693Y-81180000D01*
X153100001Y-81180000D01*
X153100000Y-81180001D01*
X153100000Y-81880000D01*
X152600000Y-81880000D01*
X152600000Y-81180001D01*
X152599999Y-81180000D01*
X152401799Y-81180000D01*
X152396789Y-81180254D01*
X152247664Y-81195418D01*
X152053607Y-81256303D01*
X151875787Y-81355002D01*
X151721468Y-81487480D01*
X151596980Y-81648306D01*
X151507412Y-81830903D01*
X151481754Y-81930000D01*
X152283889Y-81930000D01*
X152244390Y-81954457D01*
X152176799Y-82043962D01*
X152146105Y-82151840D01*
X152156454Y-82263521D01*
X152206448Y-82363922D01*
X152278931Y-82430000D01*
X151476634Y-82430000D01*
X151476632Y-82430001D01*
X150650500Y-82430001D01*
X150650500Y-79679800D01*
X162408692Y-79679800D01*
X162427850Y-79837579D01*
X162427850Y-79837581D01*
X162427851Y-79837582D01*
X162438829Y-79866528D01*
X162484213Y-79986196D01*
X162574501Y-80117000D01*
X162693472Y-80222400D01*
X162824838Y-80291346D01*
X162834207Y-80296263D01*
X162988529Y-80334300D01*
X163147471Y-80334300D01*
X163301793Y-80296263D01*
X163442529Y-80222399D01*
X163561498Y-80117001D01*
X163651787Y-79986195D01*
X163656869Y-79972793D01*
X163695184Y-79925089D01*
X163749436Y-79908900D01*
X163871896Y-79908900D01*
X163930087Y-79927807D01*
X163941900Y-79937896D01*
X165637497Y-81633493D01*
X165665274Y-81688010D01*
X165656924Y-81740731D01*
X165665420Y-81734867D01*
X165726588Y-81736345D01*
X165763733Y-81759729D01*
X173935104Y-89931100D01*
X173962881Y-89985617D01*
X173964100Y-90001104D01*
X173964100Y-94672826D01*
X173945193Y-94731017D01*
X173911108Y-94760486D01*
X173818671Y-94809000D01*
X173699701Y-94914399D01*
X173609413Y-95045203D01*
X173553050Y-95193820D01*
X173533892Y-95351600D01*
X173553050Y-95509379D01*
X173609413Y-95657996D01*
X173699701Y-95788800D01*
X173818672Y-95894200D01*
X173931339Y-95953332D01*
X173959407Y-95968063D01*
X174113729Y-96006100D01*
X174272671Y-96006100D01*
X174426993Y-95968063D01*
X174567729Y-95894199D01*
X174686698Y-95788801D01*
X174776987Y-95657995D01*
X174833349Y-95509382D01*
X174852507Y-95351600D01*
X174833349Y-95193818D01*
X174776987Y-95045205D01*
X174772297Y-95038411D01*
X174686698Y-94914399D01*
X174567728Y-94809000D01*
X174475292Y-94760486D01*
X174432554Y-94716702D01*
X174422300Y-94672826D01*
X174422300Y-92100000D01*
X176683492Y-92100000D01*
X176702650Y-92257779D01*
X176702650Y-92257781D01*
X176702651Y-92257782D01*
X176704827Y-92263520D01*
X176759013Y-92406396D01*
X176849301Y-92537200D01*
X176968272Y-92642600D01*
X177109005Y-92716462D01*
X177109007Y-92716463D01*
X177263329Y-92754500D01*
X177422271Y-92754500D01*
X177576593Y-92716463D01*
X177717329Y-92642599D01*
X177836298Y-92537201D01*
X177926587Y-92406395D01*
X177982949Y-92257782D01*
X178002107Y-92100000D01*
X177982949Y-91942218D01*
X177926587Y-91793605D01*
X177884377Y-91732454D01*
X177836298Y-91662799D01*
X177717327Y-91557399D01*
X177576594Y-91483537D01*
X177422271Y-91445500D01*
X177263329Y-91445500D01*
X177109005Y-91483537D01*
X176968272Y-91557399D01*
X176849301Y-91662799D01*
X176759013Y-91793603D01*
X176702650Y-91942220D01*
X176683492Y-92100000D01*
X174422300Y-92100000D01*
X174422300Y-89873781D01*
X174422436Y-89868601D01*
X174422679Y-89863959D01*
X174424534Y-89828561D01*
X174416336Y-89807206D01*
X174411925Y-89792313D01*
X174407169Y-89769935D01*
X174403932Y-89765480D01*
X174391604Y-89742774D01*
X174389632Y-89737636D01*
X174384814Y-89732818D01*
X174373453Y-89721456D01*
X174363366Y-89709646D01*
X174362065Y-89707856D01*
X174349922Y-89691142D01*
X174345156Y-89688390D01*
X174324656Y-89672660D01*
X169252290Y-84600294D01*
X164175853Y-79523856D01*
X164172304Y-79520116D01*
X164145470Y-79490314D01*
X164124570Y-79481008D01*
X164110923Y-79473598D01*
X164091735Y-79461138D01*
X164086297Y-79460277D01*
X164061526Y-79452939D01*
X164056497Y-79450700D01*
X164033620Y-79450700D01*
X164018132Y-79449481D01*
X163995541Y-79445902D01*
X163990226Y-79447327D01*
X163964605Y-79450700D01*
X163749436Y-79450700D01*
X163691245Y-79431793D01*
X163656870Y-79386807D01*
X163653420Y-79377711D01*
X163651787Y-79373405D01*
X163602529Y-79302042D01*
X163561500Y-79242601D01*
X163553280Y-79235319D01*
X163442529Y-79137201D01*
X163442527Y-79137199D01*
X163301794Y-79063337D01*
X163147471Y-79025300D01*
X162988529Y-79025300D01*
X162834205Y-79063337D01*
X162693472Y-79137199D01*
X162574501Y-79242599D01*
X162484213Y-79373403D01*
X162427850Y-79522020D01*
X162408692Y-79679800D01*
X150650500Y-79679800D01*
X150650500Y-72318264D01*
X152250745Y-72318264D01*
X152250865Y-72321709D01*
X152250865Y-72321718D01*
X152260632Y-72601414D01*
X152260633Y-72601423D01*
X152260753Y-72604859D01*
X152261349Y-72608243D01*
X152261351Y-72608255D01*
X152306341Y-72863401D01*
X152310550Y-72887272D01*
X152311615Y-72890552D01*
X152311616Y-72890553D01*
X152398101Y-73156727D01*
X152398103Y-73156734D01*
X152399167Y-73160006D01*
X152400677Y-73163103D01*
X152400678Y-73163104D01*
X152521916Y-73411679D01*
X152524879Y-73417753D01*
X152526813Y-73420620D01*
X152526814Y-73420622D01*
X152683305Y-73652631D01*
X152683308Y-73652636D01*
X152685238Y-73655496D01*
X152687550Y-73658063D01*
X152687551Y-73658065D01*
X152854247Y-73843200D01*
X152877125Y-73868608D01*
X153096803Y-74052940D01*
X153339998Y-74204905D01*
X153601975Y-74321545D01*
X153877636Y-74400589D01*
X154161615Y-74440500D01*
X154165070Y-74440500D01*
X154374870Y-74440500D01*
X154376604Y-74440500D01*
X154591071Y-74425503D01*
X154871575Y-74365880D01*
X155141050Y-74267799D01*
X155394253Y-74133169D01*
X155626254Y-73964610D01*
X155832539Y-73765403D01*
X156009093Y-73539425D01*
X156152477Y-73291075D01*
X156259903Y-73025187D01*
X156329279Y-72746935D01*
X156350968Y-72540581D01*
X164420000Y-72540581D01*
X164420282Y-72545857D01*
X164426401Y-72602776D01*
X164476646Y-72737489D01*
X164562811Y-72852588D01*
X164677910Y-72938753D01*
X164812623Y-72988998D01*
X164869542Y-72995117D01*
X164874819Y-72995400D01*
X165394999Y-72995400D01*
X165395000Y-72995398D01*
X165395000Y-72245401D01*
X165394999Y-72245400D01*
X164420001Y-72245400D01*
X164420000Y-72245401D01*
X164420000Y-72540581D01*
X156350968Y-72540581D01*
X156359255Y-72461736D01*
X156349247Y-72175141D01*
X156299450Y-71892728D01*
X156210833Y-71619994D01*
X156085121Y-71362247D01*
X155956585Y-71171683D01*
X155926694Y-71127368D01*
X155926692Y-71127365D01*
X155924762Y-71124504D01*
X155919265Y-71118399D01*
X155735191Y-70913964D01*
X155735189Y-70913962D01*
X155732875Y-70911392D01*
X155513197Y-70727060D01*
X155497499Y-70717251D01*
X155272929Y-70576924D01*
X155270002Y-70575095D01*
X155172037Y-70531478D01*
X155011175Y-70459857D01*
X155011169Y-70459854D01*
X155008025Y-70458455D01*
X155004711Y-70457504D01*
X155004709Y-70457504D01*
X154735684Y-70380363D01*
X154732364Y-70379411D01*
X154728951Y-70378931D01*
X154728945Y-70378930D01*
X154451803Y-70339980D01*
X154451797Y-70339979D01*
X154448385Y-70339500D01*
X154233396Y-70339500D01*
X154231691Y-70339619D01*
X154231668Y-70339620D01*
X154022378Y-70354255D01*
X154022366Y-70354256D01*
X154018929Y-70354497D01*
X154015559Y-70355213D01*
X154015547Y-70355215D01*
X153741798Y-70413402D01*
X153741783Y-70413406D01*
X153738425Y-70414120D01*
X153735192Y-70415296D01*
X153735184Y-70415299D01*
X153472199Y-70511018D01*
X153472193Y-70511020D01*
X153468950Y-70512201D01*
X153465905Y-70513819D01*
X153465896Y-70513824D01*
X153218797Y-70645208D01*
X153218783Y-70645216D01*
X153215747Y-70646831D01*
X153212958Y-70648856D01*
X153212952Y-70648861D01*
X152986534Y-70813364D01*
X152986530Y-70813366D01*
X152983746Y-70815390D01*
X152981271Y-70817779D01*
X152981265Y-70817785D01*
X152779943Y-71012199D01*
X152779934Y-71012207D01*
X152777461Y-71014597D01*
X152775340Y-71017311D01*
X152775337Y-71017315D01*
X152603032Y-71237854D01*
X152603026Y-71237862D01*
X152600907Y-71240575D01*
X152599187Y-71243553D01*
X152599181Y-71243563D01*
X152462281Y-71480683D01*
X152457523Y-71488925D01*
X152456231Y-71492121D01*
X152456224Y-71492137D01*
X152351401Y-71751585D01*
X152350097Y-71754813D01*
X152349262Y-71758160D01*
X152349258Y-71758174D01*
X152281556Y-72029712D01*
X152281553Y-72029725D01*
X152280721Y-72033065D01*
X152280360Y-72036493D01*
X152280360Y-72036497D01*
X152254789Y-72279790D01*
X152250745Y-72318264D01*
X150650500Y-72318264D01*
X150650500Y-71852772D01*
X150650656Y-71847221D01*
X150654106Y-71785782D01*
X150666533Y-71564494D01*
X150667776Y-71553467D01*
X150669270Y-71544674D01*
X150714746Y-71277023D01*
X150717207Y-71266236D01*
X150794839Y-70996770D01*
X150798499Y-70986310D01*
X150905807Y-70727246D01*
X150910621Y-70717251D01*
X151046253Y-70471843D01*
X151052150Y-70462458D01*
X151214419Y-70233761D01*
X151221323Y-70225103D01*
X151408186Y-70016004D01*
X151416004Y-70008186D01*
X151625103Y-69821323D01*
X151633761Y-69814419D01*
X151862458Y-69652150D01*
X151871843Y-69646253D01*
X152117257Y-69510617D01*
X152127246Y-69505807D01*
X152386310Y-69398499D01*
X152396770Y-69394839D01*
X152666236Y-69317207D01*
X152677023Y-69314746D01*
X152953471Y-69267775D01*
X152964494Y-69266533D01*
X153247222Y-69250655D01*
X153252773Y-69250500D01*
X153307583Y-69250500D01*
X167692780Y-69250500D01*
X167750971Y-69269407D01*
G37*
%TD.AperFunction*%
%TA.AperFunction,Conductor*%
G36*
X179048845Y-69257745D02*
G01*
X179082704Y-69250500D01*
X219720588Y-69250500D01*
X219730998Y-69253882D01*
X219750765Y-69250500D01*
X229167417Y-69250500D01*
X229222227Y-69250500D01*
X229227777Y-69250655D01*
X229510503Y-69266533D01*
X229521530Y-69267775D01*
X229797972Y-69314745D01*
X229808766Y-69317208D01*
X230078223Y-69394837D01*
X230088694Y-69398501D01*
X230304913Y-69488062D01*
X230347746Y-69505804D01*
X230357748Y-69510621D01*
X230603148Y-69646249D01*
X230612548Y-69652155D01*
X230841232Y-69814415D01*
X230849904Y-69821331D01*
X231058986Y-70008178D01*
X231066821Y-70016013D01*
X231253666Y-70225092D01*
X231260584Y-70233767D01*
X231422844Y-70462451D01*
X231428750Y-70471851D01*
X231564378Y-70717251D01*
X231569195Y-70727253D01*
X231676496Y-70986301D01*
X231680163Y-70996780D01*
X231730552Y-71171683D01*
X231757046Y-71263648D01*
X231757787Y-71266218D01*
X231760257Y-71277042D01*
X231807223Y-71553467D01*
X231808466Y-71564499D01*
X231824343Y-71847221D01*
X231824499Y-71852772D01*
X231824499Y-76173413D01*
X231805592Y-76231604D01*
X231756092Y-76267568D01*
X231725189Y-76272413D01*
X224575000Y-76250000D01*
X224575000Y-76375000D01*
X224585031Y-79217432D01*
X224566330Y-79275689D01*
X224516957Y-79311827D01*
X224455772Y-79312043D01*
X224434059Y-79302042D01*
X224413800Y-79289546D01*
X224250149Y-79235318D01*
X224151667Y-79225257D01*
X224146617Y-79225000D01*
X224050000Y-79225000D01*
X224050000Y-81174998D01*
X224050001Y-81174999D01*
X224146615Y-81174999D01*
X224151650Y-81174742D01*
X224250152Y-81164680D01*
X224413801Y-81110453D01*
X224440976Y-81093691D01*
X224500429Y-81079234D01*
X224557025Y-81102483D01*
X224589147Y-81154558D01*
X224591949Y-81177602D01*
X224650045Y-97637867D01*
X224637179Y-97677944D01*
X224663277Y-97643084D01*
X224720317Y-97625000D01*
X231725500Y-97625000D01*
X231783691Y-97643907D01*
X231819655Y-97693407D01*
X231824500Y-97724000D01*
X231824500Y-100797226D01*
X231824344Y-100802777D01*
X231808466Y-101085500D01*
X231807223Y-101096532D01*
X231760257Y-101372957D01*
X231757787Y-101383781D01*
X231680163Y-101653219D01*
X231676496Y-101663698D01*
X231569195Y-101922746D01*
X231564378Y-101932748D01*
X231428750Y-102178148D01*
X231422844Y-102187548D01*
X231260584Y-102416232D01*
X231253662Y-102424912D01*
X231066829Y-102633978D01*
X231058978Y-102641829D01*
X230849912Y-102828662D01*
X230841232Y-102835584D01*
X230612548Y-102997844D01*
X230603148Y-103003750D01*
X230357748Y-103139378D01*
X230347746Y-103144195D01*
X230088698Y-103251496D01*
X230078219Y-103255163D01*
X229808781Y-103332787D01*
X229797957Y-103335257D01*
X229521532Y-103382223D01*
X229510500Y-103383466D01*
X229227778Y-103399344D01*
X229222227Y-103399500D01*
X197920292Y-103399500D01*
X197862101Y-103380593D01*
X197826137Y-103331093D01*
X197826137Y-103269907D01*
X197854642Y-103226398D01*
X197874240Y-103209036D01*
X197897688Y-103175066D01*
X197915690Y-103148986D01*
X197964306Y-103111836D01*
X197997165Y-103106224D01*
X217154301Y-103106224D01*
X217159481Y-103106359D01*
X217178668Y-103107365D01*
X217199514Y-103108458D01*
X217199514Y-103108457D01*
X217199515Y-103108458D01*
X217220869Y-103100260D01*
X217235764Y-103095848D01*
X217258141Y-103091093D01*
X217262590Y-103087859D01*
X217285305Y-103075526D01*
X217290440Y-103073556D01*
X217306619Y-103057375D01*
X217318426Y-103047292D01*
X217336934Y-103033846D01*
X217339683Y-103029083D01*
X217355412Y-103008582D01*
X220322341Y-100041653D01*
X220376856Y-100013878D01*
X220437288Y-100023449D01*
X220444460Y-100027488D01*
X220475895Y-100046951D01*
X220485573Y-100052944D01*
X220628386Y-100108270D01*
X220676446Y-100126889D01*
X220877651Y-100164500D01*
X220877653Y-100164500D01*
X221082349Y-100164500D01*
X221283553Y-100126889D01*
X221283556Y-100126888D01*
X221474427Y-100052944D01*
X221648462Y-99945186D01*
X221799732Y-99807285D01*
X221923088Y-99643935D01*
X221982380Y-99524860D01*
X222025242Y-99481200D01*
X222085583Y-99471070D01*
X222140354Y-99498342D01*
X222168634Y-99552600D01*
X222170000Y-99568990D01*
X222170000Y-99955181D01*
X222170282Y-99960457D01*
X222176401Y-100017376D01*
X222226646Y-100152089D01*
X222312811Y-100267188D01*
X222427910Y-100353353D01*
X222562623Y-100403598D01*
X222619542Y-100409717D01*
X222624819Y-100410000D01*
X223269999Y-100410000D01*
X223270000Y-100409999D01*
X223269999Y-99495501D01*
X223377685Y-99544680D01*
X223484237Y-99560000D01*
X223555763Y-99560000D01*
X223662315Y-99544680D01*
X223770000Y-99495501D01*
X223770000Y-100409999D01*
X223770001Y-100410000D01*
X224415181Y-100410000D01*
X224420457Y-100409717D01*
X224477376Y-100403598D01*
X224612089Y-100353353D01*
X224727188Y-100267188D01*
X224733869Y-100258264D01*
X226545745Y-100258264D01*
X226545865Y-100261709D01*
X226545865Y-100261718D01*
X226555632Y-100541414D01*
X226555633Y-100541423D01*
X226555753Y-100544859D01*
X226556349Y-100548243D01*
X226556351Y-100548255D01*
X226600252Y-100797226D01*
X226605550Y-100827272D01*
X226606615Y-100830552D01*
X226606616Y-100830553D01*
X226693101Y-101096727D01*
X226693103Y-101096734D01*
X226694167Y-101100006D01*
X226695677Y-101103103D01*
X226695678Y-101103104D01*
X226804210Y-101325628D01*
X226819879Y-101357753D01*
X226821813Y-101360620D01*
X226821814Y-101360622D01*
X226978305Y-101592631D01*
X226978308Y-101592636D01*
X226980238Y-101595496D01*
X226982550Y-101598063D01*
X226982551Y-101598065D01*
X227100084Y-101728599D01*
X227172125Y-101808608D01*
X227391803Y-101992940D01*
X227634998Y-102144905D01*
X227896975Y-102261545D01*
X228172636Y-102340589D01*
X228456615Y-102380500D01*
X228460070Y-102380500D01*
X228669870Y-102380500D01*
X228671604Y-102380500D01*
X228886071Y-102365503D01*
X229166575Y-102305880D01*
X229436050Y-102207799D01*
X229689253Y-102073169D01*
X229921254Y-101904610D01*
X230127539Y-101705403D01*
X230304093Y-101479425D01*
X230447477Y-101231075D01*
X230554903Y-100965187D01*
X230624279Y-100686935D01*
X230654255Y-100401736D01*
X230644247Y-100115141D01*
X230594450Y-99832728D01*
X230505833Y-99559994D01*
X230380121Y-99302247D01*
X230257373Y-99120265D01*
X230221694Y-99067368D01*
X230221692Y-99067365D01*
X230219762Y-99064504D01*
X230187611Y-99028797D01*
X230030191Y-98853964D01*
X230030189Y-98853962D01*
X230027875Y-98851392D01*
X229808197Y-98667060D01*
X229565002Y-98515095D01*
X229477344Y-98476067D01*
X229306175Y-98399857D01*
X229306169Y-98399854D01*
X229303025Y-98398455D01*
X229299711Y-98397504D01*
X229299709Y-98397504D01*
X229030684Y-98320363D01*
X229027364Y-98319411D01*
X229023951Y-98318931D01*
X229023945Y-98318930D01*
X228746803Y-98279980D01*
X228746797Y-98279979D01*
X228743385Y-98279500D01*
X228528396Y-98279500D01*
X228526691Y-98279619D01*
X228526668Y-98279620D01*
X228317378Y-98294255D01*
X228317366Y-98294256D01*
X228313929Y-98294497D01*
X228310559Y-98295213D01*
X228310547Y-98295215D01*
X228036798Y-98353402D01*
X228036783Y-98353406D01*
X228033425Y-98354120D01*
X228030192Y-98355296D01*
X228030184Y-98355299D01*
X227767199Y-98451018D01*
X227767193Y-98451020D01*
X227763950Y-98452201D01*
X227760905Y-98453819D01*
X227760896Y-98453824D01*
X227513797Y-98585208D01*
X227513783Y-98585216D01*
X227510747Y-98586831D01*
X227507958Y-98588856D01*
X227507952Y-98588861D01*
X227281534Y-98753364D01*
X227281530Y-98753366D01*
X227278746Y-98755390D01*
X227276271Y-98757779D01*
X227276265Y-98757785D01*
X227074943Y-98952199D01*
X227074934Y-98952207D01*
X227072461Y-98954597D01*
X227070340Y-98957311D01*
X227070337Y-98957315D01*
X226898032Y-99177854D01*
X226898026Y-99177862D01*
X226895907Y-99180575D01*
X226894187Y-99183553D01*
X226894181Y-99183563D01*
X226754253Y-99425928D01*
X226752523Y-99428925D01*
X226751231Y-99432121D01*
X226751224Y-99432137D01*
X226658789Y-99660924D01*
X226645097Y-99694813D01*
X226644262Y-99698160D01*
X226644258Y-99698174D01*
X226576556Y-99969712D01*
X226576553Y-99969725D01*
X226575721Y-99973065D01*
X226575360Y-99976493D01*
X226575360Y-99976497D01*
X226546480Y-100251274D01*
X226545745Y-100258264D01*
X224733869Y-100258264D01*
X224813353Y-100152089D01*
X224863598Y-100017376D01*
X224869717Y-99960457D01*
X224870000Y-99955181D01*
X224870000Y-99310000D01*
X223953686Y-99310000D01*
X223979493Y-99269844D01*
X224020000Y-99131889D01*
X224020000Y-98988111D01*
X223979493Y-98850156D01*
X223953686Y-98810000D01*
X224869999Y-98810000D01*
X224870000Y-98809999D01*
X224870000Y-98164818D01*
X224869717Y-98159542D01*
X224863598Y-98102623D01*
X224813353Y-97967910D01*
X224727188Y-97852811D01*
X224660988Y-97803253D01*
X224625735Y-97753244D01*
X224626500Y-97699669D01*
X224581971Y-97732262D01*
X224520786Y-97732478D01*
X224516451Y-97730975D01*
X224477376Y-97716401D01*
X224420457Y-97710282D01*
X224415181Y-97710000D01*
X223770001Y-97710000D01*
X223770000Y-97710001D01*
X223770000Y-98624498D01*
X223662315Y-98575320D01*
X223555763Y-98560000D01*
X223484237Y-98560000D01*
X223377685Y-98575320D01*
X223269999Y-98624498D01*
X223270000Y-97710001D01*
X223269999Y-97710000D01*
X222624819Y-97710000D01*
X222619542Y-97710282D01*
X222562623Y-97716401D01*
X222427910Y-97766646D01*
X222312811Y-97852811D01*
X222226646Y-97967910D01*
X222176401Y-98102623D01*
X222170282Y-98159542D01*
X222170000Y-98164818D01*
X222170000Y-98551009D01*
X222151093Y-98609200D01*
X222101593Y-98645164D01*
X222040407Y-98645164D01*
X221990907Y-98609200D01*
X221982379Y-98595137D01*
X221923089Y-98476067D01*
X221923088Y-98476066D01*
X221923088Y-98476065D01*
X221799732Y-98312715D01*
X221648462Y-98174814D01*
X221594300Y-98141278D01*
X221474429Y-98067057D01*
X221474427Y-98067056D01*
X221384774Y-98032324D01*
X221283553Y-97993110D01*
X221082349Y-97955500D01*
X221082347Y-97955500D01*
X220877653Y-97955500D01*
X220877651Y-97955500D01*
X220676446Y-97993110D01*
X220485570Y-98067057D01*
X220311540Y-98174812D01*
X220160270Y-98312713D01*
X220160268Y-98312715D01*
X220128110Y-98355299D01*
X220036910Y-98476067D01*
X219945673Y-98659296D01*
X219889655Y-98856179D01*
X219885369Y-98902437D01*
X219870768Y-99060000D01*
X219889655Y-99263821D01*
X219940578Y-99442799D01*
X219945673Y-99460703D01*
X220016847Y-99603640D01*
X220025860Y-99664158D01*
X219998230Y-99717772D01*
X217096975Y-102619028D01*
X217042458Y-102646805D01*
X217026971Y-102648024D01*
X215396259Y-102648024D01*
X215338068Y-102629117D01*
X215302104Y-102579617D01*
X215302104Y-102518431D01*
X215338062Y-102468936D01*
X215346240Y-102462993D01*
X215346241Y-102462993D01*
X215350688Y-102459761D01*
X215373405Y-102447426D01*
X215378540Y-102445456D01*
X215394719Y-102429275D01*
X215406526Y-102419192D01*
X215425034Y-102405746D01*
X215427783Y-102400983D01*
X215443512Y-102380482D01*
X217782340Y-100041654D01*
X217836856Y-100013879D01*
X217897288Y-100023450D01*
X217904459Y-100027488D01*
X217945571Y-100052943D01*
X217945573Y-100052944D01*
X217950501Y-100054853D01*
X218136446Y-100126889D01*
X218337651Y-100164500D01*
X218337653Y-100164500D01*
X218542349Y-100164500D01*
X218743553Y-100126889D01*
X218743556Y-100126888D01*
X218934427Y-100052944D01*
X219108462Y-99945186D01*
X219259732Y-99807285D01*
X219383088Y-99643935D01*
X219474328Y-99460701D01*
X219530345Y-99263821D01*
X219549232Y-99060000D01*
X219530345Y-98856179D01*
X219474328Y-98659299D01*
X219383088Y-98476065D01*
X219259732Y-98312715D01*
X219108462Y-98174814D01*
X219054300Y-98141278D01*
X218934429Y-98067057D01*
X218934427Y-98067056D01*
X218844774Y-98032324D01*
X218743553Y-97993110D01*
X218542349Y-97955500D01*
X218542347Y-97955500D01*
X218337653Y-97955500D01*
X218337651Y-97955500D01*
X218136446Y-97993110D01*
X217945570Y-98067057D01*
X217771540Y-98174812D01*
X217620270Y-98312713D01*
X217620268Y-98312715D01*
X217588110Y-98355299D01*
X217496910Y-98476067D01*
X217405673Y-98659296D01*
X217349655Y-98856179D01*
X217345369Y-98902437D01*
X217330768Y-99060000D01*
X217349655Y-99263821D01*
X217400578Y-99442799D01*
X217405673Y-99460703D01*
X217476847Y-99603640D01*
X217485860Y-99664158D01*
X217458230Y-99717772D01*
X215185075Y-101990928D01*
X215130558Y-102018705D01*
X215115071Y-102019924D01*
X207428926Y-102019924D01*
X207370735Y-102001017D01*
X207334771Y-101951517D01*
X207334771Y-101890331D01*
X207347451Y-101864686D01*
X207441385Y-101728599D01*
X207441388Y-101728592D01*
X207497749Y-101579982D01*
X207516907Y-101422200D01*
X207497749Y-101264418D01*
X207456935Y-101156803D01*
X207453980Y-101095692D01*
X207487510Y-101044512D01*
X207544720Y-101022816D01*
X207549503Y-101022700D01*
X214265021Y-101022700D01*
X214285337Y-101024807D01*
X214298600Y-101027588D01*
X214329043Y-101023793D01*
X214331716Y-101023460D01*
X214343961Y-101022700D01*
X214345644Y-101022700D01*
X214345645Y-101022700D01*
X214366775Y-101019173D01*
X214370770Y-101018591D01*
X214423488Y-101012020D01*
X214423489Y-101012019D01*
X214428475Y-101011398D01*
X214434117Y-101009590D01*
X214438534Y-101007199D01*
X214438537Y-101007199D01*
X214485211Y-100981939D01*
X214488839Y-100980072D01*
X214512720Y-100968397D01*
X214536554Y-100956746D01*
X214536555Y-100956744D01*
X214541067Y-100954539D01*
X214545814Y-100951000D01*
X214549219Y-100947300D01*
X214549222Y-100947299D01*
X214585172Y-100908245D01*
X214587957Y-100905341D01*
X215385030Y-100108268D01*
X215439545Y-100080493D01*
X215490795Y-100085959D01*
X215596446Y-100126889D01*
X215797651Y-100164500D01*
X215797653Y-100164500D01*
X216002349Y-100164500D01*
X216203553Y-100126889D01*
X216203556Y-100126888D01*
X216394427Y-100052944D01*
X216568462Y-99945186D01*
X216719732Y-99807285D01*
X216843088Y-99643935D01*
X216934328Y-99460701D01*
X216990345Y-99263821D01*
X217009232Y-99060000D01*
X216990345Y-98856179D01*
X216934328Y-98659299D01*
X216843088Y-98476065D01*
X216719732Y-98312715D01*
X216568462Y-98174814D01*
X216514300Y-98141278D01*
X216394429Y-98067057D01*
X216394427Y-98067056D01*
X216304774Y-98032324D01*
X216203553Y-97993110D01*
X216002349Y-97955500D01*
X216002347Y-97955500D01*
X215797653Y-97955500D01*
X215797651Y-97955500D01*
X215596446Y-97993110D01*
X215405570Y-98067057D01*
X215231540Y-98174812D01*
X215080270Y-98312713D01*
X215080268Y-98312715D01*
X215048110Y-98355299D01*
X214956910Y-98476067D01*
X214865673Y-98659296D01*
X214809655Y-98856179D01*
X214805369Y-98902437D01*
X214790768Y-99060000D01*
X214809655Y-99263821D01*
X214860578Y-99442799D01*
X214865673Y-99460703D01*
X214867271Y-99463912D01*
X214868023Y-99468962D01*
X214868183Y-99469524D01*
X214868109Y-99469544D01*
X214876284Y-99524430D01*
X214848654Y-99578043D01*
X214187196Y-100239503D01*
X214132679Y-100267281D01*
X214117192Y-100268500D01*
X213827617Y-100268500D01*
X213769426Y-100249593D01*
X213733462Y-100200093D01*
X213733462Y-100138907D01*
X213769426Y-100089407D01*
X213791854Y-100077185D01*
X213796136Y-100075526D01*
X213854427Y-100052944D01*
X214028462Y-99945186D01*
X214179732Y-99807285D01*
X214303088Y-99643935D01*
X214394328Y-99460701D01*
X214450345Y-99263821D01*
X214469232Y-99060000D01*
X214450345Y-98856179D01*
X214394328Y-98659299D01*
X214303088Y-98476065D01*
X214179732Y-98312715D01*
X214028462Y-98174814D01*
X213974300Y-98141278D01*
X213854429Y-98067057D01*
X213854427Y-98067056D01*
X213764774Y-98032324D01*
X213663553Y-97993110D01*
X213462349Y-97955500D01*
X213462347Y-97955500D01*
X213306279Y-97955500D01*
X213248088Y-97936593D01*
X213236275Y-97926504D01*
X212446165Y-97136394D01*
X211648428Y-96338656D01*
X211644879Y-96334916D01*
X211618045Y-96305114D01*
X211597145Y-96295808D01*
X211583498Y-96288398D01*
X211564310Y-96275938D01*
X211558872Y-96275077D01*
X211534101Y-96267739D01*
X211529072Y-96265500D01*
X211506195Y-96265500D01*
X211490707Y-96264281D01*
X211468116Y-96260702D01*
X211462801Y-96262127D01*
X211437180Y-96265500D01*
X209444036Y-96265500D01*
X209385845Y-96246593D01*
X209351470Y-96201607D01*
X209349762Y-96197106D01*
X209346387Y-96188205D01*
X209297237Y-96116999D01*
X209256100Y-96057401D01*
X209224289Y-96029219D01*
X209151310Y-95964564D01*
X209137127Y-95951999D01*
X208996394Y-95878137D01*
X208842071Y-95840100D01*
X208683129Y-95840100D01*
X208528805Y-95878137D01*
X208388072Y-95951999D01*
X208269101Y-96057399D01*
X208178813Y-96188203D01*
X208122450Y-96336820D01*
X208103292Y-96494600D01*
X208122450Y-96652379D01*
X208122450Y-96652381D01*
X208122451Y-96652382D01*
X208174937Y-96790776D01*
X208183076Y-96812235D01*
X208180522Y-96813203D01*
X208192903Y-96854692D01*
X208172596Y-96912409D01*
X208122241Y-96947166D01*
X208093932Y-96951300D01*
X202446575Y-96951300D01*
X202441394Y-96951164D01*
X202436460Y-96950905D01*
X202401360Y-96949066D01*
X202401359Y-96949066D01*
X202379999Y-96957264D01*
X202365116Y-96961672D01*
X202344878Y-96965975D01*
X202284028Y-96959583D01*
X202238555Y-96918645D01*
X202225831Y-96858798D01*
X202250714Y-96802901D01*
X202254286Y-96799136D01*
X202725504Y-96327919D01*
X202780020Y-96300142D01*
X202795507Y-96298923D01*
X203426064Y-96298923D01*
X203484255Y-96317830D01*
X203518630Y-96362816D01*
X203523713Y-96376218D01*
X203613999Y-96507021D01*
X203614001Y-96507023D01*
X203614002Y-96507024D01*
X203672331Y-96558699D01*
X203732972Y-96612423D01*
X203873705Y-96686285D01*
X203873707Y-96686286D01*
X204028029Y-96724323D01*
X204186971Y-96724323D01*
X204341293Y-96686286D01*
X204482029Y-96612422D01*
X204600998Y-96507024D01*
X204691287Y-96376218D01*
X204747649Y-96227605D01*
X204766807Y-96069823D01*
X204747649Y-95912041D01*
X204691287Y-95763428D01*
X204691195Y-95763295D01*
X204600998Y-95632622D01*
X204482027Y-95527222D01*
X204407219Y-95487960D01*
X204364480Y-95444176D01*
X204355639Y-95383633D01*
X204384073Y-95329456D01*
X204438921Y-95302339D01*
X204453226Y-95301300D01*
X208016693Y-95301300D01*
X208021873Y-95301435D01*
X208039105Y-95302339D01*
X208061906Y-95303534D01*
X208061906Y-95303533D01*
X208061907Y-95303534D01*
X208083261Y-95295336D01*
X208098156Y-95290924D01*
X208120533Y-95286169D01*
X208124982Y-95282935D01*
X208147697Y-95270602D01*
X208152832Y-95268632D01*
X208169011Y-95252451D01*
X208180818Y-95242368D01*
X208199326Y-95228922D01*
X208202075Y-95224159D01*
X208217804Y-95203658D01*
X208632388Y-94789074D01*
X208686903Y-94761299D01*
X208726081Y-94762956D01*
X208873263Y-94799234D01*
X209032205Y-94799234D01*
X209186527Y-94761197D01*
X209327263Y-94687333D01*
X209446232Y-94581935D01*
X209536521Y-94451129D01*
X209592883Y-94302516D01*
X209612041Y-94144734D01*
X209592883Y-93986952D01*
X209536521Y-93838339D01*
X209470057Y-93742050D01*
X209446232Y-93707533D01*
X209327262Y-93602134D01*
X209186564Y-93528290D01*
X209143826Y-93484506D01*
X209134985Y-93423963D01*
X209162566Y-93370628D01*
X209248750Y-93284444D01*
X209252471Y-93280914D01*
X209282286Y-93254070D01*
X209291589Y-93233173D01*
X209298993Y-93219535D01*
X209311462Y-93200336D01*
X209312322Y-93194902D01*
X209319666Y-93170113D01*
X209321900Y-93165096D01*
X209321900Y-93158038D01*
X209321899Y-93142222D01*
X209323118Y-93126732D01*
X209326697Y-93104141D01*
X209326369Y-93102917D01*
X209325273Y-93098824D01*
X209321900Y-93073204D01*
X209321900Y-90280503D01*
X209340807Y-90222312D01*
X209350890Y-90210506D01*
X209356646Y-90204749D01*
X209411160Y-90176966D01*
X209450347Y-90178622D01*
X209597529Y-90214900D01*
X209756471Y-90214900D01*
X209910793Y-90176863D01*
X209937892Y-90162640D01*
X209998205Y-90152339D01*
X210053053Y-90179456D01*
X210081487Y-90233633D01*
X210082900Y-90250300D01*
X210082900Y-91812398D01*
X210082764Y-91817580D01*
X210080665Y-91857613D01*
X210088863Y-91878970D01*
X210093274Y-91893862D01*
X210098030Y-91916239D01*
X210101267Y-91920694D01*
X210113595Y-91943400D01*
X210115568Y-91948539D01*
X210131748Y-91964720D01*
X210141831Y-91976525D01*
X210155278Y-91995033D01*
X210155279Y-91995034D01*
X210160040Y-91997783D01*
X210180543Y-92013514D01*
X210975310Y-92808282D01*
X211769571Y-93602543D01*
X211773120Y-93606283D01*
X211799955Y-93636086D01*
X211820844Y-93645386D01*
X211834497Y-93652798D01*
X211853689Y-93665262D01*
X211854742Y-93665428D01*
X211859122Y-93666123D01*
X211883906Y-93673464D01*
X211888928Y-93675700D01*
X211911804Y-93675700D01*
X211927291Y-93676919D01*
X211949882Y-93680497D01*
X211949882Y-93680496D01*
X211949883Y-93680497D01*
X211955197Y-93679073D01*
X211980820Y-93675700D01*
X214151764Y-93675700D01*
X214209955Y-93694607D01*
X214244330Y-93739593D01*
X214249413Y-93752995D01*
X214339699Y-93883798D01*
X214339701Y-93883800D01*
X214339702Y-93883801D01*
X214362276Y-93903800D01*
X214458672Y-93989200D01*
X214489539Y-94005400D01*
X214599407Y-94063063D01*
X214753729Y-94101100D01*
X214912671Y-94101100D01*
X215066993Y-94063063D01*
X215207729Y-93989199D01*
X215326698Y-93883801D01*
X215416987Y-93752995D01*
X215473349Y-93604382D01*
X215492507Y-93446600D01*
X215473349Y-93288818D01*
X215416987Y-93140205D01*
X215407687Y-93126732D01*
X215326698Y-93009399D01*
X215207727Y-92903999D01*
X215066994Y-92830137D01*
X214912671Y-92792100D01*
X214753729Y-92792100D01*
X214599405Y-92830137D01*
X214458672Y-92903999D01*
X214339699Y-93009401D01*
X214249413Y-93140204D01*
X214244330Y-93153607D01*
X214206016Y-93201311D01*
X214151764Y-93217500D01*
X213440879Y-93217500D01*
X213382688Y-93198593D01*
X213346724Y-93149093D01*
X213346724Y-93087907D01*
X213375229Y-93044398D01*
X213385807Y-93035025D01*
X213416478Y-93007854D01*
X213506767Y-92877048D01*
X213563129Y-92728435D01*
X213582287Y-92570653D01*
X213563129Y-92412871D01*
X213506767Y-92264258D01*
X213498848Y-92252786D01*
X213416478Y-92133452D01*
X213316794Y-92045139D01*
X213285776Y-91992399D01*
X213291682Y-91931499D01*
X213300969Y-91914798D01*
X213356523Y-91834314D01*
X213356522Y-91834314D01*
X213356524Y-91834313D01*
X213412886Y-91685700D01*
X213432044Y-91527918D01*
X213412886Y-91370136D01*
X213356524Y-91221523D01*
X213353350Y-91216925D01*
X213266235Y-91090717D01*
X213263248Y-91088071D01*
X213232228Y-91035332D01*
X213238132Y-90974432D01*
X213263243Y-90939866D01*
X213294698Y-90912001D01*
X213384987Y-90781195D01*
X213417297Y-90696000D01*
X213455610Y-90648298D01*
X213514646Y-90632224D01*
X213538844Y-90640033D01*
X213555437Y-90642660D01*
X213555438Y-90642661D01*
X213560870Y-90643521D01*
X213585651Y-90650861D01*
X213590678Y-90653100D01*
X213613555Y-90653100D01*
X213629042Y-90654319D01*
X213651633Y-90657897D01*
X213656948Y-90656473D01*
X213682570Y-90653100D01*
X217377564Y-90653100D01*
X217435755Y-90672007D01*
X217470130Y-90716993D01*
X217475213Y-90730395D01*
X217565499Y-90861198D01*
X217565501Y-90861200D01*
X217565502Y-90861201D01*
X217587512Y-90880700D01*
X217684472Y-90966600D01*
X217805662Y-91030205D01*
X217825207Y-91040463D01*
X217979529Y-91078500D01*
X218138471Y-91078500D01*
X218292793Y-91040463D01*
X218433529Y-90966599D01*
X218552498Y-90861201D01*
X218642787Y-90730395D01*
X218699149Y-90581782D01*
X218708339Y-90506086D01*
X218734122Y-90450601D01*
X218787596Y-90420866D01*
X218848335Y-90428240D01*
X218876621Y-90448017D01*
X222116137Y-93687533D01*
X222143914Y-93742050D01*
X222138700Y-93792642D01*
X222117851Y-93847618D01*
X222098692Y-94005400D01*
X222117850Y-94163179D01*
X222174213Y-94311796D01*
X222264501Y-94442600D01*
X222383472Y-94548000D01*
X222511325Y-94615102D01*
X222524207Y-94621863D01*
X222678529Y-94659900D01*
X222837471Y-94659900D01*
X222991793Y-94621863D01*
X223132529Y-94547999D01*
X223251498Y-94442601D01*
X223341787Y-94311795D01*
X223398149Y-94163182D01*
X223417307Y-94005400D01*
X223398149Y-93847618D01*
X223341787Y-93699005D01*
X223338751Y-93694607D01*
X223251498Y-93568199D01*
X223132527Y-93462799D01*
X222991794Y-93388937D01*
X222837471Y-93350900D01*
X222678529Y-93350900D01*
X222678527Y-93350900D01*
X222531349Y-93387176D01*
X222470324Y-93382744D01*
X222437653Y-93361057D01*
X220530197Y-91453601D01*
X218582653Y-89506056D01*
X218579104Y-89502316D01*
X218552270Y-89472514D01*
X218531370Y-89463208D01*
X218517723Y-89455798D01*
X218498535Y-89443338D01*
X218493097Y-89442477D01*
X218468326Y-89435139D01*
X218463297Y-89432900D01*
X218440420Y-89432900D01*
X218424932Y-89431681D01*
X218402341Y-89428102D01*
X218397026Y-89429527D01*
X218371405Y-89432900D01*
X215527904Y-89432900D01*
X215469713Y-89413993D01*
X215457900Y-89403904D01*
X212911798Y-86857801D01*
X212884021Y-86803284D01*
X212882802Y-86787797D01*
X212882802Y-83965874D01*
X212882938Y-83960692D01*
X212885036Y-83920661D01*
X212885036Y-83920660D01*
X212876838Y-83899305D01*
X212872427Y-83884412D01*
X212867671Y-83862034D01*
X212864434Y-83857579D01*
X212852106Y-83834873D01*
X212850134Y-83829735D01*
X212850132Y-83829733D01*
X212833955Y-83813555D01*
X212823868Y-83801745D01*
X212822567Y-83799955D01*
X212810424Y-83783241D01*
X212805658Y-83780489D01*
X212785158Y-83764759D01*
X212702325Y-83681926D01*
X220083000Y-83681926D01*
X220083001Y-83684556D01*
X220083282Y-83687172D01*
X220083283Y-83687187D01*
X220089299Y-83743156D01*
X220138741Y-83875714D01*
X220138742Y-83875715D01*
X220223526Y-83988974D01*
X220307980Y-84052195D01*
X220336785Y-84073758D01*
X220469342Y-84123200D01*
X220493167Y-84125761D01*
X220527943Y-84129500D01*
X221222056Y-84129499D01*
X221280657Y-84123200D01*
X221413215Y-84073758D01*
X221524455Y-83990485D01*
X221582368Y-83970749D01*
X221640823Y-83988823D01*
X221668042Y-84017766D01*
X221717552Y-84098034D01*
X221839462Y-84219944D01*
X221986199Y-84310453D01*
X222149850Y-84364681D01*
X222248333Y-84374742D01*
X222253382Y-84374999D01*
X222350000Y-84374999D01*
X222350000Y-84374998D01*
X222850000Y-84374998D01*
X222850001Y-84374999D01*
X222946615Y-84374999D01*
X222951650Y-84374742D01*
X223050152Y-84364680D01*
X223213800Y-84310453D01*
X223360537Y-84219944D01*
X223482444Y-84098037D01*
X223572953Y-83951300D01*
X223627181Y-83787649D01*
X223637242Y-83689167D01*
X223637500Y-83684116D01*
X223637500Y-83650001D01*
X223637499Y-83650000D01*
X222850001Y-83650000D01*
X222850000Y-83650001D01*
X222850000Y-84374998D01*
X222350000Y-84374998D01*
X222350000Y-83249000D01*
X222368907Y-83190809D01*
X222418407Y-83154845D01*
X222449000Y-83150000D01*
X223637498Y-83150000D01*
X223637499Y-83149999D01*
X223637499Y-83115884D01*
X223637242Y-83110849D01*
X223627180Y-83012347D01*
X223572953Y-82848699D01*
X223482444Y-82701962D01*
X223360535Y-82580053D01*
X223318850Y-82554341D01*
X223279250Y-82507699D01*
X223274627Y-82446689D01*
X223306749Y-82394613D01*
X223311459Y-82390856D01*
X223313974Y-82388974D01*
X223398758Y-82275715D01*
X223448200Y-82143157D01*
X223454500Y-82084557D01*
X223454499Y-81515444D01*
X223448200Y-81456843D01*
X223403365Y-81336637D01*
X223393784Y-81310949D01*
X223397436Y-81309586D01*
X223385791Y-81275401D01*
X223403872Y-81216948D01*
X223452858Y-81180287D01*
X223484781Y-81174999D01*
X223550000Y-81174999D01*
X223550000Y-79225000D01*
X223453385Y-79225000D01*
X223448348Y-79225257D01*
X223349846Y-79235319D01*
X223269790Y-79261847D01*
X223208605Y-79262203D01*
X223158897Y-79226527D01*
X223139652Y-79168448D01*
X223140371Y-79155952D01*
X223159307Y-79000000D01*
X223140149Y-78842218D01*
X223083787Y-78693605D01*
X222993498Y-78562799D01*
X222993498Y-78562798D01*
X222874527Y-78457399D01*
X222733794Y-78383537D01*
X222579471Y-78345500D01*
X222420529Y-78345500D01*
X222266205Y-78383537D01*
X222125472Y-78457399D01*
X222006501Y-78562799D01*
X221916213Y-78693603D01*
X221859850Y-78842220D01*
X221848278Y-78937531D01*
X221822495Y-78993019D01*
X221769021Y-79022754D01*
X221708281Y-79015379D01*
X221663477Y-78973710D01*
X221651722Y-78937531D01*
X221640149Y-78842220D01*
X221640149Y-78842218D01*
X221583787Y-78693605D01*
X221493498Y-78562799D01*
X221493498Y-78562798D01*
X221374527Y-78457399D01*
X221233794Y-78383537D01*
X221079471Y-78345500D01*
X220920529Y-78345500D01*
X220766205Y-78383537D01*
X220625472Y-78457399D01*
X220506501Y-78562799D01*
X220416213Y-78693603D01*
X220359850Y-78842220D01*
X220340692Y-79000000D01*
X220359850Y-79157779D01*
X220416213Y-79306396D01*
X220506501Y-79437200D01*
X220506502Y-79437201D01*
X220517932Y-79447327D01*
X220625469Y-79542598D01*
X220625471Y-79542599D01*
X220717909Y-79591114D01*
X220760646Y-79634896D01*
X220770900Y-79678773D01*
X220770900Y-80971500D01*
X220751993Y-81029691D01*
X220702493Y-81065655D01*
X220671901Y-81070500D01*
X220593091Y-81070500D01*
X220593072Y-81070500D01*
X220590444Y-81070501D01*
X220587829Y-81070781D01*
X220587811Y-81070783D01*
X220531843Y-81076799D01*
X220399285Y-81126241D01*
X220286026Y-81211026D01*
X220201241Y-81324285D01*
X220151799Y-81456842D01*
X220145782Y-81512812D01*
X220145781Y-81512827D01*
X220145500Y-81515443D01*
X220145500Y-81518088D01*
X220145500Y-81518089D01*
X220145500Y-82081908D01*
X220145500Y-82081926D01*
X220145501Y-82084556D01*
X220145782Y-82087172D01*
X220145783Y-82087187D01*
X220151799Y-82143156D01*
X220201241Y-82275714D01*
X220201242Y-82275715D01*
X220286026Y-82388974D01*
X220387035Y-82464588D01*
X220399285Y-82473758D01*
X220457807Y-82495586D01*
X220505722Y-82533637D01*
X220522119Y-82592584D01*
X220500737Y-82649912D01*
X220457808Y-82681102D01*
X220336784Y-82726242D01*
X220223526Y-82811026D01*
X220138741Y-82924285D01*
X220089299Y-83056842D01*
X220083282Y-83112812D01*
X220083281Y-83112827D01*
X220083000Y-83115443D01*
X220083000Y-83118088D01*
X220083000Y-83118089D01*
X220083000Y-83681908D01*
X220083000Y-83681926D01*
X212702325Y-83681926D01*
X212124525Y-83104126D01*
X212096748Y-83049609D01*
X212106319Y-82989177D01*
X212149584Y-82945912D01*
X212170833Y-82938000D01*
X212171393Y-82937863D01*
X212312129Y-82863999D01*
X212431098Y-82758601D01*
X212521387Y-82627795D01*
X212577749Y-82479182D01*
X212596907Y-82321400D01*
X212577749Y-82163618D01*
X212521387Y-82015005D01*
X212515799Y-82006910D01*
X212431098Y-81884199D01*
X212406943Y-81862799D01*
X212366419Y-81826898D01*
X212335402Y-81774159D01*
X212341308Y-81713259D01*
X212366422Y-81678694D01*
X212380298Y-81666401D01*
X212470587Y-81535595D01*
X212526949Y-81386982D01*
X212546107Y-81229200D01*
X212526949Y-81071418D01*
X212470587Y-80922805D01*
X212455878Y-80901496D01*
X212436230Y-80873030D01*
X212380298Y-80791999D01*
X212376884Y-80788974D01*
X212299650Y-80720550D01*
X212268631Y-80667810D01*
X212274537Y-80606911D01*
X212299646Y-80572349D01*
X212354898Y-80523401D01*
X212445187Y-80392595D01*
X212501549Y-80243982D01*
X212520707Y-80086200D01*
X212501549Y-79928418D01*
X212445187Y-79779805D01*
X212439056Y-79770923D01*
X212354898Y-79648999D01*
X212235927Y-79543599D01*
X212095194Y-79469737D01*
X211940871Y-79431700D01*
X211781929Y-79431700D01*
X211781927Y-79431700D01*
X211634749Y-79467976D01*
X211573724Y-79463544D01*
X211541053Y-79441857D01*
X208849701Y-76750504D01*
X208821924Y-76695987D01*
X208831495Y-76635555D01*
X208874760Y-76592290D01*
X208919705Y-76581500D01*
X213135764Y-76581500D01*
X213193955Y-76600407D01*
X213228330Y-76645393D01*
X213233413Y-76658795D01*
X213323699Y-76789598D01*
X213323701Y-76789600D01*
X213323702Y-76789601D01*
X213359836Y-76821613D01*
X213442672Y-76895000D01*
X213559089Y-76956100D01*
X213583407Y-76968863D01*
X213737729Y-77006900D01*
X213896671Y-77006900D01*
X214050993Y-76968863D01*
X214191729Y-76894999D01*
X214310698Y-76789601D01*
X214400987Y-76658795D01*
X214409873Y-76635363D01*
X214448185Y-76587658D01*
X214507221Y-76571584D01*
X214564431Y-76593279D01*
X214583915Y-76614229D01*
X214669901Y-76738800D01*
X214788872Y-76844200D01*
X214906276Y-76905818D01*
X214929607Y-76918063D01*
X215083929Y-76956100D01*
X215242871Y-76956100D01*
X215397193Y-76918063D01*
X215537929Y-76844199D01*
X215656898Y-76738801D01*
X215747187Y-76607995D01*
X215803549Y-76459382D01*
X215822707Y-76301600D01*
X215803549Y-76143818D01*
X215747187Y-75995205D01*
X215734036Y-75976153D01*
X215656898Y-75864399D01*
X215537927Y-75758999D01*
X215397194Y-75685137D01*
X215242871Y-75647100D01*
X215083929Y-75647100D01*
X215083927Y-75647100D01*
X214936748Y-75683376D01*
X214875723Y-75678944D01*
X214843052Y-75657256D01*
X214737997Y-75552201D01*
X214620262Y-75434465D01*
X214616713Y-75430726D01*
X214589870Y-75400914D01*
X214568970Y-75391608D01*
X214555323Y-75384198D01*
X214536135Y-75371738D01*
X214530697Y-75370877D01*
X214505926Y-75363539D01*
X214500897Y-75361300D01*
X214478020Y-75361300D01*
X214462532Y-75360081D01*
X214439941Y-75356502D01*
X214434626Y-75357927D01*
X214409005Y-75361300D01*
X208507292Y-75361300D01*
X208449101Y-75342393D01*
X208437288Y-75332303D01*
X208024697Y-74919711D01*
X207996920Y-74865195D01*
X208006491Y-74804763D01*
X208049756Y-74761498D01*
X208110188Y-74751927D01*
X208112864Y-74752389D01*
X208143416Y-74758100D01*
X208177652Y-74764500D01*
X208177653Y-74764500D01*
X208382349Y-74764500D01*
X208583553Y-74726889D01*
X208594356Y-74722704D01*
X208774427Y-74652944D01*
X208948462Y-74545186D01*
X209099732Y-74407285D01*
X209223088Y-74243935D01*
X209314328Y-74060701D01*
X209370345Y-73863821D01*
X209389232Y-73660000D01*
X209710768Y-73660000D01*
X209729655Y-73863821D01*
X209785672Y-74060701D01*
X209785673Y-74060703D01*
X209876910Y-74243932D01*
X209876911Y-74243933D01*
X209876912Y-74243935D01*
X210000268Y-74407285D01*
X210151538Y-74545186D01*
X210325573Y-74652944D01*
X210442165Y-74698112D01*
X210516446Y-74726889D01*
X210717651Y-74764500D01*
X210717653Y-74764500D01*
X210922349Y-74764500D01*
X211123553Y-74726889D01*
X211134356Y-74722704D01*
X211314427Y-74652944D01*
X211488462Y-74545186D01*
X211639732Y-74407285D01*
X211763088Y-74243935D01*
X211854328Y-74060701D01*
X211910345Y-73863821D01*
X211929232Y-73660000D01*
X212250768Y-73660000D01*
X212269655Y-73863821D01*
X212325672Y-74060701D01*
X212325673Y-74060703D01*
X212416910Y-74243932D01*
X212416911Y-74243933D01*
X212416912Y-74243935D01*
X212540268Y-74407285D01*
X212691538Y-74545186D01*
X212865573Y-74652944D01*
X212982165Y-74698112D01*
X213056446Y-74726889D01*
X213257651Y-74764500D01*
X213257653Y-74764500D01*
X213462349Y-74764500D01*
X213663553Y-74726889D01*
X213674356Y-74722704D01*
X213854427Y-74652944D01*
X214028462Y-74545186D01*
X214179732Y-74407285D01*
X214303088Y-74243935D01*
X214394328Y-74060701D01*
X214450345Y-73863821D01*
X214469232Y-73660000D01*
X214450345Y-73456179D01*
X214394328Y-73259299D01*
X214303088Y-73076065D01*
X214179732Y-72912715D01*
X214028462Y-72774814D01*
X213983436Y-72746935D01*
X213854429Y-72667057D01*
X213854427Y-72667056D01*
X213769557Y-72634177D01*
X213663553Y-72593110D01*
X213462349Y-72555500D01*
X213462347Y-72555500D01*
X213257653Y-72555500D01*
X213257651Y-72555500D01*
X213056446Y-72593110D01*
X212865570Y-72667057D01*
X212691540Y-72774812D01*
X212540269Y-72912714D01*
X212540268Y-72912715D01*
X212511552Y-72950741D01*
X212416910Y-73076067D01*
X212325673Y-73259296D01*
X212325672Y-73259299D01*
X212269655Y-73456179D01*
X212250768Y-73660000D01*
X211929232Y-73660000D01*
X211910345Y-73456179D01*
X211854328Y-73259299D01*
X211763088Y-73076065D01*
X211639732Y-72912715D01*
X211488462Y-72774814D01*
X211443436Y-72746935D01*
X211314429Y-72667057D01*
X211314427Y-72667056D01*
X211229557Y-72634177D01*
X211123553Y-72593110D01*
X210922349Y-72555500D01*
X210922347Y-72555500D01*
X210717653Y-72555500D01*
X210717651Y-72555500D01*
X210516446Y-72593110D01*
X210325570Y-72667057D01*
X210151540Y-72774812D01*
X210000269Y-72912714D01*
X210000268Y-72912715D01*
X209971552Y-72950741D01*
X209876910Y-73076067D01*
X209785673Y-73259296D01*
X209785672Y-73259299D01*
X209742316Y-73411679D01*
X209729655Y-73456179D01*
X209722389Y-73534596D01*
X209710768Y-73660000D01*
X209389232Y-73660000D01*
X209370345Y-73456179D01*
X209314328Y-73259299D01*
X209223088Y-73076065D01*
X209099732Y-72912715D01*
X208948462Y-72774814D01*
X208903436Y-72746935D01*
X208774429Y-72667057D01*
X208774427Y-72667056D01*
X208689557Y-72634177D01*
X208583553Y-72593110D01*
X208382349Y-72555500D01*
X208382347Y-72555500D01*
X208177653Y-72555500D01*
X208177651Y-72555500D01*
X207976446Y-72593110D01*
X207785570Y-72667057D01*
X207611540Y-72774812D01*
X207460269Y-72912714D01*
X207460268Y-72912715D01*
X207431552Y-72950741D01*
X207336910Y-73076067D01*
X207245673Y-73259296D01*
X207245672Y-73259299D01*
X207189655Y-73456179D01*
X207170768Y-73660000D01*
X207189655Y-73863821D01*
X207245672Y-74060701D01*
X207245673Y-74060703D01*
X207336910Y-74243932D01*
X207336911Y-74243933D01*
X207336912Y-74243935D01*
X207460268Y-74407285D01*
X207611538Y-74545186D01*
X207611540Y-74545187D01*
X207650850Y-74569527D01*
X207690371Y-74616235D01*
X207694890Y-74677254D01*
X207662680Y-74729275D01*
X207606044Y-74752428D01*
X207598733Y-74752698D01*
X206421267Y-74752698D01*
X206363076Y-74733791D01*
X206327112Y-74684291D01*
X206327112Y-74623105D01*
X206363076Y-74573605D01*
X206369150Y-74569527D01*
X206370035Y-74568978D01*
X206408462Y-74545186D01*
X206559732Y-74407285D01*
X206683088Y-74243935D01*
X206774328Y-74060701D01*
X206830345Y-73863821D01*
X206849232Y-73660000D01*
X206830345Y-73456179D01*
X206774328Y-73259299D01*
X206683088Y-73076065D01*
X206559732Y-72912715D01*
X206408462Y-72774814D01*
X206363436Y-72746935D01*
X206234429Y-72667057D01*
X206234427Y-72667056D01*
X206149557Y-72634177D01*
X206043553Y-72593110D01*
X205842349Y-72555500D01*
X205842347Y-72555500D01*
X205637653Y-72555500D01*
X205637651Y-72555500D01*
X205436446Y-72593110D01*
X205245570Y-72667057D01*
X205071540Y-72774812D01*
X204920269Y-72912714D01*
X204920268Y-72912715D01*
X204891552Y-72950741D01*
X204796910Y-73076067D01*
X204705673Y-73259296D01*
X204705672Y-73259299D01*
X204662316Y-73411679D01*
X204649655Y-73456179D01*
X204630611Y-73661694D01*
X204606415Y-73717892D01*
X204553807Y-73749135D01*
X204492883Y-73743489D01*
X204462029Y-73722563D01*
X204237867Y-73498401D01*
X203811723Y-73072256D01*
X203808174Y-73068516D01*
X203781340Y-73038714D01*
X203760440Y-73029408D01*
X203746793Y-73021998D01*
X203727605Y-73009538D01*
X203722167Y-73008677D01*
X203697396Y-73001339D01*
X203692367Y-72999100D01*
X203669490Y-72999100D01*
X203654002Y-72997881D01*
X203631411Y-72994302D01*
X203626096Y-72995727D01*
X203600475Y-72999100D01*
X203017836Y-72999100D01*
X202959645Y-72980193D01*
X202925270Y-72935207D01*
X202923562Y-72930706D01*
X202920187Y-72921805D01*
X202844809Y-72812601D01*
X202829900Y-72791001D01*
X202710927Y-72685599D01*
X202570194Y-72611737D01*
X202415871Y-72573700D01*
X202256929Y-72573700D01*
X202102605Y-72611737D01*
X201961872Y-72685599D01*
X201842901Y-72790999D01*
X201752613Y-72921803D01*
X201696250Y-73070420D01*
X201677092Y-73228200D01*
X201696250Y-73385979D01*
X201696250Y-73385981D01*
X201696251Y-73385982D01*
X201696933Y-73387779D01*
X201752613Y-73534596D01*
X201815779Y-73626107D01*
X201842902Y-73665401D01*
X201843614Y-73666032D01*
X201961872Y-73770800D01*
X202099819Y-73843200D01*
X202102607Y-73844663D01*
X202256929Y-73882700D01*
X202415871Y-73882700D01*
X202570193Y-73844663D01*
X202710929Y-73770799D01*
X202829898Y-73665401D01*
X202920187Y-73534595D01*
X202925269Y-73521193D01*
X202963584Y-73473489D01*
X203017836Y-73457300D01*
X203507766Y-73457300D01*
X203565957Y-73476207D01*
X203577770Y-73486296D01*
X205030767Y-74939294D01*
X205058544Y-74993811D01*
X205048973Y-75054243D01*
X205005708Y-75097508D01*
X204960763Y-75108298D01*
X204203406Y-75108298D01*
X204145215Y-75089391D01*
X204109251Y-75039891D01*
X204105128Y-74997366D01*
X204113307Y-74930000D01*
X204098567Y-74808603D01*
X204094149Y-74772218D01*
X204037787Y-74623605D01*
X204003274Y-74573605D01*
X203947498Y-74492799D01*
X203828527Y-74387399D01*
X203687794Y-74313537D01*
X203533471Y-74275500D01*
X203374529Y-74275500D01*
X203220205Y-74313537D01*
X203079472Y-74387399D01*
X202960501Y-74492799D01*
X202863384Y-74633498D01*
X202860573Y-74631558D01*
X202834805Y-74663639D01*
X202775768Y-74679710D01*
X202718560Y-74658010D01*
X202699081Y-74637065D01*
X202652098Y-74568999D01*
X202533127Y-74463599D01*
X202392394Y-74389737D01*
X202238071Y-74351700D01*
X202079129Y-74351700D01*
X201924805Y-74389737D01*
X201784072Y-74463599D01*
X201665101Y-74568999D01*
X201574813Y-74699803D01*
X201518450Y-74848420D01*
X201499292Y-75006200D01*
X201518450Y-75163979D01*
X201518450Y-75163981D01*
X201518451Y-75163982D01*
X201559713Y-75272781D01*
X201579076Y-75323835D01*
X201576873Y-75324670D01*
X201589592Y-75367288D01*
X201569285Y-75425005D01*
X201518932Y-75459764D01*
X201490621Y-75463898D01*
X201222890Y-75463898D01*
X201164699Y-75444991D01*
X201152886Y-75434902D01*
X200497822Y-74779838D01*
X199832140Y-74114155D01*
X199828591Y-74110415D01*
X199801757Y-74080613D01*
X199796937Y-74078467D01*
X199780857Y-74071307D01*
X199767210Y-74063897D01*
X199748022Y-74051437D01*
X199742584Y-74050576D01*
X199717813Y-74043238D01*
X199712784Y-74040999D01*
X199689907Y-74040999D01*
X199674419Y-74039780D01*
X199651828Y-74036201D01*
X199646513Y-74037626D01*
X199620892Y-74040999D01*
X195311701Y-74040999D01*
X195253510Y-74022092D01*
X195241697Y-74012003D01*
X194901061Y-73671367D01*
X194873284Y-73616850D01*
X194878498Y-73566260D01*
X194899349Y-73511284D01*
X194918507Y-73353502D01*
X194899349Y-73195720D01*
X194842987Y-73047107D01*
X194839108Y-73041488D01*
X194752698Y-72916301D01*
X194633727Y-72810901D01*
X194492994Y-72737039D01*
X194338671Y-72699002D01*
X194179729Y-72699002D01*
X194025405Y-72737039D01*
X193884672Y-72810901D01*
X193756705Y-72924272D01*
X193755082Y-72922440D01*
X193719957Y-72949272D01*
X193658789Y-72950741D01*
X193620296Y-72924162D01*
X193618695Y-72925970D01*
X193603733Y-72912715D01*
X193490729Y-72812601D01*
X193490728Y-72812600D01*
X193349550Y-72738504D01*
X193306812Y-72694720D01*
X193297971Y-72634177D01*
X193325552Y-72580842D01*
X194219502Y-71686892D01*
X194223223Y-71683362D01*
X194253038Y-71656518D01*
X194262345Y-71635612D01*
X194266479Y-71628000D01*
X201575492Y-71628000D01*
X201594650Y-71785779D01*
X201651013Y-71934396D01*
X201741301Y-72065200D01*
X201860272Y-72170600D01*
X201973766Y-72230166D01*
X202001007Y-72244463D01*
X202155329Y-72282500D01*
X202314271Y-72282500D01*
X202468593Y-72244463D01*
X202609329Y-72170599D01*
X202728298Y-72065201D01*
X202818587Y-71934395D01*
X202874949Y-71785782D01*
X202894107Y-71628000D01*
X202874949Y-71470218D01*
X202818587Y-71321605D01*
X202791424Y-71282253D01*
X202728298Y-71190799D01*
X202609327Y-71085399D01*
X202468594Y-71011537D01*
X202314271Y-70973500D01*
X202155329Y-70973500D01*
X202001005Y-71011537D01*
X201860272Y-71085399D01*
X201741301Y-71190799D01*
X201651013Y-71321603D01*
X201594650Y-71470220D01*
X201575492Y-71628000D01*
X194266479Y-71628000D01*
X194269756Y-71621966D01*
X194271037Y-71619994D01*
X194282213Y-71602785D01*
X194283073Y-71597353D01*
X194290415Y-71572566D01*
X194292652Y-71567545D01*
X194292651Y-71544670D01*
X194293870Y-71529179D01*
X194297449Y-71506590D01*
X194297121Y-71505366D01*
X194296025Y-71501273D01*
X194292652Y-71475653D01*
X194292652Y-71282253D01*
X194311559Y-71224062D01*
X194345641Y-71194595D01*
X194438081Y-71146079D01*
X194557050Y-71040681D01*
X194647339Y-70909875D01*
X194703701Y-70761262D01*
X194722859Y-70603480D01*
X194703701Y-70445698D01*
X194663077Y-70338584D01*
X194660122Y-70277472D01*
X194693653Y-70226292D01*
X194750862Y-70204596D01*
X194755645Y-70204480D01*
X219490172Y-70204480D01*
X219548363Y-70223387D01*
X219560176Y-70233476D01*
X221551973Y-72225273D01*
X221579750Y-72279790D01*
X221570179Y-72340222D01*
X221526914Y-72383487D01*
X221466482Y-72393058D01*
X221451912Y-72388603D01*
X221451857Y-72388811D01*
X221230000Y-72329364D01*
X221230000Y-73224498D01*
X221122315Y-73175320D01*
X221015763Y-73160000D01*
X220944237Y-73160000D01*
X220837685Y-73175320D01*
X220730000Y-73224498D01*
X220730000Y-72329364D01*
X220516505Y-72386570D01*
X220302424Y-72486398D01*
X220108925Y-72621887D01*
X219941887Y-72788925D01*
X219806396Y-72982426D01*
X219799721Y-72996741D01*
X219757991Y-73041488D01*
X219697929Y-73053159D01*
X219642478Y-73027299D01*
X219620273Y-72996735D01*
X219613597Y-72982418D01*
X219478112Y-72788925D01*
X219311074Y-72621887D01*
X219117576Y-72486398D01*
X218903495Y-72386570D01*
X218690000Y-72329364D01*
X218690000Y-73224498D01*
X218582315Y-73175320D01*
X218475763Y-73160000D01*
X218404237Y-73160000D01*
X218297685Y-73175320D01*
X218190000Y-73224498D01*
X218190000Y-72329364D01*
X217976505Y-72386570D01*
X217762424Y-72486398D01*
X217568925Y-72621887D01*
X217401887Y-72788925D01*
X217266398Y-72982424D01*
X217166570Y-73196503D01*
X217138031Y-73303014D01*
X217104706Y-73354328D01*
X217047585Y-73376254D01*
X216988484Y-73360418D01*
X216949979Y-73312868D01*
X216947187Y-73304494D01*
X216934328Y-73259299D01*
X216843088Y-73076065D01*
X216719732Y-72912715D01*
X216568462Y-72774814D01*
X216523436Y-72746935D01*
X216394429Y-72667057D01*
X216394427Y-72667056D01*
X216309557Y-72634177D01*
X216203553Y-72593110D01*
X216002349Y-72555500D01*
X216002347Y-72555500D01*
X215797653Y-72555500D01*
X215797651Y-72555500D01*
X215596446Y-72593110D01*
X215405570Y-72667057D01*
X215231540Y-72774812D01*
X215080269Y-72912714D01*
X215080268Y-72912715D01*
X215051552Y-72950741D01*
X214956910Y-73076067D01*
X214865673Y-73259296D01*
X214865672Y-73259299D01*
X214809655Y-73456179D01*
X214790768Y-73660000D01*
X214809655Y-73863821D01*
X214865672Y-74060701D01*
X214865673Y-74060703D01*
X214956910Y-74243932D01*
X214956911Y-74243933D01*
X214956912Y-74243935D01*
X215080268Y-74407285D01*
X215231538Y-74545186D01*
X215405573Y-74652944D01*
X215522165Y-74698112D01*
X215596446Y-74726889D01*
X215797651Y-74764500D01*
X215797653Y-74764500D01*
X216002349Y-74764500D01*
X216203553Y-74726889D01*
X216214356Y-74722704D01*
X216394427Y-74652944D01*
X216568462Y-74545186D01*
X216719732Y-74407285D01*
X216843088Y-74243935D01*
X216934328Y-74060701D01*
X216947184Y-74015514D01*
X216981293Y-73964722D01*
X217038745Y-73943677D01*
X217097595Y-73960420D01*
X217135363Y-74008557D01*
X217138031Y-74016986D01*
X217166570Y-74123494D01*
X217266398Y-74337576D01*
X217401887Y-74531074D01*
X217568925Y-74698112D01*
X217762423Y-74833601D01*
X217976504Y-74933429D01*
X218190000Y-74990634D01*
X218190000Y-74095501D01*
X218297685Y-74144680D01*
X218404237Y-74160000D01*
X218475763Y-74160000D01*
X218582315Y-74144680D01*
X218690000Y-74095501D01*
X218690000Y-74990633D01*
X218903495Y-74933429D01*
X219117576Y-74833601D01*
X219311074Y-74698112D01*
X219478112Y-74531074D01*
X219613598Y-74337581D01*
X219620275Y-74323263D01*
X219662003Y-74278515D01*
X219722064Y-74266840D01*
X219777517Y-74292698D01*
X219799725Y-74323263D01*
X219806401Y-74337581D01*
X219941887Y-74531074D01*
X220108925Y-74698112D01*
X220302423Y-74833601D01*
X220516504Y-74933429D01*
X220730000Y-74990634D01*
X220730000Y-74095501D01*
X220837685Y-74144680D01*
X220944237Y-74160000D01*
X221015763Y-74160000D01*
X221122315Y-74144680D01*
X221230000Y-74095501D01*
X221230000Y-74990633D01*
X221443495Y-74933429D01*
X221657576Y-74833601D01*
X221851074Y-74698112D01*
X222018112Y-74531074D01*
X222153598Y-74337581D01*
X222226775Y-74180652D01*
X222268504Y-74135904D01*
X222328565Y-74124229D01*
X222384018Y-74150087D01*
X222413681Y-74203601D01*
X222415500Y-74222491D01*
X222415500Y-74535065D01*
X222424974Y-74582696D01*
X222430266Y-74609301D01*
X222486516Y-74693484D01*
X222570699Y-74749734D01*
X222644933Y-74764500D01*
X224395066Y-74764499D01*
X224469301Y-74749734D01*
X224553484Y-74693484D01*
X224609734Y-74609301D01*
X224624500Y-74535067D01*
X224624499Y-72784934D01*
X224609734Y-72710699D01*
X224553484Y-72626516D01*
X224546556Y-72621887D01*
X224469301Y-72570266D01*
X224395067Y-72555500D01*
X224395066Y-72555500D01*
X222989808Y-72555500D01*
X222931617Y-72536593D01*
X222919804Y-72526504D01*
X222711564Y-72318264D01*
X226545745Y-72318264D01*
X226545865Y-72321709D01*
X226545865Y-72321718D01*
X226555632Y-72601414D01*
X226555633Y-72601423D01*
X226555753Y-72604859D01*
X226556349Y-72608243D01*
X226556351Y-72608255D01*
X226601341Y-72863401D01*
X226605550Y-72887272D01*
X226606615Y-72890552D01*
X226606616Y-72890553D01*
X226693101Y-73156727D01*
X226693103Y-73156734D01*
X226694167Y-73160006D01*
X226695677Y-73163103D01*
X226695678Y-73163104D01*
X226816916Y-73411679D01*
X226819879Y-73417753D01*
X226821813Y-73420620D01*
X226821814Y-73420622D01*
X226978305Y-73652631D01*
X226978308Y-73652636D01*
X226980238Y-73655496D01*
X226982550Y-73658063D01*
X226982551Y-73658065D01*
X227149247Y-73843200D01*
X227172125Y-73868608D01*
X227391803Y-74052940D01*
X227634998Y-74204905D01*
X227896975Y-74321545D01*
X228172636Y-74400589D01*
X228456615Y-74440500D01*
X228460070Y-74440500D01*
X228669870Y-74440500D01*
X228671604Y-74440500D01*
X228886071Y-74425503D01*
X229166575Y-74365880D01*
X229436050Y-74267799D01*
X229689253Y-74133169D01*
X229921254Y-73964610D01*
X230127539Y-73765403D01*
X230304093Y-73539425D01*
X230447477Y-73291075D01*
X230554903Y-73025187D01*
X230624279Y-72746935D01*
X230654255Y-72461736D01*
X230644247Y-72175141D01*
X230594450Y-71892728D01*
X230505833Y-71619994D01*
X230380121Y-71362247D01*
X230251585Y-71171683D01*
X230221694Y-71127368D01*
X230221692Y-71127365D01*
X230219762Y-71124504D01*
X230214265Y-71118399D01*
X230030191Y-70913964D01*
X230030189Y-70913962D01*
X230027875Y-70911392D01*
X229808197Y-70727060D01*
X229792499Y-70717251D01*
X229567929Y-70576924D01*
X229565002Y-70575095D01*
X229467037Y-70531478D01*
X229306175Y-70459857D01*
X229306169Y-70459854D01*
X229303025Y-70458455D01*
X229299711Y-70457504D01*
X229299709Y-70457504D01*
X229030684Y-70380363D01*
X229027364Y-70379411D01*
X229023951Y-70378931D01*
X229023945Y-70378930D01*
X228746803Y-70339980D01*
X228746797Y-70339979D01*
X228743385Y-70339500D01*
X228528396Y-70339500D01*
X228526691Y-70339619D01*
X228526668Y-70339620D01*
X228317378Y-70354255D01*
X228317366Y-70354256D01*
X228313929Y-70354497D01*
X228310559Y-70355213D01*
X228310547Y-70355215D01*
X228036798Y-70413402D01*
X228036783Y-70413406D01*
X228033425Y-70414120D01*
X228030192Y-70415296D01*
X228030184Y-70415299D01*
X227767199Y-70511018D01*
X227767193Y-70511020D01*
X227763950Y-70512201D01*
X227760905Y-70513819D01*
X227760896Y-70513824D01*
X227513797Y-70645208D01*
X227513783Y-70645216D01*
X227510747Y-70646831D01*
X227507958Y-70648856D01*
X227507952Y-70648861D01*
X227281534Y-70813364D01*
X227281530Y-70813366D01*
X227278746Y-70815390D01*
X227276271Y-70817779D01*
X227276265Y-70817785D01*
X227074943Y-71012199D01*
X227074934Y-71012207D01*
X227072461Y-71014597D01*
X227070340Y-71017311D01*
X227070337Y-71017315D01*
X226898032Y-71237854D01*
X226898026Y-71237862D01*
X226895907Y-71240575D01*
X226894187Y-71243553D01*
X226894181Y-71243563D01*
X226757281Y-71480683D01*
X226752523Y-71488925D01*
X226751231Y-71492121D01*
X226751224Y-71492137D01*
X226646401Y-71751585D01*
X226645097Y-71754813D01*
X226644262Y-71758160D01*
X226644258Y-71758174D01*
X226576556Y-72029712D01*
X226576553Y-72029725D01*
X226575721Y-72033065D01*
X226575360Y-72036493D01*
X226575360Y-72036497D01*
X226549789Y-72279790D01*
X226545745Y-72318264D01*
X222711564Y-72318264D01*
X220793300Y-70400000D01*
X221940692Y-70400000D01*
X221959850Y-70557779D01*
X222016213Y-70706396D01*
X222106501Y-70837200D01*
X222225472Y-70942600D01*
X222359609Y-71013000D01*
X222366207Y-71016463D01*
X222520529Y-71054500D01*
X222679471Y-71054500D01*
X222833793Y-71016463D01*
X222974529Y-70942599D01*
X223093498Y-70837201D01*
X223183787Y-70706395D01*
X223240149Y-70557782D01*
X223259307Y-70400000D01*
X223240149Y-70242218D01*
X223183787Y-70093605D01*
X223127373Y-70011876D01*
X223093498Y-69962799D01*
X222974527Y-69857399D01*
X222833794Y-69783537D01*
X222679471Y-69745500D01*
X222520529Y-69745500D01*
X222366205Y-69783537D01*
X222225472Y-69857399D01*
X222106501Y-69962799D01*
X222016213Y-70093603D01*
X221959850Y-70242220D01*
X221940692Y-70400000D01*
X220793300Y-70400000D01*
X219988942Y-69595642D01*
X219976066Y-69579785D01*
X219968657Y-69568445D01*
X219942329Y-69547953D01*
X219933137Y-69539837D01*
X219931936Y-69538636D01*
X219930113Y-69537334D01*
X219914506Y-69526190D01*
X219911229Y-69523747D01*
X219865380Y-69488062D01*
X219860102Y-69485345D01*
X219804422Y-69468768D01*
X219800528Y-69467520D01*
X219745562Y-69448650D01*
X219730366Y-69446436D01*
X219724680Y-69448415D01*
X219697968Y-69449520D01*
X219681648Y-69450195D01*
X219677558Y-69450280D01*
X179091193Y-69450280D01*
X179070878Y-69448173D01*
X179062386Y-69446392D01*
X179054156Y-69441671D01*
X179038791Y-69447739D01*
X179033375Y-69448415D01*
X179024510Y-69449520D01*
X179012265Y-69450280D01*
X179010573Y-69450280D01*
X178989457Y-69453803D01*
X178985412Y-69454393D01*
X178927763Y-69461579D01*
X178922087Y-69463398D01*
X178917683Y-69465780D01*
X178917683Y-69465781D01*
X178870983Y-69491053D01*
X178867364Y-69492915D01*
X178815170Y-69518431D01*
X178810387Y-69521997D01*
X178771059Y-69564718D01*
X178768228Y-69567670D01*
X172909214Y-75426684D01*
X172854697Y-75454461D01*
X172794265Y-75444890D01*
X172751000Y-75401625D01*
X172741429Y-75341193D01*
X172746642Y-75321580D01*
X172765149Y-75272782D01*
X172784307Y-75115000D01*
X172765149Y-74957218D01*
X172708787Y-74808605D01*
X172688487Y-74779196D01*
X172618498Y-74677799D01*
X172499527Y-74572399D01*
X172358793Y-74498537D01*
X172260148Y-74474223D01*
X172208173Y-74441939D01*
X172185100Y-74385271D01*
X172199743Y-74325863D01*
X172246508Y-74286409D01*
X172283840Y-74279100D01*
X172401425Y-74279100D01*
X172406605Y-74279235D01*
X172425792Y-74280241D01*
X172446638Y-74281334D01*
X172446638Y-74281333D01*
X172446639Y-74281334D01*
X172467993Y-74273136D01*
X172482888Y-74268724D01*
X172505265Y-74263969D01*
X172509714Y-74260735D01*
X172532429Y-74248402D01*
X172537564Y-74246432D01*
X172553743Y-74230251D01*
X172565550Y-74220168D01*
X172584058Y-74206722D01*
X172586807Y-74201959D01*
X172602536Y-74181458D01*
X175563855Y-71220140D01*
X175618370Y-71192365D01*
X175657547Y-71194022D01*
X175804729Y-71230300D01*
X175963671Y-71230300D01*
X176117993Y-71192263D01*
X176258729Y-71118399D01*
X176377698Y-71013001D01*
X176467987Y-70882195D01*
X176524349Y-70733582D01*
X176543507Y-70575800D01*
X176524349Y-70418018D01*
X176467987Y-70269405D01*
X176455282Y-70250999D01*
X176377698Y-70138599D01*
X176258727Y-70033199D01*
X176117994Y-69959337D01*
X175963671Y-69921300D01*
X175804729Y-69921300D01*
X175650405Y-69959337D01*
X175509672Y-70033199D01*
X175390701Y-70138599D01*
X175300413Y-70269403D01*
X175244050Y-70418020D01*
X175224892Y-70575800D01*
X175244050Y-70733579D01*
X175244050Y-70733581D01*
X175244051Y-70733582D01*
X175262338Y-70781801D01*
X175264900Y-70788555D01*
X175267856Y-70849669D01*
X175242337Y-70893665D01*
X172344099Y-73791904D01*
X172289582Y-73819681D01*
X172274095Y-73820900D01*
X167506036Y-73820900D01*
X167447845Y-73801993D01*
X167411881Y-73752493D01*
X167411881Y-73691307D01*
X167424561Y-73665661D01*
X167509818Y-73542145D01*
X167513787Y-73536395D01*
X167570149Y-73387782D01*
X167589307Y-73230000D01*
X167570149Y-73072218D01*
X167513787Y-72923605D01*
X167512543Y-72921803D01*
X167423498Y-72792799D01*
X167304528Y-72687400D01*
X167212092Y-72638886D01*
X167169354Y-72595102D01*
X167159100Y-72551226D01*
X167159100Y-72520400D01*
X167639534Y-72520400D01*
X167639875Y-72522993D01*
X167659312Y-72670635D01*
X167717302Y-72810633D01*
X167809548Y-72930851D01*
X167892241Y-72994303D01*
X167929767Y-73023098D01*
X168069764Y-73081087D01*
X168182280Y-73095900D01*
X168185521Y-73095900D01*
X168254479Y-73095900D01*
X168257720Y-73095900D01*
X168370236Y-73081087D01*
X168510233Y-73023098D01*
X168630451Y-72930851D01*
X168722698Y-72810633D01*
X168780687Y-72670636D01*
X168797809Y-72540581D01*
X169570000Y-72540581D01*
X169570282Y-72545857D01*
X169576401Y-72602776D01*
X169626646Y-72737489D01*
X169712811Y-72852588D01*
X169827910Y-72938753D01*
X169962623Y-72988998D01*
X170019542Y-72995117D01*
X170024819Y-72995400D01*
X170544999Y-72995400D01*
X170545000Y-72995399D01*
X170545000Y-72245401D01*
X170544999Y-72245400D01*
X171045000Y-72245400D01*
X171045000Y-72995399D01*
X171045001Y-72995400D01*
X171565181Y-72995400D01*
X171570457Y-72995117D01*
X171627376Y-72988998D01*
X171762089Y-72938753D01*
X171877188Y-72852588D01*
X171963353Y-72737489D01*
X172013598Y-72602776D01*
X172019717Y-72545857D01*
X172020000Y-72540581D01*
X172020000Y-72245401D01*
X172019999Y-72245400D01*
X171045000Y-72245400D01*
X170544999Y-72245400D01*
X169570001Y-72245400D01*
X169570000Y-72245401D01*
X169570000Y-72540581D01*
X168797809Y-72540581D01*
X168800466Y-72520400D01*
X168780687Y-72370164D01*
X168722698Y-72230167D01*
X168677868Y-72171744D01*
X168630451Y-72109948D01*
X168510233Y-72017702D01*
X168370235Y-71959712D01*
X168260933Y-71945323D01*
X168257720Y-71944900D01*
X168182280Y-71944900D01*
X168179067Y-71945322D01*
X168179066Y-71945323D01*
X168069764Y-71959712D01*
X167929766Y-72017702D01*
X167809548Y-72109948D01*
X167717302Y-72230166D01*
X167659312Y-72370164D01*
X167645709Y-72473493D01*
X167639534Y-72520400D01*
X167159100Y-72520400D01*
X167159100Y-71588974D01*
X167159236Y-71583792D01*
X167159825Y-71572563D01*
X167161334Y-71543760D01*
X167153137Y-71522405D01*
X167148725Y-71507510D01*
X167143969Y-71485135D01*
X167140732Y-71480680D01*
X167128403Y-71457970D01*
X167126432Y-71452836D01*
X167118538Y-71444942D01*
X167110253Y-71436656D01*
X167100166Y-71424846D01*
X167096874Y-71420315D01*
X167086722Y-71406342D01*
X167081956Y-71403590D01*
X167061456Y-71387860D01*
X166640276Y-70966680D01*
X166612499Y-70912163D01*
X166613183Y-70877361D01*
X166621573Y-70835185D01*
X166651470Y-70781801D01*
X166707035Y-70756186D01*
X166718670Y-70755500D01*
X169721331Y-70755500D01*
X169779522Y-70774407D01*
X169815486Y-70823907D01*
X169818428Y-70835186D01*
X169830266Y-70894701D01*
X169847430Y-70920388D01*
X169864038Y-70979276D01*
X169842860Y-71036680D01*
X169824444Y-71054642D01*
X169712810Y-71138212D01*
X169626646Y-71253310D01*
X169576401Y-71388023D01*
X169570282Y-71444942D01*
X169570000Y-71450218D01*
X169570000Y-71745399D01*
X169570001Y-71745400D01*
X172019999Y-71745400D01*
X172020000Y-71745398D01*
X172020000Y-71450218D01*
X172019717Y-71444942D01*
X172013598Y-71388023D01*
X171963353Y-71253310D01*
X171877188Y-71138211D01*
X171765556Y-71054642D01*
X171730303Y-71004633D01*
X171731177Y-70943454D01*
X171742570Y-70920388D01*
X171759734Y-70894701D01*
X171774500Y-70820467D01*
X171774499Y-69770334D01*
X171759734Y-69696099D01*
X171703484Y-69611916D01*
X171668266Y-69588384D01*
X171619301Y-69555666D01*
X171619300Y-69555666D01*
X171545067Y-69540900D01*
X171545066Y-69540900D01*
X170044934Y-69540900D01*
X169970699Y-69555666D01*
X169886515Y-69611916D01*
X169830266Y-69696098D01*
X169830265Y-69696099D01*
X169830266Y-69696099D01*
X169815500Y-69770333D01*
X169815500Y-70033201D01*
X169815501Y-70198300D01*
X169796594Y-70256491D01*
X169747094Y-70292455D01*
X169716501Y-70297300D01*
X168741849Y-70297300D01*
X168683658Y-70278393D01*
X168647694Y-70228893D01*
X168647694Y-70167707D01*
X168663307Y-70138033D01*
X168680890Y-70115117D01*
X168722698Y-70060633D01*
X168780687Y-69920636D01*
X168800466Y-69770400D01*
X168780687Y-69620164D01*
X168722698Y-69480167D01*
X168668678Y-69409767D01*
X168648254Y-69352092D01*
X168665631Y-69293426D01*
X168714173Y-69256178D01*
X168747220Y-69250500D01*
X179026546Y-69250500D01*
X179048845Y-69257745D01*
G37*
%TD.AperFunction*%
%TA.AperFunction,Conductor*%
G36*
X188342947Y-96554022D02*
G01*
X188490129Y-96590300D01*
X188649071Y-96590300D01*
X188795257Y-96554268D01*
X188856279Y-96558699D01*
X188892518Y-96584147D01*
X188908130Y-96601486D01*
X188923731Y-96608432D01*
X188929027Y-96610790D01*
X188942676Y-96618200D01*
X188961863Y-96630661D01*
X188967295Y-96631521D01*
X188992074Y-96638861D01*
X188997103Y-96641100D01*
X189019986Y-96641100D01*
X189035472Y-96642318D01*
X189058058Y-96645896D01*
X189063369Y-96644472D01*
X189088991Y-96641100D01*
X201525320Y-96641100D01*
X201583511Y-96660007D01*
X201619475Y-96709507D01*
X201619475Y-96770693D01*
X201595324Y-96810102D01*
X201314295Y-97091132D01*
X200479257Y-97926169D01*
X200424740Y-97953946D01*
X200385561Y-97952288D01*
X200323929Y-97937097D01*
X200323928Y-97937097D01*
X200164986Y-97937097D01*
X200010662Y-97975134D01*
X199869929Y-98048996D01*
X199750958Y-98154396D01*
X199660670Y-98285200D01*
X199604307Y-98433817D01*
X199585149Y-98591597D01*
X199604307Y-98749376D01*
X199660670Y-98897993D01*
X199750958Y-99028797D01*
X199750959Y-99028798D01*
X199793474Y-99066463D01*
X199869929Y-99134197D01*
X199963989Y-99183563D01*
X200010664Y-99208060D01*
X200164986Y-99246097D01*
X200323928Y-99246097D01*
X200478250Y-99208060D01*
X200618986Y-99134196D01*
X200737955Y-99028798D01*
X200799534Y-98939585D01*
X200848149Y-98902437D01*
X200909316Y-98900959D01*
X200927015Y-98908165D01*
X201020663Y-98957315D01*
X201035807Y-98965263D01*
X201190129Y-99003300D01*
X201349071Y-99003300D01*
X201503393Y-98965263D01*
X201644129Y-98891399D01*
X201763098Y-98786001D01*
X201853387Y-98655195D01*
X201909749Y-98506582D01*
X201928907Y-98348800D01*
X201922313Y-98294497D01*
X201909749Y-98191019D01*
X201909749Y-98191018D01*
X201888898Y-98136041D01*
X201885942Y-98074931D01*
X201911462Y-98030933D01*
X202503901Y-97438496D01*
X202558417Y-97410719D01*
X202573904Y-97409500D01*
X210627298Y-97409500D01*
X210685489Y-97428407D01*
X210719865Y-97473394D01*
X210744213Y-97537596D01*
X210834501Y-97668400D01*
X210962469Y-97781771D01*
X210959697Y-97784899D01*
X210986755Y-97812613D01*
X210995603Y-97873156D01*
X210967175Y-97927336D01*
X210912330Y-97954459D01*
X210898014Y-97955500D01*
X210717651Y-97955500D01*
X210516446Y-97993110D01*
X210325570Y-98067057D01*
X210151540Y-98174812D01*
X210000270Y-98312713D01*
X210000268Y-98312715D01*
X209968110Y-98355299D01*
X209876910Y-98476067D01*
X209785673Y-98659296D01*
X209729655Y-98856179D01*
X209725369Y-98902437D01*
X209710768Y-99060000D01*
X209729655Y-99263821D01*
X209780578Y-99442799D01*
X209785673Y-99460703D01*
X209876910Y-99643932D01*
X209876911Y-99643933D01*
X209876912Y-99643935D01*
X210000268Y-99807285D01*
X210151538Y-99945186D01*
X210325573Y-100052944D01*
X210371146Y-100070599D01*
X210388146Y-100077185D01*
X210435577Y-100115837D01*
X210451231Y-100174986D01*
X210429128Y-100232040D01*
X210377711Y-100265205D01*
X210352383Y-100268500D01*
X208747617Y-100268500D01*
X208689426Y-100249593D01*
X208653462Y-100200093D01*
X208653462Y-100138907D01*
X208689426Y-100089407D01*
X208711854Y-100077185D01*
X208716136Y-100075526D01*
X208774427Y-100052944D01*
X208948462Y-99945186D01*
X209099732Y-99807285D01*
X209223088Y-99643935D01*
X209314328Y-99460701D01*
X209370345Y-99263821D01*
X209389232Y-99060000D01*
X209370345Y-98856179D01*
X209314328Y-98659299D01*
X209223088Y-98476065D01*
X209099732Y-98312715D01*
X208948462Y-98174814D01*
X208894300Y-98141278D01*
X208774429Y-98067057D01*
X208774427Y-98067056D01*
X208684774Y-98032324D01*
X208583553Y-97993110D01*
X208382349Y-97955500D01*
X208382347Y-97955500D01*
X208177653Y-97955500D01*
X208177651Y-97955500D01*
X207976446Y-97993110D01*
X207785570Y-98067057D01*
X207611540Y-98174812D01*
X207460270Y-98312713D01*
X207460268Y-98312715D01*
X207428110Y-98355299D01*
X207336910Y-98476067D01*
X207247715Y-98655196D01*
X207245672Y-98659299D01*
X207189655Y-98856179D01*
X207170768Y-99060000D01*
X207189655Y-99263821D01*
X207240578Y-99442799D01*
X207245673Y-99460703D01*
X207336910Y-99643932D01*
X207336911Y-99643933D01*
X207336912Y-99643935D01*
X207460268Y-99807285D01*
X207611538Y-99945186D01*
X207785573Y-100052944D01*
X207831146Y-100070599D01*
X207848146Y-100077185D01*
X207895577Y-100115837D01*
X207911231Y-100174986D01*
X207889128Y-100232040D01*
X207837711Y-100265205D01*
X207812383Y-100268500D01*
X206239662Y-100268500D01*
X206181471Y-100249593D01*
X206174023Y-100243611D01*
X206164261Y-100234962D01*
X206133244Y-100182223D01*
X206139150Y-100121324D01*
X206179724Y-100075526D01*
X206194145Y-100068549D01*
X206234427Y-100052944D01*
X206408462Y-99945186D01*
X206559732Y-99807285D01*
X206683088Y-99643935D01*
X206774328Y-99460701D01*
X206830345Y-99263821D01*
X206849232Y-99060000D01*
X206830345Y-98856179D01*
X206774328Y-98659299D01*
X206683088Y-98476065D01*
X206559732Y-98312715D01*
X206408462Y-98174814D01*
X206354300Y-98141278D01*
X206234429Y-98067057D01*
X206234427Y-98067056D01*
X206144774Y-98032324D01*
X206043553Y-97993110D01*
X205842349Y-97955500D01*
X205842347Y-97955500D01*
X205637653Y-97955500D01*
X205637651Y-97955500D01*
X205436446Y-97993110D01*
X205245570Y-98067057D01*
X205071540Y-98174812D01*
X204920270Y-98312713D01*
X204920268Y-98312715D01*
X204888110Y-98355299D01*
X204796910Y-98476067D01*
X204705673Y-98659296D01*
X204649655Y-98856179D01*
X204645369Y-98902437D01*
X204630768Y-99060000D01*
X204649655Y-99263821D01*
X204700578Y-99442799D01*
X204705673Y-99460703D01*
X204796910Y-99643932D01*
X204796911Y-99643933D01*
X204796912Y-99643935D01*
X204920268Y-99807285D01*
X205071538Y-99945186D01*
X205107284Y-99967319D01*
X205245569Y-100052942D01*
X205245571Y-100052942D01*
X205245573Y-100052944D01*
X205250503Y-100054853D01*
X205297934Y-100093503D01*
X205313590Y-100152652D01*
X205291489Y-100209706D01*
X205280392Y-100221270D01*
X205221103Y-100273796D01*
X205130813Y-100404603D01*
X205074450Y-100553220D01*
X205055292Y-100711000D01*
X205074450Y-100868779D01*
X205130813Y-101017396D01*
X205144940Y-101037862D01*
X205162435Y-101096493D01*
X205142127Y-101154210D01*
X205091772Y-101188967D01*
X205063464Y-101193100D01*
X198696704Y-101193100D01*
X198638513Y-101174193D01*
X198626700Y-101164104D01*
X197126754Y-99664158D01*
X195604653Y-98142056D01*
X195601104Y-98138316D01*
X195574270Y-98108514D01*
X195553370Y-98099208D01*
X195539723Y-98091798D01*
X195520535Y-98079338D01*
X195515097Y-98078477D01*
X195490326Y-98071139D01*
X195485297Y-98068900D01*
X195462420Y-98068900D01*
X195446932Y-98067681D01*
X195424341Y-98064102D01*
X195419026Y-98065527D01*
X195393405Y-98068900D01*
X185618365Y-98068900D01*
X185560174Y-98049993D01*
X185524210Y-98000493D01*
X185524210Y-97939307D01*
X185552715Y-97895798D01*
X185578272Y-97873156D01*
X185608698Y-97846201D01*
X185698987Y-97715395D01*
X185755349Y-97566782D01*
X185774507Y-97409000D01*
X185772077Y-97388982D01*
X185755349Y-97251217D01*
X185734499Y-97196243D01*
X185731542Y-97135129D01*
X185757060Y-97091135D01*
X185892300Y-96955896D01*
X185946818Y-96928119D01*
X185962304Y-96926900D01*
X187799025Y-96926900D01*
X187804205Y-96927035D01*
X187823392Y-96928041D01*
X187844238Y-96929134D01*
X187844238Y-96929133D01*
X187844239Y-96929134D01*
X187865593Y-96920936D01*
X187880488Y-96916524D01*
X187902865Y-96911769D01*
X187907314Y-96908535D01*
X187930029Y-96896202D01*
X187935164Y-96894232D01*
X187951343Y-96878051D01*
X187963150Y-96867968D01*
X187981658Y-96854522D01*
X187984407Y-96849759D01*
X188000136Y-96829258D01*
X188249254Y-96580140D01*
X188303769Y-96552365D01*
X188342947Y-96554022D01*
G37*
%TD.AperFunction*%
%TA.AperFunction,Conductor*%
G36*
X189958974Y-70223387D02*
G01*
X189994938Y-70272887D01*
X189994938Y-70334073D01*
X189982259Y-70359718D01*
X189967011Y-70381807D01*
X189961930Y-70395207D01*
X189923616Y-70442911D01*
X189869364Y-70459100D01*
X187272719Y-70459100D01*
X187267537Y-70458964D01*
X187227503Y-70456865D01*
X187206149Y-70465062D01*
X187191258Y-70469473D01*
X187168878Y-70474230D01*
X187164423Y-70477467D01*
X187141721Y-70489793D01*
X187136578Y-70491767D01*
X187120399Y-70507946D01*
X187108592Y-70518030D01*
X187090085Y-70531476D01*
X187087334Y-70536242D01*
X187071604Y-70556741D01*
X177999654Y-79628690D01*
X177995896Y-79632255D01*
X177966113Y-79659072D01*
X177956807Y-79679973D01*
X177949400Y-79693616D01*
X177936938Y-79712807D01*
X177936078Y-79718241D01*
X177928741Y-79743011D01*
X177926500Y-79748045D01*
X177926500Y-79770923D01*
X177925281Y-79786409D01*
X177921703Y-79809001D01*
X177922933Y-79813594D01*
X177923127Y-79814315D01*
X177926499Y-79839935D01*
X177926499Y-80093226D01*
X177907592Y-80151417D01*
X177873507Y-80180886D01*
X177781071Y-80229400D01*
X177662101Y-80334799D01*
X177571813Y-80465603D01*
X177515450Y-80614220D01*
X177496292Y-80772000D01*
X177515450Y-80929779D01*
X177571813Y-81078396D01*
X177662101Y-81209200D01*
X177781072Y-81314600D01*
X177915428Y-81385115D01*
X177921807Y-81388463D01*
X178076129Y-81426500D01*
X178079378Y-81426500D01*
X178137569Y-81445407D01*
X178173533Y-81494907D01*
X178173533Y-81556093D01*
X178137569Y-81605593D01*
X178103070Y-81621623D01*
X178074206Y-81628737D01*
X177933472Y-81702599D01*
X177814501Y-81807999D01*
X177724213Y-81938803D01*
X177667850Y-82087420D01*
X177648692Y-82245200D01*
X177667850Y-82402979D01*
X177667850Y-82402981D01*
X177667851Y-82402982D01*
X177668789Y-82405454D01*
X177724213Y-82551596D01*
X177813605Y-82681102D01*
X177814502Y-82682401D01*
X177847566Y-82711693D01*
X177933472Y-82787800D01*
X178044173Y-82845900D01*
X178074207Y-82861663D01*
X178228529Y-82899700D01*
X178387471Y-82899700D01*
X178541793Y-82861663D01*
X178682529Y-82787799D01*
X178801498Y-82682401D01*
X178891787Y-82551595D01*
X178948149Y-82402982D01*
X178948421Y-82400736D01*
X178951569Y-82393961D01*
X178952411Y-82391742D01*
X178952572Y-82391803D01*
X178974200Y-82345251D01*
X179027672Y-82315513D01*
X179088412Y-82322884D01*
X179133219Y-82364549D01*
X179145699Y-82412667D01*
X179145699Y-84758048D01*
X179126792Y-84816239D01*
X179077292Y-84852203D01*
X179016106Y-84852203D01*
X178981050Y-84832150D01*
X178860330Y-84725200D01*
X178719594Y-84651337D01*
X178565271Y-84613300D01*
X178406329Y-84613300D01*
X178252005Y-84651337D01*
X178111272Y-84725199D01*
X177992301Y-84830599D01*
X177902013Y-84961403D01*
X177845650Y-85110020D01*
X177826492Y-85267800D01*
X177845650Y-85425579D01*
X177902013Y-85574196D01*
X177992301Y-85705000D01*
X178111272Y-85810400D01*
X178232909Y-85874240D01*
X178275648Y-85918024D01*
X178284489Y-85978567D01*
X178256055Y-86032744D01*
X178201207Y-86059861D01*
X178186902Y-86060900D01*
X174759026Y-86060900D01*
X174700835Y-86041993D01*
X174664871Y-85992493D01*
X174664871Y-85931307D01*
X174693376Y-85887798D01*
X174731981Y-85853596D01*
X174813698Y-85781201D01*
X174903987Y-85650395D01*
X174960349Y-85501782D01*
X174979507Y-85344000D01*
X174960349Y-85186218D01*
X174903987Y-85037605D01*
X174851388Y-84961403D01*
X174813698Y-84906799D01*
X174694727Y-84801399D01*
X174553994Y-84727537D01*
X174399671Y-84689500D01*
X174240729Y-84689500D01*
X174086405Y-84727537D01*
X173976707Y-84785111D01*
X173916395Y-84795412D01*
X173861547Y-84768295D01*
X173833113Y-84714118D01*
X173831700Y-84697451D01*
X173831700Y-83371182D01*
X173831836Y-83366002D01*
X173832287Y-83357399D01*
X173833934Y-83325961D01*
X173825736Y-83304606D01*
X173821325Y-83289713D01*
X173818932Y-83278454D01*
X173816569Y-83267335D01*
X173813332Y-83262880D01*
X173801004Y-83240174D01*
X173799032Y-83235036D01*
X173799030Y-83235034D01*
X173797006Y-83229760D01*
X173793804Y-83168659D01*
X173796865Y-83159175D01*
X173804494Y-83139061D01*
X173820149Y-83097782D01*
X173839307Y-82940000D01*
X173835080Y-82905189D01*
X173846835Y-82845145D01*
X173891639Y-82803477D01*
X173952378Y-82796101D01*
X173999007Y-82819155D01*
X174025469Y-82842599D01*
X174166205Y-82916462D01*
X174166207Y-82916463D01*
X174320529Y-82954500D01*
X174479471Y-82954500D01*
X174633793Y-82916463D01*
X174774529Y-82842599D01*
X174893498Y-82737201D01*
X174983787Y-82606395D01*
X175040149Y-82457782D01*
X175059307Y-82300000D01*
X175040149Y-82142218D01*
X174983787Y-81993605D01*
X174969569Y-81973007D01*
X174893498Y-81862799D01*
X174774527Y-81757399D01*
X174633794Y-81683537D01*
X174479471Y-81645500D01*
X174320529Y-81645500D01*
X174166205Y-81683537D01*
X174025472Y-81757399D01*
X173906501Y-81862799D01*
X173816213Y-81993603D01*
X173759850Y-82142220D01*
X173740693Y-82300000D01*
X173744919Y-82334810D01*
X173733163Y-82394855D01*
X173688359Y-82436523D01*
X173627619Y-82443897D01*
X173580992Y-82420844D01*
X173554530Y-82397400D01*
X173413794Y-82323537D01*
X173259471Y-82285500D01*
X173100529Y-82285500D01*
X172946205Y-82323537D01*
X172805472Y-82397399D01*
X172686501Y-82502799D01*
X172596213Y-82633603D01*
X172539850Y-82782220D01*
X172532378Y-82843764D01*
X172506595Y-82899252D01*
X172453121Y-82928987D01*
X172392381Y-82921612D01*
X172347577Y-82879943D01*
X172335100Y-82831831D01*
X172335100Y-77108407D01*
X172354007Y-77050216D01*
X172364096Y-77038403D01*
X172876054Y-76526445D01*
X173395210Y-76007288D01*
X173449725Y-75979513D01*
X173510157Y-75989084D01*
X173553422Y-76032349D01*
X173563490Y-76089225D01*
X173559292Y-76123798D01*
X173578450Y-76281579D01*
X173578450Y-76281581D01*
X173578451Y-76281582D01*
X173587975Y-76306694D01*
X173634813Y-76430196D01*
X173725100Y-76560998D01*
X173725102Y-76561001D01*
X173755191Y-76587658D01*
X173844072Y-76666400D01*
X173971342Y-76733196D01*
X173984807Y-76740263D01*
X174139129Y-76778300D01*
X174298071Y-76778300D01*
X174452393Y-76740263D01*
X174593129Y-76666399D01*
X174712098Y-76561001D01*
X174802387Y-76430195D01*
X174807469Y-76416793D01*
X174845784Y-76369089D01*
X174900036Y-76352900D01*
X176089625Y-76352900D01*
X176094805Y-76353035D01*
X176113992Y-76354041D01*
X176134838Y-76355134D01*
X176134838Y-76355133D01*
X176134839Y-76355134D01*
X176156193Y-76346936D01*
X176171088Y-76342524D01*
X176193465Y-76337769D01*
X176197914Y-76334535D01*
X176220629Y-76322202D01*
X176225764Y-76320232D01*
X176241943Y-76304051D01*
X176253750Y-76293968D01*
X176272258Y-76280522D01*
X176275007Y-76275759D01*
X176290736Y-76255258D01*
X178495654Y-74050340D01*
X178550169Y-74022565D01*
X178589347Y-74024222D01*
X178736529Y-74060500D01*
X178895471Y-74060500D01*
X179049793Y-74022463D01*
X179190529Y-73948599D01*
X179309498Y-73843201D01*
X179399787Y-73712395D01*
X179456149Y-73563782D01*
X179475307Y-73406000D01*
X179456149Y-73248218D01*
X179399787Y-73099605D01*
X179383538Y-73076065D01*
X179309498Y-72968799D01*
X179190527Y-72863399D01*
X179049794Y-72789537D01*
X178895471Y-72751500D01*
X178736529Y-72751500D01*
X178582205Y-72789537D01*
X178441472Y-72863399D01*
X178322501Y-72968799D01*
X178232213Y-73099603D01*
X178175850Y-73248220D01*
X178156692Y-73406000D01*
X178175850Y-73563779D01*
X178175850Y-73563781D01*
X178175851Y-73563782D01*
X178195977Y-73616850D01*
X178196700Y-73618755D01*
X178199656Y-73679869D01*
X178174137Y-73723865D01*
X176032299Y-75865704D01*
X175977782Y-75893481D01*
X175962295Y-75894700D01*
X174900036Y-75894700D01*
X174841845Y-75875793D01*
X174807470Y-75830807D01*
X174805762Y-75826306D01*
X174802387Y-75817405D01*
X174746267Y-75736101D01*
X174712100Y-75686601D01*
X174593127Y-75581199D01*
X174452394Y-75507337D01*
X174298071Y-75469300D01*
X174172207Y-75469300D01*
X174114016Y-75450393D01*
X174078052Y-75400893D01*
X174078052Y-75339707D01*
X174102203Y-75300296D01*
X175776393Y-73626107D01*
X179169023Y-70233476D01*
X179223541Y-70205699D01*
X179239028Y-70204480D01*
X189900783Y-70204480D01*
X189958974Y-70223387D01*
G37*
%TD.AperFunction*%
%TA.AperFunction,Conductor*%
G36*
X181944411Y-77937351D02*
G01*
X181987676Y-77980616D01*
X181992030Y-77990448D01*
X181999241Y-78009462D01*
X182016813Y-78055796D01*
X182107101Y-78186600D01*
X182226072Y-78292000D01*
X182332219Y-78347710D01*
X182366807Y-78365863D01*
X182521129Y-78403900D01*
X182680071Y-78403900D01*
X182827251Y-78367623D01*
X182888274Y-78372054D01*
X182920946Y-78393742D01*
X185048736Y-80521532D01*
X185052303Y-80525292D01*
X185079130Y-80555086D01*
X185100029Y-80564391D01*
X185113676Y-80571801D01*
X185132864Y-80584262D01*
X185133917Y-80584428D01*
X185138297Y-80585123D01*
X185163081Y-80592464D01*
X185168103Y-80594700D01*
X185190980Y-80594700D01*
X185206467Y-80595919D01*
X185229058Y-80599497D01*
X185229058Y-80599496D01*
X185229059Y-80599497D01*
X185234373Y-80598073D01*
X185259996Y-80594700D01*
X201844896Y-80594700D01*
X201903087Y-80613607D01*
X201914900Y-80623696D01*
X202760053Y-81468849D01*
X202787830Y-81523366D01*
X202778259Y-81583798D01*
X202734994Y-81627063D01*
X202713743Y-81634976D01*
X202636004Y-81654137D01*
X202495272Y-81727999D01*
X202452551Y-81765847D01*
X202396457Y-81790282D01*
X202336713Y-81777079D01*
X202296139Y-81731281D01*
X202289806Y-81711065D01*
X202289734Y-81710699D01*
X202233484Y-81626516D01*
X202226161Y-81621623D01*
X202149301Y-81570266D01*
X202075067Y-81555500D01*
X202075066Y-81555500D01*
X200324934Y-81555500D01*
X200250699Y-81570266D01*
X200166515Y-81626516D01*
X200110266Y-81710698D01*
X200095500Y-81784933D01*
X200095500Y-82096900D01*
X200076593Y-82155091D01*
X200027093Y-82191055D01*
X199996500Y-82195900D01*
X198218142Y-82195900D01*
X198159951Y-82176993D01*
X198123987Y-82127493D01*
X198123987Y-82080749D01*
X198121871Y-82080522D01*
X198126101Y-82041165D01*
X198129500Y-82009557D01*
X198129499Y-81440444D01*
X198123200Y-81381843D01*
X198073758Y-81249285D01*
X197988974Y-81136026D01*
X197875715Y-81051242D01*
X197875714Y-81051241D01*
X197743157Y-81001799D01*
X197687187Y-80995782D01*
X197687173Y-80995781D01*
X197684557Y-80995500D01*
X197681910Y-80995500D01*
X197093091Y-80995500D01*
X197093072Y-80995500D01*
X197090444Y-80995501D01*
X197087828Y-80995782D01*
X197087812Y-80995783D01*
X197031843Y-81001799D01*
X196899285Y-81051241D01*
X196786026Y-81136026D01*
X196701241Y-81249285D01*
X196651799Y-81381842D01*
X196645782Y-81437812D01*
X196645781Y-81437827D01*
X196645500Y-81440443D01*
X196645500Y-81443088D01*
X196645500Y-81443089D01*
X196645500Y-82006908D01*
X196645500Y-82006926D01*
X196645501Y-82009556D01*
X196645782Y-82012172D01*
X196645783Y-82012187D01*
X196651799Y-82068156D01*
X196701241Y-82200714D01*
X196701242Y-82200715D01*
X196786026Y-82313974D01*
X196899285Y-82398758D01*
X196910680Y-82407288D01*
X196909786Y-82408481D01*
X196943915Y-82435585D01*
X196960312Y-82494532D01*
X196938929Y-82551860D01*
X196920732Y-82569544D01*
X196798526Y-82661025D01*
X196713741Y-82774285D01*
X196664299Y-82906842D01*
X196658282Y-82962812D01*
X196658281Y-82962827D01*
X196658000Y-82965443D01*
X196658000Y-82968088D01*
X196658000Y-82968089D01*
X196658000Y-83531908D01*
X196658000Y-83531926D01*
X196658001Y-83534556D01*
X196658282Y-83537172D01*
X196658283Y-83537187D01*
X196664299Y-83593156D01*
X196713741Y-83725714D01*
X196731722Y-83749734D01*
X196798526Y-83838974D01*
X196879126Y-83899310D01*
X196911785Y-83923758D01*
X196947030Y-83936904D01*
X196994945Y-83974955D01*
X197011342Y-84033902D01*
X196989960Y-84091230D01*
X196947033Y-84122419D01*
X196936786Y-84126241D01*
X196823526Y-84211026D01*
X196738741Y-84324285D01*
X196689299Y-84456842D01*
X196683282Y-84512812D01*
X196683281Y-84512827D01*
X196683000Y-84515443D01*
X196683000Y-84518088D01*
X196683000Y-84518089D01*
X196683000Y-85081908D01*
X196683000Y-85081926D01*
X196683001Y-85084556D01*
X196683282Y-85087172D01*
X196683283Y-85087187D01*
X196689299Y-85143156D01*
X196738741Y-85275714D01*
X196744714Y-85283693D01*
X196823526Y-85388974D01*
X196932762Y-85470746D01*
X196968015Y-85520754D01*
X196967141Y-85581933D01*
X196932762Y-85629252D01*
X196823527Y-85711025D01*
X196738741Y-85824285D01*
X196689299Y-85956842D01*
X196683282Y-86012812D01*
X196683281Y-86012827D01*
X196683000Y-86015443D01*
X196683000Y-86018088D01*
X196683000Y-86018089D01*
X196683000Y-86581908D01*
X196683000Y-86581926D01*
X196683001Y-86584556D01*
X196683282Y-86587172D01*
X196683283Y-86587187D01*
X196689299Y-86643156D01*
X196738741Y-86775714D01*
X196750755Y-86791763D01*
X196823526Y-86888974D01*
X196918182Y-86959832D01*
X196936785Y-86973758D01*
X197069342Y-87023200D01*
X197079063Y-87024245D01*
X197127943Y-87029500D01*
X197722056Y-87029499D01*
X197780657Y-87023200D01*
X197913215Y-86973758D01*
X198026474Y-86888974D01*
X198111258Y-86775715D01*
X198160700Y-86643157D01*
X198167000Y-86584557D01*
X198166999Y-86015444D01*
X198160700Y-85956843D01*
X198147334Y-85921007D01*
X198144714Y-85859878D01*
X198170087Y-85816408D01*
X198453400Y-85533096D01*
X198507917Y-85505319D01*
X198523404Y-85504100D01*
X200063426Y-85504100D01*
X200121617Y-85523007D01*
X200157581Y-85572507D01*
X200158636Y-85575974D01*
X200162411Y-85589238D01*
X200165672Y-85600702D01*
X200256910Y-85783932D01*
X200256911Y-85783933D01*
X200256912Y-85783935D01*
X200380268Y-85947285D01*
X200531538Y-86085186D01*
X200705573Y-86192944D01*
X200856008Y-86251223D01*
X200896446Y-86266889D01*
X201097651Y-86304500D01*
X201097653Y-86304500D01*
X201302349Y-86304500D01*
X201503553Y-86266889D01*
X201511524Y-86263801D01*
X201694427Y-86192944D01*
X201868462Y-86085186D01*
X202019732Y-85947285D01*
X202143088Y-85783935D01*
X202234328Y-85600701D01*
X202290345Y-85403821D01*
X202309232Y-85200000D01*
X202290345Y-84996179D01*
X202234328Y-84799299D01*
X202143088Y-84616065D01*
X202019732Y-84452715D01*
X201868462Y-84314814D01*
X201814398Y-84281339D01*
X201694429Y-84207057D01*
X201694427Y-84207056D01*
X201653991Y-84191391D01*
X201503553Y-84133110D01*
X201302349Y-84095500D01*
X201302347Y-84095500D01*
X201097653Y-84095500D01*
X201097651Y-84095500D01*
X200896446Y-84133110D01*
X200705571Y-84207056D01*
X200624503Y-84257251D01*
X200569739Y-84270666D01*
X200569739Y-84270900D01*
X200568786Y-84270900D01*
X200565075Y-84271809D01*
X200561461Y-84270900D01*
X200548697Y-84270900D01*
X200525820Y-84270900D01*
X200510332Y-84269681D01*
X200487741Y-84266102D01*
X200482426Y-84267527D01*
X200456805Y-84270900D01*
X198120851Y-84270900D01*
X198062660Y-84251993D01*
X198041599Y-84231231D01*
X198026474Y-84211026D01*
X198026472Y-84211025D01*
X198026472Y-84211024D01*
X197922392Y-84133112D01*
X197913215Y-84126242D01*
X197913214Y-84126241D01*
X197913212Y-84126240D01*
X197877968Y-84113094D01*
X197830054Y-84075043D01*
X197813657Y-84016096D01*
X197835040Y-83958768D01*
X197877968Y-83927579D01*
X197888215Y-83923758D01*
X198001474Y-83838974D01*
X198086258Y-83725715D01*
X198135700Y-83593157D01*
X198142000Y-83534557D01*
X198142000Y-83403100D01*
X198160907Y-83344909D01*
X198210407Y-83308945D01*
X198241000Y-83304100D01*
X199996501Y-83304100D01*
X200054692Y-83323007D01*
X200090656Y-83372507D01*
X200095501Y-83403100D01*
X200095501Y-83535066D01*
X200110266Y-83609301D01*
X200166516Y-83693484D01*
X200250699Y-83749734D01*
X200324933Y-83764500D01*
X202075066Y-83764499D01*
X202149301Y-83749734D01*
X202233484Y-83693484D01*
X202289734Y-83609301D01*
X202304500Y-83535067D01*
X202304499Y-82864158D01*
X202323406Y-82805968D01*
X202372906Y-82770004D01*
X202434092Y-82770004D01*
X202469149Y-82790057D01*
X202495272Y-82813200D01*
X202613107Y-82875044D01*
X202655846Y-82918827D01*
X202666100Y-82962704D01*
X202666100Y-89783579D01*
X202647193Y-89841770D01*
X202597693Y-89877734D01*
X202536507Y-89877734D01*
X202487007Y-89841770D01*
X202478407Y-89823745D01*
X202477092Y-89824359D01*
X202373601Y-89602424D01*
X202238112Y-89408925D01*
X202071074Y-89241887D01*
X201877576Y-89106398D01*
X201663496Y-89006570D01*
X201557027Y-88978042D01*
X201505713Y-88944717D01*
X201483787Y-88887596D01*
X201499623Y-88828495D01*
X201546885Y-88790102D01*
X201694427Y-88732944D01*
X201868462Y-88625186D01*
X202019732Y-88487285D01*
X202143088Y-88323935D01*
X202234328Y-88140701D01*
X202290345Y-87943821D01*
X202309232Y-87740000D01*
X202290345Y-87536179D01*
X202234328Y-87339299D01*
X202143088Y-87156065D01*
X202019732Y-86992715D01*
X201868462Y-86854814D01*
X201826456Y-86828805D01*
X201694429Y-86747057D01*
X201694427Y-86747056D01*
X201629526Y-86721913D01*
X201503553Y-86673110D01*
X201302349Y-86635500D01*
X201302347Y-86635500D01*
X201097653Y-86635500D01*
X201097651Y-86635500D01*
X200896446Y-86673110D01*
X200705570Y-86747057D01*
X200531540Y-86854812D01*
X200401063Y-86973758D01*
X200380268Y-86992715D01*
X200354349Y-87027038D01*
X200256910Y-87156067D01*
X200167214Y-87336202D01*
X200165672Y-87339299D01*
X200109655Y-87536179D01*
X200090768Y-87740000D01*
X200109655Y-87943821D01*
X200157222Y-88111003D01*
X200165673Y-88140703D01*
X200256910Y-88323932D01*
X200256911Y-88323933D01*
X200256912Y-88323935D01*
X200380268Y-88487285D01*
X200531538Y-88625186D01*
X200705573Y-88732944D01*
X200853112Y-88790101D01*
X200900542Y-88828752D01*
X200916196Y-88887901D01*
X200894093Y-88944954D01*
X200842972Y-88978041D01*
X200736508Y-89006568D01*
X200522424Y-89106398D01*
X200328925Y-89241887D01*
X200161887Y-89408925D01*
X200026398Y-89602424D01*
X199926570Y-89816505D01*
X199869364Y-90030000D01*
X200766314Y-90030000D01*
X200740507Y-90070156D01*
X200700000Y-90208111D01*
X200700000Y-90351889D01*
X200740507Y-90489844D01*
X200766314Y-90530000D01*
X199869364Y-90530000D01*
X199926570Y-90743495D01*
X200026398Y-90957576D01*
X200161887Y-91151074D01*
X200328925Y-91318112D01*
X200522423Y-91453601D01*
X200736504Y-91553429D01*
X200949999Y-91610634D01*
X200949999Y-90715501D01*
X201057685Y-90764680D01*
X201164237Y-90780000D01*
X201235763Y-90780000D01*
X201342315Y-90764680D01*
X201450000Y-90715501D01*
X201450000Y-91610633D01*
X201663495Y-91553429D01*
X201877576Y-91453601D01*
X202071074Y-91318112D01*
X202238112Y-91151074D01*
X202373601Y-90957576D01*
X202477092Y-90735641D01*
X202480334Y-90737152D01*
X202504796Y-90699484D01*
X202561916Y-90677556D01*
X202621017Y-90693390D01*
X202659524Y-90740939D01*
X202666100Y-90776420D01*
X202666100Y-91025023D01*
X202665964Y-91030205D01*
X202663865Y-91070238D01*
X202672063Y-91091595D01*
X202676474Y-91106487D01*
X202681230Y-91128864D01*
X202684467Y-91133319D01*
X202696795Y-91156025D01*
X202698768Y-91161164D01*
X202714948Y-91177345D01*
X202725031Y-91189150D01*
X202738478Y-91207658D01*
X202738479Y-91207659D01*
X202743240Y-91210408D01*
X202763744Y-91226140D01*
X203819345Y-92281742D01*
X203822912Y-92285502D01*
X203849730Y-92315286D01*
X203870628Y-92324590D01*
X203884276Y-92332001D01*
X203903461Y-92344460D01*
X203903462Y-92344460D01*
X203903464Y-92344461D01*
X203908897Y-92345321D01*
X203933670Y-92352659D01*
X203938703Y-92354900D01*
X203961580Y-92354900D01*
X203977068Y-92356119D01*
X203999658Y-92359697D01*
X204004974Y-92358273D01*
X204030595Y-92354900D01*
X206633364Y-92354900D01*
X206691555Y-92373807D01*
X206725930Y-92418793D01*
X206731013Y-92432195D01*
X206821299Y-92562998D01*
X206821301Y-92563000D01*
X206821302Y-92563001D01*
X206877286Y-92612598D01*
X206908304Y-92665337D01*
X206902398Y-92726237D01*
X206861825Y-92772035D01*
X206811636Y-92785700D01*
X198606107Y-92785700D01*
X198547916Y-92766793D01*
X198511952Y-92717293D01*
X198511952Y-92656107D01*
X198547916Y-92606607D01*
X198560100Y-92599040D01*
X198621527Y-92566800D01*
X198621526Y-92566800D01*
X198621529Y-92566799D01*
X198740498Y-92461401D01*
X198830787Y-92330595D01*
X198887149Y-92181982D01*
X198906307Y-92024200D01*
X198887149Y-91866418D01*
X198830787Y-91717805D01*
X198818068Y-91699379D01*
X198740498Y-91586999D01*
X198621527Y-91481599D01*
X198480794Y-91407737D01*
X198326471Y-91369700D01*
X198167529Y-91369700D01*
X198013205Y-91407737D01*
X197872472Y-91481599D01*
X197753501Y-91586999D01*
X197663213Y-91717803D01*
X197606850Y-91866420D01*
X197587692Y-92024200D01*
X197606850Y-92181979D01*
X197663213Y-92330596D01*
X197753501Y-92461400D01*
X197872472Y-92566800D01*
X197933900Y-92599040D01*
X197976639Y-92642824D01*
X197985480Y-92703367D01*
X197957046Y-92757544D01*
X197902198Y-92784661D01*
X197887893Y-92785700D01*
X187130704Y-92785700D01*
X187072513Y-92766793D01*
X187060700Y-92756704D01*
X185731661Y-91427665D01*
X185703884Y-91373148D01*
X185709098Y-91322558D01*
X185729949Y-91267582D01*
X185749107Y-91109800D01*
X185729949Y-90952018D01*
X185673587Y-90803405D01*
X185665604Y-90791840D01*
X185583298Y-90672599D01*
X185464327Y-90567199D01*
X185323594Y-90493337D01*
X185169271Y-90455300D01*
X185010329Y-90455300D01*
X184856005Y-90493337D01*
X184715272Y-90567199D01*
X184596299Y-90672601D01*
X184506013Y-90803404D01*
X184500930Y-90816807D01*
X184462616Y-90864511D01*
X184408364Y-90880700D01*
X183778598Y-90880700D01*
X183720407Y-90861793D01*
X183708594Y-90851704D01*
X181856891Y-89000000D01*
X187065692Y-89000000D01*
X187084850Y-89157779D01*
X187141213Y-89306396D01*
X187231501Y-89437200D01*
X187350472Y-89542600D01*
X187491205Y-89616462D01*
X187491207Y-89616463D01*
X187645529Y-89654500D01*
X187804471Y-89654500D01*
X187958793Y-89616463D01*
X188099529Y-89542599D01*
X188218498Y-89437201D01*
X188308787Y-89306395D01*
X188365149Y-89157782D01*
X188384307Y-89000000D01*
X188365149Y-88842218D01*
X188308787Y-88693605D01*
X188299912Y-88680748D01*
X188218498Y-88562799D01*
X188099527Y-88457399D01*
X187958794Y-88383537D01*
X187804471Y-88345500D01*
X187645529Y-88345500D01*
X187491205Y-88383537D01*
X187350472Y-88457399D01*
X187231501Y-88562799D01*
X187141213Y-88693603D01*
X187084850Y-88842220D01*
X187065692Y-89000000D01*
X181856891Y-89000000D01*
X181079995Y-88223104D01*
X181052218Y-88168587D01*
X181061789Y-88108155D01*
X181105054Y-88064890D01*
X181149999Y-88054100D01*
X194103925Y-88054100D01*
X194109105Y-88054235D01*
X194128292Y-88055241D01*
X194149138Y-88056334D01*
X194149138Y-88056333D01*
X194149139Y-88056334D01*
X194170493Y-88048136D01*
X194185388Y-88043724D01*
X194207765Y-88038969D01*
X194212214Y-88035735D01*
X194234929Y-88023402D01*
X194240064Y-88021432D01*
X194256243Y-88005251D01*
X194268050Y-87995168D01*
X194286558Y-87981722D01*
X194289307Y-87976959D01*
X194305036Y-87956458D01*
X195205392Y-87056102D01*
X195259908Y-87028327D01*
X195285978Y-87027676D01*
X195297255Y-87028888D01*
X195300309Y-87029217D01*
X195300312Y-87029217D01*
X195302943Y-87029500D01*
X195897056Y-87029499D01*
X195955657Y-87023200D01*
X196088215Y-86973758D01*
X196201474Y-86888974D01*
X196286258Y-86775715D01*
X196335700Y-86643157D01*
X196342000Y-86584557D01*
X196341999Y-86015444D01*
X196335700Y-85956843D01*
X196286258Y-85824285D01*
X196201474Y-85711026D01*
X196092237Y-85629253D01*
X196056984Y-85579245D01*
X196057858Y-85518066D01*
X196092237Y-85470746D01*
X196201474Y-85388974D01*
X196286258Y-85275715D01*
X196335700Y-85143157D01*
X196342000Y-85084557D01*
X196341999Y-84515444D01*
X196335700Y-84456843D01*
X196286258Y-84324285D01*
X196201474Y-84211026D01*
X196124556Y-84153446D01*
X196088212Y-84126239D01*
X196052968Y-84113094D01*
X196005054Y-84075043D01*
X195988657Y-84016096D01*
X196010040Y-83958768D01*
X196052968Y-83927579D01*
X196063215Y-83923758D01*
X196176474Y-83838974D01*
X196261258Y-83725715D01*
X196310700Y-83593157D01*
X196317000Y-83534557D01*
X196316999Y-82965444D01*
X196310700Y-82906843D01*
X196261258Y-82774285D01*
X196176474Y-82661026D01*
X196063215Y-82576242D01*
X196063214Y-82576241D01*
X196051820Y-82567712D01*
X196052713Y-82566519D01*
X196018581Y-82539409D01*
X196002187Y-82480461D01*
X196023573Y-82423135D01*
X196041768Y-82405454D01*
X196050710Y-82398759D01*
X196050715Y-82398758D01*
X196163974Y-82313974D01*
X196248758Y-82200715D01*
X196298200Y-82068157D01*
X196304500Y-82009557D01*
X196304499Y-81440444D01*
X196298200Y-81381843D01*
X196248758Y-81249285D01*
X196163974Y-81136026D01*
X196050715Y-81051242D01*
X196050714Y-81051241D01*
X195918157Y-81001799D01*
X195862187Y-80995782D01*
X195862173Y-80995781D01*
X195859557Y-80995500D01*
X195856910Y-80995500D01*
X195268091Y-80995500D01*
X195268072Y-80995500D01*
X195265444Y-80995501D01*
X195262828Y-80995782D01*
X195262812Y-80995783D01*
X195206843Y-81001799D01*
X195074285Y-81051241D01*
X194961026Y-81136026D01*
X194876241Y-81249285D01*
X194826799Y-81381842D01*
X194824043Y-81407483D01*
X194799023Y-81463319D01*
X194745962Y-81493785D01*
X194725610Y-81495900D01*
X193873575Y-81495900D01*
X193868394Y-81495764D01*
X193863460Y-81495505D01*
X193828360Y-81493666D01*
X193828359Y-81493666D01*
X193806999Y-81501864D01*
X193792115Y-81506273D01*
X193769734Y-81511031D01*
X193765279Y-81514268D01*
X193742578Y-81526593D01*
X193737435Y-81528567D01*
X193721256Y-81544746D01*
X193709449Y-81554830D01*
X193690942Y-81568276D01*
X193688191Y-81573042D01*
X193672461Y-81593541D01*
X190599099Y-84666904D01*
X190544582Y-84694681D01*
X190529095Y-84695900D01*
X180361182Y-84695900D01*
X180356002Y-84695764D01*
X180315962Y-84693666D01*
X180315961Y-84693666D01*
X180294603Y-84701863D01*
X180279715Y-84706273D01*
X180257335Y-84711030D01*
X180252880Y-84714267D01*
X180230178Y-84726593D01*
X180225035Y-84728567D01*
X180208856Y-84744746D01*
X180197049Y-84754830D01*
X180178542Y-84768276D01*
X180175791Y-84773042D01*
X180160062Y-84793539D01*
X180128505Y-84825097D01*
X180073989Y-84852876D01*
X180013556Y-84843305D01*
X179970291Y-84800041D01*
X179959500Y-84755095D01*
X179959500Y-83794600D01*
X181661892Y-83794600D01*
X181681050Y-83952379D01*
X181737413Y-84100996D01*
X181827701Y-84231800D01*
X181946672Y-84337200D01*
X182052417Y-84392699D01*
X182087407Y-84411063D01*
X182241729Y-84449100D01*
X182400671Y-84449100D01*
X182554993Y-84411063D01*
X182695729Y-84337199D01*
X182814698Y-84231801D01*
X182904987Y-84100995D01*
X182961349Y-83952382D01*
X182980507Y-83794600D01*
X186868892Y-83794600D01*
X186888050Y-83952379D01*
X186944413Y-84100996D01*
X187034701Y-84231800D01*
X187153672Y-84337200D01*
X187259417Y-84392699D01*
X187294407Y-84411063D01*
X187448729Y-84449100D01*
X187607671Y-84449100D01*
X187761993Y-84411063D01*
X187902729Y-84337199D01*
X188021698Y-84231801D01*
X188111987Y-84100995D01*
X188168349Y-83952382D01*
X188187507Y-83794600D01*
X188168349Y-83636818D01*
X188111987Y-83488205D01*
X188101862Y-83473537D01*
X188021698Y-83357399D01*
X187902727Y-83251999D01*
X187761994Y-83178137D01*
X187607671Y-83140100D01*
X187448729Y-83140100D01*
X187294405Y-83178137D01*
X187153672Y-83251999D01*
X187034701Y-83357399D01*
X186944413Y-83488203D01*
X186888050Y-83636820D01*
X186868892Y-83794600D01*
X182980507Y-83794600D01*
X182961349Y-83636818D01*
X182904987Y-83488205D01*
X182894862Y-83473537D01*
X182814698Y-83357399D01*
X182695727Y-83251999D01*
X182554994Y-83178137D01*
X182400671Y-83140100D01*
X182241729Y-83140100D01*
X182087405Y-83178137D01*
X181946672Y-83251999D01*
X181827701Y-83357399D01*
X181737413Y-83488203D01*
X181681050Y-83636820D01*
X181661892Y-83794600D01*
X179959500Y-83794600D01*
X179959500Y-79866528D01*
X179978407Y-79808337D01*
X179988490Y-79796530D01*
X181829464Y-77955555D01*
X181883979Y-77927780D01*
X181944411Y-77937351D01*
G37*
%TD.AperFunction*%
%TA.AperFunction,Conductor*%
G36*
X187242442Y-85173007D02*
G01*
X187278406Y-85222507D01*
X187278406Y-85283693D01*
X187249901Y-85327202D01*
X187181501Y-85387799D01*
X187091212Y-85518604D01*
X187079530Y-85549408D01*
X187041216Y-85597112D01*
X186982179Y-85613184D01*
X186940957Y-85601960D01*
X186858793Y-85558837D01*
X186704471Y-85520800D01*
X186545529Y-85520800D01*
X186391205Y-85558837D01*
X186250472Y-85632699D01*
X186131501Y-85738099D01*
X186041213Y-85868903D01*
X185984850Y-86017520D01*
X185965692Y-86175300D01*
X185984850Y-86333079D01*
X185984850Y-86333081D01*
X185984851Y-86333082D01*
X185998549Y-86369200D01*
X186041213Y-86481696D01*
X186131501Y-86612500D01*
X186131502Y-86612501D01*
X186152067Y-86630720D01*
X186250472Y-86717900D01*
X186360628Y-86775714D01*
X186391207Y-86791763D01*
X186545529Y-86829800D01*
X186704471Y-86829800D01*
X186851651Y-86793523D01*
X186912674Y-86797954D01*
X186945346Y-86819642D01*
X187085536Y-86959832D01*
X187089103Y-86963592D01*
X187115930Y-86993386D01*
X187131531Y-87000332D01*
X187136829Y-87002691D01*
X187150476Y-87010101D01*
X187169664Y-87022562D01*
X187170056Y-87022624D01*
X187175097Y-87023423D01*
X187199881Y-87030764D01*
X187204903Y-87033000D01*
X187227780Y-87033000D01*
X187243267Y-87034219D01*
X187265858Y-87037797D01*
X187265858Y-87037796D01*
X187265859Y-87037797D01*
X187271173Y-87036373D01*
X187296796Y-87033000D01*
X193637525Y-87033000D01*
X193642705Y-87033135D01*
X193661892Y-87034141D01*
X193682738Y-87035234D01*
X193682738Y-87035233D01*
X193682739Y-87035234D01*
X193704093Y-87027036D01*
X193718988Y-87022624D01*
X193741365Y-87017869D01*
X193745814Y-87014635D01*
X193768529Y-87002302D01*
X193773664Y-87000332D01*
X193789843Y-86984151D01*
X193801650Y-86974068D01*
X193820158Y-86960622D01*
X193822907Y-86955859D01*
X193838636Y-86935358D01*
X194688998Y-86084996D01*
X194743513Y-86057221D01*
X194803945Y-86066792D01*
X194847210Y-86110057D01*
X194858000Y-86155002D01*
X194858000Y-86581908D01*
X194858000Y-86581926D01*
X194858001Y-86584556D01*
X194858282Y-86587172D01*
X194858283Y-86587187D01*
X194864300Y-86643157D01*
X194870874Y-86660784D01*
X194873493Y-86721913D01*
X194848119Y-86765383D01*
X194046599Y-87566904D01*
X193992082Y-87594681D01*
X193976595Y-87595900D01*
X181178904Y-87595900D01*
X181120713Y-87576993D01*
X181108900Y-87566904D01*
X179880901Y-86338904D01*
X179853124Y-86284387D01*
X179862695Y-86223955D01*
X179905960Y-86180690D01*
X179927201Y-86172780D01*
X179964193Y-86163663D01*
X180104929Y-86089799D01*
X180223898Y-85984401D01*
X180314187Y-85853595D01*
X180370549Y-85704982D01*
X180389707Y-85547200D01*
X180387994Y-85533096D01*
X180370549Y-85389419D01*
X180370549Y-85389418D01*
X180349698Y-85334441D01*
X180346742Y-85273331D01*
X180372261Y-85229333D01*
X180404617Y-85196979D01*
X180418502Y-85183095D01*
X180473019Y-85155319D01*
X180488504Y-85154100D01*
X187184251Y-85154100D01*
X187242442Y-85173007D01*
G37*
%TD.AperFunction*%
%TA.AperFunction,Conductor*%
G36*
X204676793Y-77768807D02*
G01*
X204688606Y-77778896D01*
X210771538Y-83861828D01*
X210799315Y-83916345D01*
X210800534Y-83931832D01*
X210800534Y-84009450D01*
X210781627Y-84067641D01*
X210747542Y-84097110D01*
X210649380Y-84148629D01*
X210530410Y-84254028D01*
X210440122Y-84384832D01*
X210383759Y-84533449D01*
X210375643Y-84600294D01*
X210349859Y-84655781D01*
X210296385Y-84685516D01*
X210235646Y-84678140D01*
X210207361Y-84658364D01*
X203467901Y-77918904D01*
X203440124Y-77864387D01*
X203449695Y-77803955D01*
X203492960Y-77760690D01*
X203537905Y-77749900D01*
X204618602Y-77749900D01*
X204676793Y-77768807D01*
G37*
%TD.AperFunction*%
%TA.AperFunction,Conductor*%
G36*
X192337074Y-74104854D02*
G01*
X192369746Y-74126542D01*
X193379936Y-75136732D01*
X193383503Y-75140492D01*
X193410328Y-75170285D01*
X193431227Y-75179590D01*
X193444876Y-75187000D01*
X193464063Y-75199461D01*
X193469495Y-75200321D01*
X193494274Y-75207661D01*
X193499303Y-75209900D01*
X193522186Y-75209900D01*
X193537672Y-75211118D01*
X193560258Y-75214696D01*
X193565570Y-75213272D01*
X193591191Y-75209900D01*
X199233802Y-75209900D01*
X199291993Y-75228807D01*
X199303806Y-75238896D01*
X200476405Y-76411496D01*
X200504182Y-76466013D01*
X200494611Y-76526445D01*
X200451346Y-76569710D01*
X200406401Y-76580500D01*
X194014104Y-76580500D01*
X193955913Y-76561593D01*
X193944100Y-76551504D01*
X191751461Y-74358865D01*
X191723684Y-74304348D01*
X191728898Y-74253758D01*
X191749749Y-74198782D01*
X191749996Y-74196743D01*
X191752852Y-74190597D01*
X191754012Y-74187540D01*
X191754233Y-74187624D01*
X191775778Y-74141258D01*
X191829251Y-74111522D01*
X191871964Y-74112553D01*
X191969929Y-74136700D01*
X192128871Y-74136700D01*
X192276051Y-74100423D01*
X192337074Y-74104854D01*
G37*
%TD.AperFunction*%
%TA.AperFunction,Conductor*%
G36*
X220520507Y-73450156D02*
G01*
X220480000Y-73588111D01*
X220480000Y-73731889D01*
X220520507Y-73869844D01*
X220546314Y-73910000D01*
X218873686Y-73910000D01*
X218899493Y-73869844D01*
X218940000Y-73731889D01*
X218940000Y-73588111D01*
X218899493Y-73450156D01*
X218873686Y-73410000D01*
X220546314Y-73410000D01*
X220520507Y-73450156D01*
G37*
%TD.AperFunction*%
%TD*%
M02*
