%TF.GenerationSoftware,KiCad,Pcbnew,7.0.2*%
%TF.CreationDate,2024-01-21T15:04:14+01:00*%
%TF.ProjectId,ESP32CAM,45535033-3243-4414-9d2e-6b696361645f,rev?*%
%TF.SameCoordinates,Original*%
%TF.FileFunction,Copper,L2,Inr*%
%TF.FilePolarity,Positive*%
%FSLAX46Y46*%
G04 Gerber Fmt 4.6, Leading zero omitted, Abs format (unit mm)*
G04 Created by KiCad (PCBNEW 7.0.2) date 2024-01-21 15:04:14*
%MOMM*%
%LPD*%
G01*
G04 APERTURE LIST*
%TA.AperFunction,ComponentPad*%
%ADD10O,2.100000X1.000000*%
%TD*%
%TA.AperFunction,ComponentPad*%
%ADD11O,1.800000X1.000000*%
%TD*%
%TA.AperFunction,ComponentPad*%
%ADD12R,1.700000X1.700000*%
%TD*%
%TA.AperFunction,ComponentPad*%
%ADD13O,1.700000X1.700000*%
%TD*%
%TA.AperFunction,ViaPad*%
%ADD14C,0.800000*%
%TD*%
G04 APERTURE END LIST*
D10*
%TO.N,GND*%
%TO.C,J1*%
X157030000Y-82180000D03*
D11*
X152850000Y-82180000D03*
D10*
X157030000Y-90820000D03*
D11*
X152850000Y-90820000D03*
%TD*%
D12*
%TO.N,Net-(J6-Pin_1)*%
%TO.C,J6*%
X201200000Y-82660000D03*
D13*
%TO.N,Net-(J6-Pin_2)*%
X201200000Y-85200000D03*
%TO.N,/VCC_ESP*%
X201200000Y-87740000D03*
%TO.N,GND*%
X201200000Y-90280000D03*
%TD*%
D12*
%TO.N,GND*%
%TO.C,J5*%
X223520000Y-99060000D03*
D13*
%TO.N,/TXD0*%
X220980000Y-99060000D03*
%TO.N,/RXD0*%
X218440000Y-99060000D03*
%TO.N,/VCC_ESP*%
X215900000Y-99060000D03*
%TO.N,/HS2_DATA1*%
X213360000Y-99060000D03*
%TO.N,/I016*%
X210820000Y-99060000D03*
%TO.N,/CSI_MCLK*%
X208280000Y-99060000D03*
%TO.N,/VCC_ESP*%
X205740000Y-99060000D03*
%TD*%
D12*
%TO.N,/USB_PWR*%
%TO.C,J3*%
X223520000Y-73660000D03*
D13*
%TO.N,GND*%
X220980000Y-73660000D03*
X218440000Y-73660000D03*
%TO.N,/HS2_CLK*%
X215900000Y-73660000D03*
%TO.N,/HS2_DATA2*%
X213360000Y-73660000D03*
%TO.N,/HS2_DATA3*%
X210820000Y-73660000D03*
%TO.N,/HS2_CMD*%
X208280000Y-73660000D03*
%TO.N,/HS2_DATA0*%
X205740000Y-73660000D03*
%TD*%
D14*
%TO.N,GND*%
X168200000Y-99800000D03*
X202971400Y-99060000D03*
X215000000Y-84000000D03*
X197590000Y-97750000D03*
X216600000Y-87400000D03*
X168250000Y-101000000D03*
X174421800Y-80772000D03*
X185547000Y-89103200D03*
X182250000Y-81170037D03*
X162640000Y-69690000D03*
X169500000Y-101000000D03*
X168250000Y-98750000D03*
X159871152Y-101317048D03*
X218400000Y-85600000D03*
X171170600Y-91567000D03*
X222750000Y-97000000D03*
X221005400Y-75133200D03*
X223748600Y-78892400D03*
X169500000Y-98750000D03*
X216600000Y-84000000D03*
X167000000Y-99800000D03*
X196950000Y-88100000D03*
X164846000Y-90525600D03*
X181140000Y-96080000D03*
X222750000Y-101000000D03*
X176225200Y-74498200D03*
X188870000Y-101790000D03*
X218400000Y-87400000D03*
X181100000Y-86950000D03*
X159004000Y-70993000D03*
X172339000Y-72821800D03*
X167000000Y-98750000D03*
X215000000Y-87400000D03*
X170383200Y-72847200D03*
X167000000Y-101000000D03*
X171399200Y-72847200D03*
X169400000Y-99800000D03*
X215000000Y-85600000D03*
X207237500Y-80962500D03*
X216600000Y-85600000D03*
X194925000Y-76025000D03*
X174447200Y-83769200D03*
X180175000Y-75300000D03*
X195450000Y-99940000D03*
X218400000Y-84000000D03*
X183591200Y-100888800D03*
X188175000Y-81675000D03*
%TO.N,/VCC_ESP*%
X174320200Y-85344000D03*
X202234800Y-71628000D03*
X187528200Y-83794600D03*
X163846666Y-101515066D03*
X187725000Y-89000000D03*
X177342800Y-92100000D03*
X222600000Y-70400000D03*
X202158600Y-75006200D03*
X205714600Y-100711000D03*
X222500000Y-79000000D03*
X198247000Y-92024200D03*
X168783000Y-87452200D03*
X170815000Y-78790800D03*
X165128500Y-94716600D03*
X172125000Y-75115000D03*
X182321200Y-83794600D03*
X174400000Y-82300000D03*
X160299400Y-96774000D03*
%TO.N,/EN*%
X162530000Y-74030000D03*
X174193200Y-95351600D03*
X221000000Y-79000000D03*
X175884200Y-70575800D03*
X163068000Y-79679800D03*
%TO.N,/CSI_D4*%
X218059000Y-90424000D03*
X186029600Y-74472800D03*
%TO.N,/CSI_D5*%
X187061676Y-76808158D03*
X212025102Y-86934492D03*
%TO.N,/CAM_RST*%
X178308000Y-82245200D03*
X191713543Y-70731452D03*
%TO.N,/CSI_D6*%
X187985400Y-76301600D03*
X211632702Y-85956796D03*
%TO.N,/CSI_D7*%
X211658235Y-83850100D03*
X189134400Y-74504654D03*
%TO.N,/CAM_PWR*%
X215163400Y-76301600D03*
X202336400Y-73228200D03*
%TO.N,/LED*%
X213817200Y-76352400D03*
X203454000Y-74930000D03*
X178816000Y-73406000D03*
X174218600Y-76123800D03*
%TO.N,/CSI_VSYNC*%
X192049400Y-73482200D03*
X211937600Y-82321400D03*
%TO.N,/TWI_SDA*%
X179730400Y-85547200D03*
X194259200Y-73353502D03*
X211861400Y-80086200D03*
X194063552Y-70603480D03*
%TO.N,/TWI_SCK*%
X192762500Y-70829203D03*
X211886800Y-81229200D03*
X178485800Y-85267800D03*
X193116200Y-73355200D03*
%TO.N,/HS2_CLK*%
X191363600Y-95783400D03*
X186625000Y-86175300D03*
X209677000Y-89560400D03*
%TO.N,/HS2_DATA2*%
X207949800Y-88417400D03*
X191920000Y-99880000D03*
X191430350Y-94732016D03*
%TO.N,/HS2_DATA3*%
X190424995Y-94417169D03*
X207481000Y-87097997D03*
X172920000Y-84090000D03*
%TO.N,/SD0*%
X204614306Y-90239544D03*
X204107500Y-96069823D03*
X200244457Y-98591597D03*
X204749400Y-88468200D03*
%TO.N,/HS2_CMD*%
X187675000Y-85825000D03*
X189331600Y-93903800D03*
X207487995Y-91086631D03*
X204012800Y-84455000D03*
%TO.N,/HS2_DATA0*%
X207314800Y-92125800D03*
X185089800Y-91109800D03*
X202869800Y-82270600D03*
X173180000Y-82940000D03*
X166930000Y-73230000D03*
%TO.N,/CSI_MCLK*%
X188645800Y-75438000D03*
X175285400Y-100507800D03*
X211023909Y-84691229D03*
X206857600Y-101422200D03*
%TO.N,/HS2_DATA1*%
X188569600Y-95935800D03*
X208762600Y-96494600D03*
X185115200Y-97409000D03*
X208952734Y-94144734D03*
X186205664Y-99967319D03*
%TO.N,/PSRAM_CLK*%
X201269600Y-98348800D03*
X211328000Y-97231200D03*
%TO.N,/CSI_D0*%
X185293000Y-75412600D03*
X212801200Y-90474800D03*
%TO.N,/CSI_D1*%
X212922980Y-92570653D03*
X183667400Y-77063600D03*
%TO.N,/CSI_D2*%
X214833200Y-93446600D03*
X182600600Y-77749400D03*
%TO.N,/CSI_D3*%
X212772737Y-91527918D03*
X184454800Y-76301600D03*
%TO.N,/RXD0*%
X197440000Y-101720000D03*
X169727252Y-94134000D03*
%TO.N,/TXD0*%
X171237063Y-94134000D03*
X197380742Y-102771835D03*
%TO.N,/CSI_PCLK*%
X212407500Y-88201500D03*
X186564297Y-77736857D03*
%TO.N,/CSI_HSYNC*%
X222758000Y-94005400D03*
X191109600Y-74041000D03*
%TO.N,/USB_PWR*%
X171958000Y-85039200D03*
X161950400Y-91541600D03*
X162052000Y-82296000D03*
X165100000Y-82296000D03*
X162500000Y-95000000D03*
%TO.N,/DATA+*%
X162814000Y-86588600D03*
X168554190Y-96459019D03*
%TO.N,/DATA-*%
X161823400Y-85826600D03*
X167503536Y-96381598D03*
%TO.N,/DTR*%
X176377600Y-102285800D03*
X171625000Y-98450000D03*
%TO.N,/RXD*%
X172161200Y-95250000D03*
X171069000Y-88341200D03*
%TO.N,/TXD*%
X171145200Y-89890600D03*
X169697400Y-96446500D03*
%TO.N,Net-(Q5-B)*%
X179349400Y-99745800D03*
X176593122Y-94728922D03*
%TO.N,Net-(J4-Pin_17)*%
X178155600Y-80772000D03*
X190550800Y-70688200D03*
%TD*%
%TA.AperFunction,Conductor*%
%TO.N,/VCC_ESP*%
G36*
X161732328Y-69270185D02*
G01*
X161778083Y-69322989D01*
X161788027Y-69392147D01*
X161783220Y-69412818D01*
X161754326Y-69501742D01*
X161734540Y-69690000D01*
X161754326Y-69878257D01*
X161812820Y-70058284D01*
X161907466Y-70222216D01*
X162034129Y-70362889D01*
X162187269Y-70474151D01*
X162360197Y-70551144D01*
X162545352Y-70590500D01*
X162545354Y-70590500D01*
X162734648Y-70590500D01*
X162803808Y-70575799D01*
X174978740Y-70575799D01*
X174998526Y-70764057D01*
X175057020Y-70944084D01*
X175151666Y-71108016D01*
X175278329Y-71248689D01*
X175431469Y-71359951D01*
X175604397Y-71436944D01*
X175789552Y-71476300D01*
X175789554Y-71476300D01*
X175978848Y-71476300D01*
X176102283Y-71450062D01*
X176164003Y-71436944D01*
X176336930Y-71359951D01*
X176395614Y-71317315D01*
X176490070Y-71248689D01*
X176616733Y-71108016D01*
X176711379Y-70944084D01*
X176733353Y-70876456D01*
X176769874Y-70764056D01*
X176777847Y-70688200D01*
X189645340Y-70688200D01*
X189648905Y-70722119D01*
X189665126Y-70876457D01*
X189723620Y-71056484D01*
X189818266Y-71220416D01*
X189944929Y-71361089D01*
X190098069Y-71472351D01*
X190270997Y-71549344D01*
X190456152Y-71588700D01*
X190456154Y-71588700D01*
X190645448Y-71588700D01*
X190785419Y-71558948D01*
X190830603Y-71549344D01*
X191003530Y-71472351D01*
X191029522Y-71453466D01*
X191095323Y-71429987D01*
X191163378Y-71445811D01*
X191175280Y-71453460D01*
X191206717Y-71476300D01*
X191260815Y-71515605D01*
X191433740Y-71592596D01*
X191618895Y-71631952D01*
X191618897Y-71631952D01*
X191808191Y-71631952D01*
X191931626Y-71605714D01*
X191993346Y-71592596D01*
X192084341Y-71552082D01*
X192106422Y-71542251D01*
X192175672Y-71532966D01*
X192229743Y-71555212D01*
X192309769Y-71613354D01*
X192482697Y-71690347D01*
X192667852Y-71729703D01*
X192667854Y-71729703D01*
X192857148Y-71729703D01*
X192980584Y-71703465D01*
X193042303Y-71690347D01*
X193215230Y-71613354D01*
X193368371Y-71502091D01*
X193451849Y-71409378D01*
X193511333Y-71372732D01*
X193581190Y-71374061D01*
X193598677Y-71382866D01*
X193598916Y-71382330D01*
X193783749Y-71464624D01*
X193968904Y-71503980D01*
X193968906Y-71503980D01*
X194158200Y-71503980D01*
X194288423Y-71476300D01*
X194343355Y-71464624D01*
X194516282Y-71387631D01*
X194516281Y-71387630D01*
X194669422Y-71276369D01*
X194719803Y-71220416D01*
X194796085Y-71135696D01*
X194890731Y-70971764D01*
X194949226Y-70791736D01*
X194969012Y-70603480D01*
X194949226Y-70415224D01*
X194890731Y-70235196D01*
X194890731Y-70235195D01*
X194796085Y-70071263D01*
X194669422Y-69930590D01*
X194516282Y-69819328D01*
X194343354Y-69742335D01*
X194158200Y-69702980D01*
X194158198Y-69702980D01*
X193968906Y-69702980D01*
X193968904Y-69702980D01*
X193783749Y-69742335D01*
X193610821Y-69819328D01*
X193457681Y-69930591D01*
X193374203Y-70023302D01*
X193314717Y-70059950D01*
X193244860Y-70058619D01*
X193227374Y-70049815D01*
X193227136Y-70050352D01*
X193042302Y-69968058D01*
X192857148Y-69928703D01*
X192857146Y-69928703D01*
X192667854Y-69928703D01*
X192667852Y-69928703D01*
X192482697Y-69968058D01*
X192369620Y-70018404D01*
X192300370Y-70027689D01*
X192246299Y-70005443D01*
X192166272Y-69947300D01*
X191993345Y-69870307D01*
X191808191Y-69830952D01*
X191808189Y-69830952D01*
X191618897Y-69830952D01*
X191618895Y-69830952D01*
X191433740Y-69870307D01*
X191260813Y-69947300D01*
X191234821Y-69966184D01*
X191169015Y-69989663D01*
X191100961Y-69973837D01*
X191089052Y-69966183D01*
X191003530Y-69904048D01*
X190830602Y-69827055D01*
X190645448Y-69787700D01*
X190645446Y-69787700D01*
X190456154Y-69787700D01*
X190456152Y-69787700D01*
X190270997Y-69827055D01*
X190098069Y-69904048D01*
X189944929Y-70015310D01*
X189818266Y-70155983D01*
X189723620Y-70319915D01*
X189665126Y-70499942D01*
X189649688Y-70646831D01*
X189645340Y-70688200D01*
X176777847Y-70688200D01*
X176789660Y-70575800D01*
X176769874Y-70387544D01*
X176716750Y-70224046D01*
X176711379Y-70207515D01*
X176616733Y-70043583D01*
X176490070Y-69902910D01*
X176336930Y-69791648D01*
X176164002Y-69714655D01*
X175978848Y-69675300D01*
X175978846Y-69675300D01*
X175789554Y-69675300D01*
X175789552Y-69675300D01*
X175604397Y-69714655D01*
X175431469Y-69791648D01*
X175278329Y-69902910D01*
X175151666Y-70043583D01*
X175057020Y-70207515D01*
X174998526Y-70387542D01*
X174978740Y-70575799D01*
X162803808Y-70575799D01*
X162858083Y-70564262D01*
X162919803Y-70551144D01*
X163092730Y-70474151D01*
X163111130Y-70460783D01*
X163245870Y-70362889D01*
X163266796Y-70339649D01*
X163372533Y-70222216D01*
X163467179Y-70058284D01*
X163525674Y-69878256D01*
X163545460Y-69690000D01*
X163525674Y-69501744D01*
X163496779Y-69412817D01*
X163494785Y-69342977D01*
X163530865Y-69283144D01*
X163593566Y-69252316D01*
X163614711Y-69250500D01*
X167642084Y-69250500D01*
X167709123Y-69270185D01*
X167754878Y-69322989D01*
X167764822Y-69392147D01*
X167740460Y-69449986D01*
X167717302Y-69480166D01*
X167659312Y-69620164D01*
X167639533Y-69770399D01*
X167659312Y-69920635D01*
X167710240Y-70043584D01*
X167717302Y-70060633D01*
X167809549Y-70180851D01*
X167929767Y-70273098D01*
X168069764Y-70331087D01*
X168182280Y-70345900D01*
X168186333Y-70345900D01*
X168253667Y-70345900D01*
X168257720Y-70345900D01*
X168370236Y-70331087D01*
X168510233Y-70273098D01*
X168630451Y-70180851D01*
X168722698Y-70060633D01*
X168780687Y-69920636D01*
X168800466Y-69770400D01*
X168780687Y-69620164D01*
X168722698Y-69480167D01*
X168717565Y-69473478D01*
X168699540Y-69449986D01*
X168674346Y-69384817D01*
X168688385Y-69316372D01*
X168737199Y-69266382D01*
X168797916Y-69250500D01*
X229167417Y-69250500D01*
X229221519Y-69250500D01*
X229228471Y-69250695D01*
X229257337Y-69252316D01*
X229509106Y-69266454D01*
X229522909Y-69268010D01*
X229796584Y-69314509D01*
X229810123Y-69317599D01*
X230076874Y-69394449D01*
X230089993Y-69399040D01*
X230212989Y-69449986D01*
X230337939Y-69501742D01*
X230346445Y-69505265D01*
X230358967Y-69511294D01*
X230545623Y-69614456D01*
X230601921Y-69645571D01*
X230613695Y-69652969D01*
X230840081Y-69813598D01*
X230850953Y-69822268D01*
X231055925Y-70005443D01*
X231057931Y-70007235D01*
X231067762Y-70017066D01*
X231135174Y-70092500D01*
X231252731Y-70224046D01*
X231261401Y-70234918D01*
X231422030Y-70461304D01*
X231429428Y-70473078D01*
X231563701Y-70716025D01*
X231569734Y-70728554D01*
X231675959Y-70985006D01*
X231680552Y-70998130D01*
X231757397Y-71264865D01*
X231760491Y-71278422D01*
X231806988Y-71552082D01*
X231808545Y-71565901D01*
X231824304Y-71846527D01*
X231824499Y-71853479D01*
X231824499Y-76148336D01*
X231804814Y-76215375D01*
X231752010Y-76261130D01*
X231700110Y-76272335D01*
X224575000Y-76249999D01*
X224575000Y-76375000D01*
X224581256Y-78147914D01*
X224561808Y-78215023D01*
X224509166Y-78260964D01*
X224440043Y-78271151D01*
X224376385Y-78242351D01*
X224365107Y-78231324D01*
X224354470Y-78219510D01*
X224201330Y-78108248D01*
X224028402Y-78031255D01*
X223843248Y-77991900D01*
X223843246Y-77991900D01*
X223653954Y-77991900D01*
X223653952Y-77991900D01*
X223468797Y-78031255D01*
X223295869Y-78108248D01*
X223142729Y-78219510D01*
X223016066Y-78360183D01*
X222921420Y-78524115D01*
X222862926Y-78704142D01*
X222843140Y-78892399D01*
X222843140Y-78892400D01*
X222853033Y-78986527D01*
X222862926Y-79080657D01*
X222921420Y-79260684D01*
X223016066Y-79424616D01*
X223142729Y-79565289D01*
X223295869Y-79676551D01*
X223468797Y-79753544D01*
X223653952Y-79792900D01*
X223653954Y-79792900D01*
X223843248Y-79792900D01*
X223966684Y-79766662D01*
X224028403Y-79753544D01*
X224201330Y-79676551D01*
X224354471Y-79565288D01*
X224370339Y-79547664D01*
X224429823Y-79511016D01*
X224499680Y-79512345D01*
X224557729Y-79551230D01*
X224585540Y-79615326D01*
X224586488Y-79630198D01*
X224640098Y-94819383D01*
X224644702Y-96124057D01*
X224649916Y-97601191D01*
X224630468Y-97668300D01*
X224577826Y-97714241D01*
X224508703Y-97724428D01*
X224482584Y-97717811D01*
X224477485Y-97715909D01*
X224421166Y-97709854D01*
X224421165Y-97709853D01*
X224417873Y-97709500D01*
X224414551Y-97709500D01*
X223594953Y-97709500D01*
X223527914Y-97689815D01*
X223482159Y-97637011D01*
X223472215Y-97567853D01*
X223487566Y-97523500D01*
X223577179Y-97368284D01*
X223580027Y-97359519D01*
X223635674Y-97188256D01*
X223655460Y-97000000D01*
X223635674Y-96811744D01*
X223593796Y-96682857D01*
X223577179Y-96631715D01*
X223482533Y-96467783D01*
X223355870Y-96327110D01*
X223202730Y-96215848D01*
X223029802Y-96138855D01*
X222844648Y-96099500D01*
X222844646Y-96099500D01*
X222655354Y-96099500D01*
X222655352Y-96099500D01*
X222470197Y-96138855D01*
X222297269Y-96215848D01*
X222144129Y-96327110D01*
X222017466Y-96467783D01*
X221922820Y-96631715D01*
X221864326Y-96811742D01*
X221856221Y-96888856D01*
X221844540Y-97000000D01*
X221850267Y-97054486D01*
X221864326Y-97188257D01*
X221922820Y-97368284D01*
X222017466Y-97532216D01*
X222144126Y-97672886D01*
X222144129Y-97672888D01*
X222238462Y-97741425D01*
X222281127Y-97796753D01*
X222287106Y-97866367D01*
X222264844Y-97916052D01*
X222226204Y-97967669D01*
X222177189Y-98099083D01*
X222135317Y-98155016D01*
X222069852Y-98179433D01*
X222001580Y-98164581D01*
X221973326Y-98143430D01*
X221851404Y-98021508D01*
X221851404Y-98021507D01*
X221851401Y-98021505D01*
X221657830Y-97885965D01*
X221443663Y-97786097D01*
X221381188Y-97769357D01*
X221215407Y-97724936D01*
X220980000Y-97704340D01*
X220744592Y-97724936D01*
X220516336Y-97786097D01*
X220302170Y-97885965D01*
X220108598Y-98021505D01*
X219941505Y-98188598D01*
X219811575Y-98374159D01*
X219756998Y-98417784D01*
X219687500Y-98424978D01*
X219625145Y-98393455D01*
X219608425Y-98374159D01*
X219544046Y-98282216D01*
X219478495Y-98188599D01*
X219311401Y-98021505D01*
X219117830Y-97885965D01*
X218903663Y-97786097D01*
X218841188Y-97769357D01*
X218675407Y-97724936D01*
X218440000Y-97704340D01*
X218204592Y-97724936D01*
X217976336Y-97786097D01*
X217762170Y-97885965D01*
X217568598Y-98021505D01*
X217401508Y-98188595D01*
X217401505Y-98188598D01*
X217401505Y-98188599D01*
X217335954Y-98282216D01*
X217271269Y-98374596D01*
X217216692Y-98418220D01*
X217147193Y-98425413D01*
X217084839Y-98393891D01*
X217068119Y-98374595D01*
X216938109Y-98188921D01*
X216771081Y-98021893D01*
X216577576Y-97886399D01*
X216363492Y-97786569D01*
X216149999Y-97729364D01*
X216149999Y-98624498D01*
X216042315Y-98575320D01*
X215935763Y-98560000D01*
X215864237Y-98560000D01*
X215757685Y-98575320D01*
X215650000Y-98624498D01*
X215650000Y-97729364D01*
X215649999Y-97729364D01*
X215436507Y-97786569D01*
X215222421Y-97886400D01*
X215028921Y-98021890D01*
X214861893Y-98188918D01*
X214731880Y-98374596D01*
X214677303Y-98418220D01*
X214607804Y-98425413D01*
X214545450Y-98393891D01*
X214528730Y-98374595D01*
X214515431Y-98355602D01*
X214398495Y-98188599D01*
X214231401Y-98021505D01*
X214037830Y-97885965D01*
X213823663Y-97786097D01*
X213761188Y-97769357D01*
X213595407Y-97724936D01*
X213360000Y-97704340D01*
X213124592Y-97724936D01*
X212896336Y-97786097D01*
X212682170Y-97885965D01*
X212488598Y-98021505D01*
X212321505Y-98188598D01*
X212191575Y-98374159D01*
X212136998Y-98417784D01*
X212067500Y-98424978D01*
X212005145Y-98393455D01*
X211988425Y-98374159D01*
X211924046Y-98282216D01*
X211858495Y-98188599D01*
X211828088Y-98158192D01*
X211794603Y-98096869D01*
X211799587Y-98027177D01*
X211841459Y-97971244D01*
X211842801Y-97970253D01*
X211933871Y-97904088D01*
X212060533Y-97763416D01*
X212155179Y-97599484D01*
X212213674Y-97419456D01*
X212233460Y-97231200D01*
X212213674Y-97042944D01*
X212171717Y-96913814D01*
X212155179Y-96862915D01*
X212060533Y-96698983D01*
X211933870Y-96558310D01*
X211780730Y-96447048D01*
X211607802Y-96370055D01*
X211422648Y-96330700D01*
X211422646Y-96330700D01*
X211233354Y-96330700D01*
X211233352Y-96330700D01*
X211048197Y-96370055D01*
X210875269Y-96447048D01*
X210722129Y-96558310D01*
X210595466Y-96698983D01*
X210500820Y-96862915D01*
X210442326Y-97042942D01*
X210423950Y-97217783D01*
X210422540Y-97231200D01*
X210430574Y-97307644D01*
X210442326Y-97419457D01*
X210504648Y-97611264D01*
X210506643Y-97681105D01*
X210470562Y-97740938D01*
X210418811Y-97769357D01*
X210356335Y-97786097D01*
X210142170Y-97885965D01*
X209948598Y-98021505D01*
X209781505Y-98188598D01*
X209651575Y-98374159D01*
X209596998Y-98417784D01*
X209527500Y-98424978D01*
X209465145Y-98393455D01*
X209448425Y-98374159D01*
X209384046Y-98282216D01*
X209318495Y-98188599D01*
X209151401Y-98021505D01*
X208957830Y-97885965D01*
X208743663Y-97786097D01*
X208681188Y-97769357D01*
X208515407Y-97724936D01*
X208280000Y-97704340D01*
X208044592Y-97724936D01*
X207816336Y-97786097D01*
X207602170Y-97885965D01*
X207408598Y-98021505D01*
X207241508Y-98188595D01*
X207241505Y-98188598D01*
X207241505Y-98188599D01*
X207175954Y-98282216D01*
X207111269Y-98374596D01*
X207056692Y-98418220D01*
X206987193Y-98425413D01*
X206924839Y-98393891D01*
X206908119Y-98374595D01*
X206778109Y-98188921D01*
X206611081Y-98021893D01*
X206417576Y-97886399D01*
X206203492Y-97786569D01*
X205989999Y-97729364D01*
X205989999Y-98624498D01*
X205882315Y-98575320D01*
X205775763Y-98560000D01*
X205704237Y-98560000D01*
X205597685Y-98575320D01*
X205490000Y-98624498D01*
X205490000Y-97729364D01*
X205489999Y-97729364D01*
X205276507Y-97786569D01*
X205062421Y-97886400D01*
X204868921Y-98021890D01*
X204701890Y-98188921D01*
X204566400Y-98382421D01*
X204466569Y-98596507D01*
X204409364Y-98809999D01*
X204409364Y-98810000D01*
X205306314Y-98810000D01*
X205280507Y-98850156D01*
X205240000Y-98988111D01*
X205240000Y-99131889D01*
X205280507Y-99269844D01*
X205306314Y-99310000D01*
X204409364Y-99310000D01*
X204466569Y-99523492D01*
X204566399Y-99737576D01*
X204701893Y-99931081D01*
X204868918Y-100098106D01*
X205062423Y-100233600D01*
X205276509Y-100333430D01*
X205490000Y-100390634D01*
X205490000Y-99495501D01*
X205597685Y-99544680D01*
X205704237Y-99560000D01*
X205775763Y-99560000D01*
X205882315Y-99544680D01*
X205989999Y-99495501D01*
X205989999Y-100390633D01*
X206203491Y-100333430D01*
X206417576Y-100233600D01*
X206611081Y-100098106D01*
X206778109Y-99931078D01*
X206908119Y-99745405D01*
X206962696Y-99701780D01*
X207032194Y-99694586D01*
X207094549Y-99726109D01*
X207111265Y-99745400D01*
X207241505Y-99931401D01*
X207408599Y-100098495D01*
X207602170Y-100234035D01*
X207816337Y-100333903D01*
X208044592Y-100395063D01*
X208280000Y-100415659D01*
X208515408Y-100395063D01*
X208743663Y-100333903D01*
X208957830Y-100234035D01*
X209151401Y-100098495D01*
X209318495Y-99931401D01*
X209448427Y-99745838D01*
X209503001Y-99702216D01*
X209572499Y-99695022D01*
X209634854Y-99726545D01*
X209651572Y-99745838D01*
X209781505Y-99931401D01*
X209948599Y-100098495D01*
X210142170Y-100234035D01*
X210356337Y-100333903D01*
X210584592Y-100395063D01*
X210820000Y-100415659D01*
X211055408Y-100395063D01*
X211283663Y-100333903D01*
X211497830Y-100234035D01*
X211691401Y-100098495D01*
X211858495Y-99931401D01*
X211988426Y-99745839D01*
X212043002Y-99702216D01*
X212112500Y-99695022D01*
X212174855Y-99726545D01*
X212191571Y-99745837D01*
X212321505Y-99931401D01*
X212488599Y-100098495D01*
X212682170Y-100234035D01*
X212896337Y-100333903D01*
X213124592Y-100395063D01*
X213360000Y-100415659D01*
X213595408Y-100395063D01*
X213823663Y-100333903D01*
X214037830Y-100234035D01*
X214231401Y-100098495D01*
X214398495Y-99931401D01*
X214528732Y-99745403D01*
X214583307Y-99701780D01*
X214652805Y-99694586D01*
X214715160Y-99726109D01*
X214731880Y-99745404D01*
X214861893Y-99931081D01*
X215028918Y-100098106D01*
X215222423Y-100233600D01*
X215436509Y-100333430D01*
X215650000Y-100390634D01*
X215650000Y-99495501D01*
X215757685Y-99544680D01*
X215864237Y-99560000D01*
X215935763Y-99560000D01*
X216042315Y-99544680D01*
X216149999Y-99495501D01*
X216149999Y-100390633D01*
X216363491Y-100333430D01*
X216577576Y-100233600D01*
X216771081Y-100098106D01*
X216938109Y-99931078D01*
X217068119Y-99745405D01*
X217122696Y-99701780D01*
X217192194Y-99694586D01*
X217254549Y-99726109D01*
X217271265Y-99745400D01*
X217401505Y-99931401D01*
X217568599Y-100098495D01*
X217762170Y-100234035D01*
X217976337Y-100333903D01*
X218188059Y-100390633D01*
X218204592Y-100395063D01*
X218439999Y-100415659D01*
X218439999Y-100415658D01*
X218440000Y-100415659D01*
X218675408Y-100395063D01*
X218903663Y-100333903D01*
X219117830Y-100234035D01*
X219311401Y-100098495D01*
X219478495Y-99931401D01*
X219608427Y-99745838D01*
X219663001Y-99702216D01*
X219732499Y-99695022D01*
X219794854Y-99726545D01*
X219811572Y-99745838D01*
X219941505Y-99931401D01*
X220108599Y-100098495D01*
X220302170Y-100234035D01*
X220516337Y-100333903D01*
X220744592Y-100395063D01*
X220980000Y-100415659D01*
X221215408Y-100395063D01*
X221443663Y-100333903D01*
X221657830Y-100234035D01*
X221851401Y-100098495D01*
X221973329Y-99976566D01*
X222034648Y-99943084D01*
X222104340Y-99948068D01*
X222160274Y-99989939D01*
X222177189Y-100020916D01*
X222219653Y-100134768D01*
X222227071Y-100154655D01*
X222232055Y-100224347D01*
X222198570Y-100285670D01*
X222183775Y-100298307D01*
X222144128Y-100327112D01*
X222017466Y-100467783D01*
X221922820Y-100631715D01*
X221864326Y-100811742D01*
X221844540Y-101000000D01*
X221864326Y-101188257D01*
X221922820Y-101368284D01*
X222017466Y-101532216D01*
X222144129Y-101672889D01*
X222297269Y-101784151D01*
X222470197Y-101861144D01*
X222655352Y-101900500D01*
X222655354Y-101900500D01*
X222844648Y-101900500D01*
X222968083Y-101874262D01*
X223029803Y-101861144D01*
X223202730Y-101784151D01*
X223244802Y-101753584D01*
X223355870Y-101672889D01*
X223419930Y-101601744D01*
X223482533Y-101532216D01*
X223577179Y-101368284D01*
X223635674Y-101188256D01*
X223655460Y-101000000D01*
X223635674Y-100811744D01*
X223598085Y-100696057D01*
X223577179Y-100631715D01*
X223556847Y-100596499D01*
X223540374Y-100528599D01*
X223563227Y-100462572D01*
X223618148Y-100419381D01*
X223664234Y-100410499D01*
X224414561Y-100410499D01*
X224417872Y-100410499D01*
X224477483Y-100404091D01*
X224612331Y-100353796D01*
X224727546Y-100267546D01*
X224734495Y-100258264D01*
X226545745Y-100258264D01*
X226545896Y-100262594D01*
X226545896Y-100262600D01*
X226555601Y-100540524D01*
X226555601Y-100540532D01*
X226555753Y-100544859D01*
X226556504Y-100549119D01*
X226556505Y-100549127D01*
X226604797Y-100823004D01*
X226605550Y-100827272D01*
X226606886Y-100831386D01*
X226606888Y-100831391D01*
X226692826Y-101095881D01*
X226692829Y-101095889D01*
X226694167Y-101100006D01*
X226696068Y-101103904D01*
X226696069Y-101103906D01*
X226816934Y-101351716D01*
X226819879Y-101357753D01*
X226980238Y-101595496D01*
X226983133Y-101598711D01*
X226983136Y-101598715D01*
X227169224Y-101805387D01*
X227169230Y-101805392D01*
X227172125Y-101808608D01*
X227391803Y-101992940D01*
X227395476Y-101995235D01*
X227615302Y-102132598D01*
X227634998Y-102144905D01*
X227896975Y-102261545D01*
X228172636Y-102340589D01*
X228456615Y-102380500D01*
X228460948Y-102380500D01*
X228669454Y-102380500D01*
X228671604Y-102380500D01*
X228886071Y-102365503D01*
X229166575Y-102305880D01*
X229436050Y-102207799D01*
X229689253Y-102073169D01*
X229921254Y-101904610D01*
X230127539Y-101705403D01*
X230304093Y-101479425D01*
X230447477Y-101231075D01*
X230554903Y-100965187D01*
X230624279Y-100686935D01*
X230654255Y-100401736D01*
X230644247Y-100115141D01*
X230594450Y-99832728D01*
X230505833Y-99559994D01*
X230380121Y-99302247D01*
X230219762Y-99064504D01*
X230215706Y-99059999D01*
X230030775Y-98854612D01*
X230030769Y-98854606D01*
X230027875Y-98851392D01*
X229988418Y-98818284D01*
X229811516Y-98669845D01*
X229808197Y-98667060D01*
X229804523Y-98664764D01*
X229568671Y-98517387D01*
X229568664Y-98517383D01*
X229565002Y-98515095D01*
X229561055Y-98513337D01*
X229561050Y-98513335D01*
X229306972Y-98400212D01*
X229306968Y-98400210D01*
X229303025Y-98398455D01*
X229298878Y-98397266D01*
X229298873Y-98397264D01*
X229031516Y-98320601D01*
X229031508Y-98320599D01*
X229027364Y-98319411D01*
X229023081Y-98318809D01*
X228747677Y-98280103D01*
X228747674Y-98280102D01*
X228743385Y-98279500D01*
X228528396Y-98279500D01*
X228526279Y-98279648D01*
X228526251Y-98279649D01*
X228318250Y-98294194D01*
X228318238Y-98294195D01*
X228313929Y-98294497D01*
X228309694Y-98295397D01*
X228309688Y-98295398D01*
X228037668Y-98353218D01*
X228037666Y-98353218D01*
X228033425Y-98354120D01*
X228029357Y-98355600D01*
X228029352Y-98355602D01*
X227768023Y-98450718D01*
X227768016Y-98450720D01*
X227763950Y-98452201D01*
X227760126Y-98454234D01*
X227760122Y-98454236D01*
X227514568Y-98584798D01*
X227514553Y-98584807D01*
X227510747Y-98586831D01*
X227507247Y-98589373D01*
X227507242Y-98589377D01*
X227282253Y-98752841D01*
X227282244Y-98752848D01*
X227278746Y-98755390D01*
X227275637Y-98758392D01*
X227275629Y-98758399D01*
X227075575Y-98951589D01*
X227075569Y-98951595D01*
X227072461Y-98954597D01*
X227069798Y-98958005D01*
X227069793Y-98958011D01*
X226898575Y-99177159D01*
X226898569Y-99177167D01*
X226895907Y-99180575D01*
X226893745Y-99184318D01*
X226893740Y-99184327D01*
X226754688Y-99425173D01*
X226754681Y-99425186D01*
X226752523Y-99428925D01*
X226750907Y-99432924D01*
X226750900Y-99432939D01*
X226646719Y-99690796D01*
X226646714Y-99690808D01*
X226645097Y-99694813D01*
X226644050Y-99699010D01*
X226644049Y-99699015D01*
X226577154Y-99967319D01*
X226575721Y-99973065D01*
X226575270Y-99977350D01*
X226575268Y-99977365D01*
X226546197Y-100253954D01*
X226546196Y-100253968D01*
X226545745Y-100258264D01*
X224734495Y-100258264D01*
X224813796Y-100152331D01*
X224864091Y-100017483D01*
X224870500Y-99957873D01*
X224870499Y-98162128D01*
X224864091Y-98102517D01*
X224813796Y-97967669D01*
X224727546Y-97852454D01*
X224721953Y-97848267D01*
X224680082Y-97792333D01*
X224675098Y-97722641D01*
X224708583Y-97661318D01*
X224769907Y-97627834D01*
X224796264Y-97625000D01*
X231700500Y-97625000D01*
X231767539Y-97644685D01*
X231813294Y-97697489D01*
X231824500Y-97749000D01*
X231824500Y-100796519D01*
X231824305Y-100803472D01*
X231808545Y-101084099D01*
X231806988Y-101097917D01*
X231760491Y-101371577D01*
X231757397Y-101385134D01*
X231680552Y-101651869D01*
X231675959Y-101664993D01*
X231569734Y-101921445D01*
X231563701Y-101933974D01*
X231429428Y-102176921D01*
X231422030Y-102188695D01*
X231261401Y-102415081D01*
X231252731Y-102425953D01*
X231067764Y-102632931D01*
X231057931Y-102642764D01*
X230850953Y-102827731D01*
X230840081Y-102836401D01*
X230613695Y-102997030D01*
X230601921Y-103004428D01*
X230358974Y-103138701D01*
X230346445Y-103144734D01*
X230089993Y-103250959D01*
X230076869Y-103255552D01*
X229810134Y-103332397D01*
X229796577Y-103335491D01*
X229522917Y-103381988D01*
X229509099Y-103383545D01*
X229228472Y-103399305D01*
X229221519Y-103399500D01*
X198272942Y-103399500D01*
X198205903Y-103379815D01*
X198160148Y-103327011D01*
X198150204Y-103257853D01*
X198165555Y-103213500D01*
X198207921Y-103140119D01*
X198245402Y-103024764D01*
X198266416Y-102960091D01*
X198286202Y-102771835D01*
X198266416Y-102583579D01*
X198207921Y-102403551D01*
X198207920Y-102403550D01*
X198207920Y-102403548D01*
X198182336Y-102359234D01*
X198165863Y-102291334D01*
X198182334Y-102235239D01*
X198267179Y-102088284D01*
X198325674Y-101908256D01*
X198345460Y-101720000D01*
X198325674Y-101531744D01*
X198290879Y-101424656D01*
X198290081Y-101422199D01*
X205952140Y-101422199D01*
X205971926Y-101610457D01*
X206030420Y-101790484D01*
X206125066Y-101954416D01*
X206251729Y-102095089D01*
X206404869Y-102206351D01*
X206577797Y-102283344D01*
X206762952Y-102322700D01*
X206762954Y-102322700D01*
X206952248Y-102322700D01*
X207075683Y-102296462D01*
X207137403Y-102283344D01*
X207310330Y-102206351D01*
X207318385Y-102200499D01*
X207463470Y-102095089D01*
X207590133Y-101954416D01*
X207684779Y-101790484D01*
X207686837Y-101784151D01*
X207743274Y-101610456D01*
X207763060Y-101422200D01*
X207743274Y-101233944D01*
X207699076Y-101097917D01*
X207684779Y-101053915D01*
X207590133Y-100889983D01*
X207463470Y-100749310D01*
X207310330Y-100638048D01*
X207137402Y-100561055D01*
X206952248Y-100521700D01*
X206952246Y-100521700D01*
X206762954Y-100521700D01*
X206762952Y-100521700D01*
X206577797Y-100561055D01*
X206404869Y-100638048D01*
X206251729Y-100749310D01*
X206125066Y-100889983D01*
X206030420Y-101053915D01*
X205971926Y-101233942D01*
X205952140Y-101422199D01*
X198290081Y-101422199D01*
X198267179Y-101351715D01*
X198172533Y-101187783D01*
X198045870Y-101047110D01*
X197892730Y-100935848D01*
X197719802Y-100858855D01*
X197534648Y-100819500D01*
X197534646Y-100819500D01*
X197345354Y-100819500D01*
X197345352Y-100819500D01*
X197160197Y-100858855D01*
X196987269Y-100935848D01*
X196834129Y-101047110D01*
X196707466Y-101187783D01*
X196612820Y-101351715D01*
X196554326Y-101531742D01*
X196534540Y-101720000D01*
X196554326Y-101908257D01*
X196612820Y-102088284D01*
X196638405Y-102132598D01*
X196654878Y-102200499D01*
X196638405Y-102256598D01*
X196553562Y-102403550D01*
X196495068Y-102583577D01*
X196475282Y-102771834D01*
X196495068Y-102960092D01*
X196553562Y-103140119D01*
X196595929Y-103213500D01*
X196612402Y-103281400D01*
X196589549Y-103347427D01*
X196534628Y-103390618D01*
X196488542Y-103399500D01*
X193797305Y-103399500D01*
X193730266Y-103379815D01*
X193684511Y-103327011D01*
X193674366Y-103259315D01*
X193685466Y-103175000D01*
X193665687Y-103024764D01*
X193665686Y-103024764D01*
X193607698Y-102884767D01*
X193515451Y-102764549D01*
X193395233Y-102672302D01*
X193255236Y-102614313D01*
X193196356Y-102606561D01*
X193146739Y-102600029D01*
X193146737Y-102600028D01*
X193142720Y-102599500D01*
X193067280Y-102599500D01*
X193063263Y-102600028D01*
X193063260Y-102600029D01*
X192954764Y-102614313D01*
X192814768Y-102672301D01*
X192694549Y-102764549D01*
X192602301Y-102884768D01*
X192544312Y-103024764D01*
X192524533Y-103175000D01*
X192535634Y-103259315D01*
X192524868Y-103328350D01*
X192478488Y-103380606D01*
X192412695Y-103399500D01*
X185478621Y-103399500D01*
X185411582Y-103379815D01*
X185365827Y-103327011D01*
X185355682Y-103259314D01*
X185355875Y-103257853D01*
X185365466Y-103185000D01*
X185364149Y-103175000D01*
X185345687Y-103034764D01*
X185330057Y-102997030D01*
X185287698Y-102894767D01*
X185195451Y-102774549D01*
X185075233Y-102682302D01*
X184935236Y-102624313D01*
X184876356Y-102616561D01*
X184826739Y-102610029D01*
X184826737Y-102610028D01*
X184822720Y-102609500D01*
X184747280Y-102609500D01*
X184743263Y-102610028D01*
X184743260Y-102610029D01*
X184634764Y-102624313D01*
X184494768Y-102682301D01*
X184374549Y-102774549D01*
X184282301Y-102894768D01*
X184224312Y-103034764D01*
X184204533Y-103184999D01*
X184208286Y-103213500D01*
X184214125Y-103257853D01*
X184214318Y-103259314D01*
X184203553Y-103328349D01*
X184157173Y-103380605D01*
X184091379Y-103399500D01*
X176649003Y-103399500D01*
X176581964Y-103379815D01*
X176536209Y-103327011D01*
X176526265Y-103257853D01*
X176555290Y-103194297D01*
X176614068Y-103156523D01*
X176623222Y-103154210D01*
X176649133Y-103148701D01*
X176657403Y-103146944D01*
X176830330Y-103069951D01*
X176983471Y-102958688D01*
X177110133Y-102818016D01*
X177204779Y-102654084D01*
X177263274Y-102474056D01*
X177283060Y-102285800D01*
X177263274Y-102097544D01*
X177204779Y-101917516D01*
X177204779Y-101917515D01*
X177131158Y-101790000D01*
X187964540Y-101790000D01*
X187984326Y-101978257D01*
X188042820Y-102158284D01*
X188137466Y-102322216D01*
X188264129Y-102462889D01*
X188417269Y-102574151D01*
X188590197Y-102651144D01*
X188775352Y-102690500D01*
X188775354Y-102690500D01*
X188964648Y-102690500D01*
X189088083Y-102664262D01*
X189149803Y-102651144D01*
X189322730Y-102574151D01*
X189475871Y-102462888D01*
X189602533Y-102322216D01*
X189697179Y-102158284D01*
X189755674Y-101978256D01*
X189775460Y-101790000D01*
X189755674Y-101601744D01*
X189715930Y-101479425D01*
X189697179Y-101421715D01*
X189602533Y-101257783D01*
X189475870Y-101117110D01*
X189322730Y-101005848D01*
X189149802Y-100928855D01*
X188964648Y-100889500D01*
X188964646Y-100889500D01*
X188775354Y-100889500D01*
X188775352Y-100889500D01*
X188590197Y-100928855D01*
X188417269Y-101005848D01*
X188264129Y-101117110D01*
X188137466Y-101257783D01*
X188042820Y-101421715D01*
X187984326Y-101601742D01*
X187964540Y-101790000D01*
X177131158Y-101790000D01*
X177110133Y-101753583D01*
X176983470Y-101612910D01*
X176830330Y-101501648D01*
X176657402Y-101424655D01*
X176472248Y-101385300D01*
X176472246Y-101385300D01*
X176282954Y-101385300D01*
X176282952Y-101385300D01*
X176097797Y-101424655D01*
X175924869Y-101501648D01*
X175771729Y-101612910D01*
X175645066Y-101753583D01*
X175550420Y-101917515D01*
X175491926Y-102097542D01*
X175472140Y-102285800D01*
X175491926Y-102474057D01*
X175550420Y-102654084D01*
X175645066Y-102818016D01*
X175771729Y-102958689D01*
X175924869Y-103069951D01*
X176097797Y-103146944D01*
X176131978Y-103154210D01*
X176193460Y-103187402D01*
X176227236Y-103248565D01*
X176222584Y-103318280D01*
X176180979Y-103374412D01*
X176115632Y-103399141D01*
X176106197Y-103399500D01*
X153253481Y-103399500D01*
X153246528Y-103399305D01*
X152965900Y-103383545D01*
X152952082Y-103381988D01*
X152678422Y-103335491D01*
X152664865Y-103332397D01*
X152398130Y-103255552D01*
X152385006Y-103250959D01*
X152128554Y-103144734D01*
X152116025Y-103138701D01*
X151873078Y-103004428D01*
X151861304Y-102997030D01*
X151634918Y-102836401D01*
X151624046Y-102827731D01*
X151417068Y-102642764D01*
X151407235Y-102632931D01*
X151399533Y-102624313D01*
X151222268Y-102425953D01*
X151213598Y-102415081D01*
X151052969Y-102188695D01*
X151045571Y-102176921D01*
X151001701Y-102097544D01*
X150911294Y-101933967D01*
X150905265Y-101921445D01*
X150899802Y-101908257D01*
X150835735Y-101753583D01*
X150799040Y-101664993D01*
X150794447Y-101651869D01*
X150783224Y-101612912D01*
X150717599Y-101385123D01*
X150714508Y-101371577D01*
X150714061Y-101368944D01*
X150668010Y-101097909D01*
X150666454Y-101084106D01*
X150650695Y-100803471D01*
X150650500Y-100796519D01*
X150650500Y-100258264D01*
X152250745Y-100258264D01*
X152250896Y-100262594D01*
X152250896Y-100262600D01*
X152260601Y-100540524D01*
X152260601Y-100540532D01*
X152260753Y-100544859D01*
X152261504Y-100549119D01*
X152261505Y-100549127D01*
X152309797Y-100823004D01*
X152310550Y-100827272D01*
X152311886Y-100831386D01*
X152311888Y-100831391D01*
X152397826Y-101095881D01*
X152397829Y-101095889D01*
X152399167Y-101100006D01*
X152401068Y-101103904D01*
X152401069Y-101103906D01*
X152521934Y-101351716D01*
X152524879Y-101357753D01*
X152685238Y-101595496D01*
X152688133Y-101598711D01*
X152688136Y-101598715D01*
X152874224Y-101805387D01*
X152874230Y-101805392D01*
X152877125Y-101808608D01*
X153096803Y-101992940D01*
X153100476Y-101995235D01*
X153320302Y-102132598D01*
X153339998Y-102144905D01*
X153601975Y-102261545D01*
X153877636Y-102340589D01*
X154161615Y-102380500D01*
X154165948Y-102380500D01*
X154374454Y-102380500D01*
X154376604Y-102380500D01*
X154591071Y-102365503D01*
X154871575Y-102305880D01*
X155141050Y-102207799D01*
X155394253Y-102073169D01*
X155626254Y-101904610D01*
X155832539Y-101705403D01*
X156009093Y-101479425D01*
X156102841Y-101317048D01*
X158965692Y-101317048D01*
X158985478Y-101505305D01*
X159043972Y-101685332D01*
X159138618Y-101849264D01*
X159265281Y-101989937D01*
X159418421Y-102101199D01*
X159591349Y-102178192D01*
X159776504Y-102217548D01*
X159776506Y-102217548D01*
X159965800Y-102217548D01*
X160101542Y-102188695D01*
X160150955Y-102178192D01*
X160323882Y-102101199D01*
X160365968Y-102070622D01*
X160477022Y-101989937D01*
X160527412Y-101933974D01*
X160603685Y-101849264D01*
X160698331Y-101685332D01*
X160756826Y-101505304D01*
X160776612Y-101317048D01*
X160756826Y-101128792D01*
X160714978Y-100999999D01*
X166094540Y-100999999D01*
X166114326Y-101188257D01*
X166172820Y-101368284D01*
X166267466Y-101532216D01*
X166394129Y-101672889D01*
X166547269Y-101784151D01*
X166720197Y-101861144D01*
X166905352Y-101900500D01*
X166905354Y-101900500D01*
X167094648Y-101900500D01*
X167218083Y-101874262D01*
X167279803Y-101861144D01*
X167452730Y-101784151D01*
X167552115Y-101711943D01*
X167617921Y-101688464D01*
X167685974Y-101704289D01*
X167697878Y-101711939D01*
X167797270Y-101784151D01*
X167797271Y-101784151D01*
X167797272Y-101784152D01*
X167970197Y-101861144D01*
X168155352Y-101900500D01*
X168155354Y-101900500D01*
X168344648Y-101900500D01*
X168468084Y-101874262D01*
X168529803Y-101861144D01*
X168702730Y-101784151D01*
X168802115Y-101711943D01*
X168867921Y-101688464D01*
X168935974Y-101704289D01*
X168947878Y-101711939D01*
X169047270Y-101784151D01*
X169047271Y-101784151D01*
X169047272Y-101784152D01*
X169220197Y-101861144D01*
X169405352Y-101900500D01*
X169405354Y-101900500D01*
X169594648Y-101900500D01*
X169718084Y-101874262D01*
X169779803Y-101861144D01*
X169952730Y-101784151D01*
X169994802Y-101753584D01*
X170105870Y-101672889D01*
X170169930Y-101601744D01*
X170232533Y-101532216D01*
X170327179Y-101368284D01*
X170385674Y-101188256D01*
X170405460Y-101000000D01*
X170385674Y-100811744D01*
X170348085Y-100696057D01*
X170327179Y-100631715D01*
X170255637Y-100507800D01*
X174379940Y-100507800D01*
X174399726Y-100696057D01*
X174458220Y-100876084D01*
X174552866Y-101040016D01*
X174679529Y-101180689D01*
X174832669Y-101291951D01*
X175005597Y-101368944D01*
X175190752Y-101408300D01*
X175190754Y-101408300D01*
X175380048Y-101408300D01*
X175520513Y-101378443D01*
X175565203Y-101368944D01*
X175738130Y-101291951D01*
X175785157Y-101257784D01*
X175891270Y-101180689D01*
X175937999Y-101128792D01*
X176017933Y-101040016D01*
X176105237Y-100888800D01*
X182685740Y-100888800D01*
X182689828Y-100927698D01*
X182705526Y-101077057D01*
X182764020Y-101257084D01*
X182858666Y-101421016D01*
X182985329Y-101561689D01*
X183138469Y-101672951D01*
X183311397Y-101749944D01*
X183496552Y-101789300D01*
X183496554Y-101789300D01*
X183685848Y-101789300D01*
X183809283Y-101763062D01*
X183871003Y-101749944D01*
X184043930Y-101672951D01*
X184129946Y-101610457D01*
X184197070Y-101561689D01*
X184224035Y-101531742D01*
X184323733Y-101421016D01*
X184418379Y-101257084D01*
X184476874Y-101077056D01*
X184476874Y-101077051D01*
X184477452Y-101075274D01*
X184516889Y-101017598D01*
X184581247Y-100990399D01*
X184618309Y-100995593D01*
X184618578Y-100993556D01*
X184634763Y-100995686D01*
X184634764Y-100995687D01*
X184747280Y-101010500D01*
X184751333Y-101010500D01*
X184818667Y-101010500D01*
X184822720Y-101010500D01*
X184935236Y-100995687D01*
X185075233Y-100937698D01*
X185195451Y-100845451D01*
X185287698Y-100725233D01*
X185334948Y-100611161D01*
X185378787Y-100556759D01*
X185445081Y-100534694D01*
X185512781Y-100551973D01*
X185541657Y-100575642D01*
X185599793Y-100640207D01*
X185752933Y-100751470D01*
X185925861Y-100828463D01*
X186111016Y-100867819D01*
X186111018Y-100867819D01*
X186300312Y-100867819D01*
X186428837Y-100840500D01*
X186485467Y-100828463D01*
X186658394Y-100751470D01*
X186753139Y-100682634D01*
X186811534Y-100640208D01*
X186938197Y-100499535D01*
X187032843Y-100335603D01*
X187033549Y-100333430D01*
X187091338Y-100155575D01*
X187111124Y-99967319D01*
X187101947Y-99880000D01*
X191014540Y-99880000D01*
X191020748Y-99939068D01*
X191034326Y-100068257D01*
X191092820Y-100248284D01*
X191187466Y-100412216D01*
X191314129Y-100552889D01*
X191467269Y-100664151D01*
X191640197Y-100741144D01*
X191825352Y-100780500D01*
X191825354Y-100780500D01*
X192014648Y-100780500D01*
X192138083Y-100754262D01*
X192199803Y-100741144D01*
X192372730Y-100664151D01*
X192405677Y-100640213D01*
X192471482Y-100616733D01*
X192539536Y-100632558D01*
X192588232Y-100682663D01*
X192593123Y-100693076D01*
X192602299Y-100715229D01*
X192602301Y-100715231D01*
X192602302Y-100715233D01*
X192694549Y-100835451D01*
X192814767Y-100927698D01*
X192954764Y-100985687D01*
X193067280Y-101000500D01*
X193071333Y-101000500D01*
X193138667Y-101000500D01*
X193142720Y-101000500D01*
X193255236Y-100985687D01*
X193395233Y-100927698D01*
X193515451Y-100835451D01*
X193607698Y-100715233D01*
X193665687Y-100575236D01*
X193685466Y-100425000D01*
X193665687Y-100274764D01*
X193607698Y-100134767D01*
X193515451Y-100014549D01*
X193418297Y-99940000D01*
X194544540Y-99940000D01*
X194564326Y-100128257D01*
X194622820Y-100308284D01*
X194717466Y-100472216D01*
X194844129Y-100612889D01*
X194997269Y-100724151D01*
X195170197Y-100801144D01*
X195355352Y-100840500D01*
X195355354Y-100840500D01*
X195544648Y-100840500D01*
X195679943Y-100811742D01*
X195729803Y-100801144D01*
X195902730Y-100724151D01*
X195959834Y-100682663D01*
X196055870Y-100612889D01*
X196089408Y-100575642D01*
X196182533Y-100472216D01*
X196277179Y-100308284D01*
X196335674Y-100128256D01*
X196355460Y-99940000D01*
X196335674Y-99751744D01*
X196277179Y-99571716D01*
X196277179Y-99571715D01*
X196182533Y-99407783D01*
X196055870Y-99267110D01*
X195902730Y-99155848D01*
X195729802Y-99078855D01*
X195544648Y-99039500D01*
X195544646Y-99039500D01*
X195355354Y-99039500D01*
X195355352Y-99039500D01*
X195170197Y-99078855D01*
X194997269Y-99155848D01*
X194844129Y-99267110D01*
X194717466Y-99407783D01*
X194622820Y-99571715D01*
X194564326Y-99751742D01*
X194544540Y-99940000D01*
X193418297Y-99940000D01*
X193395233Y-99922302D01*
X193392437Y-99921144D01*
X193354228Y-99905317D01*
X193255236Y-99864313D01*
X193196356Y-99856561D01*
X193146739Y-99850029D01*
X193146737Y-99850028D01*
X193142720Y-99849500D01*
X193067280Y-99849500D01*
X193063264Y-99850028D01*
X193063259Y-99850029D01*
X192951798Y-99864703D01*
X192882762Y-99853937D01*
X192830507Y-99807557D01*
X192812293Y-99754729D01*
X192805674Y-99691744D01*
X192751061Y-99523663D01*
X192747179Y-99511715D01*
X192652533Y-99347783D01*
X192525870Y-99207110D01*
X192372730Y-99095848D01*
X192199802Y-99018855D01*
X192014648Y-98979500D01*
X192014646Y-98979500D01*
X191825354Y-98979500D01*
X191825352Y-98979500D01*
X191640197Y-99018855D01*
X191467269Y-99095848D01*
X191314129Y-99207110D01*
X191187466Y-99347783D01*
X191092820Y-99511715D01*
X191034326Y-99691742D01*
X191016639Y-99860029D01*
X191014540Y-99880000D01*
X187101947Y-99880000D01*
X187091338Y-99779063D01*
X187048316Y-99646655D01*
X187032843Y-99599034D01*
X186938197Y-99435102D01*
X186811534Y-99294429D01*
X186658394Y-99183167D01*
X186485466Y-99106174D01*
X186300312Y-99066819D01*
X186300310Y-99066819D01*
X186111018Y-99066819D01*
X186111016Y-99066819D01*
X185925861Y-99106174D01*
X185752933Y-99183167D01*
X185599793Y-99294429D01*
X185473130Y-99435102D01*
X185378484Y-99599034D01*
X185319990Y-99779061D01*
X185309964Y-99874453D01*
X185283379Y-99939068D01*
X185226081Y-99979052D01*
X185156262Y-99981712D01*
X185111157Y-99959867D01*
X185075233Y-99932302D01*
X185051091Y-99922302D01*
X184935236Y-99874313D01*
X184862241Y-99864703D01*
X184826739Y-99860029D01*
X184826737Y-99860028D01*
X184822720Y-99859500D01*
X184747280Y-99859500D01*
X184743263Y-99860028D01*
X184743260Y-99860029D01*
X184634764Y-99874313D01*
X184494768Y-99932301D01*
X184374546Y-100024551D01*
X184290278Y-100134371D01*
X184233850Y-100175573D01*
X184164104Y-100179728D01*
X184119018Y-100159202D01*
X184043930Y-100104648D01*
X183871002Y-100027655D01*
X183685848Y-99988300D01*
X183685846Y-99988300D01*
X183496554Y-99988300D01*
X183496552Y-99988300D01*
X183311397Y-100027655D01*
X183138469Y-100104648D01*
X182985329Y-100215910D01*
X182858666Y-100356583D01*
X182764020Y-100520515D01*
X182705526Y-100700542D01*
X182691774Y-100831391D01*
X182685740Y-100888800D01*
X176105237Y-100888800D01*
X176112579Y-100876084D01*
X176171074Y-100696056D01*
X176190860Y-100507800D01*
X176171074Y-100319544D01*
X176121927Y-100168286D01*
X176112579Y-100139515D01*
X176017933Y-99975583D01*
X175891270Y-99834910D01*
X175768620Y-99745800D01*
X178443940Y-99745800D01*
X178463726Y-99934057D01*
X178522220Y-100114084D01*
X178616866Y-100278016D01*
X178743529Y-100418689D01*
X178896669Y-100529951D01*
X179069597Y-100606944D01*
X179254752Y-100646300D01*
X179254754Y-100646300D01*
X179444048Y-100646300D01*
X179583149Y-100616733D01*
X179629203Y-100606944D01*
X179802130Y-100529951D01*
X179894870Y-100462572D01*
X179955270Y-100418689D01*
X180081933Y-100278016D01*
X180176579Y-100114084D01*
X180181644Y-100098495D01*
X180235074Y-99934056D01*
X180254860Y-99745800D01*
X180235074Y-99557544D01*
X180186414Y-99407784D01*
X180176579Y-99377515D01*
X180081933Y-99213583D01*
X179955270Y-99072910D01*
X179802130Y-98961648D01*
X179629202Y-98884655D01*
X179444048Y-98845300D01*
X179444046Y-98845300D01*
X179254754Y-98845300D01*
X179254752Y-98845300D01*
X179069597Y-98884655D01*
X178896669Y-98961648D01*
X178743529Y-99072910D01*
X178616866Y-99213583D01*
X178522220Y-99377515D01*
X178463726Y-99557542D01*
X178443940Y-99745800D01*
X175768620Y-99745800D01*
X175738130Y-99723648D01*
X175565202Y-99646655D01*
X175380048Y-99607300D01*
X175380046Y-99607300D01*
X175190754Y-99607300D01*
X175190752Y-99607300D01*
X175005597Y-99646655D01*
X174832669Y-99723648D01*
X174679529Y-99834910D01*
X174552866Y-99975583D01*
X174458220Y-100139515D01*
X174399726Y-100319542D01*
X174379940Y-100507800D01*
X170255637Y-100507800D01*
X170232535Y-100467786D01*
X170188326Y-100418688D01*
X170184193Y-100414097D01*
X170153964Y-100351107D01*
X170162589Y-100281772D01*
X170168946Y-100269145D01*
X170227179Y-100168284D01*
X170285674Y-99988256D01*
X170305460Y-99800000D01*
X170285674Y-99611744D01*
X170227179Y-99431716D01*
X170221724Y-99422268D01*
X170205251Y-99354371D01*
X170226266Y-99293647D01*
X170226016Y-99293503D01*
X170226765Y-99292204D01*
X170228102Y-99288343D01*
X170231289Y-99284368D01*
X170232528Y-99282220D01*
X170232533Y-99282216D01*
X170327179Y-99118284D01*
X170385674Y-98938256D01*
X170405460Y-98750000D01*
X170385674Y-98561744D01*
X170349366Y-98450000D01*
X170719540Y-98450000D01*
X170739326Y-98638257D01*
X170797820Y-98818284D01*
X170892466Y-98982216D01*
X171019129Y-99122889D01*
X171172269Y-99234151D01*
X171345197Y-99311144D01*
X171530352Y-99350500D01*
X171530354Y-99350500D01*
X171719648Y-99350500D01*
X171843084Y-99324262D01*
X171904803Y-99311144D01*
X172077730Y-99234151D01*
X172111048Y-99209944D01*
X172230870Y-99122889D01*
X172275872Y-99072910D01*
X172357533Y-98982216D01*
X172452179Y-98818284D01*
X172510674Y-98638256D01*
X172530460Y-98450000D01*
X172510674Y-98261744D01*
X172457103Y-98096869D01*
X172452179Y-98081715D01*
X172357533Y-97917783D01*
X172230870Y-97777110D01*
X172077730Y-97665848D01*
X171904802Y-97588855D01*
X171719648Y-97549500D01*
X171719646Y-97549500D01*
X171530354Y-97549500D01*
X171530352Y-97549500D01*
X171345197Y-97588855D01*
X171172269Y-97665848D01*
X171019129Y-97777110D01*
X170892466Y-97917783D01*
X170797820Y-98081715D01*
X170739326Y-98261742D01*
X170719540Y-98450000D01*
X170349366Y-98450000D01*
X170338103Y-98415335D01*
X170327179Y-98381715D01*
X170232533Y-98217783D01*
X170105870Y-98077110D01*
X169952730Y-97965848D01*
X169779802Y-97888855D01*
X169594648Y-97849500D01*
X169594646Y-97849500D01*
X169405354Y-97849500D01*
X169405352Y-97849500D01*
X169220197Y-97888855D01*
X169047269Y-97965848D01*
X168947885Y-98038055D01*
X168882079Y-98061535D01*
X168814025Y-98045709D01*
X168802115Y-98038055D01*
X168702730Y-97965848D01*
X168529802Y-97888855D01*
X168344648Y-97849500D01*
X168344646Y-97849500D01*
X168155354Y-97849500D01*
X168155352Y-97849500D01*
X167970197Y-97888855D01*
X167797269Y-97965848D01*
X167697885Y-98038055D01*
X167632079Y-98061535D01*
X167564025Y-98045709D01*
X167552115Y-98038055D01*
X167452730Y-97965848D01*
X167279802Y-97888855D01*
X167094648Y-97849500D01*
X167094646Y-97849500D01*
X166905354Y-97849500D01*
X166905352Y-97849500D01*
X166720197Y-97888855D01*
X166547269Y-97965848D01*
X166394129Y-98077110D01*
X166267466Y-98217783D01*
X166172820Y-98381715D01*
X166114326Y-98561742D01*
X166096726Y-98729202D01*
X166094540Y-98750000D01*
X166095423Y-98758399D01*
X166114326Y-98938257D01*
X166172820Y-99118284D01*
X166227504Y-99212999D01*
X166243977Y-99280899D01*
X166227505Y-99336998D01*
X166172820Y-99431716D01*
X166114326Y-99611742D01*
X166094540Y-99800000D01*
X166114326Y-99988257D01*
X166172821Y-100168286D01*
X166270805Y-100338001D01*
X166287278Y-100405901D01*
X166270805Y-100461999D01*
X166172821Y-100631713D01*
X166114326Y-100811742D01*
X166094540Y-100999999D01*
X160714978Y-100999999D01*
X160698331Y-100948764D01*
X160698331Y-100948763D01*
X160603685Y-100784831D01*
X160477022Y-100644158D01*
X160323882Y-100532896D01*
X160150954Y-100455903D01*
X159965800Y-100416548D01*
X159965798Y-100416548D01*
X159776506Y-100416548D01*
X159776504Y-100416548D01*
X159591349Y-100455903D01*
X159418421Y-100532896D01*
X159265281Y-100644158D01*
X159138618Y-100784831D01*
X159043972Y-100948763D01*
X158985478Y-101128790D01*
X158965692Y-101317048D01*
X156102841Y-101317048D01*
X156152477Y-101231075D01*
X156259903Y-100965187D01*
X156329279Y-100686935D01*
X156359255Y-100401736D01*
X156349247Y-100115141D01*
X156299450Y-99832728D01*
X156210833Y-99559994D01*
X156085121Y-99302247D01*
X155924762Y-99064504D01*
X155920706Y-99059999D01*
X155735775Y-98854612D01*
X155735769Y-98854606D01*
X155732875Y-98851392D01*
X155693418Y-98818284D01*
X155516516Y-98669845D01*
X155513197Y-98667060D01*
X155509523Y-98664764D01*
X155273671Y-98517387D01*
X155273664Y-98517383D01*
X155270002Y-98515095D01*
X155266055Y-98513337D01*
X155266050Y-98513335D01*
X155011972Y-98400212D01*
X155011968Y-98400210D01*
X155008025Y-98398455D01*
X155003878Y-98397266D01*
X155003873Y-98397264D01*
X154736516Y-98320601D01*
X154736508Y-98320599D01*
X154732364Y-98319411D01*
X154728081Y-98318809D01*
X154452677Y-98280103D01*
X154452674Y-98280102D01*
X154448385Y-98279500D01*
X154233396Y-98279500D01*
X154231279Y-98279648D01*
X154231251Y-98279649D01*
X154023250Y-98294194D01*
X154023238Y-98294195D01*
X154018929Y-98294497D01*
X154014694Y-98295397D01*
X154014688Y-98295398D01*
X153742668Y-98353218D01*
X153742666Y-98353218D01*
X153738425Y-98354120D01*
X153734357Y-98355600D01*
X153734352Y-98355602D01*
X153473023Y-98450718D01*
X153473016Y-98450720D01*
X153468950Y-98452201D01*
X153465126Y-98454234D01*
X153465122Y-98454236D01*
X153219568Y-98584798D01*
X153219553Y-98584807D01*
X153215747Y-98586831D01*
X153212247Y-98589373D01*
X153212242Y-98589377D01*
X152987253Y-98752841D01*
X152987244Y-98752848D01*
X152983746Y-98755390D01*
X152980637Y-98758392D01*
X152980629Y-98758399D01*
X152780575Y-98951589D01*
X152780569Y-98951595D01*
X152777461Y-98954597D01*
X152774798Y-98958005D01*
X152774793Y-98958011D01*
X152603575Y-99177159D01*
X152603569Y-99177167D01*
X152600907Y-99180575D01*
X152598745Y-99184318D01*
X152598740Y-99184327D01*
X152459688Y-99425173D01*
X152459681Y-99425186D01*
X152457523Y-99428925D01*
X152455907Y-99432924D01*
X152455900Y-99432939D01*
X152351719Y-99690796D01*
X152351714Y-99690808D01*
X152350097Y-99694813D01*
X152349050Y-99699010D01*
X152349049Y-99699015D01*
X152282154Y-99967319D01*
X152280721Y-99973065D01*
X152280270Y-99977350D01*
X152280268Y-99977365D01*
X152251197Y-100253954D01*
X152251196Y-100253968D01*
X152250745Y-100258264D01*
X150650500Y-100258264D01*
X150650500Y-97409000D01*
X184209740Y-97409000D01*
X184229526Y-97597257D01*
X184288020Y-97777284D01*
X184382666Y-97941216D01*
X184509329Y-98081889D01*
X184662469Y-98193151D01*
X184835397Y-98270144D01*
X185020552Y-98309500D01*
X185020554Y-98309500D01*
X185209848Y-98309500D01*
X185350986Y-98279500D01*
X185395003Y-98270144D01*
X185567930Y-98193151D01*
X185586811Y-98179433D01*
X185721070Y-98081889D01*
X185760539Y-98038055D01*
X185847733Y-97941216D01*
X185942379Y-97777284D01*
X185951244Y-97750000D01*
X196684540Y-97750000D01*
X196688989Y-97792333D01*
X196704326Y-97938257D01*
X196762820Y-98118284D01*
X196857466Y-98282216D01*
X196984129Y-98422889D01*
X197137269Y-98534151D01*
X197310197Y-98611144D01*
X197495352Y-98650500D01*
X197495354Y-98650500D01*
X197684648Y-98650500D01*
X197808084Y-98624262D01*
X197869803Y-98611144D01*
X197913706Y-98591597D01*
X199338997Y-98591597D01*
X199343564Y-98635048D01*
X199358783Y-98779854D01*
X199417277Y-98959881D01*
X199511923Y-99123813D01*
X199638586Y-99264486D01*
X199791726Y-99375748D01*
X199964654Y-99452741D01*
X200149809Y-99492097D01*
X200149811Y-99492097D01*
X200339105Y-99492097D01*
X200462541Y-99465859D01*
X200524260Y-99452741D01*
X200697187Y-99375748D01*
X200850328Y-99264485D01*
X200866048Y-99247025D01*
X200925532Y-99210378D01*
X200983978Y-99208708D01*
X201174952Y-99249300D01*
X201174954Y-99249300D01*
X201364248Y-99249300D01*
X201487683Y-99223062D01*
X201549403Y-99209944D01*
X201722330Y-99132951D01*
X201874931Y-99022080D01*
X201940736Y-98998601D01*
X202008790Y-99014426D01*
X202057485Y-99064532D01*
X202071136Y-99109437D01*
X202085726Y-99248257D01*
X202144220Y-99428284D01*
X202238866Y-99592216D01*
X202365529Y-99732889D01*
X202518669Y-99844151D01*
X202691597Y-99921144D01*
X202876752Y-99960500D01*
X202876754Y-99960500D01*
X203066048Y-99960500D01*
X203202947Y-99931401D01*
X203251203Y-99921144D01*
X203424130Y-99844151D01*
X203436849Y-99834910D01*
X203577270Y-99732889D01*
X203703933Y-99592216D01*
X203798579Y-99428284D01*
X203810759Y-99390798D01*
X203857074Y-99248256D01*
X203876860Y-99060000D01*
X203857074Y-98871744D01*
X203817517Y-98750000D01*
X203798579Y-98691715D01*
X203703933Y-98527783D01*
X203577270Y-98387110D01*
X203424130Y-98275848D01*
X203251202Y-98198855D01*
X203066048Y-98159500D01*
X203066046Y-98159500D01*
X202876754Y-98159500D01*
X202876752Y-98159500D01*
X202691597Y-98198855D01*
X202518669Y-98275848D01*
X202366069Y-98386718D01*
X202300262Y-98410198D01*
X202232209Y-98394372D01*
X202183514Y-98344266D01*
X202169864Y-98299365D01*
X202155274Y-98160544D01*
X202096779Y-97980516D01*
X202096779Y-97980515D01*
X202002133Y-97816583D01*
X201875470Y-97675910D01*
X201722330Y-97564648D01*
X201549402Y-97487655D01*
X201364248Y-97448300D01*
X201364246Y-97448300D01*
X201174954Y-97448300D01*
X201174952Y-97448300D01*
X200989797Y-97487655D01*
X200816869Y-97564648D01*
X200663730Y-97675910D01*
X200648006Y-97693373D01*
X200588518Y-97730020D01*
X200530078Y-97731688D01*
X200339106Y-97691097D01*
X200339103Y-97691097D01*
X200149811Y-97691097D01*
X200149809Y-97691097D01*
X199964654Y-97730452D01*
X199791726Y-97807445D01*
X199638586Y-97918707D01*
X199511923Y-98059380D01*
X199417277Y-98223312D01*
X199358783Y-98403339D01*
X199339230Y-98589377D01*
X199338997Y-98591597D01*
X197913706Y-98591597D01*
X198042730Y-98534151D01*
X198065804Y-98517387D01*
X198195870Y-98422889D01*
X198232943Y-98381716D01*
X198322533Y-98282216D01*
X198417179Y-98118284D01*
X198475674Y-97938256D01*
X198495460Y-97750000D01*
X198475674Y-97561744D01*
X198417179Y-97381716D01*
X198417179Y-97381715D01*
X198322533Y-97217783D01*
X198195870Y-97077110D01*
X198042730Y-96965848D01*
X197869802Y-96888855D01*
X197684648Y-96849500D01*
X197684646Y-96849500D01*
X197495354Y-96849500D01*
X197495352Y-96849500D01*
X197310197Y-96888855D01*
X197137269Y-96965848D01*
X196984129Y-97077110D01*
X196857466Y-97217783D01*
X196762820Y-97381715D01*
X196704326Y-97561742D01*
X196686594Y-97730453D01*
X196684540Y-97750000D01*
X185951244Y-97750000D01*
X186000874Y-97597256D01*
X186020660Y-97409000D01*
X186000874Y-97220744D01*
X185954204Y-97077110D01*
X185942379Y-97040715D01*
X185847733Y-96876783D01*
X185721070Y-96736110D01*
X185567930Y-96624848D01*
X185395002Y-96547855D01*
X185209848Y-96508500D01*
X185209846Y-96508500D01*
X185020554Y-96508500D01*
X185020552Y-96508500D01*
X184835397Y-96547855D01*
X184662469Y-96624848D01*
X184509329Y-96736110D01*
X184382666Y-96876783D01*
X184288020Y-97040715D01*
X184229526Y-97220742D01*
X184209740Y-97409000D01*
X150650500Y-97409000D01*
X150650500Y-96381598D01*
X166598076Y-96381598D01*
X166617862Y-96569855D01*
X166676356Y-96749882D01*
X166771002Y-96913814D01*
X166897665Y-97054487D01*
X167050805Y-97165749D01*
X167223733Y-97242742D01*
X167408888Y-97282098D01*
X167408890Y-97282098D01*
X167598184Y-97282098D01*
X167783336Y-97242743D01*
X167783337Y-97242742D01*
X167783339Y-97242742D01*
X167914819Y-97184202D01*
X167984066Y-97174917D01*
X168038138Y-97197164D01*
X168101460Y-97243170D01*
X168188893Y-97282098D01*
X168274387Y-97320163D01*
X168459542Y-97359519D01*
X168459544Y-97359519D01*
X168648838Y-97359519D01*
X168772273Y-97333281D01*
X168833993Y-97320163D01*
X169006920Y-97243170D01*
X169061524Y-97203497D01*
X169127329Y-97180017D01*
X169195383Y-97195842D01*
X169207294Y-97203497D01*
X169244669Y-97230651D01*
X169417597Y-97307644D01*
X169602752Y-97347000D01*
X169602754Y-97347000D01*
X169792048Y-97347000D01*
X169918305Y-97320163D01*
X169977203Y-97307644D01*
X170150130Y-97230651D01*
X170187503Y-97203498D01*
X170303270Y-97119389D01*
X170429933Y-96978716D01*
X170524579Y-96814784D01*
X170545667Y-96749882D01*
X170583074Y-96634756D01*
X170602860Y-96446500D01*
X170583074Y-96258244D01*
X170540208Y-96126316D01*
X170524579Y-96078215D01*
X170429933Y-95914283D01*
X170303270Y-95773610D01*
X170150130Y-95662348D01*
X169977202Y-95585355D01*
X169792048Y-95546000D01*
X169792046Y-95546000D01*
X169602754Y-95546000D01*
X169602752Y-95546000D01*
X169417597Y-95585355D01*
X169244671Y-95662347D01*
X169190061Y-95702023D01*
X169124255Y-95725501D01*
X169056201Y-95709674D01*
X169044303Y-95702028D01*
X169006920Y-95674868D01*
X169006916Y-95674865D01*
X168833992Y-95597874D01*
X168648838Y-95558519D01*
X168648836Y-95558519D01*
X168459544Y-95558519D01*
X168459542Y-95558519D01*
X168274391Y-95597873D01*
X168142908Y-95656414D01*
X168073658Y-95665698D01*
X168019586Y-95643452D01*
X167956263Y-95597444D01*
X167783338Y-95520453D01*
X167598184Y-95481098D01*
X167598182Y-95481098D01*
X167408890Y-95481098D01*
X167408888Y-95481098D01*
X167223733Y-95520453D01*
X167050805Y-95597446D01*
X166897665Y-95708708D01*
X166771002Y-95849381D01*
X166676356Y-96013313D01*
X166617862Y-96193340D01*
X166598076Y-96381598D01*
X150650500Y-96381598D01*
X150650500Y-94999999D01*
X161594540Y-94999999D01*
X161614326Y-95188257D01*
X161672820Y-95368284D01*
X161767466Y-95532216D01*
X161894129Y-95672889D01*
X162047269Y-95784151D01*
X162220197Y-95861144D01*
X162405352Y-95900500D01*
X162405354Y-95900500D01*
X162594648Y-95900500D01*
X162718084Y-95874262D01*
X162779803Y-95861144D01*
X162952730Y-95784151D01*
X162967239Y-95773610D01*
X163105870Y-95672889D01*
X163232533Y-95532216D01*
X163327179Y-95368284D01*
X163343625Y-95317669D01*
X163385674Y-95188256D01*
X163405460Y-95000000D01*
X163385674Y-94811744D01*
X163342449Y-94678712D01*
X163327179Y-94631715D01*
X163232533Y-94467783D01*
X163105870Y-94327110D01*
X162952730Y-94215848D01*
X162779802Y-94138855D01*
X162756961Y-94134000D01*
X168821792Y-94134000D01*
X168828708Y-94199799D01*
X168841578Y-94322257D01*
X168900072Y-94502284D01*
X168994718Y-94666216D01*
X169121381Y-94806889D01*
X169274521Y-94918151D01*
X169447449Y-94995144D01*
X169632604Y-95034500D01*
X169632606Y-95034500D01*
X169821900Y-95034500D01*
X169956555Y-95005878D01*
X170007055Y-94995144D01*
X170179982Y-94918151D01*
X170333123Y-94806888D01*
X170390008Y-94743710D01*
X170449493Y-94707063D01*
X170519350Y-94708392D01*
X170574307Y-94743711D01*
X170631192Y-94806889D01*
X170784332Y-94918151D01*
X170957260Y-94995144D01*
X171155165Y-95037210D01*
X171154855Y-95038664D01*
X171207713Y-95054185D01*
X171253468Y-95106989D01*
X171263994Y-95171459D01*
X171259013Y-95218856D01*
X171255740Y-95250000D01*
X171275526Y-95438257D01*
X171334020Y-95618284D01*
X171428666Y-95782216D01*
X171555329Y-95922889D01*
X171708469Y-96034151D01*
X171881397Y-96111144D01*
X172066552Y-96150500D01*
X172066554Y-96150500D01*
X172255848Y-96150500D01*
X172380256Y-96124056D01*
X172441003Y-96111144D01*
X172613930Y-96034151D01*
X172699946Y-95971657D01*
X172767070Y-95922889D01*
X172804279Y-95881565D01*
X172893733Y-95782216D01*
X172988379Y-95618284D01*
X173046874Y-95438256D01*
X173048540Y-95422400D01*
X173075121Y-95357788D01*
X173132418Y-95317802D01*
X173202237Y-95315140D01*
X173262411Y-95350648D01*
X173293836Y-95413052D01*
X173295181Y-95422400D01*
X173307526Y-95539857D01*
X173366020Y-95719884D01*
X173460666Y-95883816D01*
X173587329Y-96024489D01*
X173740469Y-96135751D01*
X173913397Y-96212744D01*
X174098552Y-96252100D01*
X174098554Y-96252100D01*
X174287848Y-96252100D01*
X174411283Y-96225862D01*
X174473003Y-96212744D01*
X174645930Y-96135751D01*
X174658918Y-96126315D01*
X174722665Y-96080000D01*
X180234540Y-96080000D01*
X180239408Y-96126315D01*
X180254326Y-96268257D01*
X180312820Y-96448284D01*
X180407466Y-96612216D01*
X180534129Y-96752889D01*
X180687269Y-96864151D01*
X180860197Y-96941144D01*
X181045352Y-96980500D01*
X181045354Y-96980500D01*
X181234648Y-96980500D01*
X181358083Y-96954262D01*
X181419803Y-96941144D01*
X181592730Y-96864151D01*
X181594474Y-96862884D01*
X181745870Y-96752889D01*
X181755034Y-96742712D01*
X181872533Y-96612216D01*
X181967179Y-96448284D01*
X182025674Y-96268256D01*
X182045460Y-96080000D01*
X182030304Y-95935800D01*
X187664140Y-95935800D01*
X187683926Y-96124057D01*
X187742420Y-96304084D01*
X187837066Y-96468016D01*
X187963729Y-96608689D01*
X188116869Y-96719951D01*
X188289797Y-96796944D01*
X188474952Y-96836300D01*
X188474954Y-96836300D01*
X188664248Y-96836300D01*
X188787683Y-96810062D01*
X188849403Y-96796944D01*
X189022330Y-96719951D01*
X189073387Y-96682856D01*
X189175470Y-96608689D01*
X189230245Y-96547856D01*
X189302133Y-96468016D01*
X189396779Y-96304084D01*
X189455274Y-96124056D01*
X189475060Y-95935800D01*
X189455274Y-95747544D01*
X189413275Y-95618284D01*
X189396779Y-95567515D01*
X189302133Y-95403583D01*
X189175470Y-95262910D01*
X189022330Y-95151648D01*
X188849402Y-95074655D01*
X188664248Y-95035300D01*
X188664246Y-95035300D01*
X188474954Y-95035300D01*
X188474952Y-95035300D01*
X188289797Y-95074655D01*
X188116869Y-95151648D01*
X187963729Y-95262910D01*
X187837066Y-95403583D01*
X187742420Y-95567515D01*
X187683926Y-95747542D01*
X187664140Y-95935800D01*
X182030304Y-95935800D01*
X182025674Y-95891744D01*
X181967179Y-95711716D01*
X181967179Y-95711715D01*
X181872533Y-95547783D01*
X181745870Y-95407110D01*
X181592730Y-95295848D01*
X181419802Y-95218855D01*
X181234648Y-95179500D01*
X181234646Y-95179500D01*
X181045354Y-95179500D01*
X181045352Y-95179500D01*
X180860197Y-95218855D01*
X180687269Y-95295848D01*
X180534129Y-95407110D01*
X180407466Y-95547783D01*
X180312820Y-95711715D01*
X180254326Y-95891742D01*
X180234540Y-96079999D01*
X180234540Y-96080000D01*
X174722665Y-96080000D01*
X174799070Y-96024489D01*
X174925733Y-95883816D01*
X175020379Y-95719884D01*
X175035006Y-95674868D01*
X175078874Y-95539856D01*
X175098660Y-95351600D01*
X175078874Y-95163344D01*
X175020379Y-94983316D01*
X175020379Y-94983315D01*
X174925733Y-94819383D01*
X174844281Y-94728922D01*
X175687662Y-94728922D01*
X175707448Y-94917179D01*
X175765942Y-95097206D01*
X175860588Y-95261138D01*
X175987251Y-95401811D01*
X176140391Y-95513073D01*
X176313319Y-95590066D01*
X176498474Y-95629422D01*
X176498476Y-95629422D01*
X176687770Y-95629422D01*
X176836191Y-95597874D01*
X176872925Y-95590066D01*
X177045852Y-95513073D01*
X177091391Y-95479987D01*
X177198992Y-95401811D01*
X177209485Y-95390158D01*
X177325655Y-95261138D01*
X177420301Y-95097206D01*
X177478796Y-94917178D01*
X177498582Y-94728922D01*
X177478796Y-94540666D01*
X177429470Y-94388856D01*
X177420301Y-94360637D01*
X177325655Y-94196705D01*
X177198992Y-94056032D01*
X177045852Y-93944770D01*
X176953830Y-93903799D01*
X188426140Y-93903799D01*
X188445926Y-94092057D01*
X188504420Y-94272084D01*
X188599066Y-94436016D01*
X188725729Y-94576689D01*
X188878869Y-94687951D01*
X189051797Y-94764944D01*
X189236952Y-94804300D01*
X189236954Y-94804300D01*
X189426245Y-94804300D01*
X189426246Y-94804300D01*
X189500633Y-94788488D01*
X189570296Y-94793803D01*
X189626031Y-94835939D01*
X189633799Y-94847778D01*
X189692461Y-94949385D01*
X189819124Y-95090058D01*
X189972264Y-95201320D01*
X190145192Y-95278313D01*
X190330347Y-95317669D01*
X190397412Y-95317669D01*
X190464451Y-95337354D01*
X190510206Y-95390158D01*
X190520150Y-95459316D01*
X190515343Y-95479987D01*
X190477926Y-95595142D01*
X190458140Y-95783400D01*
X190477926Y-95971657D01*
X190536420Y-96151684D01*
X190631066Y-96315616D01*
X190757729Y-96456289D01*
X190910869Y-96567551D01*
X191083797Y-96644544D01*
X191268952Y-96683900D01*
X191268954Y-96683900D01*
X191458248Y-96683900D01*
X191581684Y-96657662D01*
X191643403Y-96644544D01*
X191816330Y-96567551D01*
X191953648Y-96467784D01*
X191969470Y-96456289D01*
X192096133Y-96315616D01*
X192190779Y-96151684D01*
X192207735Y-96099500D01*
X192217378Y-96069823D01*
X203202040Y-96069823D01*
X203221826Y-96258080D01*
X203280320Y-96438107D01*
X203374966Y-96602039D01*
X203501629Y-96742712D01*
X203654769Y-96853974D01*
X203827697Y-96930967D01*
X204012852Y-96970323D01*
X204012854Y-96970323D01*
X204202148Y-96970323D01*
X204325583Y-96944085D01*
X204387303Y-96930967D01*
X204560230Y-96853974D01*
X204618358Y-96811742D01*
X204713370Y-96742712D01*
X204719315Y-96736110D01*
X204840033Y-96602039D01*
X204902063Y-96494599D01*
X207857140Y-96494599D01*
X207876926Y-96682857D01*
X207935420Y-96862884D01*
X208030066Y-97026816D01*
X208156729Y-97167489D01*
X208309869Y-97278751D01*
X208482797Y-97355744D01*
X208667952Y-97395100D01*
X208667954Y-97395100D01*
X208857248Y-97395100D01*
X208983406Y-97368284D01*
X209042403Y-97355744D01*
X209215330Y-97278751D01*
X209299246Y-97217783D01*
X209368470Y-97167489D01*
X209411781Y-97119388D01*
X209495133Y-97026816D01*
X209589779Y-96862884D01*
X209648274Y-96682856D01*
X209668060Y-96494600D01*
X209648274Y-96306344D01*
X209589779Y-96126316D01*
X209589779Y-96126315D01*
X209495133Y-95962383D01*
X209368470Y-95821710D01*
X209215330Y-95710448D01*
X209042402Y-95633455D01*
X208857248Y-95594100D01*
X208857246Y-95594100D01*
X208667954Y-95594100D01*
X208667952Y-95594100D01*
X208482797Y-95633455D01*
X208309869Y-95710448D01*
X208156729Y-95821710D01*
X208030066Y-95962383D01*
X207935420Y-96126315D01*
X207876926Y-96306342D01*
X207857140Y-96494599D01*
X204902063Y-96494599D01*
X204934679Y-96438107D01*
X204993174Y-96258079D01*
X205012960Y-96069823D01*
X204993174Y-95881567D01*
X204949627Y-95747544D01*
X204934679Y-95701538D01*
X204840033Y-95537606D01*
X204713370Y-95396933D01*
X204560230Y-95285671D01*
X204387302Y-95208678D01*
X204202148Y-95169323D01*
X204202146Y-95169323D01*
X204012854Y-95169323D01*
X204012852Y-95169323D01*
X203827697Y-95208678D01*
X203654769Y-95285671D01*
X203501629Y-95396933D01*
X203374966Y-95537606D01*
X203280320Y-95701538D01*
X203221826Y-95881565D01*
X203202040Y-96069823D01*
X192217378Y-96069823D01*
X192249274Y-95971656D01*
X192269060Y-95783400D01*
X192249274Y-95595144D01*
X192190779Y-95415116D01*
X192184121Y-95403584D01*
X192169070Y-95377515D01*
X192152597Y-95309615D01*
X192169070Y-95253515D01*
X192170553Y-95250948D01*
X192257529Y-95100300D01*
X192316024Y-94920272D01*
X192335810Y-94732016D01*
X192316024Y-94543760D01*
X192281016Y-94436016D01*
X192257529Y-94363731D01*
X192162883Y-94199799D01*
X192113301Y-94144733D01*
X208047274Y-94144733D01*
X208067060Y-94332991D01*
X208125554Y-94513018D01*
X208220200Y-94676950D01*
X208346863Y-94817623D01*
X208500003Y-94928885D01*
X208672931Y-95005878D01*
X208858086Y-95045234D01*
X208858088Y-95045234D01*
X209047382Y-95045234D01*
X209170817Y-95018996D01*
X209232537Y-95005878D01*
X209405464Y-94928885D01*
X209470388Y-94881715D01*
X209558604Y-94817623D01*
X209563898Y-94811744D01*
X209685267Y-94676950D01*
X209779913Y-94513018D01*
X209838408Y-94332990D01*
X209858194Y-94144734D01*
X209838408Y-93956478D01*
X209793636Y-93818685D01*
X209779913Y-93776449D01*
X209685267Y-93612517D01*
X209558604Y-93471844D01*
X209405464Y-93360582D01*
X209232536Y-93283589D01*
X209047382Y-93244234D01*
X209047380Y-93244234D01*
X208858088Y-93244234D01*
X208858086Y-93244234D01*
X208672931Y-93283589D01*
X208500003Y-93360582D01*
X208346863Y-93471844D01*
X208220200Y-93612517D01*
X208125554Y-93776449D01*
X208067060Y-93956476D01*
X208047274Y-94144733D01*
X192113301Y-94144733D01*
X192036220Y-94059126D01*
X191883080Y-93947864D01*
X191710152Y-93870871D01*
X191524998Y-93831516D01*
X191524996Y-93831516D01*
X191335704Y-93831516D01*
X191335701Y-93831516D01*
X191215790Y-93857003D01*
X191146123Y-93851687D01*
X191097860Y-93818685D01*
X191030865Y-93744279D01*
X190877725Y-93633017D01*
X190704797Y-93556024D01*
X190519643Y-93516669D01*
X190519641Y-93516669D01*
X190330349Y-93516669D01*
X190255962Y-93532480D01*
X190186295Y-93527163D01*
X190130562Y-93485025D01*
X190122795Y-93473189D01*
X190064133Y-93371583D01*
X189937470Y-93230910D01*
X189784330Y-93119648D01*
X189611402Y-93042655D01*
X189426248Y-93003300D01*
X189426246Y-93003300D01*
X189236954Y-93003300D01*
X189236952Y-93003300D01*
X189051797Y-93042655D01*
X188878869Y-93119648D01*
X188725729Y-93230910D01*
X188599066Y-93371583D01*
X188504420Y-93535515D01*
X188445926Y-93715542D01*
X188426140Y-93903799D01*
X176953830Y-93903799D01*
X176872924Y-93867777D01*
X176687770Y-93828422D01*
X176687768Y-93828422D01*
X176498476Y-93828422D01*
X176498474Y-93828422D01*
X176313319Y-93867777D01*
X176140391Y-93944770D01*
X175987251Y-94056032D01*
X175860588Y-94196705D01*
X175765942Y-94360637D01*
X175707448Y-94540664D01*
X175687662Y-94728922D01*
X174844281Y-94728922D01*
X174799070Y-94678710D01*
X174645930Y-94567448D01*
X174473002Y-94490455D01*
X174287848Y-94451100D01*
X174287846Y-94451100D01*
X174098554Y-94451100D01*
X174098552Y-94451100D01*
X173913397Y-94490455D01*
X173740469Y-94567448D01*
X173587329Y-94678710D01*
X173460666Y-94819383D01*
X173366020Y-94983315D01*
X173307526Y-95163342D01*
X173305860Y-95179200D01*
X173279275Y-95243814D01*
X173221977Y-95283798D01*
X173152158Y-95286458D01*
X173091985Y-95250948D01*
X173060562Y-95188543D01*
X173059220Y-95179213D01*
X173046874Y-95061744D01*
X172999902Y-94917179D01*
X172988379Y-94881715D01*
X172893733Y-94717783D01*
X172767070Y-94577110D01*
X172613930Y-94465848D01*
X172441002Y-94388855D01*
X172243098Y-94346790D01*
X172243407Y-94345335D01*
X172190550Y-94329815D01*
X172144795Y-94277011D01*
X172134268Y-94212539D01*
X172135607Y-94199799D01*
X172142523Y-94134000D01*
X172122737Y-93945744D01*
X172080952Y-93817144D01*
X172064242Y-93765715D01*
X171969596Y-93601783D01*
X171842933Y-93461110D01*
X171689793Y-93349848D01*
X171516865Y-93272855D01*
X171331711Y-93233500D01*
X171331709Y-93233500D01*
X171142417Y-93233500D01*
X171142415Y-93233500D01*
X170957260Y-93272855D01*
X170784332Y-93349848D01*
X170631191Y-93461111D01*
X170574306Y-93524288D01*
X170514819Y-93560936D01*
X170444962Y-93559605D01*
X170390007Y-93524288D01*
X170354654Y-93485025D01*
X170333123Y-93461112D01*
X170313149Y-93446600D01*
X170179982Y-93349848D01*
X170007054Y-93272855D01*
X169821900Y-93233500D01*
X169821898Y-93233500D01*
X169632606Y-93233500D01*
X169632604Y-93233500D01*
X169447449Y-93272855D01*
X169274521Y-93349848D01*
X169121381Y-93461110D01*
X168994718Y-93601783D01*
X168900072Y-93765715D01*
X168841578Y-93945742D01*
X168829986Y-94056034D01*
X168821792Y-94134000D01*
X162756961Y-94134000D01*
X162594648Y-94099500D01*
X162594646Y-94099500D01*
X162405354Y-94099500D01*
X162405352Y-94099500D01*
X162220197Y-94138855D01*
X162047269Y-94215848D01*
X161894129Y-94327110D01*
X161767466Y-94467783D01*
X161672820Y-94631715D01*
X161614326Y-94811742D01*
X161594540Y-94999999D01*
X150650500Y-94999999D01*
X150650500Y-90870937D01*
X151445630Y-90870937D01*
X151476443Y-91072071D01*
X151547113Y-91262886D01*
X151654745Y-91435568D01*
X151654748Y-91435571D01*
X151794941Y-91583053D01*
X151961951Y-91699295D01*
X152148942Y-91779540D01*
X152348259Y-91820500D01*
X152348261Y-91820500D01*
X153297600Y-91820500D01*
X153300742Y-91820500D01*
X153452438Y-91805074D01*
X153646588Y-91744159D01*
X153824502Y-91645409D01*
X153978895Y-91512866D01*
X154103448Y-91351958D01*
X154193060Y-91169271D01*
X154244063Y-90972285D01*
X154249203Y-90870937D01*
X155475630Y-90870937D01*
X155506443Y-91072071D01*
X155577113Y-91262886D01*
X155684745Y-91435568D01*
X155684748Y-91435571D01*
X155824941Y-91583053D01*
X155991951Y-91699295D01*
X156178942Y-91779540D01*
X156378259Y-91820500D01*
X156378261Y-91820500D01*
X157627600Y-91820500D01*
X157630742Y-91820500D01*
X157782438Y-91805074D01*
X157976588Y-91744159D01*
X158154502Y-91645409D01*
X158275425Y-91541599D01*
X161044940Y-91541599D01*
X161064726Y-91729857D01*
X161123220Y-91909884D01*
X161217866Y-92073816D01*
X161344529Y-92214489D01*
X161497669Y-92325751D01*
X161670597Y-92402744D01*
X161855752Y-92442100D01*
X161855754Y-92442100D01*
X162045048Y-92442100D01*
X162168484Y-92415862D01*
X162230203Y-92402744D01*
X162403130Y-92325751D01*
X162403129Y-92325751D01*
X162556270Y-92214489D01*
X162559132Y-92211311D01*
X162682933Y-92073816D01*
X162777579Y-91909884D01*
X162836074Y-91729856D01*
X162855860Y-91541600D01*
X162836074Y-91353344D01*
X162777579Y-91173316D01*
X162777579Y-91173315D01*
X162682933Y-91009383D01*
X162556270Y-90868710D01*
X162403130Y-90757448D01*
X162230202Y-90680455D01*
X162045048Y-90641100D01*
X162045046Y-90641100D01*
X161855754Y-90641100D01*
X161855752Y-90641100D01*
X161670597Y-90680455D01*
X161497669Y-90757448D01*
X161344529Y-90868710D01*
X161217866Y-91009383D01*
X161123220Y-91173315D01*
X161064726Y-91353342D01*
X161044940Y-91541599D01*
X158275425Y-91541599D01*
X158308895Y-91512866D01*
X158433448Y-91351958D01*
X158523060Y-91169271D01*
X158574063Y-90972285D01*
X158584369Y-90769064D01*
X158583679Y-90764562D01*
X158553556Y-90567928D01*
X158537879Y-90525600D01*
X163940540Y-90525600D01*
X163960326Y-90713857D01*
X164018820Y-90893884D01*
X164113466Y-91057816D01*
X164240129Y-91198489D01*
X164393269Y-91309751D01*
X164566197Y-91386744D01*
X164751352Y-91426100D01*
X164751354Y-91426100D01*
X164940648Y-91426100D01*
X165064083Y-91399862D01*
X165125803Y-91386744D01*
X165298730Y-91309751D01*
X165298730Y-91309750D01*
X165451870Y-91198489D01*
X165578533Y-91057816D01*
X165673179Y-90893884D01*
X165681358Y-90868712D01*
X165731674Y-90713856D01*
X165751460Y-90525600D01*
X165731674Y-90337344D01*
X165673179Y-90157316D01*
X165673179Y-90157315D01*
X165578533Y-89993383D01*
X165451870Y-89852710D01*
X165298730Y-89741448D01*
X165125802Y-89664455D01*
X164940648Y-89625100D01*
X164940646Y-89625100D01*
X164751354Y-89625100D01*
X164751352Y-89625100D01*
X164566197Y-89664455D01*
X164393269Y-89741448D01*
X164240129Y-89852710D01*
X164113466Y-89993383D01*
X164018820Y-90157315D01*
X163960326Y-90337342D01*
X163940540Y-90525600D01*
X158537879Y-90525600D01*
X158482886Y-90377113D01*
X158375254Y-90204431D01*
X158330467Y-90157316D01*
X158235059Y-90056947D01*
X158068049Y-89940705D01*
X157881058Y-89860460D01*
X157681741Y-89819500D01*
X156429258Y-89819500D01*
X156426147Y-89819816D01*
X156426134Y-89819817D01*
X156277559Y-89834926D01*
X156083412Y-89895841D01*
X155905500Y-89994589D01*
X155751104Y-90127135D01*
X155626551Y-90288042D01*
X155536940Y-90470727D01*
X155511773Y-90567929D01*
X155487144Y-90663056D01*
X155485937Y-90667716D01*
X155475630Y-90870937D01*
X154249203Y-90870937D01*
X154254369Y-90769064D01*
X154253679Y-90764562D01*
X154223556Y-90567928D01*
X154152886Y-90377113D01*
X154045254Y-90204431D01*
X154000467Y-90157316D01*
X153905059Y-90056947D01*
X153738049Y-89940705D01*
X153551058Y-89860460D01*
X153351741Y-89819500D01*
X152399258Y-89819500D01*
X152396147Y-89819816D01*
X152396134Y-89819817D01*
X152247559Y-89834926D01*
X152053412Y-89895841D01*
X151875500Y-89994589D01*
X151721104Y-90127135D01*
X151596551Y-90288042D01*
X151506940Y-90470727D01*
X151481773Y-90567929D01*
X151457144Y-90663056D01*
X151455937Y-90667716D01*
X151445630Y-90870937D01*
X150650500Y-90870937D01*
X150650500Y-88341199D01*
X170163540Y-88341199D01*
X170183326Y-88529457D01*
X170241820Y-88709484D01*
X170336466Y-88873416D01*
X170450894Y-89000500D01*
X170463129Y-89014088D01*
X170508615Y-89047135D01*
X170551282Y-89102465D01*
X170557261Y-89172078D01*
X170527881Y-89230426D01*
X170412666Y-89358383D01*
X170318020Y-89522315D01*
X170259526Y-89702342D01*
X170239740Y-89890600D01*
X170259526Y-90078857D01*
X170318020Y-90258884D01*
X170412666Y-90422816D01*
X170539329Y-90563489D01*
X170641485Y-90637709D01*
X170684151Y-90693039D01*
X170690130Y-90762652D01*
X170657525Y-90824447D01*
X170641485Y-90838345D01*
X170564729Y-90894110D01*
X170438066Y-91034783D01*
X170343420Y-91198715D01*
X170284926Y-91378742D01*
X170265140Y-91567000D01*
X170284926Y-91755257D01*
X170343420Y-91935284D01*
X170438066Y-92099216D01*
X170564729Y-92239889D01*
X170717869Y-92351151D01*
X170890797Y-92428144D01*
X171075952Y-92467500D01*
X171075954Y-92467500D01*
X171265248Y-92467500D01*
X171388684Y-92441262D01*
X171450403Y-92428144D01*
X171623330Y-92351151D01*
X171776471Y-92239888D01*
X171879197Y-92125799D01*
X206409340Y-92125799D01*
X206429126Y-92314057D01*
X206487620Y-92494084D01*
X206582266Y-92658016D01*
X206708929Y-92798689D01*
X206862069Y-92909951D01*
X207034997Y-92986944D01*
X207220152Y-93026300D01*
X207220154Y-93026300D01*
X207409448Y-93026300D01*
X207532883Y-93000062D01*
X207594603Y-92986944D01*
X207767530Y-92909951D01*
X207920671Y-92798688D01*
X208047333Y-92658016D01*
X208141979Y-92494084D01*
X208200474Y-92314056D01*
X208220260Y-92125800D01*
X208200474Y-91937544D01*
X208151821Y-91787809D01*
X208149827Y-91717969D01*
X208177604Y-91666519D01*
X208220528Y-91618847D01*
X208273026Y-91527918D01*
X211867277Y-91527918D01*
X211887063Y-91716175D01*
X211945557Y-91896202D01*
X212040203Y-92060134D01*
X212067114Y-92090021D01*
X212097344Y-92153012D01*
X212092895Y-92211311D01*
X212037306Y-92382395D01*
X212017520Y-92570652D01*
X212037306Y-92758910D01*
X212095800Y-92938937D01*
X212190446Y-93102869D01*
X212317109Y-93243542D01*
X212470249Y-93354804D01*
X212643177Y-93431797D01*
X212828332Y-93471153D01*
X212828334Y-93471153D01*
X213017628Y-93471153D01*
X213133142Y-93446599D01*
X213927740Y-93446599D01*
X213947526Y-93634857D01*
X214006020Y-93814884D01*
X214100666Y-93978816D01*
X214227329Y-94119489D01*
X214380469Y-94230751D01*
X214553397Y-94307744D01*
X214738552Y-94347100D01*
X214738554Y-94347100D01*
X214927848Y-94347100D01*
X215051283Y-94320862D01*
X215113003Y-94307744D01*
X215285930Y-94230751D01*
X215332789Y-94196706D01*
X215439070Y-94119489D01*
X215493420Y-94059128D01*
X215541797Y-94005400D01*
X221852540Y-94005400D01*
X221872326Y-94193657D01*
X221930820Y-94373684D01*
X222025466Y-94537616D01*
X222152129Y-94678289D01*
X222305269Y-94789551D01*
X222478197Y-94866544D01*
X222663352Y-94905900D01*
X222663354Y-94905900D01*
X222852648Y-94905900D01*
X222976083Y-94879662D01*
X223037803Y-94866544D01*
X223210730Y-94789551D01*
X223216370Y-94785453D01*
X223363870Y-94678289D01*
X223490533Y-94537616D01*
X223585179Y-94373684D01*
X223618191Y-94272084D01*
X223643674Y-94193656D01*
X223663460Y-94005400D01*
X223643674Y-93817144D01*
X223585179Y-93637116D01*
X223585179Y-93637115D01*
X223490533Y-93473183D01*
X223363870Y-93332510D01*
X223210730Y-93221248D01*
X223037802Y-93144255D01*
X222852648Y-93104900D01*
X222852646Y-93104900D01*
X222663354Y-93104900D01*
X222663352Y-93104900D01*
X222478197Y-93144255D01*
X222305269Y-93221248D01*
X222152129Y-93332510D01*
X222025466Y-93473183D01*
X221930820Y-93637115D01*
X221872326Y-93817142D01*
X221852540Y-94005400D01*
X215541797Y-94005400D01*
X215565733Y-93978816D01*
X215660379Y-93814884D01*
X215718874Y-93634856D01*
X215738660Y-93446600D01*
X215718874Y-93258344D01*
X215660379Y-93078316D01*
X215660379Y-93078315D01*
X215565733Y-92914383D01*
X215439070Y-92773710D01*
X215285930Y-92662448D01*
X215113002Y-92585455D01*
X214927848Y-92546100D01*
X214927846Y-92546100D01*
X214738554Y-92546100D01*
X214738552Y-92546100D01*
X214553397Y-92585455D01*
X214380469Y-92662448D01*
X214227329Y-92773710D01*
X214100666Y-92914383D01*
X214006020Y-93078315D01*
X213947526Y-93258342D01*
X213927740Y-93446599D01*
X213133142Y-93446599D01*
X213141064Y-93444915D01*
X213202783Y-93431797D01*
X213375710Y-93354804D01*
X213382531Y-93349848D01*
X213528850Y-93243542D01*
X213655513Y-93102869D01*
X213750159Y-92938937D01*
X213759577Y-92909951D01*
X213808654Y-92758909D01*
X213828440Y-92570653D01*
X213808654Y-92382397D01*
X213754097Y-92214488D01*
X213750159Y-92202368D01*
X213655515Y-92038439D01*
X213628602Y-92008550D01*
X213598372Y-91945558D01*
X213602820Y-91887262D01*
X213658411Y-91716174D01*
X213678197Y-91527918D01*
X213658411Y-91339662D01*
X213604362Y-91173316D01*
X213599917Y-91159636D01*
X213595164Y-91151404D01*
X213558562Y-91088007D01*
X213542090Y-91020110D01*
X213558563Y-90964009D01*
X213628379Y-90843084D01*
X213629919Y-90838345D01*
X213686874Y-90663056D01*
X213706660Y-90474800D01*
X213701321Y-90424000D01*
X217153540Y-90424000D01*
X217173326Y-90612257D01*
X217231820Y-90792284D01*
X217326466Y-90956216D01*
X217453129Y-91096889D01*
X217606269Y-91208151D01*
X217779197Y-91285144D01*
X217964352Y-91324500D01*
X217964354Y-91324500D01*
X218153648Y-91324500D01*
X218278056Y-91298056D01*
X218338803Y-91285144D01*
X218511730Y-91208151D01*
X218525030Y-91198488D01*
X218664870Y-91096889D01*
X218791533Y-90956216D01*
X218886179Y-90792284D01*
X218901977Y-90743662D01*
X218944674Y-90612256D01*
X218964460Y-90424000D01*
X218944674Y-90235744D01*
X218886179Y-90055716D01*
X218886179Y-90055715D01*
X218791533Y-89891783D01*
X218664870Y-89751110D01*
X218511730Y-89639848D01*
X218338802Y-89562855D01*
X218153648Y-89523500D01*
X218153646Y-89523500D01*
X217964354Y-89523500D01*
X217964352Y-89523500D01*
X217779197Y-89562855D01*
X217606269Y-89639848D01*
X217453129Y-89751110D01*
X217326466Y-89891783D01*
X217231820Y-90055715D01*
X217173326Y-90235742D01*
X217153540Y-90424000D01*
X213701321Y-90424000D01*
X213686874Y-90286544D01*
X213628379Y-90106516D01*
X213628379Y-90106515D01*
X213533733Y-89942583D01*
X213407070Y-89801910D01*
X213253930Y-89690648D01*
X213081002Y-89613655D01*
X212895848Y-89574300D01*
X212895846Y-89574300D01*
X212706554Y-89574300D01*
X212706552Y-89574300D01*
X212521397Y-89613655D01*
X212348469Y-89690648D01*
X212195329Y-89801910D01*
X212068666Y-89942583D01*
X211974020Y-90106515D01*
X211915526Y-90286542D01*
X211895740Y-90474800D01*
X211915526Y-90663057D01*
X211974020Y-90843084D01*
X212015373Y-90914709D01*
X212031846Y-90982609D01*
X212015373Y-91038709D01*
X211945557Y-91159633D01*
X211887063Y-91339660D01*
X211867277Y-91527918D01*
X208273026Y-91527918D01*
X208315174Y-91454915D01*
X208324537Y-91426100D01*
X208373669Y-91274887D01*
X208393455Y-91086631D01*
X208373669Y-90898375D01*
X208331653Y-90769064D01*
X208315174Y-90718346D01*
X208220528Y-90554414D01*
X208093865Y-90413741D01*
X207940725Y-90302479D01*
X207767797Y-90225486D01*
X207582643Y-90186131D01*
X207582641Y-90186131D01*
X207393349Y-90186131D01*
X207393347Y-90186131D01*
X207208192Y-90225486D01*
X207035264Y-90302479D01*
X206882124Y-90413741D01*
X206755461Y-90554414D01*
X206660815Y-90718346D01*
X206602321Y-90898373D01*
X206582535Y-91086631D01*
X206602321Y-91274888D01*
X206650972Y-91424620D01*
X206652967Y-91494461D01*
X206625193Y-91545908D01*
X206582266Y-91593584D01*
X206487620Y-91757515D01*
X206429126Y-91937542D01*
X206409340Y-92125799D01*
X171879197Y-92125799D01*
X171903133Y-92099216D01*
X171997779Y-91935284D01*
X172056274Y-91755256D01*
X172076060Y-91567000D01*
X172056274Y-91378744D01*
X171997779Y-91198716D01*
X171997779Y-91198715D01*
X171946444Y-91109800D01*
X184184340Y-91109800D01*
X184190591Y-91169272D01*
X184204126Y-91298057D01*
X184262620Y-91478084D01*
X184357266Y-91642016D01*
X184483929Y-91782689D01*
X184637069Y-91893951D01*
X184809997Y-91970944D01*
X184995152Y-92010300D01*
X184995154Y-92010300D01*
X185184448Y-92010300D01*
X185307884Y-91984062D01*
X185369603Y-91970944D01*
X185542530Y-91893951D01*
X185664861Y-91805073D01*
X185695670Y-91782689D01*
X185755562Y-91716173D01*
X185822333Y-91642016D01*
X185916979Y-91478084D01*
X185975474Y-91298056D01*
X185995260Y-91109800D01*
X185975474Y-90921544D01*
X185925930Y-90769064D01*
X185916979Y-90741515D01*
X185822333Y-90577583D01*
X185695670Y-90436910D01*
X185542530Y-90325648D01*
X185440001Y-90279999D01*
X199844340Y-90279999D01*
X199864936Y-90515407D01*
X199904499Y-90663056D01*
X199926097Y-90743663D01*
X200025965Y-90957830D01*
X200161505Y-91151401D01*
X200328599Y-91318495D01*
X200522170Y-91454035D01*
X200736337Y-91553903D01*
X200964592Y-91615063D01*
X201200000Y-91635659D01*
X201435408Y-91615063D01*
X201663663Y-91553903D01*
X201877830Y-91454035D01*
X202071401Y-91318495D01*
X202238495Y-91151401D01*
X202374035Y-90957830D01*
X202473903Y-90743663D01*
X202535063Y-90515408D01*
X202555659Y-90280000D01*
X202552119Y-90239543D01*
X203708846Y-90239543D01*
X203728632Y-90427801D01*
X203787126Y-90607828D01*
X203881772Y-90771760D01*
X204008435Y-90912433D01*
X204161575Y-91023695D01*
X204334503Y-91100688D01*
X204519658Y-91140044D01*
X204519660Y-91140044D01*
X204708954Y-91140044D01*
X204851240Y-91109800D01*
X204894109Y-91100688D01*
X205067036Y-91023695D01*
X205071970Y-91020110D01*
X205220176Y-90912433D01*
X205236672Y-90894113D01*
X205346839Y-90771760D01*
X205441485Y-90607828D01*
X205499980Y-90427800D01*
X205519766Y-90239544D01*
X205499980Y-90051288D01*
X205448154Y-89891784D01*
X205441485Y-89871259D01*
X205346839Y-89707327D01*
X205220176Y-89566654D01*
X205211568Y-89560400D01*
X208771540Y-89560400D01*
X208791326Y-89748657D01*
X208849820Y-89928684D01*
X208944466Y-90092616D01*
X209071129Y-90233289D01*
X209224269Y-90344551D01*
X209397197Y-90421544D01*
X209582352Y-90460900D01*
X209582354Y-90460900D01*
X209771648Y-90460900D01*
X209895083Y-90434662D01*
X209956803Y-90421544D01*
X210129730Y-90344551D01*
X210139652Y-90337342D01*
X210282870Y-90233289D01*
X210409533Y-90092616D01*
X210504179Y-89928684D01*
X210514850Y-89895841D01*
X210562674Y-89748656D01*
X210582460Y-89560400D01*
X210562674Y-89372144D01*
X210504179Y-89192116D01*
X210504179Y-89192115D01*
X210409533Y-89028183D01*
X210282870Y-88887510D01*
X210129730Y-88776248D01*
X209956802Y-88699255D01*
X209771648Y-88659900D01*
X209771646Y-88659900D01*
X209582354Y-88659900D01*
X209582352Y-88659900D01*
X209397197Y-88699255D01*
X209224269Y-88776248D01*
X209071129Y-88887510D01*
X208944466Y-89028183D01*
X208849820Y-89192115D01*
X208791326Y-89372142D01*
X208771540Y-89560400D01*
X205211568Y-89560400D01*
X205118846Y-89493034D01*
X205076180Y-89437704D01*
X205070201Y-89368091D01*
X205102807Y-89306296D01*
X205141294Y-89279437D01*
X205202130Y-89252351D01*
X205202130Y-89252350D01*
X205202132Y-89252350D01*
X205355270Y-89141089D01*
X205456931Y-89028184D01*
X205481933Y-89000416D01*
X205576579Y-88836484D01*
X205635074Y-88656456D01*
X205654860Y-88468200D01*
X205635074Y-88279944D01*
X205593808Y-88152942D01*
X205576579Y-88099915D01*
X205481933Y-87935983D01*
X205355270Y-87795310D01*
X205202130Y-87684048D01*
X205029202Y-87607055D01*
X204844048Y-87567700D01*
X204844046Y-87567700D01*
X204654754Y-87567700D01*
X204654752Y-87567700D01*
X204469597Y-87607055D01*
X204296669Y-87684048D01*
X204143529Y-87795310D01*
X204016866Y-87935983D01*
X203922220Y-88099915D01*
X203863726Y-88279942D01*
X203843940Y-88468199D01*
X203863726Y-88656457D01*
X203922220Y-88836484D01*
X204016866Y-89000416D01*
X204143529Y-89141089D01*
X204244859Y-89214709D01*
X204287525Y-89270039D01*
X204293504Y-89339652D01*
X204260898Y-89401447D01*
X204222411Y-89428306D01*
X204161574Y-89455393D01*
X204008435Y-89566654D01*
X203881772Y-89707327D01*
X203787126Y-89871259D01*
X203728632Y-90051286D01*
X203708846Y-90239543D01*
X202552119Y-90239543D01*
X202535063Y-90044592D01*
X202473903Y-89816337D01*
X202374035Y-89602171D01*
X202238495Y-89408599D01*
X202071401Y-89241505D01*
X201885402Y-89111267D01*
X201841780Y-89056692D01*
X201834587Y-88987193D01*
X201866109Y-88924839D01*
X201885405Y-88908119D01*
X202071078Y-88778109D01*
X202238106Y-88611081D01*
X202373600Y-88417576D01*
X202473430Y-88203492D01*
X202530636Y-87990000D01*
X201633686Y-87990000D01*
X201659493Y-87949844D01*
X201700000Y-87811889D01*
X201700000Y-87668111D01*
X201659493Y-87530156D01*
X201633686Y-87490000D01*
X202530636Y-87490000D01*
X202530635Y-87489999D01*
X202473430Y-87276507D01*
X202390189Y-87097997D01*
X206575540Y-87097997D01*
X206595326Y-87286254D01*
X206653820Y-87466281D01*
X206748466Y-87630213D01*
X206875129Y-87770886D01*
X207028267Y-87882147D01*
X207056093Y-87894536D01*
X207109331Y-87939787D01*
X207129652Y-88006636D01*
X207123589Y-88046134D01*
X207064126Y-88229142D01*
X207044340Y-88417400D01*
X207064126Y-88605657D01*
X207122620Y-88785684D01*
X207217266Y-88949616D01*
X207343929Y-89090289D01*
X207497069Y-89201551D01*
X207669997Y-89278544D01*
X207855152Y-89317900D01*
X207855154Y-89317900D01*
X208044448Y-89317900D01*
X208225406Y-89279436D01*
X208229603Y-89278544D01*
X208402530Y-89201551D01*
X208526793Y-89111269D01*
X208555670Y-89090289D01*
X208682333Y-88949616D01*
X208776979Y-88785684D01*
X208781137Y-88772888D01*
X208835474Y-88605656D01*
X208855260Y-88417400D01*
X208835474Y-88229144D01*
X208784704Y-88072891D01*
X208776979Y-88049115D01*
X208682333Y-87885183D01*
X208555670Y-87744511D01*
X208402530Y-87633249D01*
X208374704Y-87620860D01*
X208321467Y-87575610D01*
X208301146Y-87508761D01*
X208307209Y-87469262D01*
X208308175Y-87466286D01*
X208308179Y-87466281D01*
X208366674Y-87286253D01*
X208386460Y-87097997D01*
X208366674Y-86909741D01*
X208313547Y-86746234D01*
X208308179Y-86729712D01*
X208213533Y-86565780D01*
X208086870Y-86425107D01*
X207933730Y-86313845D01*
X207760802Y-86236852D01*
X207575648Y-86197497D01*
X207575646Y-86197497D01*
X207386354Y-86197497D01*
X207386352Y-86197497D01*
X207201197Y-86236852D01*
X207028269Y-86313845D01*
X206875129Y-86425107D01*
X206748466Y-86565780D01*
X206653820Y-86729712D01*
X206595326Y-86909739D01*
X206575540Y-87097997D01*
X202390189Y-87097997D01*
X202373599Y-87062421D01*
X202238109Y-86868921D01*
X202071081Y-86701893D01*
X201885404Y-86571880D01*
X201841780Y-86517303D01*
X201834587Y-86447804D01*
X201866109Y-86385450D01*
X201885399Y-86368734D01*
X202071401Y-86238495D01*
X202238495Y-86071401D01*
X202374035Y-85877830D01*
X202473903Y-85663663D01*
X202535063Y-85435408D01*
X202555659Y-85200000D01*
X202547044Y-85101538D01*
X202535063Y-84964592D01*
X202525020Y-84927110D01*
X202473903Y-84736337D01*
X202374035Y-84522171D01*
X202327002Y-84455000D01*
X203107340Y-84455000D01*
X203112804Y-84506984D01*
X203127126Y-84643257D01*
X203185620Y-84823284D01*
X203280266Y-84987216D01*
X203406929Y-85127889D01*
X203560069Y-85239151D01*
X203732997Y-85316144D01*
X203918152Y-85355500D01*
X203918154Y-85355500D01*
X204107448Y-85355500D01*
X204230883Y-85329262D01*
X204292603Y-85316144D01*
X204465530Y-85239151D01*
X204475765Y-85231715D01*
X204618670Y-85127889D01*
X204647697Y-85095652D01*
X204745333Y-84987216D01*
X204839979Y-84823284D01*
X204882887Y-84691229D01*
X210118449Y-84691229D01*
X210138235Y-84879486D01*
X210196729Y-85059513D01*
X210291375Y-85223445D01*
X210418038Y-85364118D01*
X210571176Y-85475379D01*
X210631893Y-85502412D01*
X210706021Y-85535416D01*
X210759259Y-85580667D01*
X210779580Y-85647516D01*
X210773517Y-85687013D01*
X210747028Y-85768536D01*
X210727242Y-85956795D01*
X210747028Y-86145053D01*
X210805522Y-86325080D01*
X210900168Y-86489012D01*
X211026831Y-86629685D01*
X211084901Y-86671875D01*
X211127567Y-86727205D01*
X211135337Y-86785154D01*
X211122243Y-86909741D01*
X211119642Y-86934492D01*
X211122265Y-86959451D01*
X211139428Y-87122749D01*
X211197922Y-87302776D01*
X211292568Y-87466708D01*
X211419231Y-87607380D01*
X211536034Y-87692242D01*
X211578700Y-87747571D01*
X211584679Y-87817185D01*
X211581080Y-87830878D01*
X211521826Y-88013242D01*
X211502040Y-88201500D01*
X211521826Y-88389757D01*
X211580320Y-88569784D01*
X211674966Y-88733716D01*
X211801629Y-88874389D01*
X211954769Y-88985651D01*
X212127697Y-89062644D01*
X212312852Y-89102000D01*
X212312854Y-89102000D01*
X212502148Y-89102000D01*
X212625584Y-89075762D01*
X212687303Y-89062644D01*
X212860230Y-88985651D01*
X212943931Y-88924839D01*
X213013370Y-88874389D01*
X213140033Y-88733716D01*
X213234679Y-88569784D01*
X213247782Y-88529456D01*
X213293174Y-88389756D01*
X213312960Y-88201500D01*
X213293174Y-88013244D01*
X213234679Y-87833216D01*
X213234679Y-87833215D01*
X213140033Y-87669283D01*
X213013370Y-87528610D01*
X212896567Y-87443749D01*
X212862830Y-87399999D01*
X214094540Y-87399999D01*
X214114326Y-87588257D01*
X214172820Y-87768284D01*
X214267466Y-87932216D01*
X214394129Y-88072889D01*
X214547269Y-88184151D01*
X214720197Y-88261144D01*
X214905352Y-88300500D01*
X214905354Y-88300500D01*
X215094648Y-88300500D01*
X215218084Y-88274262D01*
X215279803Y-88261144D01*
X215452730Y-88184151D01*
X215605871Y-88072888D01*
X215707851Y-87959627D01*
X215767335Y-87922980D01*
X215837192Y-87924310D01*
X215892148Y-87959627D01*
X215940423Y-88013242D01*
X215994132Y-88072891D01*
X216147269Y-88184151D01*
X216320197Y-88261144D01*
X216505352Y-88300500D01*
X216505354Y-88300500D01*
X216694648Y-88300500D01*
X216818084Y-88274262D01*
X216879803Y-88261144D01*
X217052730Y-88184151D01*
X217095686Y-88152942D01*
X217205870Y-88072889D01*
X217332533Y-87932216D01*
X217392613Y-87828155D01*
X217443180Y-87779939D01*
X217511787Y-87766716D01*
X217576652Y-87792684D01*
X217607387Y-87828155D01*
X217667466Y-87932216D01*
X217794129Y-88072889D01*
X217947269Y-88184151D01*
X218120197Y-88261144D01*
X218305352Y-88300500D01*
X218305354Y-88300500D01*
X218494648Y-88300500D01*
X218618083Y-88274262D01*
X218679803Y-88261144D01*
X218852730Y-88184151D01*
X218895686Y-88152942D01*
X219005870Y-88072889D01*
X219132533Y-87932216D01*
X219227179Y-87768284D01*
X219234903Y-87744511D01*
X219285674Y-87588256D01*
X219305460Y-87400000D01*
X219285674Y-87211744D01*
X219237156Y-87062421D01*
X219227179Y-87031715D01*
X219132533Y-86867783D01*
X219005870Y-86727110D01*
X218852731Y-86615849D01*
X218846961Y-86613280D01*
X218793723Y-86568031D01*
X218773401Y-86501182D01*
X218792445Y-86433958D01*
X218844810Y-86387702D01*
X218846961Y-86386720D01*
X218849812Y-86385450D01*
X218852730Y-86384151D01*
X219005871Y-86272888D01*
X219132533Y-86132216D01*
X219227179Y-85968284D01*
X219285674Y-85788256D01*
X219305460Y-85600000D01*
X219285674Y-85411744D01*
X219250197Y-85302557D01*
X219227179Y-85231715D01*
X219132533Y-85067783D01*
X219005871Y-84927112D01*
X218968993Y-84900319D01*
X218926326Y-84844989D01*
X218920346Y-84775376D01*
X218952952Y-84713581D01*
X218968993Y-84699681D01*
X219005871Y-84672888D01*
X219132533Y-84532216D01*
X219227179Y-84368284D01*
X219285674Y-84188256D01*
X219305460Y-84000000D01*
X219285674Y-83811744D01*
X219227179Y-83631716D01*
X219227179Y-83631715D01*
X219132533Y-83467783D01*
X219005870Y-83327110D01*
X218852730Y-83215848D01*
X218679802Y-83138855D01*
X218494648Y-83099500D01*
X218494646Y-83099500D01*
X218305354Y-83099500D01*
X218305352Y-83099500D01*
X218120197Y-83138855D01*
X217947269Y-83215848D01*
X217794129Y-83327110D01*
X217667466Y-83467784D01*
X217607387Y-83571844D01*
X217556820Y-83620060D01*
X217488213Y-83633282D01*
X217423348Y-83607314D01*
X217392613Y-83571844D01*
X217332533Y-83467784D01*
X217205870Y-83327110D01*
X217052730Y-83215848D01*
X216879802Y-83138855D01*
X216694648Y-83099500D01*
X216694646Y-83099500D01*
X216505354Y-83099500D01*
X216505352Y-83099500D01*
X216320197Y-83138855D01*
X216147269Y-83215848D01*
X215994129Y-83327111D01*
X215892148Y-83440371D01*
X215832661Y-83477019D01*
X215762804Y-83475688D01*
X215707849Y-83440370D01*
X215605870Y-83327110D01*
X215452730Y-83215848D01*
X215279802Y-83138855D01*
X215094648Y-83099500D01*
X215094646Y-83099500D01*
X214905354Y-83099500D01*
X214905352Y-83099500D01*
X214720197Y-83138855D01*
X214547269Y-83215848D01*
X214394129Y-83327110D01*
X214267466Y-83467783D01*
X214172820Y-83631715D01*
X214114326Y-83811742D01*
X214100000Y-83948050D01*
X214094540Y-84000000D01*
X214096468Y-84018341D01*
X214114326Y-84188257D01*
X214172820Y-84368284D01*
X214267466Y-84532216D01*
X214394130Y-84672890D01*
X214431007Y-84699683D01*
X214473673Y-84755013D01*
X214479651Y-84824626D01*
X214447045Y-84886421D01*
X214431007Y-84900317D01*
X214394130Y-84927109D01*
X214267466Y-85067783D01*
X214172820Y-85231715D01*
X214114326Y-85411742D01*
X214094540Y-85600000D01*
X214114326Y-85788257D01*
X214172820Y-85968284D01*
X214267466Y-86132216D01*
X214394129Y-86272889D01*
X214547269Y-86384151D01*
X214553040Y-86386721D01*
X214606277Y-86431971D01*
X214626598Y-86498820D01*
X214607552Y-86566044D01*
X214555186Y-86612299D01*
X214553040Y-86613279D01*
X214547269Y-86615848D01*
X214394129Y-86727110D01*
X214267466Y-86867783D01*
X214172820Y-87031715D01*
X214114326Y-87211742D01*
X214094540Y-87399999D01*
X212862830Y-87399999D01*
X212853901Y-87388420D01*
X212847922Y-87318806D01*
X212851521Y-87305113D01*
X212852279Y-87302778D01*
X212852281Y-87302776D01*
X212910776Y-87122748D01*
X212930562Y-86934492D01*
X212910776Y-86746236D01*
X212872906Y-86629684D01*
X212852281Y-86566207D01*
X212757635Y-86402275D01*
X212630974Y-86261604D01*
X212572901Y-86219412D01*
X212530236Y-86164082D01*
X212522466Y-86106133D01*
X212538162Y-85956796D01*
X212518376Y-85768540D01*
X212477612Y-85643083D01*
X212459881Y-85588511D01*
X212365235Y-85424579D01*
X212238572Y-85283906D01*
X212085432Y-85172644D01*
X211950588Y-85112607D01*
X211897351Y-85067357D01*
X211877030Y-85000508D01*
X211883092Y-84961015D01*
X211909583Y-84879485D01*
X211919253Y-84787472D01*
X211945836Y-84722861D01*
X211992135Y-84687157D01*
X212110965Y-84634251D01*
X212110965Y-84634250D01*
X212110967Y-84634250D01*
X212264105Y-84522989D01*
X212264843Y-84522170D01*
X212390768Y-84382316D01*
X212485414Y-84218384D01*
X212543909Y-84038356D01*
X212563695Y-83850100D01*
X212543909Y-83661844D01*
X212485414Y-83481816D01*
X212485414Y-83481815D01*
X212390768Y-83317884D01*
X212367167Y-83291672D01*
X212336937Y-83228681D01*
X212345562Y-83159346D01*
X212386432Y-83108381D01*
X212390322Y-83105554D01*
X212390330Y-83105551D01*
X212543471Y-82994288D01*
X212670133Y-82853616D01*
X212764779Y-82689684D01*
X212823274Y-82509656D01*
X212843060Y-82321400D01*
X212823274Y-82133144D01*
X212789018Y-82027715D01*
X212764779Y-81953115D01*
X212672512Y-81793305D01*
X212656039Y-81725405D01*
X212672510Y-81669307D01*
X212713979Y-81597484D01*
X212772474Y-81417456D01*
X212792260Y-81229200D01*
X212772474Y-81040944D01*
X212713979Y-80860916D01*
X212713979Y-80860915D01*
X212619748Y-80697702D01*
X212603275Y-80629802D01*
X212619746Y-80573705D01*
X212688579Y-80454484D01*
X212747074Y-80274456D01*
X212766860Y-80086200D01*
X212747074Y-79897944D01*
X212710100Y-79784151D01*
X212688579Y-79717915D01*
X212593933Y-79553983D01*
X212467270Y-79413310D01*
X212314130Y-79302048D01*
X212141202Y-79225055D01*
X211956048Y-79185700D01*
X211956046Y-79185700D01*
X211766754Y-79185700D01*
X211766752Y-79185700D01*
X211581597Y-79225055D01*
X211408669Y-79302048D01*
X211255529Y-79413310D01*
X211128866Y-79553983D01*
X211034220Y-79717915D01*
X210975726Y-79897942D01*
X210955940Y-80086199D01*
X210975726Y-80274457D01*
X211034220Y-80454484D01*
X211128451Y-80617697D01*
X211144924Y-80685597D01*
X211128451Y-80741697D01*
X211059620Y-80860915D01*
X211001126Y-81040942D01*
X210981340Y-81229200D01*
X211001126Y-81417457D01*
X211059620Y-81597484D01*
X211151886Y-81757294D01*
X211168359Y-81825195D01*
X211151887Y-81881293D01*
X211110420Y-81953116D01*
X211051926Y-82133142D01*
X211032140Y-82321399D01*
X211051926Y-82509657D01*
X211110420Y-82689684D01*
X211205066Y-82853616D01*
X211228667Y-82879827D01*
X211258897Y-82942818D01*
X211250272Y-83012153D01*
X211209402Y-83063117D01*
X211052364Y-83177210D01*
X210925701Y-83317883D01*
X210831055Y-83481815D01*
X210772561Y-83661842D01*
X210762890Y-83753855D01*
X210736305Y-83818469D01*
X210690005Y-83854171D01*
X210571178Y-83907077D01*
X210418038Y-84018339D01*
X210291375Y-84159012D01*
X210196729Y-84322944D01*
X210138235Y-84502971D01*
X210118449Y-84691229D01*
X204882887Y-84691229D01*
X204898474Y-84643256D01*
X204918260Y-84455000D01*
X204898474Y-84266744D01*
X204863470Y-84159012D01*
X204839979Y-84086715D01*
X204745333Y-83922783D01*
X204618670Y-83782110D01*
X204465530Y-83670848D01*
X204292602Y-83593855D01*
X204107448Y-83554500D01*
X204107446Y-83554500D01*
X203918154Y-83554500D01*
X203918152Y-83554500D01*
X203732997Y-83593855D01*
X203560069Y-83670848D01*
X203406929Y-83782110D01*
X203280266Y-83922783D01*
X203185620Y-84086715D01*
X203127126Y-84266742D01*
X203112421Y-84406655D01*
X203107340Y-84455000D01*
X202327002Y-84455000D01*
X202238495Y-84328599D01*
X202116569Y-84206672D01*
X202083084Y-84145350D01*
X202088068Y-84075658D01*
X202129940Y-84019725D01*
X202160915Y-84002810D01*
X202292331Y-83953796D01*
X202407546Y-83867546D01*
X202493796Y-83752331D01*
X202544091Y-83617483D01*
X202550500Y-83557873D01*
X202550499Y-83276473D01*
X202570183Y-83209436D01*
X202622987Y-83163681D01*
X202692146Y-83153737D01*
X202700269Y-83155183D01*
X202775154Y-83171100D01*
X202964448Y-83171100D01*
X203116148Y-83138855D01*
X203149603Y-83131744D01*
X203322530Y-83054751D01*
X203381161Y-83012153D01*
X203475670Y-82943489D01*
X203478813Y-82939999D01*
X203602333Y-82802816D01*
X203696979Y-82638884D01*
X203755474Y-82458856D01*
X203775260Y-82270600D01*
X203755474Y-82082344D01*
X203696979Y-81902316D01*
X203696979Y-81902315D01*
X203602333Y-81738383D01*
X203475670Y-81597710D01*
X203322530Y-81486448D01*
X203149602Y-81409455D01*
X202964448Y-81370100D01*
X202964446Y-81370100D01*
X202775154Y-81370100D01*
X202775152Y-81370100D01*
X202589999Y-81409454D01*
X202506057Y-81446828D01*
X202436807Y-81456112D01*
X202381312Y-81432815D01*
X202292331Y-81366204D01*
X202157483Y-81315909D01*
X202097873Y-81309500D01*
X202094550Y-81309500D01*
X200305439Y-81309500D01*
X200305420Y-81309500D01*
X200302128Y-81309501D01*
X200298848Y-81309853D01*
X200298840Y-81309854D01*
X200242515Y-81315909D01*
X200107669Y-81366204D01*
X199992454Y-81452454D01*
X199906204Y-81567668D01*
X199855909Y-81702516D01*
X199850020Y-81757294D01*
X199849500Y-81762127D01*
X199849500Y-81765448D01*
X199849500Y-81765449D01*
X199849500Y-83554560D01*
X199849500Y-83554578D01*
X199849501Y-83557872D01*
X199849853Y-83561152D01*
X199849854Y-83561159D01*
X199855909Y-83617484D01*
X199875813Y-83670848D01*
X199906204Y-83752331D01*
X199992454Y-83867546D01*
X200107669Y-83953796D01*
X200219907Y-83995658D01*
X200239082Y-84002810D01*
X200295016Y-84044681D01*
X200319433Y-84110146D01*
X200304581Y-84178419D01*
X200283431Y-84206673D01*
X200161503Y-84328601D01*
X200025965Y-84522170D01*
X199926097Y-84736336D01*
X199864936Y-84964592D01*
X199844340Y-85199999D01*
X199864936Y-85435407D01*
X199905960Y-85588511D01*
X199926097Y-85663663D01*
X200025965Y-85877830D01*
X200161505Y-86071401D01*
X200328599Y-86238495D01*
X200514596Y-86368732D01*
X200558219Y-86423307D01*
X200565412Y-86492806D01*
X200533890Y-86555160D01*
X200514595Y-86571880D01*
X200328919Y-86701892D01*
X200161890Y-86868921D01*
X200026400Y-87062421D01*
X199926569Y-87276507D01*
X199869364Y-87489999D01*
X199869364Y-87490000D01*
X200766314Y-87490000D01*
X200740507Y-87530156D01*
X200700000Y-87668111D01*
X200700000Y-87811889D01*
X200740507Y-87949844D01*
X200766314Y-87990000D01*
X199869364Y-87990000D01*
X199926569Y-88203492D01*
X200026399Y-88417576D01*
X200161893Y-88611081D01*
X200328918Y-88778106D01*
X200514595Y-88908119D01*
X200558219Y-88962696D01*
X200565412Y-89032195D01*
X200533890Y-89094549D01*
X200514595Y-89111269D01*
X200328595Y-89241508D01*
X200161505Y-89408598D01*
X200025965Y-89602170D01*
X199926097Y-89816336D01*
X199864936Y-90044592D01*
X199844340Y-90279999D01*
X185440001Y-90279999D01*
X185369602Y-90248655D01*
X185184448Y-90209300D01*
X185184446Y-90209300D01*
X184995154Y-90209300D01*
X184995152Y-90209300D01*
X184809997Y-90248655D01*
X184637069Y-90325648D01*
X184483929Y-90436910D01*
X184357266Y-90577583D01*
X184262620Y-90741515D01*
X184204126Y-90921542D01*
X184188305Y-91072071D01*
X184184340Y-91109800D01*
X171946444Y-91109800D01*
X171903133Y-91034783D01*
X171776473Y-90894113D01*
X171741508Y-90868710D01*
X171674312Y-90819889D01*
X171631648Y-90764562D01*
X171625669Y-90694949D01*
X171658274Y-90633153D01*
X171674306Y-90619260D01*
X171751071Y-90563488D01*
X171877733Y-90422816D01*
X171972379Y-90258884D01*
X172030874Y-90078856D01*
X172050660Y-89890600D01*
X172030874Y-89702344D01*
X171986786Y-89566656D01*
X171972379Y-89522315D01*
X171877733Y-89358383D01*
X171751070Y-89217710D01*
X171705584Y-89184663D01*
X171662918Y-89129333D01*
X171660673Y-89103200D01*
X184641540Y-89103200D01*
X184661326Y-89291457D01*
X184719820Y-89471484D01*
X184814466Y-89635416D01*
X184941129Y-89776089D01*
X185094269Y-89887351D01*
X185267197Y-89964344D01*
X185452352Y-90003700D01*
X185452354Y-90003700D01*
X185641648Y-90003700D01*
X185765083Y-89977462D01*
X185826803Y-89964344D01*
X185999730Y-89887351D01*
X185999729Y-89887350D01*
X186152870Y-89776089D01*
X186175360Y-89751112D01*
X186279533Y-89635416D01*
X186374179Y-89471484D01*
X186432674Y-89291456D01*
X186452460Y-89103200D01*
X186432674Y-88914944D01*
X186390675Y-88785684D01*
X186374179Y-88734915D01*
X186279533Y-88570983D01*
X186152870Y-88430310D01*
X185999730Y-88319048D01*
X185826802Y-88242055D01*
X185641648Y-88202700D01*
X185641646Y-88202700D01*
X185452354Y-88202700D01*
X185452352Y-88202700D01*
X185267197Y-88242055D01*
X185094269Y-88319048D01*
X184941129Y-88430310D01*
X184814466Y-88570983D01*
X184719820Y-88734915D01*
X184661326Y-88914942D01*
X184641540Y-89103200D01*
X171660673Y-89103200D01*
X171656939Y-89059720D01*
X171686319Y-89001373D01*
X171801533Y-88873416D01*
X171896179Y-88709484D01*
X171954674Y-88529456D01*
X171974460Y-88341200D01*
X171954674Y-88152944D01*
X171937471Y-88100000D01*
X196044540Y-88100000D01*
X196051367Y-88164952D01*
X196064326Y-88288257D01*
X196122820Y-88468284D01*
X196217466Y-88632216D01*
X196344129Y-88772889D01*
X196497269Y-88884151D01*
X196670197Y-88961144D01*
X196855352Y-89000500D01*
X196855354Y-89000500D01*
X197044648Y-89000500D01*
X197168084Y-88974262D01*
X197229803Y-88961144D01*
X197402730Y-88884151D01*
X197551245Y-88776249D01*
X197555870Y-88772889D01*
X197682533Y-88632216D01*
X197777179Y-88468284D01*
X197789517Y-88430312D01*
X197835674Y-88288256D01*
X197855460Y-88100000D01*
X197835674Y-87911744D01*
X197781337Y-87744512D01*
X197777179Y-87731715D01*
X197682533Y-87567783D01*
X197555870Y-87427110D01*
X197402730Y-87315848D01*
X197229802Y-87238855D01*
X197044648Y-87199500D01*
X197044646Y-87199500D01*
X196855354Y-87199500D01*
X196855352Y-87199500D01*
X196670197Y-87238855D01*
X196497269Y-87315848D01*
X196344129Y-87427110D01*
X196217466Y-87567783D01*
X196122820Y-87731715D01*
X196064326Y-87911742D01*
X196047389Y-88072889D01*
X196044540Y-88100000D01*
X171937471Y-88100000D01*
X171919969Y-88046134D01*
X171896179Y-87972915D01*
X171801533Y-87808983D01*
X171674870Y-87668310D01*
X171521730Y-87557048D01*
X171348802Y-87480055D01*
X171163648Y-87440700D01*
X171163646Y-87440700D01*
X170974354Y-87440700D01*
X170974352Y-87440700D01*
X170789197Y-87480055D01*
X170616269Y-87557048D01*
X170463129Y-87668310D01*
X170336466Y-87808983D01*
X170241820Y-87972915D01*
X170183326Y-88152942D01*
X170163540Y-88341199D01*
X150650500Y-88341199D01*
X150650500Y-85826599D01*
X160917940Y-85826599D01*
X160937726Y-86014857D01*
X160996220Y-86194884D01*
X161090866Y-86358816D01*
X161217529Y-86499489D01*
X161370669Y-86610751D01*
X161543597Y-86687744D01*
X161728752Y-86727100D01*
X161822068Y-86727100D01*
X161889107Y-86746785D01*
X161934862Y-86799589D01*
X161939999Y-86812782D01*
X161986820Y-86956884D01*
X162081466Y-87120816D01*
X162208129Y-87261489D01*
X162361269Y-87372751D01*
X162534197Y-87449744D01*
X162719352Y-87489100D01*
X162719354Y-87489100D01*
X162908648Y-87489100D01*
X163032083Y-87462862D01*
X163093803Y-87449744D01*
X163266730Y-87372751D01*
X163363043Y-87302776D01*
X163419870Y-87261489D01*
X163546533Y-87120816D01*
X163641179Y-86956884D01*
X163669760Y-86868921D01*
X163699674Y-86776856D01*
X163719460Y-86588600D01*
X163699674Y-86400344D01*
X163658261Y-86272888D01*
X163641179Y-86220315D01*
X163546533Y-86056383D01*
X163419870Y-85915710D01*
X163266730Y-85804448D01*
X163093802Y-85727455D01*
X162908648Y-85688100D01*
X162908646Y-85688100D01*
X162815332Y-85688100D01*
X162748293Y-85668415D01*
X162702538Y-85615611D01*
X162697401Y-85602418D01*
X162650579Y-85458315D01*
X162555933Y-85294383D01*
X162429270Y-85153710D01*
X162276130Y-85042448D01*
X162268835Y-85039200D01*
X171052540Y-85039200D01*
X171072326Y-85227457D01*
X171130820Y-85407484D01*
X171225466Y-85571416D01*
X171352129Y-85712089D01*
X171505269Y-85823351D01*
X171678197Y-85900344D01*
X171863352Y-85939700D01*
X171863354Y-85939700D01*
X172052648Y-85939700D01*
X172176084Y-85913462D01*
X172237803Y-85900344D01*
X172410730Y-85823351D01*
X172433215Y-85807015D01*
X172563870Y-85712089D01*
X172584525Y-85689150D01*
X172690533Y-85571416D01*
X172785179Y-85407484D01*
X172830565Y-85267800D01*
X177580340Y-85267800D01*
X177600126Y-85456057D01*
X177658620Y-85636084D01*
X177753266Y-85800016D01*
X177879929Y-85940689D01*
X178033069Y-86051951D01*
X178205997Y-86128944D01*
X178391152Y-86168300D01*
X178391154Y-86168300D01*
X178580448Y-86168300D01*
X178765600Y-86128945D01*
X178765601Y-86128944D01*
X178765603Y-86128944D01*
X178880931Y-86077595D01*
X178950179Y-86068310D01*
X179013456Y-86097938D01*
X179023515Y-86107901D01*
X179123920Y-86219412D01*
X179124532Y-86220091D01*
X179277669Y-86331351D01*
X179450597Y-86408344D01*
X179635752Y-86447700D01*
X179635754Y-86447700D01*
X179825048Y-86447700D01*
X179965791Y-86417784D01*
X180010203Y-86408344D01*
X180090819Y-86372450D01*
X180149773Y-86346203D01*
X180219023Y-86336918D01*
X180282300Y-86366546D01*
X180319513Y-86425681D01*
X180318848Y-86495547D01*
X180307597Y-86521481D01*
X180272820Y-86581716D01*
X180214326Y-86761742D01*
X180194540Y-86950000D01*
X180214326Y-87138257D01*
X180272820Y-87318284D01*
X180367466Y-87482216D01*
X180494129Y-87622889D01*
X180647269Y-87734151D01*
X180820197Y-87811144D01*
X181005352Y-87850500D01*
X181005354Y-87850500D01*
X181194648Y-87850500D01*
X181351382Y-87817185D01*
X181379803Y-87811144D01*
X181552730Y-87734151D01*
X181643627Y-87668111D01*
X181705870Y-87622889D01*
X181719835Y-87607380D01*
X181832533Y-87482216D01*
X181927179Y-87318284D01*
X181985674Y-87138256D01*
X182005460Y-86950000D01*
X181985674Y-86761744D01*
X181929416Y-86588600D01*
X181927179Y-86581715D01*
X181832533Y-86417783D01*
X181705870Y-86277110D01*
X181565740Y-86175300D01*
X185719540Y-86175300D01*
X185739326Y-86363557D01*
X185797820Y-86543584D01*
X185892466Y-86707516D01*
X186019129Y-86848189D01*
X186172269Y-86959451D01*
X186345197Y-87036444D01*
X186530352Y-87075800D01*
X186530354Y-87075800D01*
X186719648Y-87075800D01*
X186843084Y-87049562D01*
X186904803Y-87036444D01*
X187077730Y-86959451D01*
X187230871Y-86848188D01*
X187331832Y-86736058D01*
X187391317Y-86699411D01*
X187449762Y-86697742D01*
X187580353Y-86725500D01*
X187580354Y-86725500D01*
X187769648Y-86725500D01*
X187900238Y-86697742D01*
X187954803Y-86686144D01*
X188127730Y-86609151D01*
X188248398Y-86521481D01*
X188280870Y-86497889D01*
X188313956Y-86461144D01*
X188407533Y-86357216D01*
X188502179Y-86193284D01*
X188560674Y-86013256D01*
X188580460Y-85825000D01*
X188560674Y-85636744D01*
X188517026Y-85502410D01*
X188502179Y-85456715D01*
X188407533Y-85292783D01*
X188280870Y-85152110D01*
X188127730Y-85040848D01*
X187954802Y-84963855D01*
X187769648Y-84924500D01*
X187769646Y-84924500D01*
X187580354Y-84924500D01*
X187580352Y-84924500D01*
X187395197Y-84963855D01*
X187222269Y-85040848D01*
X187069132Y-85152109D01*
X187069129Y-85152111D01*
X187069129Y-85152112D01*
X187044995Y-85178916D01*
X186968168Y-85264240D01*
X186908681Y-85300888D01*
X186850237Y-85302557D01*
X186719648Y-85274800D01*
X186719646Y-85274800D01*
X186530354Y-85274800D01*
X186530352Y-85274800D01*
X186345197Y-85314155D01*
X186172269Y-85391148D01*
X186019129Y-85502410D01*
X185892466Y-85643083D01*
X185797820Y-85807015D01*
X185739326Y-85987042D01*
X185719540Y-86175300D01*
X181565740Y-86175300D01*
X181552730Y-86165848D01*
X181379802Y-86088855D01*
X181194648Y-86049500D01*
X181194646Y-86049500D01*
X181005354Y-86049500D01*
X181005352Y-86049500D01*
X180820199Y-86088854D01*
X180680625Y-86150997D01*
X180611375Y-86160281D01*
X180548099Y-86130653D01*
X180510886Y-86071517D01*
X180511551Y-86001651D01*
X180522799Y-85975723D01*
X180557579Y-85915484D01*
X180616074Y-85735456D01*
X180635860Y-85547200D01*
X180616074Y-85358944D01*
X180573351Y-85227456D01*
X180557579Y-85178915D01*
X180462933Y-85014983D01*
X180336270Y-84874310D01*
X180183130Y-84763048D01*
X180010202Y-84686055D01*
X179825048Y-84646700D01*
X179825046Y-84646700D01*
X179635754Y-84646700D01*
X179635752Y-84646700D01*
X179450601Y-84686054D01*
X179335269Y-84737404D01*
X179266019Y-84746688D01*
X179202742Y-84717060D01*
X179192683Y-84707097D01*
X179091671Y-84594912D01*
X179091669Y-84594911D01*
X179091667Y-84594908D01*
X178938530Y-84483648D01*
X178765602Y-84406655D01*
X178580448Y-84367300D01*
X178580446Y-84367300D01*
X178391154Y-84367300D01*
X178391152Y-84367300D01*
X178205997Y-84406655D01*
X178033069Y-84483648D01*
X177879929Y-84594910D01*
X177753266Y-84735583D01*
X177658620Y-84899515D01*
X177600126Y-85079542D01*
X177580340Y-85267800D01*
X172830565Y-85267800D01*
X172843674Y-85227456D01*
X172856908Y-85101537D01*
X172883493Y-85036924D01*
X172940790Y-84996939D01*
X172980229Y-84990500D01*
X173014648Y-84990500D01*
X173153391Y-84961009D01*
X173199803Y-84951144D01*
X173372730Y-84874151D01*
X173474791Y-84800000D01*
X173525870Y-84762889D01*
X173540458Y-84746688D01*
X173652533Y-84622216D01*
X173692292Y-84553351D01*
X173712731Y-84517950D01*
X173763298Y-84469735D01*
X173831905Y-84456511D01*
X173893003Y-84479632D01*
X173994469Y-84553351D01*
X174167397Y-84630344D01*
X174352552Y-84669700D01*
X174352554Y-84669700D01*
X174541848Y-84669700D01*
X174666256Y-84643256D01*
X174727003Y-84630344D01*
X174899930Y-84553351D01*
X174942847Y-84522170D01*
X175053070Y-84442089D01*
X175179733Y-84301416D01*
X175274379Y-84137484D01*
X175289068Y-84092276D01*
X175332874Y-83957456D01*
X175352660Y-83769200D01*
X175332874Y-83580944D01*
X175287199Y-83440371D01*
X175274379Y-83400915D01*
X175179733Y-83236983D01*
X175053070Y-83096310D01*
X174899930Y-82985048D01*
X174727002Y-82908055D01*
X174541848Y-82868700D01*
X174541846Y-82868700D01*
X174352554Y-82868700D01*
X174352551Y-82868700D01*
X174218671Y-82897156D01*
X174149004Y-82891840D01*
X174093271Y-82849702D01*
X174069571Y-82788829D01*
X174065674Y-82751744D01*
X174007179Y-82571716D01*
X174007179Y-82571715D01*
X173912533Y-82407783D01*
X173785870Y-82267110D01*
X173632730Y-82155848D01*
X173459802Y-82078855D01*
X173274648Y-82039500D01*
X173274646Y-82039500D01*
X173085354Y-82039500D01*
X173085352Y-82039500D01*
X172900197Y-82078855D01*
X172727269Y-82155848D01*
X172574129Y-82267110D01*
X172447466Y-82407783D01*
X172352820Y-82571715D01*
X172294326Y-82751742D01*
X172274540Y-82939999D01*
X172294326Y-83128257D01*
X172346421Y-83288589D01*
X172348416Y-83358431D01*
X172320640Y-83409879D01*
X172187466Y-83557783D01*
X172092820Y-83721715D01*
X172034326Y-83901742D01*
X172034325Y-83901744D01*
X172034326Y-83901744D01*
X172022072Y-84018341D01*
X172021092Y-84027662D01*
X171994507Y-84092276D01*
X171937210Y-84132261D01*
X171897771Y-84138700D01*
X171863352Y-84138700D01*
X171678197Y-84178055D01*
X171505269Y-84255048D01*
X171352129Y-84366310D01*
X171225466Y-84506983D01*
X171130820Y-84670915D01*
X171072326Y-84850942D01*
X171052540Y-85039200D01*
X162268835Y-85039200D01*
X162103202Y-84965455D01*
X161918048Y-84926100D01*
X161918046Y-84926100D01*
X161728754Y-84926100D01*
X161728752Y-84926100D01*
X161543597Y-84965455D01*
X161370669Y-85042448D01*
X161217529Y-85153710D01*
X161090866Y-85294383D01*
X160996220Y-85458315D01*
X160937726Y-85638342D01*
X160917940Y-85826599D01*
X150650500Y-85826599D01*
X150650500Y-82230937D01*
X151445630Y-82230937D01*
X151476443Y-82432071D01*
X151547113Y-82622886D01*
X151654745Y-82795568D01*
X151654748Y-82795571D01*
X151794941Y-82943053D01*
X151961951Y-83059295D01*
X152148942Y-83139540D01*
X152348259Y-83180500D01*
X152348261Y-83180500D01*
X153297600Y-83180500D01*
X153300742Y-83180500D01*
X153452438Y-83165074D01*
X153646588Y-83104159D01*
X153824502Y-83005409D01*
X153978895Y-82872866D01*
X154103448Y-82711958D01*
X154193060Y-82529271D01*
X154244063Y-82332285D01*
X154249203Y-82230937D01*
X155475630Y-82230937D01*
X155506443Y-82432071D01*
X155577113Y-82622886D01*
X155684745Y-82795568D01*
X155684748Y-82795571D01*
X155824941Y-82943053D01*
X155991951Y-83059295D01*
X156178942Y-83139540D01*
X156378259Y-83180500D01*
X156378261Y-83180500D01*
X157627600Y-83180500D01*
X157630742Y-83180500D01*
X157782438Y-83165074D01*
X157976588Y-83104159D01*
X158154502Y-83005409D01*
X158308895Y-82872866D01*
X158433448Y-82711958D01*
X158523060Y-82529271D01*
X158574063Y-82332285D01*
X158575903Y-82296000D01*
X161146540Y-82296000D01*
X161166326Y-82484257D01*
X161224820Y-82664284D01*
X161319466Y-82828216D01*
X161446129Y-82968889D01*
X161599269Y-83080151D01*
X161772197Y-83157144D01*
X161957352Y-83196500D01*
X161957354Y-83196500D01*
X162146648Y-83196500D01*
X162294495Y-83165074D01*
X162331803Y-83157144D01*
X162504730Y-83080151D01*
X162504729Y-83080151D01*
X162657870Y-82968889D01*
X162712645Y-82908056D01*
X162784533Y-82828216D01*
X162879179Y-82664284D01*
X162937674Y-82484256D01*
X162957460Y-82296000D01*
X164194540Y-82296000D01*
X164214326Y-82484257D01*
X164272820Y-82664284D01*
X164367466Y-82828216D01*
X164494129Y-82968889D01*
X164647269Y-83080151D01*
X164820197Y-83157144D01*
X165005352Y-83196500D01*
X165005354Y-83196500D01*
X165194648Y-83196500D01*
X165342495Y-83165074D01*
X165379803Y-83157144D01*
X165552730Y-83080151D01*
X165705870Y-82968889D01*
X165760645Y-82908056D01*
X165832533Y-82828216D01*
X165927179Y-82664284D01*
X165985674Y-82484256D01*
X166005460Y-82296000D01*
X165985674Y-82107744D01*
X165955332Y-82014363D01*
X165927179Y-81927715D01*
X165832533Y-81763783D01*
X165705870Y-81623110D01*
X165552730Y-81511848D01*
X165379802Y-81434855D01*
X165194648Y-81395500D01*
X165194646Y-81395500D01*
X165005354Y-81395500D01*
X165005352Y-81395500D01*
X164820197Y-81434855D01*
X164647269Y-81511848D01*
X164494129Y-81623110D01*
X164367466Y-81763783D01*
X164272820Y-81927715D01*
X164214326Y-82107742D01*
X164194540Y-82296000D01*
X162957460Y-82296000D01*
X162937674Y-82107744D01*
X162907332Y-82014363D01*
X162879179Y-81927715D01*
X162784533Y-81763783D01*
X162657870Y-81623110D01*
X162504730Y-81511848D01*
X162331802Y-81434855D01*
X162146648Y-81395500D01*
X162146646Y-81395500D01*
X161957354Y-81395500D01*
X161957352Y-81395500D01*
X161772197Y-81434855D01*
X161599269Y-81511848D01*
X161446129Y-81623110D01*
X161319466Y-81763783D01*
X161224820Y-81927715D01*
X161166326Y-82107742D01*
X161146540Y-82296000D01*
X158575903Y-82296000D01*
X158584369Y-82129064D01*
X158577211Y-82082342D01*
X158553556Y-81927928D01*
X158482886Y-81737113D01*
X158375254Y-81564431D01*
X158348796Y-81536598D01*
X158235059Y-81416947D01*
X158068049Y-81300705D01*
X157881058Y-81220460D01*
X157681741Y-81179500D01*
X156429258Y-81179500D01*
X156426147Y-81179816D01*
X156426134Y-81179817D01*
X156277559Y-81194926D01*
X156083412Y-81255841D01*
X155905500Y-81354589D01*
X155751104Y-81487135D01*
X155626551Y-81648042D01*
X155536940Y-81830727D01*
X155485937Y-82027716D01*
X155475630Y-82230937D01*
X154249203Y-82230937D01*
X154254369Y-82129064D01*
X154247211Y-82082342D01*
X154223556Y-81927928D01*
X154152886Y-81737113D01*
X154045254Y-81564431D01*
X154018796Y-81536598D01*
X153905059Y-81416947D01*
X153738049Y-81300705D01*
X153551058Y-81220460D01*
X153351741Y-81179500D01*
X152399258Y-81179500D01*
X152396147Y-81179816D01*
X152396134Y-81179817D01*
X152247559Y-81194926D01*
X152053412Y-81255841D01*
X151875500Y-81354589D01*
X151721104Y-81487135D01*
X151596551Y-81648042D01*
X151506940Y-81830727D01*
X151455937Y-82027716D01*
X151445630Y-82230937D01*
X150650500Y-82230937D01*
X150650500Y-80771999D01*
X173516340Y-80771999D01*
X173536126Y-80960257D01*
X173594620Y-81140284D01*
X173689266Y-81304216D01*
X173815929Y-81444889D01*
X173969069Y-81556151D01*
X174141997Y-81633144D01*
X174327152Y-81672500D01*
X174327154Y-81672500D01*
X174516448Y-81672500D01*
X174639883Y-81646262D01*
X174701603Y-81633144D01*
X174874530Y-81556151D01*
X174935508Y-81511848D01*
X175027670Y-81444889D01*
X175154333Y-81304216D01*
X175248979Y-81140284D01*
X175248978Y-81140283D01*
X175307474Y-80960256D01*
X175327260Y-80772000D01*
X177250140Y-80772000D01*
X177269926Y-80960257D01*
X177328420Y-81140284D01*
X177423066Y-81304216D01*
X177549726Y-81444886D01*
X177549729Y-81444888D01*
X177599804Y-81481269D01*
X177642469Y-81536598D01*
X177648448Y-81606211D01*
X177619068Y-81664559D01*
X177575466Y-81712983D01*
X177480820Y-81876915D01*
X177422326Y-82056942D01*
X177402540Y-82245200D01*
X177422326Y-82433457D01*
X177480820Y-82613484D01*
X177575466Y-82777416D01*
X177702129Y-82918089D01*
X177855269Y-83029351D01*
X178028197Y-83106344D01*
X178213352Y-83145700D01*
X178213354Y-83145700D01*
X178402648Y-83145700D01*
X178526084Y-83119462D01*
X178587803Y-83106344D01*
X178760730Y-83029351D01*
X178793682Y-83005410D01*
X178913870Y-82918089D01*
X179040533Y-82777416D01*
X179135179Y-82613484D01*
X179148750Y-82571716D01*
X179193674Y-82433456D01*
X179213460Y-82245200D01*
X179193674Y-82056944D01*
X179135179Y-81876916D01*
X179135179Y-81876915D01*
X179040533Y-81712983D01*
X178913870Y-81572310D01*
X178863796Y-81535930D01*
X178821130Y-81480601D01*
X178815151Y-81410987D01*
X178844531Y-81352640D01*
X178888133Y-81304216D01*
X178965601Y-81170037D01*
X181344540Y-81170037D01*
X181364326Y-81358294D01*
X181422820Y-81538321D01*
X181517466Y-81702253D01*
X181644129Y-81842926D01*
X181797269Y-81954188D01*
X181970197Y-82031181D01*
X182155352Y-82070537D01*
X182155354Y-82070537D01*
X182344648Y-82070537D01*
X182472862Y-82043284D01*
X182529803Y-82031181D01*
X182702730Y-81954188D01*
X182774126Y-81902316D01*
X182855870Y-81842926D01*
X182982533Y-81702253D01*
X182998267Y-81675000D01*
X187269540Y-81675000D01*
X187289326Y-81863257D01*
X187347820Y-82043284D01*
X187442466Y-82207216D01*
X187569129Y-82347889D01*
X187722269Y-82459151D01*
X187895197Y-82536144D01*
X188080352Y-82575500D01*
X188080354Y-82575500D01*
X188269648Y-82575500D01*
X188393083Y-82549262D01*
X188454803Y-82536144D01*
X188627730Y-82459151D01*
X188780871Y-82347888D01*
X188907533Y-82207216D01*
X189002179Y-82043284D01*
X189060674Y-81863256D01*
X189080460Y-81675000D01*
X189060674Y-81486744D01*
X189018938Y-81358294D01*
X189002179Y-81306715D01*
X188907533Y-81142783D01*
X188780870Y-81002110D01*
X188726351Y-80962500D01*
X206332040Y-80962500D01*
X206351826Y-81150757D01*
X206410320Y-81330784D01*
X206504966Y-81494716D01*
X206631629Y-81635389D01*
X206784769Y-81746651D01*
X206957697Y-81823644D01*
X207142852Y-81863000D01*
X207142854Y-81863000D01*
X207332148Y-81863000D01*
X207483970Y-81830729D01*
X207517303Y-81823644D01*
X207690230Y-81746651D01*
X207736570Y-81712983D01*
X207843370Y-81635389D01*
X207845392Y-81633144D01*
X207970033Y-81494716D01*
X208064679Y-81330784D01*
X208123174Y-81150756D01*
X208142960Y-80962500D01*
X208123174Y-80774244D01*
X208072542Y-80618416D01*
X208064679Y-80594215D01*
X207970033Y-80430283D01*
X207843370Y-80289610D01*
X207690230Y-80178348D01*
X207517302Y-80101355D01*
X207332148Y-80062000D01*
X207332146Y-80062000D01*
X207142854Y-80062000D01*
X207142852Y-80062000D01*
X206957697Y-80101355D01*
X206784769Y-80178348D01*
X206631629Y-80289610D01*
X206504966Y-80430283D01*
X206410320Y-80594215D01*
X206351826Y-80774242D01*
X206332040Y-80962500D01*
X188726351Y-80962500D01*
X188627730Y-80890848D01*
X188454802Y-80813855D01*
X188269648Y-80774500D01*
X188269646Y-80774500D01*
X188080354Y-80774500D01*
X188080352Y-80774500D01*
X187895197Y-80813855D01*
X187722269Y-80890848D01*
X187569129Y-81002110D01*
X187442466Y-81142783D01*
X187347820Y-81306715D01*
X187289326Y-81486742D01*
X187269540Y-81675000D01*
X182998267Y-81675000D01*
X183077179Y-81538321D01*
X183094033Y-81486449D01*
X183135674Y-81358293D01*
X183155460Y-81170037D01*
X183135674Y-80981781D01*
X183077179Y-80801753D01*
X183077179Y-80801752D01*
X182982533Y-80637820D01*
X182855870Y-80497147D01*
X182702730Y-80385885D01*
X182529802Y-80308892D01*
X182344648Y-80269537D01*
X182344646Y-80269537D01*
X182155354Y-80269537D01*
X182155352Y-80269537D01*
X181970197Y-80308892D01*
X181797269Y-80385885D01*
X181644129Y-80497147D01*
X181517466Y-80637820D01*
X181422820Y-80801752D01*
X181364326Y-80981779D01*
X181344540Y-81170037D01*
X178965601Y-81170037D01*
X178982779Y-81140284D01*
X179041274Y-80960256D01*
X179061060Y-80772000D01*
X179041274Y-80583744D01*
X178982779Y-80403716D01*
X178982779Y-80403715D01*
X178888133Y-80239783D01*
X178761470Y-80099110D01*
X178608330Y-79987848D01*
X178435402Y-79910855D01*
X178250248Y-79871500D01*
X178250246Y-79871500D01*
X178060954Y-79871500D01*
X178060952Y-79871500D01*
X177875797Y-79910855D01*
X177702869Y-79987848D01*
X177549729Y-80099110D01*
X177423066Y-80239783D01*
X177328420Y-80403715D01*
X177269926Y-80583742D01*
X177250140Y-80772000D01*
X175327260Y-80772000D01*
X175307474Y-80583744D01*
X175248979Y-80403716D01*
X175248979Y-80403715D01*
X175154333Y-80239783D01*
X175027670Y-80099110D01*
X174874530Y-79987848D01*
X174701602Y-79910855D01*
X174516448Y-79871500D01*
X174516446Y-79871500D01*
X174327154Y-79871500D01*
X174327152Y-79871500D01*
X174141997Y-79910855D01*
X173969069Y-79987848D01*
X173815929Y-80099110D01*
X173689266Y-80239783D01*
X173594620Y-80403715D01*
X173536126Y-80583742D01*
X173516340Y-80771999D01*
X150650500Y-80771999D01*
X150650500Y-79679800D01*
X162162540Y-79679800D01*
X162182326Y-79868057D01*
X162240820Y-80048084D01*
X162335466Y-80212016D01*
X162462129Y-80352689D01*
X162615269Y-80463951D01*
X162788197Y-80540944D01*
X162973352Y-80580300D01*
X162973354Y-80580300D01*
X163162648Y-80580300D01*
X163286084Y-80554062D01*
X163347803Y-80540944D01*
X163520730Y-80463951D01*
X163673871Y-80352688D01*
X163800533Y-80212016D01*
X163895179Y-80048084D01*
X163953674Y-79868056D01*
X163973460Y-79679800D01*
X163953674Y-79491544D01*
X163895179Y-79311516D01*
X163895179Y-79311515D01*
X163800533Y-79147583D01*
X163673870Y-79006910D01*
X163664359Y-79000000D01*
X220094540Y-79000000D01*
X220103017Y-79080656D01*
X220114326Y-79188257D01*
X220172820Y-79368284D01*
X220267466Y-79532216D01*
X220394129Y-79672889D01*
X220547269Y-79784151D01*
X220720197Y-79861144D01*
X220905352Y-79900500D01*
X220905354Y-79900500D01*
X221094648Y-79900500D01*
X221231081Y-79871500D01*
X221279803Y-79861144D01*
X221452730Y-79784151D01*
X221543895Y-79717916D01*
X221605870Y-79672889D01*
X221732533Y-79532216D01*
X221827179Y-79368284D01*
X221848700Y-79302049D01*
X221885674Y-79188256D01*
X221905460Y-79000000D01*
X221885674Y-78811744D01*
X221850712Y-78704142D01*
X221827179Y-78631715D01*
X221732533Y-78467783D01*
X221605870Y-78327110D01*
X221452730Y-78215848D01*
X221279802Y-78138855D01*
X221094648Y-78099500D01*
X221094646Y-78099500D01*
X220905354Y-78099500D01*
X220905352Y-78099500D01*
X220720197Y-78138855D01*
X220547269Y-78215848D01*
X220394129Y-78327110D01*
X220267466Y-78467783D01*
X220172820Y-78631715D01*
X220114326Y-78811742D01*
X220105507Y-78895649D01*
X220094540Y-79000000D01*
X163664359Y-79000000D01*
X163520730Y-78895648D01*
X163347802Y-78818655D01*
X163162648Y-78779300D01*
X163162646Y-78779300D01*
X162973354Y-78779300D01*
X162973352Y-78779300D01*
X162788197Y-78818655D01*
X162615269Y-78895648D01*
X162462129Y-79006910D01*
X162335466Y-79147583D01*
X162240820Y-79311515D01*
X162182326Y-79491542D01*
X162162540Y-79679800D01*
X150650500Y-79679800D01*
X150650500Y-77749399D01*
X181695140Y-77749399D01*
X181714926Y-77937657D01*
X181773420Y-78117684D01*
X181868066Y-78281616D01*
X181994729Y-78422289D01*
X182147869Y-78533551D01*
X182320797Y-78610544D01*
X182505952Y-78649900D01*
X182505954Y-78649900D01*
X182695248Y-78649900D01*
X182818683Y-78623662D01*
X182880403Y-78610544D01*
X183053330Y-78533551D01*
X183206471Y-78422288D01*
X183333133Y-78281616D01*
X183427779Y-78117684D01*
X183430845Y-78108248D01*
X183449842Y-78049782D01*
X183489279Y-77992107D01*
X183553638Y-77964908D01*
X183567773Y-77964100D01*
X183762048Y-77964100D01*
X183886456Y-77937656D01*
X183947203Y-77924744D01*
X184120130Y-77847751D01*
X184255499Y-77749400D01*
X184272763Y-77736857D01*
X185658837Y-77736857D01*
X185678623Y-77925114D01*
X185737117Y-78105141D01*
X185831763Y-78269073D01*
X185958426Y-78409746D01*
X186111566Y-78521008D01*
X186284494Y-78598001D01*
X186469649Y-78637357D01*
X186469651Y-78637357D01*
X186658945Y-78637357D01*
X186785089Y-78610544D01*
X186844100Y-78598001D01*
X187017027Y-78521008D01*
X187170168Y-78409745D01*
X187296830Y-78269073D01*
X187391476Y-78105141D01*
X187449971Y-77925113D01*
X187469757Y-77736857D01*
X187466293Y-77703902D01*
X187478860Y-77635173D01*
X187516723Y-77590625D01*
X187667547Y-77481046D01*
X187794209Y-77340374D01*
X187837341Y-77265667D01*
X187838246Y-77264100D01*
X187888813Y-77215885D01*
X187945633Y-77202100D01*
X188080048Y-77202100D01*
X188203483Y-77175862D01*
X188265203Y-77162744D01*
X188438130Y-77085751D01*
X188450849Y-77076510D01*
X188591270Y-76974489D01*
X188670817Y-76886144D01*
X188717933Y-76833816D01*
X188812579Y-76669884D01*
X188871074Y-76489856D01*
X188881942Y-76386447D01*
X188908525Y-76321836D01*
X188954825Y-76286133D01*
X189098530Y-76222151D01*
X189098530Y-76222150D01*
X189098532Y-76222150D01*
X189251670Y-76110889D01*
X189329005Y-76025000D01*
X194019540Y-76025000D01*
X194039326Y-76213257D01*
X194097820Y-76393284D01*
X194192466Y-76557216D01*
X194319129Y-76697889D01*
X194472269Y-76809151D01*
X194645197Y-76886144D01*
X194830352Y-76925500D01*
X194830354Y-76925500D01*
X195019648Y-76925500D01*
X195143084Y-76899262D01*
X195204803Y-76886144D01*
X195377730Y-76809151D01*
X195530871Y-76697888D01*
X195657533Y-76557216D01*
X195752179Y-76393284D01*
X195765463Y-76352400D01*
X212911740Y-76352400D01*
X212915767Y-76390712D01*
X212931526Y-76540657D01*
X212990020Y-76720684D01*
X213084666Y-76884616D01*
X213211329Y-77025289D01*
X213364469Y-77136551D01*
X213537397Y-77213544D01*
X213722552Y-77252900D01*
X213722554Y-77252900D01*
X213911848Y-77252900D01*
X214035284Y-77226662D01*
X214097003Y-77213544D01*
X214269930Y-77136551D01*
X214423071Y-77025288D01*
X214429188Y-77018493D01*
X214488671Y-76981846D01*
X214558528Y-76983175D01*
X214594222Y-77001148D01*
X214710669Y-77085751D01*
X214883597Y-77162744D01*
X215068752Y-77202100D01*
X215068754Y-77202100D01*
X215258048Y-77202100D01*
X215381484Y-77175862D01*
X215443203Y-77162744D01*
X215616130Y-77085751D01*
X215628849Y-77076510D01*
X215769270Y-76974489D01*
X215848817Y-76886144D01*
X215895933Y-76833816D01*
X215990579Y-76669884D01*
X216049074Y-76489856D01*
X216068860Y-76301600D01*
X216049074Y-76113344D01*
X215995030Y-75947014D01*
X215990579Y-75933315D01*
X215895933Y-75769383D01*
X215769270Y-75628710D01*
X215616130Y-75517448D01*
X215443202Y-75440455D01*
X215258048Y-75401100D01*
X215258046Y-75401100D01*
X215068754Y-75401100D01*
X215068752Y-75401100D01*
X214883597Y-75440455D01*
X214710669Y-75517448D01*
X214557529Y-75628711D01*
X214551408Y-75635509D01*
X214491919Y-75672155D01*
X214422062Y-75670822D01*
X214386376Y-75652851D01*
X214269930Y-75568248D01*
X214097002Y-75491255D01*
X213911848Y-75451900D01*
X213911846Y-75451900D01*
X213722554Y-75451900D01*
X213722552Y-75451900D01*
X213537397Y-75491255D01*
X213364469Y-75568248D01*
X213211329Y-75679510D01*
X213084666Y-75820183D01*
X212990020Y-75984115D01*
X212931526Y-76164142D01*
X212920155Y-76272335D01*
X212911740Y-76352400D01*
X195765463Y-76352400D01*
X195810674Y-76213256D01*
X195830460Y-76025000D01*
X195810674Y-75836744D01*
X195759586Y-75679512D01*
X195752179Y-75656715D01*
X195657533Y-75492783D01*
X195530870Y-75352110D01*
X195377730Y-75240848D01*
X195204802Y-75163855D01*
X195019648Y-75124500D01*
X195019646Y-75124500D01*
X194830354Y-75124500D01*
X194830352Y-75124500D01*
X194645197Y-75163855D01*
X194472269Y-75240848D01*
X194319129Y-75352110D01*
X194192466Y-75492783D01*
X194097820Y-75656715D01*
X194039326Y-75836742D01*
X194019540Y-76025000D01*
X189329005Y-76025000D01*
X189378333Y-75970216D01*
X189472979Y-75806284D01*
X189481232Y-75780884D01*
X189531474Y-75626256D01*
X189551260Y-75438000D01*
X189546719Y-75394799D01*
X189559288Y-75326071D01*
X189597151Y-75281523D01*
X189740271Y-75177542D01*
X189866933Y-75036870D01*
X189961579Y-74872938D01*
X190020074Y-74692910D01*
X190039860Y-74504654D01*
X190032383Y-74433522D01*
X190044952Y-74364798D01*
X190092683Y-74313774D01*
X190160423Y-74296655D01*
X190226665Y-74318877D01*
X190270377Y-74373384D01*
X190273634Y-74382245D01*
X190282419Y-74409281D01*
X190377066Y-74573216D01*
X190503729Y-74713889D01*
X190656869Y-74825151D01*
X190829797Y-74902144D01*
X191014952Y-74941500D01*
X191014954Y-74941500D01*
X191204248Y-74941500D01*
X191327684Y-74915262D01*
X191389403Y-74902144D01*
X191562330Y-74825151D01*
X191662560Y-74752330D01*
X191715470Y-74713889D01*
X191725375Y-74702889D01*
X191842133Y-74573216D01*
X191856776Y-74547854D01*
X191916332Y-74444700D01*
X191966899Y-74396484D01*
X192023719Y-74382700D01*
X192144048Y-74382700D01*
X192317455Y-74345841D01*
X192329203Y-74343344D01*
X192434067Y-74296655D01*
X192502127Y-74266353D01*
X192549575Y-74231880D01*
X192613899Y-74185146D01*
X192679703Y-74161667D01*
X192737217Y-74172185D01*
X192777568Y-74190151D01*
X192836398Y-74216345D01*
X193021552Y-74255700D01*
X193021554Y-74255700D01*
X193210848Y-74255700D01*
X193346924Y-74226776D01*
X193396003Y-74216344D01*
X193568930Y-74139351D01*
X193615983Y-74105163D01*
X193681788Y-74081684D01*
X193749842Y-74097509D01*
X193761743Y-74105157D01*
X193806470Y-74137653D01*
X193806471Y-74137653D01*
X193806472Y-74137654D01*
X193979397Y-74214646D01*
X194164552Y-74254002D01*
X194164554Y-74254002D01*
X194353848Y-74254002D01*
X194522014Y-74218257D01*
X194539003Y-74214646D01*
X194711930Y-74137653D01*
X194722579Y-74129916D01*
X194865070Y-74026391D01*
X194991733Y-73885718D01*
X195086379Y-73721786D01*
X195097146Y-73688648D01*
X195144874Y-73541758D01*
X195164660Y-73353502D01*
X195151491Y-73228200D01*
X201430940Y-73228200D01*
X201440832Y-73322328D01*
X201450726Y-73416457D01*
X201509220Y-73596484D01*
X201603866Y-73760416D01*
X201730529Y-73901089D01*
X201883669Y-74012351D01*
X202056597Y-74089344D01*
X202241752Y-74128700D01*
X202241754Y-74128700D01*
X202431048Y-74128700D01*
X202577789Y-74097509D01*
X202616203Y-74089344D01*
X202723156Y-74041725D01*
X202733780Y-74036995D01*
X202803030Y-74027710D01*
X202866307Y-74057338D01*
X202903520Y-74116473D01*
X202902855Y-74186339D01*
X202864524Y-74244755D01*
X202857104Y-74250590D01*
X202848130Y-74257110D01*
X202721466Y-74397783D01*
X202626820Y-74561715D01*
X202568326Y-74741742D01*
X202548540Y-74930000D01*
X202568326Y-75118257D01*
X202626820Y-75298284D01*
X202721466Y-75462216D01*
X202848129Y-75602889D01*
X203001269Y-75714151D01*
X203174197Y-75791144D01*
X203359352Y-75830500D01*
X203359354Y-75830500D01*
X203548648Y-75830500D01*
X203672083Y-75804262D01*
X203733803Y-75791144D01*
X203906730Y-75714151D01*
X203954407Y-75679512D01*
X204059870Y-75602889D01*
X204163086Y-75488257D01*
X204186533Y-75462216D01*
X204281179Y-75298284D01*
X204339674Y-75118256D01*
X204359460Y-74930000D01*
X204339674Y-74741744D01*
X204309332Y-74648363D01*
X204281179Y-74561715D01*
X204186533Y-74397783D01*
X204059870Y-74257110D01*
X203906730Y-74145848D01*
X203733802Y-74068855D01*
X203548648Y-74029500D01*
X203548646Y-74029500D01*
X203359354Y-74029500D01*
X203359352Y-74029500D01*
X203174199Y-74068854D01*
X203056618Y-74121205D01*
X202987368Y-74130489D01*
X202924092Y-74100860D01*
X202886879Y-74041725D01*
X202887544Y-73971859D01*
X202925876Y-73913443D01*
X202933301Y-73907605D01*
X202939794Y-73902888D01*
X202942271Y-73901088D01*
X203068933Y-73760416D01*
X203126908Y-73660000D01*
X204384340Y-73660000D01*
X204404936Y-73895407D01*
X204443948Y-74041000D01*
X204466097Y-74123663D01*
X204565965Y-74337830D01*
X204701505Y-74531401D01*
X204868599Y-74698495D01*
X205062170Y-74834035D01*
X205276337Y-74933903D01*
X205504591Y-74995063D01*
X205504592Y-74995063D01*
X205739999Y-75015659D01*
X205739999Y-75015658D01*
X205740000Y-75015659D01*
X205975408Y-74995063D01*
X206203663Y-74933903D01*
X206417830Y-74834035D01*
X206611401Y-74698495D01*
X206778495Y-74531401D01*
X206908426Y-74345839D01*
X206963002Y-74302216D01*
X207032500Y-74295022D01*
X207094855Y-74326545D01*
X207111571Y-74345837D01*
X207241505Y-74531401D01*
X207408599Y-74698495D01*
X207602170Y-74834035D01*
X207816337Y-74933903D01*
X208044592Y-74995063D01*
X208280000Y-75015659D01*
X208515408Y-74995063D01*
X208743663Y-74933903D01*
X208957830Y-74834035D01*
X209151401Y-74698495D01*
X209318495Y-74531401D01*
X209448426Y-74345839D01*
X209503002Y-74302216D01*
X209572500Y-74295022D01*
X209634855Y-74326545D01*
X209651571Y-74345837D01*
X209781505Y-74531401D01*
X209948599Y-74698495D01*
X210142170Y-74834035D01*
X210356337Y-74933903D01*
X210584592Y-74995063D01*
X210820000Y-75015659D01*
X211055408Y-74995063D01*
X211283663Y-74933903D01*
X211497830Y-74834035D01*
X211691401Y-74698495D01*
X211858495Y-74531401D01*
X211988426Y-74345839D01*
X212043002Y-74302216D01*
X212112500Y-74295022D01*
X212174855Y-74326545D01*
X212191571Y-74345837D01*
X212321505Y-74531401D01*
X212488599Y-74698495D01*
X212682170Y-74834035D01*
X212896337Y-74933903D01*
X213124591Y-74995063D01*
X213124592Y-74995063D01*
X213359999Y-75015659D01*
X213359999Y-75015658D01*
X213360000Y-75015659D01*
X213595408Y-74995063D01*
X213823663Y-74933903D01*
X214037830Y-74834035D01*
X214231401Y-74698495D01*
X214398495Y-74531401D01*
X214528426Y-74345839D01*
X214583002Y-74302216D01*
X214652500Y-74295022D01*
X214714855Y-74326545D01*
X214731571Y-74345837D01*
X214861505Y-74531401D01*
X215028599Y-74698495D01*
X215222170Y-74834035D01*
X215436337Y-74933903D01*
X215664591Y-74995063D01*
X215664592Y-74995063D01*
X215899999Y-75015659D01*
X215899999Y-75015658D01*
X215900000Y-75015659D01*
X216135408Y-74995063D01*
X216363663Y-74933903D01*
X216577830Y-74834035D01*
X216771401Y-74698495D01*
X216938495Y-74531401D01*
X217068426Y-74345839D01*
X217123002Y-74302217D01*
X217192501Y-74295024D01*
X217254855Y-74326546D01*
X217271571Y-74345837D01*
X217401505Y-74531401D01*
X217568599Y-74698495D01*
X217762170Y-74834035D01*
X217976337Y-74933903D01*
X218204591Y-74995063D01*
X218204592Y-74995063D01*
X218439999Y-75015659D01*
X218439999Y-75015658D01*
X218440000Y-75015659D01*
X218675408Y-74995063D01*
X218903663Y-74933903D01*
X219117830Y-74834035D01*
X219311401Y-74698495D01*
X219478495Y-74531401D01*
X219608426Y-74345839D01*
X219663002Y-74302216D01*
X219732500Y-74295022D01*
X219794855Y-74326545D01*
X219811571Y-74345837D01*
X219922423Y-74504149D01*
X219941505Y-74531401D01*
X220116270Y-74706166D01*
X220115204Y-74707231D01*
X220151363Y-74752473D01*
X220158553Y-74821972D01*
X220154544Y-74837783D01*
X220119726Y-74944940D01*
X220099940Y-75133200D01*
X220119726Y-75321457D01*
X220178220Y-75501484D01*
X220272866Y-75665416D01*
X220399529Y-75806089D01*
X220552669Y-75917351D01*
X220725597Y-75994344D01*
X220910752Y-76033700D01*
X220910754Y-76033700D01*
X221100048Y-76033700D01*
X221223483Y-76007462D01*
X221285203Y-75994344D01*
X221458130Y-75917351D01*
X221471471Y-75907658D01*
X221611270Y-75806089D01*
X221644320Y-75769384D01*
X221737933Y-75665416D01*
X221832579Y-75501484D01*
X221891074Y-75321456D01*
X221910860Y-75133200D01*
X221891074Y-74944944D01*
X221844386Y-74801256D01*
X221842392Y-74731417D01*
X221874634Y-74675261D01*
X221973329Y-74576566D01*
X222034648Y-74543084D01*
X222104340Y-74548068D01*
X222160274Y-74589939D01*
X222177189Y-74620916D01*
X222192161Y-74661057D01*
X222226204Y-74752331D01*
X222312454Y-74867546D01*
X222427669Y-74953796D01*
X222562517Y-75004091D01*
X222622127Y-75010500D01*
X224417872Y-75010499D01*
X224477483Y-75004091D01*
X224612331Y-74953796D01*
X224727546Y-74867546D01*
X224813796Y-74752331D01*
X224864091Y-74617483D01*
X224870500Y-74557873D01*
X224870499Y-72762128D01*
X224864091Y-72702517D01*
X224813796Y-72567669D01*
X224727546Y-72452454D01*
X224612331Y-72366204D01*
X224483797Y-72318264D01*
X226545745Y-72318264D01*
X226545896Y-72322594D01*
X226545896Y-72322600D01*
X226555601Y-72600524D01*
X226555601Y-72600532D01*
X226555753Y-72604859D01*
X226556504Y-72609119D01*
X226556505Y-72609127D01*
X226604797Y-72883004D01*
X226605550Y-72887272D01*
X226606886Y-72891386D01*
X226606888Y-72891391D01*
X226692826Y-73155881D01*
X226692829Y-73155889D01*
X226694167Y-73160006D01*
X226696068Y-73163904D01*
X226696069Y-73163906D01*
X226814146Y-73406000D01*
X226819879Y-73417753D01*
X226980238Y-73655496D01*
X226983133Y-73658711D01*
X226983136Y-73658715D01*
X227169224Y-73865387D01*
X227169230Y-73865392D01*
X227172125Y-73868608D01*
X227175443Y-73871392D01*
X227175445Y-73871394D01*
X227281964Y-73960773D01*
X227391803Y-74052940D01*
X227417274Y-74068856D01*
X227611386Y-74190151D01*
X227634998Y-74204905D01*
X227896975Y-74321545D01*
X228172636Y-74400589D01*
X228456615Y-74440500D01*
X228460948Y-74440500D01*
X228669454Y-74440500D01*
X228671604Y-74440500D01*
X228886071Y-74425503D01*
X229166575Y-74365880D01*
X229436050Y-74267799D01*
X229689253Y-74133169D01*
X229921254Y-73964610D01*
X230127539Y-73765403D01*
X230304093Y-73539425D01*
X230447477Y-73291075D01*
X230554903Y-73025187D01*
X230624279Y-72746935D01*
X230654255Y-72461736D01*
X230644247Y-72175141D01*
X230594450Y-71892728D01*
X230505833Y-71619994D01*
X230380121Y-71362247D01*
X230219762Y-71124504D01*
X230204916Y-71108016D01*
X230030775Y-70914612D01*
X230030769Y-70914606D01*
X230027875Y-70911392D01*
X229917050Y-70818399D01*
X229811516Y-70729845D01*
X229808197Y-70727060D01*
X229800290Y-70722119D01*
X229568671Y-70577387D01*
X229568664Y-70577383D01*
X229565002Y-70575095D01*
X229561055Y-70573337D01*
X229561050Y-70573335D01*
X229306972Y-70460212D01*
X229306968Y-70460210D01*
X229303025Y-70458455D01*
X229298878Y-70457266D01*
X229298873Y-70457264D01*
X229031516Y-70380601D01*
X229031508Y-70380599D01*
X229027364Y-70379411D01*
X229023081Y-70378809D01*
X228747677Y-70340103D01*
X228747674Y-70340102D01*
X228743385Y-70339500D01*
X228528396Y-70339500D01*
X228526279Y-70339648D01*
X228526251Y-70339649D01*
X228318250Y-70354194D01*
X228318238Y-70354195D01*
X228313929Y-70354497D01*
X228309694Y-70355397D01*
X228309688Y-70355398D01*
X228037668Y-70413218D01*
X228037666Y-70413218D01*
X228033425Y-70414120D01*
X228029357Y-70415600D01*
X228029352Y-70415602D01*
X227768023Y-70510718D01*
X227768016Y-70510720D01*
X227763950Y-70512201D01*
X227760126Y-70514234D01*
X227760122Y-70514236D01*
X227514568Y-70644798D01*
X227514553Y-70644807D01*
X227510747Y-70646831D01*
X227507247Y-70649373D01*
X227507242Y-70649377D01*
X227282253Y-70812841D01*
X227282244Y-70812848D01*
X227278746Y-70815390D01*
X227275637Y-70818392D01*
X227275629Y-70818399D01*
X227075575Y-71011589D01*
X227075569Y-71011595D01*
X227072461Y-71014597D01*
X227069798Y-71018005D01*
X227069793Y-71018011D01*
X226898575Y-71237159D01*
X226898569Y-71237167D01*
X226895907Y-71240575D01*
X226893745Y-71244318D01*
X226893740Y-71244327D01*
X226754688Y-71485173D01*
X226754681Y-71485186D01*
X226752523Y-71488925D01*
X226750907Y-71492924D01*
X226750900Y-71492939D01*
X226646719Y-71750796D01*
X226646714Y-71750808D01*
X226645097Y-71754813D01*
X226644050Y-71759010D01*
X226644049Y-71759015D01*
X226579552Y-72017701D01*
X226575721Y-72033065D01*
X226575270Y-72037350D01*
X226575268Y-72037365D01*
X226546197Y-72313954D01*
X226546196Y-72313968D01*
X226545745Y-72318264D01*
X224483797Y-72318264D01*
X224477483Y-72315909D01*
X224417873Y-72309500D01*
X224414550Y-72309500D01*
X222625439Y-72309500D01*
X222625420Y-72309500D01*
X222622128Y-72309501D01*
X222618848Y-72309853D01*
X222618840Y-72309854D01*
X222562515Y-72315909D01*
X222427669Y-72366204D01*
X222312454Y-72452454D01*
X222226204Y-72567669D01*
X222177189Y-72699083D01*
X222135317Y-72755016D01*
X222069852Y-72779433D01*
X222001580Y-72764581D01*
X221973326Y-72743430D01*
X221851404Y-72621508D01*
X221851401Y-72621505D01*
X221657830Y-72485965D01*
X221443663Y-72386097D01*
X221372600Y-72367056D01*
X221215407Y-72324936D01*
X220980000Y-72304340D01*
X220744592Y-72324936D01*
X220516336Y-72386097D01*
X220302170Y-72485965D01*
X220108598Y-72621505D01*
X219941505Y-72788598D01*
X219811575Y-72974159D01*
X219756998Y-73017784D01*
X219687500Y-73024978D01*
X219625145Y-72993455D01*
X219608425Y-72974159D01*
X219591497Y-72949983D01*
X219478495Y-72788599D01*
X219311401Y-72621505D01*
X219117830Y-72485965D01*
X218903663Y-72386097D01*
X218832600Y-72367056D01*
X218675407Y-72324936D01*
X218440000Y-72304340D01*
X218204592Y-72324936D01*
X217976336Y-72386097D01*
X217762170Y-72485965D01*
X217568598Y-72621505D01*
X217401505Y-72788598D01*
X217271575Y-72974159D01*
X217216998Y-73017784D01*
X217147500Y-73024978D01*
X217085145Y-72993455D01*
X217068425Y-72974159D01*
X217051497Y-72949983D01*
X216938495Y-72788599D01*
X216771401Y-72621505D01*
X216577830Y-72485965D01*
X216363663Y-72386097D01*
X216292600Y-72367056D01*
X216135407Y-72324936D01*
X215899999Y-72304340D01*
X215664592Y-72324936D01*
X215436336Y-72386097D01*
X215222170Y-72485965D01*
X215028598Y-72621505D01*
X214861505Y-72788598D01*
X214731575Y-72974159D01*
X214676998Y-73017784D01*
X214607500Y-73024978D01*
X214545145Y-72993455D01*
X214528425Y-72974159D01*
X214511497Y-72949983D01*
X214398495Y-72788599D01*
X214231401Y-72621505D01*
X214037830Y-72485965D01*
X213823663Y-72386097D01*
X213752600Y-72367056D01*
X213595407Y-72324936D01*
X213360000Y-72304340D01*
X213124592Y-72324936D01*
X212896336Y-72386097D01*
X212682170Y-72485965D01*
X212488598Y-72621505D01*
X212321505Y-72788598D01*
X212191575Y-72974159D01*
X212136998Y-73017784D01*
X212067500Y-73024978D01*
X212005145Y-72993455D01*
X211988425Y-72974159D01*
X211971497Y-72949983D01*
X211858495Y-72788599D01*
X211691401Y-72621505D01*
X211497830Y-72485965D01*
X211283663Y-72386097D01*
X211212600Y-72367056D01*
X211055407Y-72324936D01*
X210820000Y-72304340D01*
X210584592Y-72324936D01*
X210356336Y-72386097D01*
X210142170Y-72485965D01*
X209948598Y-72621505D01*
X209781505Y-72788598D01*
X209651575Y-72974159D01*
X209596998Y-73017784D01*
X209527500Y-73024978D01*
X209465145Y-72993455D01*
X209448425Y-72974159D01*
X209431497Y-72949983D01*
X209318495Y-72788599D01*
X209151401Y-72621505D01*
X208957830Y-72485965D01*
X208743663Y-72386097D01*
X208672600Y-72367056D01*
X208515407Y-72324936D01*
X208279999Y-72304340D01*
X208044592Y-72324936D01*
X207816336Y-72386097D01*
X207602170Y-72485965D01*
X207408598Y-72621505D01*
X207241505Y-72788598D01*
X207111575Y-72974159D01*
X207056998Y-73017784D01*
X206987500Y-73024978D01*
X206925145Y-72993455D01*
X206908425Y-72974159D01*
X206891497Y-72949983D01*
X206778495Y-72788599D01*
X206611401Y-72621505D01*
X206417830Y-72485965D01*
X206203663Y-72386097D01*
X206132600Y-72367056D01*
X205975407Y-72324936D01*
X205739999Y-72304340D01*
X205504592Y-72324936D01*
X205276336Y-72386097D01*
X205062170Y-72485965D01*
X204868598Y-72621505D01*
X204701505Y-72788598D01*
X204565965Y-72982170D01*
X204466097Y-73196336D01*
X204404936Y-73424592D01*
X204384340Y-73660000D01*
X203126908Y-73660000D01*
X203163579Y-73596484D01*
X203222074Y-73416456D01*
X203241860Y-73228200D01*
X203222074Y-73039944D01*
X203163579Y-72859916D01*
X203163579Y-72859915D01*
X203068933Y-72695983D01*
X202942270Y-72555310D01*
X202789130Y-72444048D01*
X202616202Y-72367055D01*
X202431048Y-72327700D01*
X202431046Y-72327700D01*
X202241754Y-72327700D01*
X202241752Y-72327700D01*
X202056597Y-72367055D01*
X201883669Y-72444048D01*
X201730529Y-72555310D01*
X201603866Y-72695983D01*
X201509220Y-72859915D01*
X201450726Y-73039942D01*
X201434946Y-73190084D01*
X201430940Y-73228200D01*
X195151491Y-73228200D01*
X195144874Y-73165246D01*
X195103437Y-73037716D01*
X195086379Y-72985217D01*
X194991733Y-72821285D01*
X194865070Y-72680612D01*
X194711930Y-72569350D01*
X194539002Y-72492357D01*
X194353848Y-72453002D01*
X194353846Y-72453002D01*
X194164554Y-72453002D01*
X194164552Y-72453002D01*
X193979397Y-72492357D01*
X193806470Y-72569350D01*
X193759415Y-72603537D01*
X193693608Y-72627016D01*
X193625554Y-72611190D01*
X193613646Y-72603536D01*
X193568930Y-72571048D01*
X193396002Y-72494055D01*
X193210848Y-72454700D01*
X193210846Y-72454700D01*
X193021554Y-72454700D01*
X193021552Y-72454700D01*
X192836397Y-72494055D01*
X192663469Y-72571048D01*
X192551701Y-72652252D01*
X192485894Y-72675732D01*
X192428380Y-72665213D01*
X192329202Y-72621055D01*
X192144048Y-72581700D01*
X192144046Y-72581700D01*
X191954754Y-72581700D01*
X191954752Y-72581700D01*
X191769597Y-72621055D01*
X191596669Y-72698048D01*
X191443529Y-72809310D01*
X191316866Y-72949983D01*
X191242668Y-73078500D01*
X191192101Y-73126716D01*
X191135281Y-73140500D01*
X191014952Y-73140500D01*
X190829797Y-73179855D01*
X190656869Y-73256848D01*
X190503729Y-73368110D01*
X190377066Y-73508783D01*
X190282420Y-73672715D01*
X190223926Y-73852742D01*
X190205675Y-74026391D01*
X190204140Y-74041000D01*
X190211615Y-74112127D01*
X190199047Y-74180856D01*
X190151314Y-74231880D01*
X190083574Y-74248998D01*
X190017333Y-74226776D01*
X189973621Y-74172268D01*
X189970364Y-74163406D01*
X189961579Y-74136369D01*
X189866933Y-73972437D01*
X189740270Y-73831764D01*
X189587130Y-73720502D01*
X189414202Y-73643509D01*
X189229048Y-73604154D01*
X189229046Y-73604154D01*
X189039754Y-73604154D01*
X189039752Y-73604154D01*
X188854597Y-73643509D01*
X188681669Y-73720502D01*
X188528529Y-73831764D01*
X188401866Y-73972437D01*
X188307220Y-74136369D01*
X188248726Y-74316396D01*
X188228940Y-74504654D01*
X188233480Y-74547854D01*
X188220910Y-74616584D01*
X188183044Y-74661132D01*
X188039929Y-74765110D01*
X187913266Y-74905783D01*
X187818620Y-75069715D01*
X187760126Y-75249742D01*
X187749257Y-75353151D01*
X187722672Y-75417765D01*
X187676372Y-75453467D01*
X187532669Y-75517448D01*
X187379529Y-75628710D01*
X187252868Y-75769382D01*
X187252866Y-75769384D01*
X187252867Y-75769384D01*
X187208828Y-75845660D01*
X187158262Y-75893874D01*
X187101443Y-75907658D01*
X186967028Y-75907658D01*
X186781873Y-75947013D01*
X186608945Y-76024006D01*
X186455805Y-76135268D01*
X186329142Y-76275941D01*
X186234496Y-76439873D01*
X186176002Y-76619900D01*
X186156216Y-76808158D01*
X186159679Y-76841116D01*
X186147108Y-76909846D01*
X186109244Y-76954393D01*
X185958424Y-77063969D01*
X185831763Y-77204640D01*
X185737117Y-77368572D01*
X185678623Y-77548599D01*
X185658837Y-77736857D01*
X184272763Y-77736857D01*
X184273270Y-77736489D01*
X184399933Y-77595816D01*
X184494579Y-77431884D01*
X184494579Y-77431883D01*
X184548586Y-77265665D01*
X184588023Y-77207992D01*
X184640733Y-77182696D01*
X184734603Y-77162744D01*
X184734604Y-77162743D01*
X184734606Y-77162743D01*
X184907530Y-77085751D01*
X185060670Y-76974489D01*
X185140217Y-76886144D01*
X185187333Y-76833816D01*
X185281979Y-76669884D01*
X185340474Y-76489856D01*
X185348981Y-76408912D01*
X185375564Y-76344300D01*
X185432861Y-76304315D01*
X185446521Y-76300586D01*
X185500938Y-76289019D01*
X185572803Y-76273744D01*
X185745730Y-76196751D01*
X185830352Y-76135270D01*
X185898870Y-76085489D01*
X186025533Y-75944816D01*
X186120179Y-75780884D01*
X186128422Y-75755515D01*
X186178674Y-75600856D01*
X186194964Y-75445862D01*
X186221547Y-75381250D01*
X186278845Y-75341265D01*
X186292499Y-75337536D01*
X186309403Y-75333944D01*
X186482330Y-75256951D01*
X186591632Y-75177539D01*
X186635470Y-75145689D01*
X186762133Y-75005016D01*
X186856779Y-74841084D01*
X186869719Y-74801258D01*
X186915274Y-74661056D01*
X186935060Y-74472800D01*
X186915274Y-74284544D01*
X186878793Y-74172268D01*
X186856779Y-74104515D01*
X186762133Y-73940583D01*
X186635470Y-73799910D01*
X186482330Y-73688648D01*
X186309402Y-73611655D01*
X186124248Y-73572300D01*
X186124246Y-73572300D01*
X185934954Y-73572300D01*
X185934952Y-73572300D01*
X185749797Y-73611655D01*
X185576869Y-73688648D01*
X185423729Y-73799910D01*
X185297066Y-73940583D01*
X185202420Y-74104515D01*
X185143926Y-74284542D01*
X185127636Y-74439535D01*
X185101051Y-74504149D01*
X185043754Y-74544134D01*
X185030097Y-74547863D01*
X185013196Y-74551455D01*
X184840269Y-74628448D01*
X184687129Y-74739710D01*
X184560466Y-74880383D01*
X184465820Y-75044315D01*
X184407326Y-75224342D01*
X184398819Y-75305285D01*
X184372234Y-75369900D01*
X184314936Y-75409884D01*
X184301279Y-75413613D01*
X184174997Y-75440455D01*
X184002069Y-75517448D01*
X183848929Y-75628710D01*
X183722266Y-75769383D01*
X183627620Y-75933315D01*
X183573614Y-76099531D01*
X183534176Y-76157207D01*
X183481465Y-76182503D01*
X183387598Y-76202455D01*
X183214667Y-76279449D01*
X183061529Y-76390710D01*
X182934865Y-76531385D01*
X182840222Y-76695312D01*
X182818158Y-76763219D01*
X182778720Y-76820894D01*
X182714361Y-76848092D01*
X182700227Y-76848900D01*
X182505952Y-76848900D01*
X182320797Y-76888255D01*
X182147869Y-76965248D01*
X181994729Y-77076510D01*
X181868066Y-77217183D01*
X181773420Y-77381115D01*
X181714926Y-77561142D01*
X181695140Y-77749399D01*
X150650500Y-77749399D01*
X150650500Y-76123799D01*
X173313140Y-76123799D01*
X173332926Y-76312057D01*
X173391420Y-76492084D01*
X173486066Y-76656016D01*
X173612729Y-76796689D01*
X173765869Y-76907951D01*
X173938797Y-76984944D01*
X174123952Y-77024300D01*
X174123954Y-77024300D01*
X174313248Y-77024300D01*
X174436684Y-76998062D01*
X174498403Y-76984944D01*
X174671330Y-76907951D01*
X174763321Y-76841116D01*
X174824470Y-76796689D01*
X174892906Y-76720684D01*
X174951133Y-76656016D01*
X175045779Y-76492084D01*
X175104274Y-76312056D01*
X175124060Y-76123800D01*
X175104274Y-75935544D01*
X175072171Y-75836742D01*
X175045779Y-75755515D01*
X174951133Y-75591583D01*
X174824470Y-75450910D01*
X174671330Y-75339648D01*
X174498402Y-75262655D01*
X174313248Y-75223300D01*
X174313246Y-75223300D01*
X174123954Y-75223300D01*
X174123952Y-75223300D01*
X173938797Y-75262655D01*
X173765869Y-75339648D01*
X173612729Y-75450910D01*
X173486066Y-75591583D01*
X173391420Y-75755515D01*
X173332926Y-75935542D01*
X173313140Y-76123799D01*
X150650500Y-76123799D01*
X150650500Y-72318264D01*
X152250745Y-72318264D01*
X152250896Y-72322594D01*
X152250896Y-72322600D01*
X152260601Y-72600524D01*
X152260601Y-72600532D01*
X152260753Y-72604859D01*
X152261504Y-72609119D01*
X152261505Y-72609127D01*
X152309797Y-72883004D01*
X152310550Y-72887272D01*
X152311886Y-72891386D01*
X152311888Y-72891391D01*
X152397826Y-73155881D01*
X152397829Y-73155889D01*
X152399167Y-73160006D01*
X152401068Y-73163904D01*
X152401069Y-73163906D01*
X152519146Y-73406000D01*
X152524879Y-73417753D01*
X152685238Y-73655496D01*
X152688133Y-73658711D01*
X152688136Y-73658715D01*
X152874224Y-73865387D01*
X152874230Y-73865392D01*
X152877125Y-73868608D01*
X152880443Y-73871392D01*
X152880445Y-73871394D01*
X152986963Y-73960773D01*
X153096803Y-74052940D01*
X153122274Y-74068856D01*
X153316386Y-74190151D01*
X153339998Y-74204905D01*
X153601975Y-74321545D01*
X153877636Y-74400589D01*
X154161615Y-74440500D01*
X154165948Y-74440500D01*
X154374454Y-74440500D01*
X154376604Y-74440500D01*
X154591071Y-74425503D01*
X154871575Y-74365880D01*
X155141050Y-74267799D01*
X155394253Y-74133169D01*
X155536253Y-74030000D01*
X161624540Y-74030000D01*
X161644326Y-74218257D01*
X161702820Y-74398284D01*
X161797466Y-74562216D01*
X161924129Y-74702889D01*
X162077269Y-74814151D01*
X162250197Y-74891144D01*
X162435352Y-74930500D01*
X162435354Y-74930500D01*
X162624648Y-74930500D01*
X162748084Y-74904262D01*
X162809803Y-74891144D01*
X162982730Y-74814151D01*
X163050227Y-74765112D01*
X163135870Y-74702889D01*
X163150666Y-74686457D01*
X163262533Y-74562216D01*
X163299493Y-74498200D01*
X175319740Y-74498200D01*
X175326012Y-74557872D01*
X175339526Y-74686457D01*
X175398020Y-74866484D01*
X175492666Y-75030416D01*
X175619329Y-75171089D01*
X175772469Y-75282351D01*
X175945397Y-75359344D01*
X176130552Y-75398700D01*
X176130554Y-75398700D01*
X176319848Y-75398700D01*
X176443283Y-75372462D01*
X176505003Y-75359344D01*
X176638290Y-75300000D01*
X179269540Y-75300000D01*
X179289326Y-75488257D01*
X179347820Y-75668284D01*
X179442466Y-75832216D01*
X179569129Y-75972889D01*
X179722269Y-76084151D01*
X179895197Y-76161144D01*
X180080352Y-76200500D01*
X180080354Y-76200500D01*
X180269648Y-76200500D01*
X180393083Y-76174262D01*
X180454803Y-76161144D01*
X180627730Y-76084151D01*
X180709145Y-76025000D01*
X180780870Y-75972889D01*
X180839605Y-75907658D01*
X180907533Y-75832216D01*
X181002179Y-75668284D01*
X181060674Y-75488256D01*
X181080460Y-75300000D01*
X181060674Y-75111744D01*
X181022762Y-74995063D01*
X181002179Y-74931715D01*
X180907533Y-74767783D01*
X180780870Y-74627110D01*
X180627730Y-74515848D01*
X180454802Y-74438855D01*
X180269648Y-74399500D01*
X180269646Y-74399500D01*
X180080354Y-74399500D01*
X180080352Y-74399500D01*
X179895197Y-74438855D01*
X179722269Y-74515848D01*
X179569129Y-74627110D01*
X179442466Y-74767783D01*
X179347820Y-74931715D01*
X179289326Y-75111742D01*
X179269540Y-75300000D01*
X176638290Y-75300000D01*
X176677930Y-75282351D01*
X176831071Y-75171088D01*
X176957733Y-75030416D01*
X177052379Y-74866484D01*
X177110874Y-74686456D01*
X177130660Y-74498200D01*
X177110874Y-74309944D01*
X177066140Y-74172268D01*
X177052379Y-74129915D01*
X176957733Y-73965983D01*
X176831070Y-73825310D01*
X176677930Y-73714048D01*
X176505002Y-73637055D01*
X176319848Y-73597700D01*
X176319846Y-73597700D01*
X176130554Y-73597700D01*
X176130552Y-73597700D01*
X175945397Y-73637055D01*
X175772469Y-73714048D01*
X175619329Y-73825310D01*
X175492666Y-73965983D01*
X175398020Y-74129915D01*
X175339526Y-74309942D01*
X175319740Y-74498199D01*
X175319740Y-74498200D01*
X163299493Y-74498200D01*
X163357179Y-74398284D01*
X163415674Y-74218256D01*
X163435460Y-74030000D01*
X163415674Y-73841744D01*
X163372330Y-73708345D01*
X163357179Y-73661715D01*
X163262533Y-73497783D01*
X163135870Y-73357110D01*
X162982730Y-73245848D01*
X162947135Y-73230000D01*
X166024540Y-73230000D01*
X166044326Y-73418257D01*
X166102820Y-73598284D01*
X166197466Y-73762216D01*
X166324129Y-73902889D01*
X166477269Y-74014151D01*
X166650197Y-74091144D01*
X166835352Y-74130500D01*
X166835354Y-74130500D01*
X167024648Y-74130500D01*
X167164092Y-74100860D01*
X167209803Y-74091144D01*
X167382730Y-74014151D01*
X167382729Y-74014151D01*
X167535870Y-73902889D01*
X167599912Y-73831764D01*
X167662533Y-73762216D01*
X167757179Y-73598284D01*
X167815674Y-73418256D01*
X167835460Y-73230000D01*
X167830217Y-73180120D01*
X167842786Y-73111393D01*
X167890518Y-73060369D01*
X167958258Y-73043251D01*
X168000990Y-73052599D01*
X168069764Y-73081087D01*
X168182280Y-73095900D01*
X168186333Y-73095900D01*
X168253667Y-73095900D01*
X168257720Y-73095900D01*
X168370236Y-73081087D01*
X168510233Y-73023098D01*
X168630451Y-72930851D01*
X168694639Y-72847200D01*
X169477740Y-72847200D01*
X169497526Y-73035457D01*
X169556020Y-73215484D01*
X169650666Y-73379416D01*
X169777329Y-73520089D01*
X169930469Y-73631351D01*
X170103397Y-73708344D01*
X170288552Y-73747700D01*
X170288554Y-73747700D01*
X170477848Y-73747700D01*
X170663000Y-73708345D01*
X170663001Y-73708344D01*
X170663003Y-73708344D01*
X170835930Y-73631351D01*
X170835935Y-73631346D01*
X170840762Y-73629198D01*
X170910012Y-73619912D01*
X170941635Y-73629198D01*
X170946468Y-73631350D01*
X170946470Y-73631351D01*
X171075160Y-73688648D01*
X171119397Y-73708344D01*
X171304552Y-73747700D01*
X171304554Y-73747700D01*
X171493848Y-73747700D01*
X171621804Y-73720502D01*
X171679003Y-73708344D01*
X171847188Y-73633461D01*
X171916438Y-73624177D01*
X171948060Y-73633462D01*
X172059197Y-73682944D01*
X172244352Y-73722300D01*
X172244354Y-73722300D01*
X172433648Y-73722300D01*
X172557084Y-73696062D01*
X172618803Y-73682944D01*
X172791730Y-73605951D01*
X172804760Y-73596484D01*
X172944870Y-73494689D01*
X173024726Y-73406000D01*
X177910540Y-73406000D01*
X177930326Y-73594257D01*
X177988820Y-73774284D01*
X178083466Y-73938216D01*
X178210129Y-74078889D01*
X178363269Y-74190151D01*
X178536197Y-74267144D01*
X178721352Y-74306500D01*
X178721354Y-74306500D01*
X178910648Y-74306500D01*
X179034083Y-74280262D01*
X179095803Y-74267144D01*
X179268730Y-74190151D01*
X179293457Y-74172186D01*
X179421870Y-74078889D01*
X179455987Y-74040999D01*
X179548533Y-73938216D01*
X179643179Y-73774284D01*
X179701674Y-73594256D01*
X179721460Y-73406000D01*
X179701674Y-73217744D01*
X179656431Y-73078500D01*
X179643179Y-73037715D01*
X179548533Y-72873783D01*
X179421870Y-72733110D01*
X179268730Y-72621848D01*
X179095802Y-72544855D01*
X178910648Y-72505500D01*
X178910646Y-72505500D01*
X178721354Y-72505500D01*
X178721352Y-72505500D01*
X178536197Y-72544855D01*
X178363269Y-72621848D01*
X178210129Y-72733110D01*
X178083466Y-72873783D01*
X177988820Y-73037715D01*
X177930326Y-73217742D01*
X177910540Y-73406000D01*
X173024726Y-73406000D01*
X173071533Y-73354016D01*
X173166179Y-73190084D01*
X173185864Y-73129500D01*
X173224674Y-73010056D01*
X173244460Y-72821800D01*
X173224674Y-72633544D01*
X173187522Y-72519203D01*
X173166179Y-72453515D01*
X173071533Y-72289583D01*
X172944870Y-72148910D01*
X172791730Y-72037648D01*
X172618802Y-71960655D01*
X172433648Y-71921300D01*
X172433646Y-71921300D01*
X172244354Y-71921300D01*
X172244352Y-71921300D01*
X172059197Y-71960655D01*
X171891012Y-72035537D01*
X171821762Y-72044822D01*
X171790142Y-72035538D01*
X171679003Y-71986056D01*
X171679002Y-71986055D01*
X171678998Y-71986054D01*
X171493848Y-71946700D01*
X171493846Y-71946700D01*
X171304554Y-71946700D01*
X171304552Y-71946700D01*
X171119401Y-71986054D01*
X170941636Y-72065201D01*
X170872386Y-72074485D01*
X170840764Y-72065201D01*
X170734078Y-72017701D01*
X170663003Y-71986056D01*
X170663002Y-71986055D01*
X170662998Y-71986054D01*
X170477848Y-71946700D01*
X170477846Y-71946700D01*
X170288554Y-71946700D01*
X170288552Y-71946700D01*
X170103397Y-71986055D01*
X169930469Y-72063048D01*
X169777329Y-72174310D01*
X169650666Y-72314983D01*
X169556020Y-72478915D01*
X169497526Y-72658942D01*
X169477740Y-72847200D01*
X168694639Y-72847200D01*
X168722698Y-72810633D01*
X168780687Y-72670636D01*
X168800466Y-72520400D01*
X168780687Y-72370164D01*
X168722698Y-72230167D01*
X168630451Y-72109949D01*
X168510233Y-72017702D01*
X168370236Y-71959713D01*
X168311356Y-71951961D01*
X168261739Y-71945429D01*
X168261737Y-71945428D01*
X168257720Y-71944900D01*
X168182280Y-71944900D01*
X168178263Y-71945428D01*
X168178260Y-71945429D01*
X168069764Y-71959713D01*
X167929768Y-72017701D01*
X167809549Y-72109949D01*
X167717301Y-72230168D01*
X167659312Y-72370164D01*
X167653277Y-72416006D01*
X167625009Y-72479903D01*
X167566684Y-72518373D01*
X167496819Y-72519203D01*
X167457453Y-72500137D01*
X167382730Y-72445848D01*
X167209802Y-72368855D01*
X167024648Y-72329500D01*
X167024646Y-72329500D01*
X166835354Y-72329500D01*
X166835352Y-72329500D01*
X166650197Y-72368855D01*
X166477269Y-72445848D01*
X166324129Y-72557110D01*
X166197466Y-72697783D01*
X166102820Y-72861715D01*
X166044326Y-73041742D01*
X166024540Y-73230000D01*
X162947135Y-73230000D01*
X162809802Y-73168855D01*
X162624648Y-73129500D01*
X162624646Y-73129500D01*
X162435354Y-73129500D01*
X162435352Y-73129500D01*
X162250197Y-73168855D01*
X162077269Y-73245848D01*
X161924129Y-73357110D01*
X161797466Y-73497783D01*
X161702820Y-73661715D01*
X161644326Y-73841742D01*
X161624540Y-74030000D01*
X155536253Y-74030000D01*
X155626254Y-73964610D01*
X155832539Y-73765403D01*
X156009093Y-73539425D01*
X156152477Y-73291075D01*
X156259903Y-73025187D01*
X156329279Y-72746935D01*
X156359255Y-72461736D01*
X156349247Y-72175141D01*
X156299450Y-71892728D01*
X156210833Y-71619994D01*
X156085121Y-71362247D01*
X155924762Y-71124504D01*
X155909916Y-71108016D01*
X155806355Y-70992999D01*
X158098540Y-70992999D01*
X158118326Y-71181257D01*
X158176820Y-71361284D01*
X158271466Y-71525216D01*
X158398129Y-71665889D01*
X158551269Y-71777151D01*
X158724197Y-71854144D01*
X158909352Y-71893500D01*
X158909354Y-71893500D01*
X159098648Y-71893500D01*
X159222083Y-71867262D01*
X159283803Y-71854144D01*
X159456730Y-71777151D01*
X159609871Y-71665888D01*
X159736533Y-71525216D01*
X159831179Y-71361284D01*
X159889674Y-71181256D01*
X159909460Y-70993000D01*
X159889674Y-70804744D01*
X159837704Y-70644798D01*
X159831179Y-70624715D01*
X159736533Y-70460783D01*
X159609870Y-70320110D01*
X159456730Y-70208848D01*
X159283802Y-70131855D01*
X159098648Y-70092500D01*
X159098646Y-70092500D01*
X158909354Y-70092500D01*
X158909352Y-70092500D01*
X158724197Y-70131855D01*
X158551269Y-70208848D01*
X158398129Y-70320110D01*
X158271466Y-70460783D01*
X158176820Y-70624715D01*
X158118326Y-70804742D01*
X158098540Y-70992999D01*
X155806355Y-70992999D01*
X155735775Y-70914612D01*
X155735769Y-70914606D01*
X155732875Y-70911392D01*
X155622050Y-70818399D01*
X155516516Y-70729845D01*
X155513197Y-70727060D01*
X155505290Y-70722119D01*
X155273671Y-70577387D01*
X155273664Y-70577383D01*
X155270002Y-70575095D01*
X155266055Y-70573337D01*
X155266050Y-70573335D01*
X155011972Y-70460212D01*
X155011968Y-70460210D01*
X155008025Y-70458455D01*
X155003878Y-70457266D01*
X155003873Y-70457264D01*
X154736516Y-70380601D01*
X154736508Y-70380599D01*
X154732364Y-70379411D01*
X154728081Y-70378809D01*
X154452677Y-70340103D01*
X154452674Y-70340102D01*
X154448385Y-70339500D01*
X154233396Y-70339500D01*
X154231279Y-70339648D01*
X154231251Y-70339649D01*
X154023250Y-70354194D01*
X154023238Y-70354195D01*
X154018929Y-70354497D01*
X154014694Y-70355397D01*
X154014688Y-70355398D01*
X153742668Y-70413218D01*
X153742666Y-70413218D01*
X153738425Y-70414120D01*
X153734357Y-70415600D01*
X153734352Y-70415602D01*
X153473023Y-70510718D01*
X153473016Y-70510720D01*
X153468950Y-70512201D01*
X153465126Y-70514234D01*
X153465122Y-70514236D01*
X153219568Y-70644798D01*
X153219553Y-70644807D01*
X153215747Y-70646831D01*
X153212247Y-70649373D01*
X153212242Y-70649377D01*
X152987253Y-70812841D01*
X152987244Y-70812848D01*
X152983746Y-70815390D01*
X152980637Y-70818392D01*
X152980629Y-70818399D01*
X152780575Y-71011589D01*
X152780569Y-71011595D01*
X152777461Y-71014597D01*
X152774798Y-71018005D01*
X152774793Y-71018011D01*
X152603575Y-71237159D01*
X152603569Y-71237167D01*
X152600907Y-71240575D01*
X152598745Y-71244318D01*
X152598740Y-71244327D01*
X152459688Y-71485173D01*
X152459681Y-71485186D01*
X152457523Y-71488925D01*
X152455907Y-71492924D01*
X152455900Y-71492939D01*
X152351719Y-71750796D01*
X152351714Y-71750808D01*
X152350097Y-71754813D01*
X152349050Y-71759010D01*
X152349049Y-71759015D01*
X152284552Y-72017701D01*
X152280721Y-72033065D01*
X152280270Y-72037350D01*
X152280268Y-72037365D01*
X152251197Y-72313954D01*
X152251196Y-72313968D01*
X152250745Y-72318264D01*
X150650500Y-72318264D01*
X150650500Y-71853479D01*
X150650695Y-71846527D01*
X150654591Y-71777151D01*
X150666455Y-71565891D01*
X150668009Y-71552092D01*
X150714510Y-71278412D01*
X150717598Y-71264880D01*
X150794450Y-70998119D01*
X150799040Y-70985006D01*
X150844003Y-70876456D01*
X150905268Y-70728545D01*
X150911290Y-70716039D01*
X151045574Y-70473072D01*
X151052969Y-70461304D01*
X151053744Y-70460212D01*
X151213605Y-70234908D01*
X151222260Y-70224054D01*
X151407245Y-70017057D01*
X151417057Y-70007245D01*
X151624054Y-69822260D01*
X151634908Y-69813605D01*
X151861309Y-69652965D01*
X151873072Y-69645574D01*
X152116039Y-69511290D01*
X152128545Y-69505268D01*
X152385006Y-69399039D01*
X152398119Y-69394450D01*
X152664880Y-69317598D01*
X152678412Y-69314510D01*
X152952092Y-69268009D01*
X152965891Y-69266455D01*
X153217663Y-69252316D01*
X153246529Y-69250695D01*
X153253481Y-69250500D01*
X153307583Y-69250500D01*
X161665289Y-69250500D01*
X161732328Y-69270185D01*
G37*
%TD.AperFunction*%
%TD*%
M02*
